<?xml version="1.0" encoding="UTF-8" standalone="no"?>
<!-- Created with Inkscape (http://www.inkscape.org/) -->

<svg
   xmlns:dc="http://purl.org/dc/elements/1.1/"
   xmlns:cc="http://creativecommons.org/ns#"
   xmlns:rdf="http://www.w3.org/1999/02/22-rdf-syntax-ns#"
   xmlns:svg="http://www.w3.org/2000/svg"
   xmlns="http://www.w3.org/2000/svg"
   version="1.1"
   width="335"
   height="65"
   id="svg11300">
  <metadata
     id="metadata16">
    <rdf:RDF>
      <cc:Work
         rdf:about="">
        <dc:format>image/svg+xml</dc:format>
        <dc:type
           rdf:resource="com.mkulesh.micromath" />
        <dc:title></dc:title>
      </cc:Work>
    </rdf:RDF>
  </metadata>
  <defs
     id="defs3" />
  <rect
     width="53.77887"
     height="54"
     rx="0"
     ry="0"
     x="65.410301"
     y="0.28100163"
     id="rect3644"
     style="fill:#ff8000;fill-opacity:1;stroke:none" />
  <g
     transform="matrix(0.18191764,0.22336433,-0.26958493,0.1708351,334.86196,-139.3942)"
     id="g3915-6-3-7">
    <path
       d="m 89.471,1065.9 c 3.7268,6.1263 -0.48379,10.049 -6.16,12.947 -8.0302,4.0988 -27.898,2.1019 -34.7,-2.0136 -6.2427,-3.777 -9.0128,-9.3495 -6.0403,-14.184"
       id="path3894-6-5-0"
       style="opacity:0.8;fill:#ffffff;stroke:#000000;stroke-width:4.06139994;stroke-linecap:round;stroke-linejoin:round" />
    <path
       d="m 21.354,1021 c -0.85728,15.682 13.892,40.298 31.364,46.018 9.0217,2.9538 29.326,3.8464 36.494,-1.431 12.273,-9.0365 18.48,-20.686 21.285,-35.088 0.99446,-5.1051 1.707,-10.986 0.95737,-15.702 -3.1898,-20.064 -14.951,-20.048 -19.514,-20.76 -2.7272,-8.7246 -12.699,-15.044 -26.068,-12.391 -0.1029,-10.746 0.22553,-17.365 1.1122,-27.536 1.4832,-17.013 -27.986,-20.845 -26.491,-0.0121 1.0183,14.187 0.02688,25.675 -2.4993,39 -3.4496,1.0381 -15.746,11.529 -16.641,27.901 z"
       id="path3112-2-1-9"
       style="opacity:0.8;fill:#ffffff;fill-opacity:1;stroke:#000000;stroke-width:4.06139994;stroke-linecap:round;stroke-linejoin:round;stroke-opacity:1" />
    <path
       d="m 63.838,981.04 c 0.0308,10.253 1.2148,18.225 7.2258,26.105 -2.5091,-6.5752 -3.3692,-19.666 -3.1766,-27.939 z"
       id="path3882-6-0-9"
       style="text-indent:0;text-transform:none;block-progression:tb;opacity:0.7;color:#000000" />
    <path
       d="m 93.471,992.23 -3.8091,1.4862 c 1.929,5.5768 4.0509,11.842 7.1137,15.183 -1.0804,-2.6051 -2.0771,-11.978 -3.3046,-16.669 z"
       id="path3884-6-5-0"
       style="text-indent:0;text-transform:none;block-progression:tb;opacity:0.7;color:#000000" />
    <path
       d="m 79.642,1058.3 c 4.0369,-9.6783 3.976,-12.465 5.1951,-17.405"
       id="path3886-8-8-3"
       style="opacity:0.9;fill:none;stroke:#000000;stroke-width:4.06139994;stroke-linecap:round;stroke-linejoin:round" />
    <path
       d="m 70.26,1059 c 1.6922,-11.475 1.4242,-17.152 1.8555,-24.898"
       id="path3888-4-1-5"
       style="opacity:0.9;fill:none;stroke:#000000;stroke-width:4.06139994;stroke-linecap:round;stroke-linejoin:round" />
    <path
       d="m 59.041,1059.5 c 0.0971,-7.9806 -0.59887,-11.754 -1.049,-16.831"
       id="path3890-1-7-5"
       style="opacity:0.9;fill:none;stroke:#000000;stroke-width:4.06139994;stroke-linecap:round;stroke-linejoin:round" />
    <path
       d="m 36.249,991.71 c -1.7026,12.092 -6.1967,31.682 -4.8107,38.213 1.185,-3.9899 8.356,-33.636 9.1333,-39.703 z"
       id="path3892-0-5-3"
       style="text-indent:0;text-transform:none;block-progression:tb;opacity:0.7;color:#000000" />
  </g>
  <g
     transform="translate(12.981635,2.9922527)"
     id="g3487">
    <g
       transform="translate(0,-1004.3622)"
       id="layer1">
      <text
         x="15.966964"
         y="1102.2946"
         transform="scale(1.0569305,0.946136)"
         id="text8206"
         xml:space="preserve"
         style="font-size:25.12223816px;font-style:normal;font-weight:normal;line-height:125%;letter-spacing:0px;word-spacing:0px;fill:#000000;fill-opacity:1;stroke:none;font-family:Sans"><tspan
           x="15.966964"
           y="1102.2946"
           id="tspan8208">,</tspan></text>
      <rect
         width="15.467106"
         height="29.467106"
         rx="1.8996531"
         ry="1.9622538"
         x="1.7338426"
         y="1013.6287"
         id="rect11518-5-1"
         style="color:#000000;fill:#353535;fill-opacity:0.8;fill-rule:evenodd;stroke:#1d1d1d;stroke-width:0.53289378;stroke-linejoin:bevel;stroke-miterlimit:10;stroke-opacity:0.8" />
      <rect
         width="15.467106"
         height="29.467106"
         rx="1.8996531"
         ry="1.9622538"
         x="30.659304"
         y="1013.6287"
         id="rect11518-5-1-4"
         style="color:#000000;fill:#353535;fill-opacity:0.8;fill-rule:evenodd;stroke:#1d1d1d;stroke-width:0.53289378;stroke-linejoin:bevel;stroke-miterlimit:10;stroke-opacity:0.8" />
    </g>
  </g>
  <g
     transform="translate(68.227556,2.4736691)"
     id="g3629">
    <text
       x="-1.9407928"
       y="32.209019"
       transform="scale(0.91651628,1.0910881)"
       id="text3080"
       xml:space="preserve"
       style="font-size:37.63205338px;font-style:normal;font-variant:normal;font-weight:bold;font-stretch:normal;text-align:start;line-height:125%;writing-mode:lr-tb;text-anchor:start;fill:#353535;fill-opacity:0.8;stroke:none;font-family:Arial;-inkscape-font-specification:Arial Bold"><tspan
         x="-1.9407928"
         y="32.209019"
         id="tspan3082">[...]</tspan></text>
  </g>
  <g
     transform="translate(238.58863,3.0006756)"
     id="g3208">
    <g
       transform="translate(0,-1004.3622)"
       id="layer1-17">
      <rect
         width="13.95173"
         height="29.493656"
         rx="1.899653"
         ry="1.9622538"
         x="33.738419"
         y="1013.6154"
         id="rect11518-5-7"
         style="color:#000000;fill:#353535;fill-opacity:0.8;fill-rule:evenodd;stroke:#1d1d1d;stroke-width:0.50634402;stroke-linejoin:bevel;stroke-miterlimit:10;stroke-opacity:0.8" />
      <rect
         width="13.95173"
         height="29.493656"
         rx="1.899653"
         ry="1.9622538"
         x="0.43484846"
         y="1013.6154"
         id="rect11518-5-1-42"
         style="color:#000000;fill:#353535;fill-opacity:0.8;fill-rule:evenodd;stroke:#1d1d1d;stroke-width:0.50634402;stroke-linejoin:bevel;stroke-miterlimit:10;stroke-opacity:0.8" />
      <path
         d="m 25.714285,25.053572 a 1.875,1.7857143 0 1 1 -3.75,0 1.875,1.7857143 0 1 1 3.75,0 z"
         transform="translate(0.1607151,1003.3086)"
         id="path4927"
         style="fill:#000000;fill-opacity:1;stroke:#000000;stroke-width:0.69999999;stroke-linecap:round;stroke-miterlimit:2.66666675;stroke-opacity:1;stroke-dasharray:none;stroke-dashoffset:0" />
    </g>
  </g>
  <g
     transform="translate(125.10581,3.0006754)"
     id="g4241">
    <rect
       width="13.95173"
       height="29.493656"
       rx="1.899653"
       ry="1.9622538"
       x="33.675919"
       y="9.2532177"
       id="rect11518-5-3"
       style="color:#000000;fill:#353535;fill-opacity:0.8;fill-rule:evenodd;stroke:#1d1d1d;stroke-width:0.50634402;stroke-linejoin:bevel;stroke-miterlimit:10;stroke-opacity:0.8" />
    <rect
       width="13.95173"
       height="29.493656"
       rx="1.899653"
       ry="1.9622538"
       x="0.37235004"
       y="9.2532177"
       id="rect11518-5-1-25"
       style="color:#000000;fill:#353535;fill-opacity:0.8;fill-rule:evenodd;stroke:#1d1d1d;stroke-width:0.50634402;stroke-linejoin:bevel;stroke-miterlimit:10;stroke-opacity:0.8" />
    <rect
       width="15.997672"
       height="1.9415474"
       x="16.001163"
       y="23.029226"
       id="rect3312"
       style="fill:#000000;fill-opacity:1;fill-rule:nonzero;stroke:none" />
    <rect
       width="15.997672"
       height="1.9415474"
       x="16.001163"
       y="-24.970774"
       transform="matrix(0,1,-1,0,0,0)"
       id="rect3312-2"
       style="fill:#000000;fill-opacity:1;fill-rule:nonzero;stroke:none" />
  </g>
  <g
     transform="translate(181.81597,3.0006754)"
     id="g4318">
    <rect
       width="13.95173"
       height="29.493656"
       rx="1.899653"
       ry="1.9622538"
       x="33.738419"
       y="9.2532177"
       id="rect11518-5-6"
       style="color:#000000;fill:#353535;fill-opacity:0.8;fill-rule:evenodd;stroke:#1d1d1d;stroke-width:0.50634402;stroke-linejoin:bevel;stroke-miterlimit:10;stroke-opacity:0.8" />
    <rect
       width="13.95173"
       height="29.493656"
       rx="1.899653"
       ry="1.9622538"
       x="0.43484846"
       y="9.2532177"
       id="rect11518-5-1-0"
       style="color:#000000;fill:#353535;fill-opacity:0.8;fill-rule:evenodd;stroke:#1d1d1d;stroke-width:0.50634402;stroke-linejoin:bevel;stroke-miterlimit:10;stroke-opacity:0.8" />
    <rect
       width="15.997672"
       height="1.9415474"
       x="16.001163"
       y="23.029226"
       id="rect3312-7"
       style="fill:#000000;fill-opacity:1;fill-rule:nonzero;stroke:none" />
  </g>
  <g
     transform="translate(284.02801,3.0007209)"
     id="g3097">
    <rect
       width="19.538784"
       height="17.473375"
       rx="1.484634"
       ry="1.1625279"
       x="14.230608"
       y="3.2268701"
       id="rect11518-5-1-8"
       style="color:#000000;fill:#353535;fill-opacity:0.8;fill-rule:evenodd;stroke:#1d1d1d;stroke-width:0.46121615;stroke-linejoin:bevel;stroke-miterlimit:10;stroke-opacity:0.8" />
    <rect
       width="19.538784"
       height="17.473375"
       rx="1.484634"
       ry="1.1625279"
       x="14.230608"
       y="27.299755"
       id="rect11518-5-1-2"
       style="color:#000000;fill:#353535;fill-opacity:0.8;fill-rule:evenodd;stroke:#1d1d1d;stroke-width:0.46121615;stroke-linejoin:bevel;stroke-miterlimit:10;stroke-opacity:0.8" />
    <rect
       width="24.970085"
       height="1.8190128"
       x="11.514957"
       y="23.090494"
       id="rect3076"
       style="fill:#000000;fill-opacity:1;fill-rule:nonzero;stroke:none" />
  </g>
</svg>
