<?xml version="1.0" encoding="UTF-8" standalone="no"?>
<svg
   xmlns:dc="http://purl.org/dc/elements/1.1/"
   xmlns:cc="http://creativecommons.org/ns#"
   xmlns:rdf="http://www.w3.org/1999/02/22-rdf-syntax-ns#"
   xmlns:svg="http://www.w3.org/2000/svg"
   xmlns="http://www.w3.org/2000/svg"
   version="1.1"
   width="503"
   height="503"
   id="svg4375">
  <metadata
     id="metadata38">
    <rdf:RDF>
      <cc:Work
         rdf:about="">
        <dc:format>image/svg+xml</dc:format>
        <dc:type
           rdf:resource="http://purl.org/dc/dcmitype/StillImage" />
        <dc:title></dc:title>
      </cc:Work>
    </rdf:RDF>
  </metadata>
  <defs
     id="defs4377">
    <marker
       refX="0"
       refY="0"
       orient="auto"
       id="Arrow2Mend"
       style="overflow:visible">
      <path
         d="M 8.7185878,4.0337352 -2.2072895,0.01601326 8.7185884,-4.0017078 c -1.7454984,2.3720609 -1.7354408,5.6174519 -6e-7,8.035443 z"
         transform="scale(-0.6)"
         id="path5396"
         style="font-size:12px;fill-rule:evenodd;stroke-width:0.625;stroke-linejoin:round" />
    </marker>
  </defs>
  <path
     style="fill:none;stroke:#000000;stroke-width:3.84918547;stroke-linecap:butt;stroke-linejoin:miter;stroke-miterlimit:4;stroke-dasharray:none;stroke-opacity:1"
     id="path5842"
     d="m 62.034107,260.84039 c 12.381824,-16.16565 20.998799,-28.71575 41.101243,-44.69695 20.10244,-15.9812 58.51456,-27.59684 95.48426,-28.20443 36.96486,-0.60751 88.87584,-8.44089 117.47273,-27.25086 28.5969,-18.80997 43.59075,-45.33535 64.64959,-67.23443 21.05884,-21.89909 28.26217,-28.86401 75.36042,-67.88459" />
  <path
     style="fill:none;stroke:#000000;stroke-width:3.06974506;stroke-linecap:butt;stroke-linejoin:miter;stroke-miterlimit:4;stroke-dasharray:none;stroke-opacity:1;marker-start:none;marker-end:url(#Arrow2Mend)"
     id="path4410-7"
     d="m 40.395401,490.10841 -1.004,-473.55878" />
  <path
     style="fill:none;stroke:#000000;stroke-width:4.02122879;stroke-linecap:butt;stroke-linejoin:miter;stroke-miterlimit:4;stroke-dasharray:none;stroke-opacity:1"
     id="path5842-7"
     d="m 60.129566,454.72831 c 13.282388,-16.44681 35.742754,-36.56283 60.936214,-43.35816 24.52697,-6.61556 46.57815,1.08991 83.78951,12.61761 43.36655,13.43452 70.57475,14.06526 101.72148,0.34586 31.14674,-13.71939 46.20193,-41.9882 73.1853,-55.6581 26.98336,-13.66989 57.4412,-15.63212 78.59145,3.23519" />
  <text
     style="font-style:normal;font-variant:normal;font-weight:normal;font-stretch:normal;font-size:40px;font-family:Sans;-inkscape-font-specification:Sans;fill:#000000;fill-opacity:1;stroke:#000000;stroke-opacity:1;"
     xml:space="preserve"
     id="text7570"
     y="153.71429"
     x="220.55524"><tspan
       style="stroke:#000000;stroke-opacity:1;"
       id="tspan7572"
       y="153.71429"
       x="220.55524">f(x)</tspan></text>
  <text
     style="font-style:normal;font-variant:normal;font-weight:normal;font-stretch:normal;font-size:40px;font-family:Sans;-inkscape-font-specification:Sans;fill:#000000;fill-opacity:1;stroke:#000000;stroke-opacity:1;"
     xml:space="preserve"
     id="text7574"
     y="478"
     x="214.28571"><tspan
       style="stroke:#000000;stroke-opacity:1;"
       id="tspan7576"
       y="478"
       x="214.28571">g(x)</tspan></text>
  <text
     style="font-style:normal;font-variant:normal;font-weight:normal;font-stretch:normal;font-size:40px;font-family:Sans;-inkscape-font-specification:Sans;fill:#000000;fill-opacity:1;stroke:#000000;stroke-opacity:1;"
     xml:space="preserve"
     id="text7578"
     y="263.99969"
     x="116.42858"><tspan
       style="stroke:#000000;stroke-opacity:1;"
       id="tspan7580"
       y="263.99969"
       x="116.42858">a</tspan></text>
  <text
     style="font-style:normal;font-variant:normal;font-weight:normal;font-stretch:normal;font-size:40px;font-family:Sans;-inkscape-font-specification:Sans;fill:#000000;fill-opacity:1;stroke:#000000;stroke-opacity:1;"
     xml:space="preserve"
     id="text7582"
     y="263.99969"
     x="383.57144"><tspan
       style="stroke:#000000;stroke-opacity:1;"
       id="tspan7584"
       y="263.99969"
       x="383.57144">b</tspan></text>
  <rect
     style="opacity:0.9;fill:#000000;fill-opacity:1;stroke:#000000;stroke-opacity:1"
     id="rect7713"
     y="719.42859"
     x="623.57141"
     height="2.8571429"
     width="0.71428573" />
  <path
     style="fill:#000000;fill-opacity:0.5;stroke:#000000;stroke-opacity:1"
     id="path7725"
     d="m 145.08108,195.93265 -0.0257,213.95551 c 16.69433,1.0902 34.87789,7.11974 59.9362,14.88255 43.36655,13.4345 70.57475,14.0653 101.72148,0.3459 31.14674,-13.7194 46.20193,-41.9882 73.1853,-55.6581 0.063,-0.0319 0.12606,-0.0638 0.18912,-0.0956 l 0.41339,-273.49259 c -20.64434,21.73572 -36.03685,47.02857 -64.27225,65.60079 -28.59689,18.81 -80.50787,26.6433 -117.47273,27.2509 -18.34048,0.30138 -37.03596,2.30184 -53.67481,7.21064 z" />
  <path
     style="fill:none;stroke:#000000;stroke-width:3.06974506;stroke-linecap:butt;stroke-linejoin:miter;stroke-miterlimit:4;stroke-dasharray:none;stroke-opacity:1;marker-start:none;marker-end:url(#Arrow2Mend)"
     id="path4410"
     d="m 15.013846,270.74077 473.558794,-1.004" />
  <path
     style="fill:none;stroke:#000000;stroke-width:2;stroke-linecap:butt;stroke-linejoin:miter;stroke-miterlimit:4;stroke-dasharray:12, 12;stroke-dashoffset:0;stroke-opacity:1"
     id="path7566"
     d="M 145.71414,134.28564 V 454.28561" />
  <path
     style="fill:none;stroke:#000000;stroke-width:2.1439178;stroke-linecap:butt;stroke-linejoin:miter;stroke-miterlimit:4;stroke-dasharray:12.86350679, 12.86350679000000063;stroke-dashoffset:0;stroke-opacity:1"
     id="path7568"
     d="M 380.2858,50.07291 V 417.78348" />
  <text
     style="font-style:normal;font-variant:normal;font-weight:normal;font-stretch:normal;font-size:40px;font-family:Sans;-inkscape-font-specification:Sans;fill:#000000;fill-opacity:1;stroke:#000000;stroke-opacity:1;"
     xml:space="preserve"
     id="text7853"
     y="58.714287"
     x="50.714287"><tspan
       style="stroke:#000000;stroke-opacity:1;"
       id="tspan7855"
       y="58.714287"
       x="50.714287">y</tspan></text>
  <text
     style="font-style:normal;font-variant:normal;font-weight:normal;font-stretch:normal;font-size:40px;font-family:Sans;-inkscape-font-specification:Sans;fill:#000000;fill-opacity:1;stroke:#000000;stroke-opacity:1;"
     xml:space="preserve"
     id="text7857"
     y="308.71429"
     x="453.57144"><tspan
       style="stroke:#000000;stroke-opacity:1;"
       id="tspan7859"
       y="308.71429"
       x="453.57144">x</tspan></text>
</svg>
