<?xml version="1.0" encoding="UTF-8" standalone="no"?>
<!-- Created with Inkscape (http://www.inkscape.org/) -->

<svg
   xmlns:dc="http://purl.org/dc/elements/1.1/"
   xmlns:cc="http://creativecommons.org/ns#"
   xmlns:rdf="http://www.w3.org/1999/02/22-rdf-syntax-ns#"
   xmlns:svg="http://www.w3.org/2000/svg"
   xmlns="http://www.w3.org/2000/svg"
   version="1.1"
   width="174.35526"
   height="171.46941"
   id="svg3148">
  <defs
     id="defs3150" />
  <metadata
     id="metadata3153">
    <rdf:RDF>
      <cc:Work
         rdf:about="">
        <dc:format>image/svg+xml</dc:format>
        <dc:type
           rdf:resource="http://purl.org/dc/dcmitype/StillImage" />
        <dc:title></dc:title>
      </cc:Work>
    </rdf:RDF>
  </metadata>
  <g
     transform="translate(-142.86191,-293.40275)"
     id="layer1">
    <g
       transform="matrix(1.1842105,0,0,1.1842105,136.94086,351.86971)"
       id="g3111">
      <circle
         cx="24"
         cy="24"
         r="17"
         id="circle3081"
         style="fill:#ffffff" />
      <g
         id="g3083">
        <path
           d="m 21,41 v -5.5 c 0,-0.276 0.224,-0.5 0.5,-0.5 0.276,0 0.5,0.224 0.5,0.5 V 41 h 2 v -6.5 c 0,-0.276 0.224,-0.5 0.5,-0.5 0.276,0 0.5,0.224 0.5,0.5 V 41 h 2 v -5.5 c 0,-0.276 0.224,-0.5 0.5,-0.5 0.276,0 0.5,0.224 0.5,0.5 V 41 h 1.758 C 29.914,40.725 30,40.373 30,39.921 v -3.942 c 0,-2.161 -1.91,-5.231 -4.251,-5.231 H 23.25 c -2.34,0 -4.25,3.071 -4.25,5.231 v 3.942 c 0,0.452 0.086,0.804 0.241,1.079 H 21 z"
           id="path3085"
           style="fill:#455a64" />
        <path
           d="m 34.618,26.197 c 0,0 1.914,-0.328 3.044,-0.308 1.143,0.011 2.438,0.363 2.438,0.363"
           id="path3087"
           style="fill:none;stroke:#455a64;stroke-width:0.25;stroke-linecap:round;stroke-linejoin:round;stroke-miterlimit:10" />
        <path
           d="m 34.136,26.814 c 0,0 2.186,-0.203 3.087,-0.175 1.252,0.032 2.592,0.417 2.592,0.417"
           id="path3089"
           style="fill:none;stroke:#455a64;stroke-width:0.25;stroke-linecap:round;stroke-linejoin:round;stroke-miterlimit:10" />
        <path
           d="m 14.564,26.089 c 0,0 -2.708,-0.245 -3.554,-0.245 -0.848,0 -2.452,0.245 -3.224,0.466"
           id="path3091"
           style="fill:none;stroke:#455a64;stroke-width:0.25;stroke-linecap:round;stroke-linejoin:round;stroke-miterlimit:10" />
        <path
           d="m 15.179,26.934 c 0,0 -2.839,-0.263 -4.131,-0.108 -1.545,0.183 -2.894,0.992 -2.894,0.992"
           id="path3093"
           style="fill:none;stroke:#455a64;stroke-width:0.25;stroke-linecap:round;stroke-linejoin:round;stroke-miterlimit:10" />
        <path
           d="M 14.174,23.46 C 14.174,19.044 18.793,15 24.5,15 30.197,15 34.826,19.042 34.826,23.46 34.826,27.879 31.513,31 24.5,31 17.488,31 14.174,27.879 14.174,23.46 z"
           id="path3095"
           style="fill:#455a64" />
        <path
           d="m 28.586,16.311 c 0,0 1.677,-2.312 4.77,-2.312 1.232,1.231 0.385,4.76 -0.018,5.819 l -4.752,-3.507 z"
           id="path3097"
           style="fill:#455a64" />
        <path
           d="m 20.403,16.312 c 0,0 -1.677,-2.312 -4.758,-2.312 -1.231,1.233 -0.396,4.76 0.006,5.819 l 4.752,-3.507 z"
           id="path3099"
           style="fill:#455a64" />
        <path
           d="m 20.106,35.863 c 0,0 -2.349,0 -2.79,0 -1.22,0 -2.3,-0.534 -2.823,-1.505 -0.587,-1.079 -1.14,-2.3 -2.585,-3.309 -0.255,-0.179 -0.108,-0.438 0.393,-0.38 0.489,0.051 1.416,0.159 2.126,1.088 0.708,0.93 1.481,1.997 2.81,1.997 1.316,0 2.747,0.035 3.468,-0.918 l -0.599,3.027 z"
           id="path3101"
           style="fill:#455a64" />
      </g>
      <path
         d="M 24,5 C 13.504,5 5,13.504 5,24 5,34.496 13.504,43 24,43 34.496,43 43,34.496 43,24 43,13.504 34.496,5 24,5 z m 0,35.033 C 15.162,40.033 7.967,32.838 7.967,24 7.967,15.162 15.162,7.967 24,7.967 c 8.838,0 16.033,7.195 16.033,16.033 0,8.838 -7.195,16.033 -16.033,16.033 z"
         id="path3103"
         style="fill:#00bcd4" />
    </g>
    <g
       transform="matrix(1.125,0,0,1.0714286,268.84216,354.57648)"
       id="g3332">
      <path
         d="m 6,25 c 0,0 4.208,2 18,2 13.792,0 18,-2 18,-2 V 21 H 6 v 4 z"
         id="path3300"
         style="fill:#afb42b" />
      <path
         d="m 40,25 c 1.688,0.625 2,2 2,2 0,4.188 -1.311,5.678 -2,6 -0.938,0.438 -4,1 -4,1 l 1,-12 h 3 v 3 z M 8,25 c -1.688,0.625 -2,2 -2,2 0,4.188 1.311,5.678 2,6 0.938,0.438 4,1 4,1 L 11,22 H 8 v 3 z"
         id="path3302"
         style="fill:#ffcc80" />
      <ellipse
         cx="24"
         cy="28"
         rx="15"
         ry="17"
         id="ellipse3304"
         style="fill:#ffe0b2" />
      <ellipse
         cx="24"
         cy="39"
         rx="4"
         ry="3"
         id="ellipse3306"
         style="fill:#ffb74d" />
      <path
         d="m 40,22 -2,9 -3,2 -7,-2 -2,-4 h -2 -2 l -2,4 -7,2 -3,-2 -2,-9 c 0,0 6.375,-2 16,-2 9.625,0 16,2 16,2 z"
         id="path3308"
         style="fill:#bcaaa4" />
      <path
         d="m 34,28.89 c -0.58,-0.294 -1.214,0.078 -2.369,0.101 -0.86,0.032 -1.581,0.042 -1.628,-1.372 -0.047,-1.416 0.502,-2.588 1.362,-2.619 0.859,-0.031 1.644,1.09 1.749,2.503 0.029,0.39 -0.012,0.673 -0.104,0.884 0.799,-0.099 0.982,0.469 0.99,0.503 l 0,0 0,0 z M 19,27.722 c 0.013,1.373 -0.714,1.29 -1.589,1.299 -0.089,0.003 -0.172,0.004 -0.256,0.004 -0.097,0.003 -0.192,0.004 -0.282,0.002 -0.85,-0.002 -1.391,-0.04 -1.872,0.219 0.011,-0.03 0.222,-0.501 0.985,-0.693 -0.084,-0.185 -0.137,-0.443 -0.151,-0.801 -0.053,-1.373 0.794,-2.743 1.669,-2.752 0.874,-0.008 1.484,1.103 1.497,2.476 l 0,0 -0.001,0.246 0,0 z"
         id="path3310"
         style="fill:#263238" />
      <path
         d="M 18,26.5 C 18,26.776 17.776,27 17.5,27 17.224,27 17,26.776 17,26.5 17,26.224 17.224,26 17.5,26 17.776,26 18,26.224 18,26.5 z M 31.5,26 C 31.224,26 31,26.224 31,26.5 31,26.776 31.224,27 31.5,27 31.776,27 32,26.776 32,26.5 32,26.224 31.776,26 31.5,26 z"
         id="path3312"
         style="fill:#ffffff" />
      <path
         d="M 39.749,23.601 C 39.482,23.517 34.75,21 24,21 13.25,21 8.518,23.517 8.251,23.601 L 7.375,23.875 9.111,31.609 12.83,34.088 20.697,31.84 22.618,28 H 24 25.382 l 1.921,3.841 7.867,2.248 3.719,-2.479 1.736,-7.734 -0.876,-0.275 z M 37.111,30.391 34.83,31.912 28.697,30.16 26.618,26 H 24 21.382 L 19.303,30.159 13.17,31.911 10.889,30.39 9.734,25.266 C 11.78,24.743 15.125,23 24,23 c 8.875,0 12.22,1.743 14.267,2.267 l -1.156,5.124 z"
         id="path3314"
         style="fill:#546e7a" />
      <path
         d="M 8,19 C 8,10.163 15.163,3 24,3 c 8.837,0 16,7.163 16,16 0,0 -8.163,-2 -17,-2 -8.837,0 -15,2 -15,2 z"
         id="path3316"
         style="fill:#d4e157" />
      <path
         d="m 43,17 c 0,0 -4.785,-4 -19,-4 -14.215,0 -19,4 -19,4 0,5.216 1,8 1,8 0,0 3.806,-4 18,-4 14.194,0 18,4 18,4 0,0 1,-3.036 1,-8 z"
         id="path3318"
         style="fill:#d4e157" />
      <path
         d="m 40,34 -3,5 c -0.313,0.469 -0.782,0.811 -1.323,0.966 l -5.027,1.943 c -0.714,0.204 -1.483,0.062 -2.077,-0.384 L 24,39 19.428,41.525 c -0.594,0.446 -1.363,0.588 -2.077,0.384 L 12.324,39.966 C 11.782,39.811 11.313,39.469 11,39 l -3,-5 4,2 h 4 l 5.151,-3.104 C 21.534,34.112 22.657,35 24,35 c 1.33,0 2.445,-0.872 2.838,-2.07 L 32,36 h 4 l 4,-2 z M 26.758,21.055 C 25.884,21.02 24.968,21 24,21 14.06,21 9.218,22.961 7.207,24.136 6.487,25.261 3.653,29.768 3,32 7.033,26.232 14.585,22.927 18.104,21.636 16.947,22.483 14.861,24.097 13,26 16.688,23.447 25.217,21.409 26.758,21.055 z m 1.396,0.072 C 27.232,22.174 25.528,23.692 22,26 27.959,25.821 34.358,22.355 34.942,22.032 33.126,21.63 30.888,21.298 28.154,21.127 z"
         id="path3320"
         style="fill:#bf360c" />
      <polygon
         points="26,17 26,15 25,15 25,10 26,10 26,11 28,11 28,8 20,8 20,11 22,11 22,10 23,10 23,15 22,15 22,17 "
         id="polygon3322"
         style="fill:#bf360c" />
      <path
         d="M 39.531,15.253 C 39.355,14.532 39.146,13.823 38.878,13.142 37.528,12.678 36.044,12.069 33,11.633 v 5.88 C 31.164,17.331 27.378,17 24,17 c -3.378,0 -7.164,0.331 -9,0.514 V 11.661 C 12.697,12.07 10.428,12.725 9.112,13.17 8.849,13.842 8.643,14.541 8.469,15.253 9.633,14.821 11.13,14.377 13,13.998 v 6.001 C 15.775,19.416 19.371,19 24,19 c 4.629,0 8.225,0.416 11,0.999 v -6.001 c 1.869,0.379 3.367,0.823 4.531,1.255 z"
         id="path3324"
         style="fill:#afb42b" />
    </g>
    <g
       transform="translate(156.60668,294.49488)"
       id="g3499">
      <polygon
         points="29,8 43,19 29,30 "
         id="polygon3501"
         style="fill:#00bcd4" />
      <path
         d="m 5,40 h 8 C 13,30.626 20.626,23 30,23 V 15 C 16.215,15 5,26.215 5,40 z"
         id="path3503"
         style="fill:#00bcd4" />
    </g>
    <g
       transform="translate(266.71429,304.0914)"
       id="g3602">
      <polygon
         points="29,43 18,29 40,29 "
         id="polygon3604"
         style="fill:#00bcd4" />
      <path
         d="m 8,5 v 7.998 C 17.375,13 25,20.625 25,30 h 8 C 33,16.215 21.785,4.998 8,5 z"
         id="path3606"
         style="fill:#00bcd4" />
    </g>
    <path
       d="m 251.91968,306.95133 c 0,-0.16499 -0.0724,-0.33002 -0.21755,-0.45613 -0.29035,-0.25225 -0.75971,-0.25225 -1.05006,0 l -2.6585,2.30963 c -0.6906,-0.91352 -1.59461,-1.52257 -2.61789,-1.69096 -1.43689,-3.25083 -3.96445,-5.55672 -7.00086,-6.09477 -0.22946,-0.9006 -0.92301,-1.67067 -1.88836,-2.07904 l 0.59464,-1.20585 c 0.59555,-1.20705 1.77162,-2.10777 3.22559,-2.46839 l 2.40324,-0.596 c 0.39505,-0.0981 0.61972,-0.45826 0.50907,-0.7976 -0.11213,-0.34257 -0.52231,-0.54221 -0.91662,-0.44478 l -2.40323,0.59724 c -1.88616,0.46901 -3.41055,1.63535 -4.18283,3.20174 l -0.66281,1.34066 c -1.36189,-0.28449 -2.75296,-0.48166 -4.16832,-0.57456 l -0.57869,-4.02328 c -0.0505,-0.35353 -0.42267,-0.60396 -0.8296,-0.55945 -0.37575,0.0406 -0.64976,0.31821 -0.64976,0.63884 0,0.0265 10e-4,0.0535 0.006,0.0806 l 0.54679,3.80655 c -0.1797,-0.004 -0.35834,-0.0164 -0.53953,-0.0164 -1.97452,0 -3.88704,0.18778 -5.70859,0.53551 l -0.45396,-0.65647 c -0.79605,-1.1535 -2.04393,-2.02246 -3.51276,-2.44824 l -6.60636,-1.91273 c -0.38911,-0.1129 -0.80988,0.069 -0.93983,0.40699 -0.0267,0.0677 -0.0377,0.13703 -0.0377,0.20413 0,0.27031 0.19649,0.52144 0.50763,0.61111 l 6.60636,1.91273 c 1.13318,0.32901 2.09515,1.0004 2.70927,1.89004 l 0.2219,0.32257 c -8.55306,2.11153 -14.70659,7.86497 -14.70659,14.61761 0,6.75263 6.15353,12.50542 14.70658,14.6176 l -0.22189,0.32256 c -0.61412,0.88965 -1.57683,1.56103 -2.70927,1.89005 l -6.60636,1.91272 c -0.31115,0.0903 -0.50763,0.34207 -0.50763,0.61238 0,0.0671 0.0117,0.13512 0.0377,0.20286 0.12921,0.33741 0.54998,0.51989 0.93983,0.40699 l 6.60636,-1.91272 c 1.46957,-0.42579 2.71671,-1.29474 3.51276,-2.44823 l 0.45396,-0.65648 c 1.82155,0.34772 3.73407,0.53551 5.70859,0.53551 0.18119,0 0.35979,-0.0119 0.54098,-0.0151 l -0.54678,3.80654 c -0.004,0.0271 -0.006,0.0542 -0.006,0.0806 0,0.32064 0.27401,0.59819 0.64976,0.63883 0.40693,0.0439 0.7791,-0.20717 0.8296,-0.56071 l 0.57869,-4.02327 c 1.41536,-0.0929 2.80717,-0.28881 4.16832,-0.57332 l 0.66136,1.34068 c 0.77228,1.56639 2.29667,2.73272 4.18282,3.20173 l 2.40323,0.59599 c 0.39431,0.0974 0.80376,-0.10032 0.91663,-0.44353 0.11139,-0.33999 -0.11402,-0.69953 -0.50908,-0.7976 l -2.40323,-0.59599 c -1.45398,-0.36128 -2.6293,-1.26135 -3.22559,-2.4684 l -0.59609,-1.20584 c 0.96535,-0.40773 1.65964,-1.17909 1.88836,-2.07905 3.01785,-0.53934 5.54426,-2.85558 6.98635,-6.09351 1.02922,-0.16579 1.93882,-0.7761 2.63239,-1.69348 l 2.6585,2.30963 c 0.29035,0.25225 0.75971,0.25225 1.05006,0 0.29035,-0.25225 0.29035,-0.66001 0,-0.91226 l -2.97033,-2.58054 c -0.009,-0.008 -0.0208,-0.0105 -0.0304,-0.0176 0.44183,-0.97803 0.69471,-2.13902 0.69471,-3.39704 0,-1.25801 -0.25292,-2.41902 -0.69327,-3.39705 0.009,-0.007 0.0215,-0.01 0.0304,-0.0176 l 2.97033,-2.58054 c 0.14517,-0.12612 0.21755,-0.29113 0.21755,-0.45612 z m -4.01023,6.45135 c 0,2.06508 -0.80679,3.88865 -1.93477,4.65959 0.44183,-1.44317 0.68747,-3.01514 0.68747,-4.65959 0,-1.64445 -0.23641,-3.21282 -0.67007,-4.64824 1.11907,0.77673 1.91737,2.59219 1.91737,4.64824 z m -2.73247,0 c 0,5.40946 -2.90131,10.0939 -6.71223,11.0429 l 0,-22.0921 c 3.82429,0.94383 6.71223,5.59265 6.71223,11.0492 z m -8.1974,-11.74348 0,11.09835 -18.47606,0 c -0.4099,0 -0.74258,0.28837 -0.74258,0.64513 0,0.35676 0.33268,0.64514 0.74258,0.64514 l 18.47606,0 0,11.09834 c 0,0.77673 -0.61323,1.46614 -1.49097,1.6771 -2.13789,0.51223 -4.37537,0.7724 -6.64841,0.7724 -11.26867,0 -20.43549,-6.36684 -20.43549,-14.19298 0,-7.82613 9.16682,-14.19297 20.43549,-14.19297 2.27378,0 4.50978,0.26016 6.64841,0.77239 0.87699,0.21032 1.49097,0.90036 1.49097,1.6771 z m -1.92897,23.40632 c 0.0146,-0.0827 0.0109,-0.16872 -0.0145,-0.25453 -0.10025,-0.34515 -0.50484,-0.55392 -0.90212,-0.46747 -0.56287,0.12515 -1.13886,0.22864 -1.71286,0.31122 -0.36387,0.0516 -0.62221,0.32601 -0.62221,0.63632 0,0.0349 0.004,0.0691 0.0102,0.10458 0.0668,0.3516 0.4481,0.5898 0.85281,0.53173 0.61486,-0.0877 1.23317,-0.2004 1.83615,-0.33264 0.29852,-0.0663 0.50897,-0.28121 0.55258,-0.52921 z m -4.6919,-23.76921 c 0.0468,-0.36514 -0.26744,-0.66773 -0.67586,-0.69805 -0.40842,-0.0309 -0.7686,0.23171 -0.8035,0.58717 l -0.12763,1.28649 c -0.002,0.0187 -0.003,0.0373 -0.003,0.0554 0,0.33159 0.29188,0.61358 0.67877,0.64261 0.40842,0.0309 0.76859,-0.23171 0.80349,-0.58718 l 0.12763,-1.28649 z m -0.71647,24.2518 c 0,-0.35676 -0.33267,-0.64514 -0.74258,-0.64514 -2.55225,0 -5.00664,-0.37451 -7.29528,-1.11513 -0.38466,-0.12386 -0.81102,0.0451 -0.95434,0.37928 -0.0319,0.0735 -0.0478,0.15006 -0.0478,0.22553 0,0.26128 0.18591,0.50741 0.48442,0.60482 2.45498,0.79416 5.08333,1.19703 7.81306,1.19703 0.4099,-6.5e-4 0.74258,-0.28963 0.74258,-0.64639 z m -3.48665,-22.97665 -0.25962,-1.27137 c -0.072,-0.3503 -0.45609,-0.58358 -0.86006,-0.52164 -0.36015,0.0555 -0.61349,0.32671 -0.61349,0.63378 0,0.0374 0.003,0.0747 0.0102,0.11341 l 0.25961,1.27011 c 0.072,0.35096 0.4561,0.58549 0.86006,0.52291 0.40322,-0.0626 0.67389,-0.39173 0.60335,-0.7472 z m -3.87245,1.15545 c -0.004,-0.0837 -0.0251,-0.16868 -0.0682,-0.24948 l -0.62945,-1.16931 c -0.17377,-0.32322 -0.61565,-0.46219 -0.98769,-0.31123 -0.26955,0.10967 -0.42786,0.34144 -0.42786,0.58465 0,0.0916 0.0221,0.18379 0.0696,0.27217 l 0.62946,1.16931 c 0.17376,0.32321 0.6164,0.46219 0.98769,0.31123 0.27847,-0.11323 0.43678,-0.35613 0.42641,-0.60734 z m -3.43299,1.98203 c 0.0164,-0.16452 -0.0394,-0.3348 -0.17114,-0.47125 l -0.95578,-0.98786 c -0.26361,-0.27289 -0.73304,-0.3078 -1.04715,-0.0781 -0.17525,0.12774 -0.26397,0.30943 -0.26397,0.49393 0,0.14646 0.0575,0.29453 0.17405,0.41582 l 0.95433,0.98786 c 0.26361,0.27289 0.73304,0.30778 1.04715,0.0781 0.15743,-0.11516 0.24609,-0.27398 0.26251,-0.43849 z m -2.57437,7.69374 c 0,-0.35676 -0.33268,-0.64513 -0.74258,-0.64513 l -2.97033,0 c -0.4099,0 -0.74258,0.28837 -0.74258,0.64513 0,0.35676 0.33268,0.64514 0.74258,0.64514 l 2.97033,0 c 0.4099,0 0.74258,-0.28838 0.74258,-0.64514 z m -0.18129,-5.25306 c -0.0333,-0.16241 -0.13783,-0.3142 -0.30603,-0.41581 l -1.2183,-0.73964 c -0.33639,-0.20387 -0.79871,-0.13284 -1.0341,0.15876 -0.0906,0.1129 -0.13343,0.2421 -0.13343,0.36919 0,0.20322 0.11119,0.40406 0.31762,0.52921 l 1.21685,0.73964 c 0.33639,0.20387 0.79871,0.13283 1.0341,-0.15877 0.1177,-0.14676 0.15652,-0.32017 0.12329,-0.48258 z"
       id="path3687"
       style="fill:#00bcd4;fill-opacity:1" />
    <path
       d="m 211.41973,429.87216 c -2.46376,0 -4.5,1.86323 -4.5,4.11766 l 0,26.76468 c 0,2.25443 2.03624,4.11766 4.5,4.11766 l 36,0 c 2.46375,0 4.5,-1.86323 4.5,-4.11766 l 0,-26.76468 c 0,-2.25443 -2.03625,-4.11766 -4.5,-4.11766 l -36,0 z m 0,4.11766 36,0 0,26.76468 -36,0 0,-26.76468 z m 12.58593,2.57352 c -0.14422,0.0227 -0.29082,0.052 -0.42187,0.12866 -0.52425,0.30677 -0.6165,0.93575 -0.28125,1.41546 l 1.26562,1.86579 c -1.179,1.11177 -1.89843,2.63891 -1.89843,4.31068 l 13.5,0 c 0,-1.67177 -0.71944,-3.19891 -1.89844,-4.31068 l 1.26562,-1.86579 c 0.33525,-0.47971 0.24075,-1.10869 -0.28125,-1.41546 -0.52199,-0.30675 -1.28193,-0.15584 -1.61718,0.32171 l -1.19532,1.73713 c -0.91124,-0.41588 -1.93669,-0.64338 -3.02343,-0.64338 -1.08675,0 -2.11444,0.22543 -3.02344,0.64338 l -1.19531,-1.73713 c -0.25145,-0.35978 -0.76288,-0.51853 -1.19532,-0.45037 z m -4.71093,9.77941 c -0.62101,0 -1.125,0.46118 -1.125,1.02941 l 0,4.11766 c 0,0.56822 0.50399,1.02939 1.125,1.02939 0.621,0 1.125,-0.46117 1.125,-1.02939 l 0,-4.11766 c 0,-0.56823 -0.504,-1.02941 -1.125,-1.02941 z m 3.375,0 0,6.17646 c 0,1.13647 1.008,2.05883 2.25,2.05883 l 0,3.08823 c 0,0.56823 0.50399,1.02941 1.125,1.02941 0.621,0 1.125,-0.46118 1.125,-1.02941 l 0,-3.08823 4.5,0 0,3.08823 c 0,0.56823 0.50399,1.02941 1.125,1.02941 0.621,0 1.125,-0.46118 1.125,-1.02941 l 0,-3.08823 c 1.24199,0 2.25,-0.92236 2.25,-2.05883 l 0,-6.17646 -13.5,0 z m 16.875,0 c -0.62101,0 -1.125,0.46118 -1.125,1.02941 l 0,4.11766 c 0,0.56822 0.50399,1.02939 1.125,1.02939 0.621,0 1.125,-0.46117 1.125,-1.02939 l 0,-4.11766 c 0,-0.56823 -0.504,-1.02941 -1.125,-1.02941 z"
       id="path4530"
       style="fill:#00bcd4;fill-opacity:1" />
    <g
       transform="translate(255.60253,418.7351)"
       id="g4609">
      <polygon
         points="5,29 19,18 19,40 "
         id="polygon4611"
         style="fill:#00bcd4" />
      <path
         d="m 43,8 h -8 c 0,9.374 -7.626,17 -17,17 v 8 C 31.785,33 43,21.785 43,8 z"
         id="path4613"
         style="fill:#00bcd4" />
    </g>
    <g
       transform="translate(146,408.12842)"
       id="g4698">
      <polygon
         points="30,19 8,19 19,5 "
         id="polygon4700"
         style="fill:#00bcd4" />
      <path
         d="M 40,43 V 35.001 C 30.625,35 23,27.375 23,18 h -8 c 0,13.785 11.215,25.001 25,25 z"
         id="path4702"
         style="fill:#00bcd4" />
    </g>
  </g>
</svg>
