<?xml version="1.0" encoding="UTF-8" standalone="no"?>
<svg
   xmlns:osb="http://www.openswatchbook.org/uri/2009/osb"
   xmlns:dc="http://purl.org/dc/elements/1.1/"
   xmlns:cc="http://creativecommons.org/ns#"
   xmlns:rdf="http://www.w3.org/1999/02/22-rdf-syntax-ns#"
   xmlns:svg="http://www.w3.org/2000/svg"
   xmlns="http://www.w3.org/2000/svg"
   xmlns:xlink="http://www.w3.org/1999/xlink"
   version="1.1"
   width="502.90808"
   height="165.00693"
   id="svg11300">
  <metadata
     id="metadata16">
    <rdf:RDF>
      <cc:Work
         rdf:about="">
        <dc:format>image/svg+xml</dc:format>
        <dc:type
           rdf:resource="com.mkulesh.micromath" />
        <dc:title></dc:title>
      </cc:Work>
    </rdf:RDF>
  </metadata>
  <defs
     id="defs3">
    <linearGradient
       osb:paint="solid"
       id="linearGradient4163">
      <stop
         id="stop4165"
         offset="0"
         style="stop-color:#000000;stop-opacity:1;" />
    </linearGradient>
    <linearGradient
       gradientUnits="userSpaceOnUse"
       y2="98.416931"
       x2="448.28912"
       y1="98.416931"
       x1="0.0029962063"
       id="linearGradient4167"
       xlink:href="#linearGradient4163" />
    <linearGradient
       xlink:href="#linearGradient4163"
       id="linearGradient4168"
       gradientUnits="userSpaceOnUse"
       x1="0.0029962063"
       y1="98.416931"
       x2="448.28912"
       y2="98.416931"
       gradientTransform="matrix(0.92643348,0,0,0.92643348,0,16.69057)" />
    <filter
       id="filter4391-1"
       style="color-interpolation-filters:sRGB">
      <feGaussianBlur
         id="feGaussianBlur4393-3"
         stdDeviation="1.4065307" />
    </filter>
    <filter
       id="filter4391"
       style="color-interpolation-filters:sRGB">
      <feGaussianBlur
         id="feGaussianBlur4393"
         stdDeviation="1.4065307" />
    </filter>
    <linearGradient
       y2="98.416931"
       x2="448.28912"
       y1="98.416931"
       x1="0.0029962063"
       gradientTransform="matrix(0.92643348,0,0,0.92643348,2.9679141e-8,16.690572)"
       gradientUnits="userSpaceOnUse"
       id="linearGradient4879"
       xlink:href="#linearGradient4163" />
    <filter
       style="color-interpolation-filters:sRGB"
       id="filter4391-1-3">
      <feGaussianBlur
         stdDeviation="1.4065307"
         id="feGaussianBlur4393-3-6" />
    </filter>
  </defs>
  <rect
     style="fill:#ff5722;fill-opacity:1;stroke:none"
     id="rect3644-5"
     y="0"
     x="0"
     ry="0"
     rx="0"
     height="33.231674"
     width="499.42728" />
  <g
     id="g4834"
     transform="translate(443.97544,105.03371)">
    <path
       style="fill:#000000;fill-opacity:1;stroke:none;filter:url(#filter4391)"
       id="path2930-9-6"
       transform="matrix(0.95471133,0,0,-0.95166191,1.2680828,55.340261)"
       d="M 28.78125,0.5625 A 27,27 0 0 0 1,27.53125 27,27 0 0 0 12.6875,49.75 25.782362,25.782362 0 0 1 2.21875,29 25.782362,25.782362 0 1 1 53.78125,29 25.782362,25.782362 0 0 1 42.375,50.375 27,27 0 0 0 55,27.53125 27,27 0 0 0 28.78125,0.5625 Z M 42.375,50.375 a 27,27 0 0 1 -28,0.46875 25.782362,25.782362 0 0 0 28,-0.46875 z" />
    <path
       style="fill:#ff5722;fill-opacity:1;stroke:none"
       id="path2930-3"
       d="m 55,27.048306 a 27,27 0 0 1 -54.00000024,0 27,27 0 1 1 54.00000024,0 z" />
    <g
       transform="matrix(0.01339286,0,0,-0.01704545,-11.013875,31.795114)"
       id="g3988">
      <path
         d="m 2529.0356,-135.27343 0,-192 q 0,-40 -28,-68 -28,-28 -68,-28 l -320,0 q -40,0 -68,28 -28,28 -28,68 l 0,192 q 0,39.999997 28,67.999997 28,28 68,28 l 320,0 q 40,0 68,-28 28,-28 28,-67.999997 z m 0,512 0,-192 q 0,-40 -28,-68 -28,-28.000003 -68,-28.000003 l -320,0 q -40,0 -68,28.000003 -28,28 -28,68 l 0,192 q 0,40 28,68 28,28 68,28 l 320,0 q 40,0 68,-28 28,-28 28,-68 z m 1280,-512 0,-192 q 0,-40 -28,-68 -28,-28 -68,-28 l -960,0 q -40,0 -68,28 -28,28 -28,68 l 0,192 q 0,39.999997 28,67.999997 28,28 68,28 l 960,0 q 40,0 68,-28 28,-28 28,-67.999997 z m -1280,1024 0,-192 q 0,-40 -28,-68 -28,-28 -68,-28 l -320,0 q -40,0 -68,28 -28,28 -28,68 l 0,192 q 0,40 28,68 28,28 68,28 l 320,0 q 40,0 68,-28 28,-28 28,-68 z m 1280,-512 0,-192 q 0,-40 -28,-68 -28,-28.000003 -68,-28.000003 l -960,0 q -40,0 -68,28.000003 -28,28 -28,68 l 0,192 q 0,40 28,68 28,28 68,28 l 960,0 q 40,0 68,-28 28,-28 28,-68 z m 0,512 0,-192 q 0,-40 -28,-68 -28,-28 -68,-28 l -960,0 q -40,0 -68,28 -28,28 -28,68 l 0,192 q 0,40 28,68 28,28 68,28 l 960,0 q 40,0 68,-28 28,-28 28,-68 z"
         id="path3990"
         style="fill:#ffffff;fill-opacity:1" />
    </g>
  </g>
  <g
     transform="matrix(0.86150698,0,0,1,-482.90487,-604.28949)"
     id="Revert" />
  <g
     transform="matrix(0.18191764,0.22336433,-0.26958493,0.1708351,688.91121,-78.04017)"
     id="g3915-6-3-7">
    <path
       d="m 89.471,1065.9 c 3.7268,6.1263 -0.48379,10.049 -6.16,12.947 -8.0302,4.0988 -27.898,2.1019 -34.7,-2.0136 -6.2427,-3.777 -9.0128,-9.3495 -6.0403,-14.184"
       id="path3894-6-5-0"
       style="opacity:0.8;fill:#ffffff;stroke:#000000;stroke-width:4.06139994;stroke-linecap:round;stroke-linejoin:round" />
    <path
       d="m 21.354,1021 c -0.85728,15.682 13.892,40.298 31.364,46.018 9.0217,2.9538 29.326,3.8464 36.494,-1.431 12.273,-9.0365 18.48,-20.686 21.285,-35.088 0.99446,-5.1051 1.707,-10.986 0.95737,-15.702 -3.1898,-20.064 -14.951,-20.048 -19.514,-20.76 -2.7272,-8.7246 -12.699,-15.044 -26.068,-12.391 -0.1029,-10.746 0.22553,-17.365 1.1122,-27.536 1.4832,-17.013 -27.986,-20.845 -26.491,-0.0121 1.0183,14.187 0.02688,25.675 -2.4993,39 -3.4496,1.0381 -15.746,11.529 -16.641,27.901 z"
       id="path3112-2-1-9"
       style="opacity:0.8;fill:#ffffff;fill-opacity:1;stroke:#000000;stroke-width:4.06139994;stroke-linecap:round;stroke-linejoin:round;stroke-opacity:1" />
    <path
       d="m 63.838,981.04 c 0.0308,10.253 1.2148,18.225 7.2258,26.105 -2.5091,-6.5752 -3.3692,-19.666 -3.1766,-27.939 z"
       id="path3882-6-0-9"
       style="color:#000000;text-indent:0;text-transform:none;block-progression:tb;opacity:0.7" />
    <path
       d="m 93.471,992.23 -3.8091,1.4862 c 1.929,5.5768 4.0509,11.842 7.1137,15.183 -1.0804,-2.6051 -2.0771,-11.978 -3.3046,-16.669 z"
       id="path3884-6-5-0"
       style="color:#000000;text-indent:0;text-transform:none;block-progression:tb;opacity:0.7" />
    <path
       d="m 79.642,1058.3 c 4.0369,-9.6783 3.976,-12.465 5.1951,-17.405"
       id="path3886-8-8-3"
       style="opacity:0.9;fill:none;stroke:#000000;stroke-width:4.06139994;stroke-linecap:round;stroke-linejoin:round" />
    <path
       d="m 70.26,1059 c 1.6922,-11.475 1.4242,-17.152 1.8555,-24.898"
       id="path3888-4-1-5"
       style="opacity:0.9;fill:none;stroke:#000000;stroke-width:4.06139994;stroke-linecap:round;stroke-linejoin:round" />
    <path
       d="m 59.041,1059.5 c 0.0971,-7.9806 -0.59887,-11.754 -1.049,-16.831"
       id="path3890-1-7-5"
       style="opacity:0.9;fill:none;stroke:#000000;stroke-width:4.06139994;stroke-linecap:round;stroke-linejoin:round" />
    <path
       d="m 36.249,991.71 c -1.7026,12.092 -6.1967,31.682 -4.8107,38.213 1.185,-3.9899 8.356,-33.636 9.1333,-39.703 z"
       id="path3892-0-5-3"
       style="color:#000000;text-indent:0;text-transform:none;block-progression:tb;opacity:0.7" />
  </g>
  <g
     transform="matrix(0.95565129,0,0,1.0464068,2.7663307,2.7678714)"
     style="font-style:normal;font-variant:normal;font-weight:normal;font-stretch:normal;font-size:25.47692108px;line-height:150%;font-family:sans-serif;-inkscape-font-specification:'sans-serif, Normal';text-align:start;letter-spacing:0px;word-spacing:0px;writing-mode:lr-tb;text-anchor:start;fill:#787878;fill-opacity:1;stroke:none;stroke-width:1px;stroke-linecap:butt;stroke-linejoin:miter;stroke-opacity:1"
     id="text5483">
    <path
       d="m 19.295264,7.3351005 -5.038161,6.7797475 5.299399,7.152944 -2.699459,0 -4.055408,-5.473558 -4.0554085,5.473558 -2.6994589,0 5.4113574,-7.289783 -4.951081,-6.6429085 2.6994589,0 3.6946511,4.9635215 3.694651,-4.9635215 2.699459,0 z"
       style="font-style:normal;font-variant:normal;font-weight:normal;font-stretch:normal;font-size:25.47692108px;line-height:150%;font-family:sans-serif;-inkscape-font-specification:'sans-serif, Normal';text-align:start;writing-mode:lr-tb;text-anchor:start;fill:#000000;fill-opacity:1"
       id="path4174" />
    <path
       d="m 31.200253,9.6986821 15.947955,0 0,2.0899039 -15.947955,0 0,-2.0899039 z m 0,5.0754799 15.947955,0 0,2.114784 -15.947955,0 0,-2.114784 z"
       style="font-style:normal;font-variant:normal;font-weight:normal;font-stretch:normal;font-size:25.47692108px;line-height:150%;font-family:sans-serif;-inkscape-font-specification:'sans-serif, Normal';text-align:start;writing-mode:lr-tb;text-anchor:start;fill:#000000;fill-opacity:1"
       id="path4176" />
    <path
       d="m 60.147908,1.9113029 5.274519,0 0,1.7789061 -2.985577,0 0,19.15745 2.985577,0 0,1.778907 -5.274519,0 0,-22.7152631 z"
       style="font-style:normal;font-variant:normal;font-weight:normal;font-stretch:normal;font-size:25.47692108px;line-height:150%;font-family:sans-serif;-inkscape-font-specification:'sans-serif, Normal';text-align:start;writing-mode:lr-tb;text-anchor:start;fill:#787878;fill-opacity:1"
       id="path4178" />
    <path
       d="m 76.008785,4.3495238 q -1.940625,0 -2.923377,1.9157451 -0.970312,1.9033051 -0.970312,5.7347951 0,3.81905 0.970312,5.734795 0.982752,1.903305 2.923377,1.903305 1.953065,0 2.923377,-1.903305 0.982753,-1.915745 0.982753,-5.734795 0,-3.83149 -0.982753,-5.7347951 Q 77.96185,4.3495238 76.008785,4.3495238 Z m 0,-1.9903844 q 3.122416,0 4.764483,2.4755407 1.654507,2.4631007 1.654507,7.1653839 0,4.689843 -1.654507,7.165384 -1.642067,2.463101 -4.764483,2.463101 -3.122415,0 -4.776922,-2.463101 -1.642068,-2.475541 -1.642068,-7.165384 0,-4.7022832 1.642068,-7.1653839 1.654507,-2.4755407 4.776922,-2.4755407 z"
       style="font-style:normal;font-variant:normal;font-weight:normal;font-stretch:normal;font-size:25.47692108px;line-height:150%;font-family:sans-serif;-inkscape-font-specification:'sans-serif, Normal';text-align:start;writing-mode:lr-tb;text-anchor:start;fill:#787878;fill-opacity:1"
       id="path4180" />
    <path
       d="m 86.856381,18.108056 2.62482,0 0,3.159736 -2.62482,0 0,-3.159736 z"
       style="font-style:normal;font-variant:normal;font-weight:normal;font-stretch:normal;font-size:25.47692108px;line-height:150%;font-family:sans-serif;-inkscape-font-specification:'sans-serif, Normal';text-align:start;writing-mode:lr-tb;text-anchor:start;fill:#787878;fill-opacity:1"
       id="path4182" />
    <path
       d="m 100.34124,4.3495238 q -1.940629,0 -2.923381,1.9157451 -0.970312,1.9033051 -0.970312,5.7347951 0,3.81905 0.970312,5.734795 0.982752,1.903305 2.923381,1.903305 1.95306,0 2.92337,-1.903305 0.98276,-1.915745 0.98276,-5.734795 0,-3.83149 -0.98276,-5.7347951 -0.97031,-1.9157451 -2.92337,-1.9157451 z m 0,-1.9903844 q 3.12241,0 4.76448,2.4755407 1.65451,2.4631007 1.65451,7.1653839 0,4.689843 -1.65451,7.165384 -1.64207,2.463101 -4.76448,2.463101 -3.122419,0 -4.776927,-2.463101 -1.642067,-2.475541 -1.642067,-7.165384 0,-4.7022832 1.642067,-7.1653839 1.654508,-2.4755407 4.776927,-2.4755407 z"
       style="font-style:normal;font-variant:normal;font-weight:normal;font-stretch:normal;font-size:25.47692108px;line-height:150%;font-family:sans-serif;-inkscape-font-specification:'sans-serif, Normal';text-align:start;writing-mode:lr-tb;text-anchor:start;fill:#787878;fill-opacity:1"
       id="path4184" />
    <path
       d="m 111.45007,18.108056 2.62482,0 0,2.139664 -2.04014,3.980769 -1.60475,0 1.02007,-3.980769 0,-2.139664 z"
       style="font-style:normal;font-variant:normal;font-weight:normal;font-stretch:normal;font-size:25.47692108px;line-height:150%;font-family:sans-serif;-inkscape-font-specification:'sans-serif, Normal';text-align:start;writing-mode:lr-tb;text-anchor:start;fill:#787878;fill-opacity:1"
       id="path4186" />
    <path
       d="m 132.7845,4.3495238 q -1.94062,0 -2.92337,1.9157451 -0.97032,1.9033051 -0.97032,5.7347951 0,3.81905 0.97032,5.734795 0.98275,1.903305 2.92337,1.903305 1.95307,0 2.92338,-1.903305 0.98275,-1.915745 0.98275,-5.734795 0,-3.83149 -0.98275,-5.7347951 -0.97031,-1.9157451 -2.92338,-1.9157451 z m 0,-1.9903844 q 3.12242,0 4.76449,2.4755407 1.6545,2.4631007 1.6545,7.1653839 0,4.689843 -1.6545,7.165384 -1.64207,2.463101 -4.76449,2.463101 -3.12241,0 -4.77692,-2.463101 -1.64207,-2.475541 -1.64207,-7.165384 0,-4.7022832 1.64207,-7.1653839 1.65451,-2.4755407 4.77692,-2.4755407 z"
       style="font-style:normal;font-variant:normal;font-weight:normal;font-stretch:normal;font-size:25.47692108px;line-height:150%;font-family:sans-serif;-inkscape-font-specification:'sans-serif, Normal';text-align:start;writing-mode:lr-tb;text-anchor:start;fill:#787878;fill-opacity:1"
       id="path4188" />
    <path
       d="m 143.63209,18.108056 2.62482,0 0,3.159736 -2.62482,0 0,-3.159736 z"
       style="font-style:normal;font-variant:normal;font-weight:normal;font-stretch:normal;font-size:25.47692108px;line-height:150%;font-family:sans-serif;-inkscape-font-specification:'sans-serif, Normal';text-align:start;writing-mode:lr-tb;text-anchor:start;fill:#787878;fill-opacity:1"
       id="path4190" />
    <path
       d="m 152.17831,19.153008 4.10517,0 0,-14.1690491 -4.46592,0.895673 0,-2.2889421 4.44104,-0.895673 2.51286,0 0,16.4579912 4.10517,0 0,2.114784 -10.69832,0 0,-2.114784 z"
       style="font-style:normal;font-variant:normal;font-weight:normal;font-stretch:normal;font-size:25.47692108px;line-height:150%;font-family:sans-serif;-inkscape-font-specification:'sans-serif, Normal';text-align:start;writing-mode:lr-tb;text-anchor:start;fill:#787878;fill-opacity:1"
       id="path4192" />
    <path
       d="m 168.22579,18.108056 2.62482,0 0,2.139664 -2.04015,3.980769 -1.60474,0 1.02007,-3.980769 0,-2.139664 z"
       style="font-style:normal;font-variant:normal;font-weight:normal;font-stretch:normal;font-size:25.47692108px;line-height:150%;font-family:sans-serif;-inkscape-font-specification:'sans-serif, Normal';text-align:start;writing-mode:lr-tb;text-anchor:start;fill:#787878;fill-opacity:1"
       id="path4194" />
    <path
       d="m 189.56022,4.3495238 q -1.94062,0 -2.92337,1.9157451 -0.97032,1.9033051 -0.97032,5.7347951 0,3.81905 0.97032,5.734795 0.98275,1.903305 2.92337,1.903305 1.95307,0 2.92338,-1.903305 0.98275,-1.915745 0.98275,-5.734795 0,-3.83149 -0.98275,-5.7347951 -0.97031,-1.9157451 -2.92338,-1.9157451 z m 0,-1.9903844 q 3.12242,0 4.76449,2.4755407 1.6545,2.4631007 1.6545,7.1653839 0,4.689843 -1.6545,7.165384 -1.64207,2.463101 -4.76449,2.463101 -3.12241,0 -4.77692,-2.463101 -1.64207,-2.475541 -1.64207,-7.165384 0,-4.7022832 1.64207,-7.1653839 1.65451,-2.4755407 4.77692,-2.4755407 z"
       style="font-style:normal;font-variant:normal;font-weight:normal;font-stretch:normal;font-size:25.47692108px;line-height:150%;font-family:sans-serif;-inkscape-font-specification:'sans-serif, Normal';text-align:start;writing-mode:lr-tb;text-anchor:start;fill:#787878;fill-opacity:1"
       id="path4196" />
    <path
       d="m 200.40782,18.108056 2.62482,0 0,3.159736 -2.62482,0 0,-3.159736 z"
       style="font-style:normal;font-variant:normal;font-weight:normal;font-stretch:normal;font-size:25.47692108px;line-height:150%;font-family:sans-serif;-inkscape-font-specification:'sans-serif, Normal';text-align:start;writing-mode:lr-tb;text-anchor:start;fill:#787878;fill-opacity:1"
       id="path4198" />
    <path
       d="m 210.68317,19.153008 8.77013,0 0,2.114784 -11.79303,0 0,-2.114784 q 1.43059,-1.480348 3.89369,-3.968329 2.47554,-2.50042 3.10998,-3.221935 1.20667,-1.355949 1.67939,-2.2889417 0.48515,-0.9454326 0.48515,-1.8535456 0,-1.4803484 -1.04495,-2.4133411 -1.03251,-0.9329927 -2.69946,-0.9329927 -1.18179,0 -2.50042,0.4105168 -1.30619,0.4105168 -2.79898,1.2439903 l 0,-2.5377402 q 1.51767,-0.6095553 2.8363,-0.9205528 1.31863,-0.3109976 2.41334,-0.3109976 2.88606,0 4.60277,1.4430287 1.7167,1.4430287 1.7167,3.8563699 0,1.1444711 -0.43539,2.176983 -0.42296,1.020072 -1.55499,2.413341 -0.311,0.360757 -1.97795,2.089904 -1.66694,1.716706 -4.70228,4.814242 z"
       style="font-style:normal;font-variant:normal;font-weight:normal;font-stretch:normal;font-size:25.47692108px;line-height:150%;font-family:sans-serif;-inkscape-font-specification:'sans-serif, Normal';text-align:start;writing-mode:lr-tb;text-anchor:start;fill:#787878;fill-opacity:1"
       id="path4200" />
    <path
       d="m 225.0015,18.108056 2.62482,0 0,2.139664 -2.04014,3.980769 -1.60475,0 1.02007,-3.980769 0,-2.139664 z"
       style="font-style:normal;font-variant:normal;font-weight:normal;font-stretch:normal;font-size:25.47692108px;line-height:150%;font-family:sans-serif;-inkscape-font-specification:'sans-serif, Normal';text-align:start;writing-mode:lr-tb;text-anchor:start;fill:#787878;fill-opacity:1"
       id="path4202" />
    <path
       d="m 246.33593,4.3495238 q -1.94062,0 -2.92337,1.9157451 -0.97032,1.9033051 -0.97032,5.7347951 0,3.81905 0.97032,5.734795 0.98275,1.903305 2.92337,1.903305 1.95307,0 2.92338,-1.903305 0.98275,-1.915745 0.98275,-5.734795 0,-3.83149 -0.98275,-5.7347951 -0.97031,-1.9157451 -2.92338,-1.9157451 z m 0,-1.9903844 q 3.12242,0 4.76449,2.4755407 1.6545,2.4631007 1.6545,7.1653839 0,4.689843 -1.6545,7.165384 -1.64207,2.463101 -4.76449,2.463101 -3.12241,0 -4.77692,-2.463101 -1.64207,-2.475541 -1.64207,-7.165384 0,-4.7022832 1.64207,-7.1653839 1.65451,-2.4755407 4.77692,-2.4755407 z"
       style="font-style:normal;font-variant:normal;font-weight:normal;font-stretch:normal;font-size:25.47692108px;line-height:150%;font-family:sans-serif;-inkscape-font-specification:'sans-serif, Normal';text-align:start;writing-mode:lr-tb;text-anchor:start;fill:#787878;fill-opacity:1"
       id="path4204" />
    <path
       d="m 257.18353,18.108056 2.62482,0 0,3.159736 -2.62482,0 0,-3.159736 z"
       style="font-style:normal;font-variant:normal;font-weight:normal;font-stretch:normal;font-size:25.47692108px;line-height:150%;font-family:sans-serif;-inkscape-font-specification:'sans-serif, Normal';text-align:start;writing-mode:lr-tb;text-anchor:start;fill:#787878;fill-opacity:1"
       id="path4206" />
    <path
       d="m 272.90757,11.25367 q 1.80379,0.385637 2.81142,1.604747 1.02007,1.219111 1.02007,3.010457 0,2.749218 -1.89086,4.254447 -1.89087,1.505228 -5.37404,1.505228 -1.16935,0 -2.41334,-0.236358 -1.23155,-0.223918 -2.55018,-0.684195 l 0,-2.425781 q 1.04495,0.609555 2.28894,0.920553 1.24399,0.310997 2.59994,0.310997 2.36358,0 3.59513,-0.932992 1.24399,-0.932993 1.24399,-2.711899 0,-1.642067 -1.15691,-2.56262 -1.14447,-0.932993 -3.19705,-0.932993 l -2.16454,0 0,-2.065024 2.26406,0 q 1.85354,0 2.8363,-0.733954 0.98275,-0.7463941 0.98275,-2.1396632 0,-1.4305889 -1.02007,-2.189423 -1.00764,-0.7712739 -2.8985,-0.7712739 -1.03251,0 -2.2143,0.2239182 -1.1818,0.2239183 -2.59994,0.6966346 l 0,-2.2391825 q 1.43058,-0.3980769 2.67458,-0.5971154 1.25643,-0.1990384 2.36358,-0.1990384 2.86117,0 4.52812,1.3061898 1.66695,1.2937499 1.66695,3.5080526 0,1.542548 -0.88323,2.6123796 -0.88324,1.0573916 -2.51287,1.4679086 z"
       style="font-style:normal;font-variant:normal;font-weight:normal;font-stretch:normal;font-size:25.47692108px;line-height:150%;font-family:sans-serif;-inkscape-font-specification:'sans-serif, Normal';text-align:start;writing-mode:lr-tb;text-anchor:start;fill:#787878;fill-opacity:1"
       id="path4208" />
    <path
       d="m 281.77721,18.108056 2.62482,0 0,2.139664 -2.04014,3.980769 -1.60475,0 1.02007,-3.980769 0,-2.139664 z"
       style="font-style:normal;font-variant:normal;font-weight:normal;font-stretch:normal;font-size:25.47692108px;line-height:150%;font-family:sans-serif;-inkscape-font-specification:'sans-serif, Normal';text-align:start;writing-mode:lr-tb;text-anchor:start;fill:#787878;fill-opacity:1"
       id="path4210" />
    <path
       d="m 303.11166,4.3495238 q -1.94062,0 -2.92338,1.9157451 -0.97031,1.9033051 -0.97031,5.7347951 0,3.81905 0.97031,5.734795 0.98276,1.903305 2.92338,1.903305 1.95306,0 2.92338,-1.903305 0.98275,-1.915745 0.98275,-5.734795 0,-3.83149 -0.98275,-5.7347951 -0.97032,-1.9157451 -2.92338,-1.9157451 z m 0,-1.9903844 q 3.12242,0 4.76448,2.4755407 1.65451,2.4631007 1.65451,7.1653839 0,4.689843 -1.65451,7.165384 -1.64206,2.463101 -4.76448,2.463101 -3.12242,0 -4.77692,-2.463101 -1.64207,-2.475541 -1.64207,-7.165384 0,-4.7022832 1.64207,-7.1653839 1.6545,-2.4755407 4.77692,-2.4755407 z"
       style="font-style:normal;font-variant:normal;font-weight:normal;font-stretch:normal;font-size:25.47692108px;line-height:150%;font-family:sans-serif;-inkscape-font-specification:'sans-serif, Normal';text-align:start;writing-mode:lr-tb;text-anchor:start;fill:#787878;fill-opacity:1"
       id="path4212" />
    <path
       d="m 313.95924,18.108056 2.62482,0 0,3.159736 -2.62482,0 0,-3.159736 z"
       style="font-style:normal;font-variant:normal;font-weight:normal;font-stretch:normal;font-size:25.47692108px;line-height:150%;font-family:sans-serif;-inkscape-font-specification:'sans-serif, Normal';text-align:start;writing-mode:lr-tb;text-anchor:start;fill:#787878;fill-opacity:1"
       id="path4214" />
    <path
       d="m 328.97423,4.8844397 -6.34435,9.9146023 6.34435,0 0,-9.9146023 z m -0.65932,-2.1894229 3.15974,0 0,12.1040252 2.6497,0 0,2.089904 -2.6497,0 0,4.378846 -2.50042,0 0,-4.378846 -8.3845,0 0,-2.425781 7.72518,-11.7681482 z"
       style="font-style:normal;font-variant:normal;font-weight:normal;font-stretch:normal;font-size:25.47692108px;line-height:150%;font-family:sans-serif;-inkscape-font-specification:'sans-serif, Normal';text-align:start;writing-mode:lr-tb;text-anchor:start;fill:#787878;fill-opacity:1"
       id="path4216" />
    <path
       d="m 338.55294,18.108056 2.62482,0 0,2.139664 -2.04015,3.980769 -1.60474,0 1.02007,-3.980769 0,-2.139664 z"
       style="font-style:normal;font-variant:normal;font-weight:normal;font-stretch:normal;font-size:25.47692108px;line-height:150%;font-family:sans-serif;-inkscape-font-specification:'sans-serif, Normal';text-align:start;writing-mode:lr-tb;text-anchor:start;fill:#787878;fill-opacity:1"
       id="path4218" />
    <path
       d="m 359.88739,4.3495238 q -1.94063,0 -2.92338,1.9157451 -0.97031,1.9033051 -0.97031,5.7347951 0,3.81905 0.97031,5.734795 0.98275,1.903305 2.92338,1.903305 1.95306,0 2.92337,-1.903305 0.98276,-1.915745 0.98276,-5.734795 0,-3.83149 -0.98276,-5.7347951 -0.97031,-1.9157451 -2.92337,-1.9157451 z m 0,-1.9903844 q 3.12241,0 4.76448,2.4755407 1.65451,2.4631007 1.65451,7.1653839 0,4.689843 -1.65451,7.165384 -1.64207,2.463101 -4.76448,2.463101 -3.12242,0 -4.77693,-2.463101 -1.64206,-2.475541 -1.64206,-7.165384 0,-4.7022832 1.64206,-7.1653839 1.65451,-2.4755407 4.77693,-2.4755407 z"
       style="font-style:normal;font-variant:normal;font-weight:normal;font-stretch:normal;font-size:25.47692108px;line-height:150%;font-family:sans-serif;-inkscape-font-specification:'sans-serif, Normal';text-align:start;writing-mode:lr-tb;text-anchor:start;fill:#787878;fill-opacity:1"
       id="path4220" />
    <path
       d="m 370.73497,18.108056 2.62482,0 0,3.159736 -2.62482,0 0,-3.159736 z"
       style="font-style:normal;font-variant:normal;font-weight:normal;font-stretch:normal;font-size:25.47692108px;line-height:150%;font-family:sans-serif;-inkscape-font-specification:'sans-serif, Normal';text-align:start;writing-mode:lr-tb;text-anchor:start;fill:#787878;fill-opacity:1"
       id="path4222" />
    <path
       d="m 378.87066,2.6950168 9.86484,0 0,2.1147834 -7.56346,0 0,4.5530045 q 0.54735,-0.1865985 1.09471,-0.2736779 0.54736,-0.099519 1.09471,-0.099519 3.10998,0 4.9262,1.7042662 1.81623,1.704267 1.81623,4.615204 0,2.998017 -1.86599,4.664964 -1.86598,1.654507 -5.26208,1.654507 -1.16935,0 -2.38846,-0.199039 -1.20667,-0.199038 -2.50042,-0.597115 l 0,-2.5253 q 1.11959,0.609555 2.31382,0.908113 1.19423,0.298557 2.5253,0.298557 2.15211,0 3.40854,-1.132031 1.25643,-1.132031 1.25643,-3.072656 0,-1.940625 -1.25643,-3.072656 -1.25643,-1.132031 -3.40854,-1.132031 -1.00763,0 -2.01526,0.223918 -0.99519,0.223919 -2.04014,0.696635 l 0,-9.329927 z"
       style="font-style:normal;font-variant:normal;font-weight:normal;font-stretch:normal;font-size:25.47692108px;line-height:150%;font-family:sans-serif;-inkscape-font-specification:'sans-serif, Normal';text-align:start;writing-mode:lr-tb;text-anchor:start;fill:#787878;fill-opacity:1"
       id="path4224" />
    <path
       d="m 395.32866,18.108056 2.62482,0 0,2.139664 -2.04014,3.980769 -1.60475,0 1.02007,-3.980769 0,-2.139664 z"
       style="font-style:normal;font-variant:normal;font-weight:normal;font-stretch:normal;font-size:25.47692108px;line-height:150%;font-family:sans-serif;-inkscape-font-specification:'sans-serif, Normal';text-align:start;writing-mode:lr-tb;text-anchor:start;fill:#787878;fill-opacity:1"
       id="path4226" />
    <path
       d="m 411.28904,18.108056 2.62482,0 0,3.159736 -2.62482,0 0,-3.159736 z"
       style="font-style:normal;font-variant:normal;font-weight:normal;font-stretch:normal;font-size:25.47692108px;line-height:150%;font-family:sans-serif;-inkscape-font-specification:'sans-serif, Normal';text-align:start;writing-mode:lr-tb;text-anchor:start;fill:#787878;fill-opacity:1"
       id="path4228" />
    <path
       d="m 419.39988,18.108056 2.62482,0 0,3.159736 -2.62482,0 0,-3.159736 z"
       style="font-style:normal;font-variant:normal;font-weight:normal;font-stretch:normal;font-size:25.47692108px;line-height:150%;font-family:sans-serif;-inkscape-font-specification:'sans-serif, Normal';text-align:start;writing-mode:lr-tb;text-anchor:start;fill:#787878;fill-opacity:1"
       id="path4230" />
    <path
       d="m 427.51069,18.108056 2.62482,0 0,3.159736 -2.62482,0 0,-3.159736 z"
       style="font-style:normal;font-variant:normal;font-weight:normal;font-stretch:normal;font-size:25.47692108px;line-height:150%;font-family:sans-serif;-inkscape-font-specification:'sans-serif, Normal';text-align:start;writing-mode:lr-tb;text-anchor:start;fill:#787878;fill-opacity:1"
       id="path4232" />
    <path
       d="m 435.88274,18.108056 2.62482,0 0,2.139664 -2.04014,3.980769 -1.60475,0 1.02007,-3.980769 0,-2.139664 z"
       style="font-style:normal;font-variant:normal;font-weight:normal;font-stretch:normal;font-size:25.47692108px;line-height:150%;font-family:sans-serif;-inkscape-font-specification:'sans-serif, Normal';text-align:start;writing-mode:lr-tb;text-anchor:start;fill:#787878;fill-opacity:1"
       id="path4234" />
    <path
       d="m 452.27855,19.153008 4.10517,0 0,-14.1690491 -4.46593,0.895673 0,-2.2889421 4.44105,-0.895673 2.51286,0 0,16.4579912 4.10516,0 0,2.114784 -10.69831,0 0,-2.114784 z"
       style="font-style:normal;font-variant:normal;font-weight:normal;font-stretch:normal;font-size:25.47692108px;line-height:150%;font-family:sans-serif;-inkscape-font-specification:'sans-serif, Normal';text-align:start;writing-mode:lr-tb;text-anchor:start;fill:#787878;fill-opacity:1"
       id="path4236" />
    <path
       d="m 473.43881,4.3495238 q -1.94063,0 -2.92338,1.9157451 -0.97031,1.9033051 -0.97031,5.7347951 0,3.81905 0.97031,5.734795 0.98275,1.903305 2.92338,1.903305 1.95306,0 2.92338,-1.903305 0.98275,-1.915745 0.98275,-5.734795 0,-3.83149 -0.98275,-5.7347951 -0.97032,-1.9157451 -2.92338,-1.9157451 z m 0,-1.9903844 q 3.12241,0 4.76448,2.4755407 1.65451,2.4631007 1.65451,7.1653839 0,4.689843 -1.65451,7.165384 -1.64207,2.463101 -4.76448,2.463101 -3.12242,0 -4.77692,-2.463101 -1.64207,-2.475541 -1.64207,-7.165384 0,-4.7022832 1.64207,-7.1653839 1.6545,-2.4755407 4.77692,-2.4755407 z"
       style="font-style:normal;font-variant:normal;font-weight:normal;font-stretch:normal;font-size:25.47692108px;line-height:150%;font-family:sans-serif;-inkscape-font-specification:'sans-serif, Normal';text-align:start;writing-mode:lr-tb;text-anchor:start;fill:#787878;fill-opacity:1"
       id="path4238" />
    <path
       d="m 484.28642,18.108056 2.62482,0 0,3.159736 -2.62482,0 0,-3.159736 z"
       style="font-style:normal;font-variant:normal;font-weight:normal;font-stretch:normal;font-size:25.47692108px;line-height:150%;font-family:sans-serif;-inkscape-font-specification:'sans-serif, Normal';text-align:start;writing-mode:lr-tb;text-anchor:start;fill:#787878;fill-opacity:1"
       id="path4240" />
    <path
       d="m 497.77127,4.3495238 q -1.94063,0 -2.92338,1.9157451 -0.97031,1.9033051 -0.97031,5.7347951 0,3.81905 0.97031,5.734795 0.98275,1.903305 2.92338,1.903305 1.95306,0 2.92337,-1.903305 0.98276,-1.915745 0.98276,-5.734795 0,-3.83149 -0.98276,-5.7347951 -0.97031,-1.9157451 -2.92337,-1.9157451 z m 0,-1.9903844 q 3.12241,0 4.76448,2.4755407 1.65451,2.4631007 1.65451,7.1653839 0,4.689843 -1.65451,7.165384 -1.64207,2.463101 -4.76448,2.463101 -3.12242,0 -4.77693,-2.463101 -1.64206,-2.475541 -1.64206,-7.165384 0,-4.7022832 1.64206,-7.1653839 1.65451,-2.4755407 4.77693,-2.4755407 z"
       style="font-style:normal;font-variant:normal;font-weight:normal;font-stretch:normal;font-size:25.47692108px;line-height:150%;font-family:sans-serif;-inkscape-font-specification:'sans-serif, Normal';text-align:start;writing-mode:lr-tb;text-anchor:start;fill:#787878;fill-opacity:1"
       id="path4242" />
    <path
       d="m 513.64457,1.9113029 0,22.7152631 -5.27452,0 0,-1.778907 2.97314,0 0,-19.15745 -2.97314,0 0,-1.7789061 5.27452,0 z"
       style="font-style:normal;font-variant:normal;font-weight:normal;font-stretch:normal;font-size:25.47692108px;line-height:150%;font-family:sans-serif;-inkscape-font-specification:'sans-serif, Normal';text-align:start;writing-mode:lr-tb;text-anchor:start;fill:#787878;fill-opacity:1"
       id="path4244" />
  </g>
  <flowRoot
     transform="translate(10.572324,-96.979403)"
     style="font-style:normal;font-weight:normal;font-size:40px;line-height:125%;font-family:sans-serif;letter-spacing:0px;word-spacing:0px;fill:#000000;fill-opacity:1;stroke:none;stroke-width:1px;stroke-linecap:butt;stroke-linejoin:miter;stroke-opacity:1"
     id="flowRoot5487"
     xml:space="preserve"><flowRegion
       id="flowRegion5489"><rect
         y="70.988525"
         x="-32.338043"
         height="57.489853"
         width="853.96387"
         id="rect5491" /></flowRegion><flowPara
       id="flowPara5493" /></flowRoot>  <g
     transform="matrix(0.18191764,0.22336433,-0.26958493,0.1708351,283.35577,-145.52281)"
     id="g3915-6-3-7-0">
    <path
       d="m 89.471,1065.9 c 3.7268,6.1263 -0.48379,10.049 -6.16,12.947 -8.0302,4.0988 -27.898,2.1019 -34.7,-2.0136 -6.2427,-3.777 -9.0128,-9.3495 -6.0403,-14.184"
       id="path3894-6-5-0-7"
       style="opacity:0.8;fill:#ffffff;stroke:#000000;stroke-width:4.06139994;stroke-linecap:round;stroke-linejoin:round" />
    <path
       d="m 21.354,1021 c -0.85728,15.682 13.892,40.298 31.364,46.018 9.0217,2.9538 29.326,3.8464 36.494,-1.431 12.273,-9.0365 18.48,-20.686 21.285,-35.088 0.99446,-5.1051 1.707,-10.986 0.95737,-15.702 -3.1898,-20.064 -14.951,-20.048 -19.514,-20.76 -2.7272,-8.7246 -12.699,-15.044 -26.068,-12.391 -0.1029,-10.746 0.22553,-17.365 1.1122,-27.536 1.4832,-17.013 -27.986,-20.845 -26.491,-0.0121 1.0183,14.187 0.02688,25.675 -2.4993,39 -3.4496,1.0381 -15.746,11.529 -16.641,27.901 z"
       id="path3112-2-1-9-4"
       style="opacity:0.8;fill:#ffffff;fill-opacity:1;stroke:#000000;stroke-width:4.06139994;stroke-linecap:round;stroke-linejoin:round;stroke-opacity:1" />
    <path
       d="m 63.838,981.04 c 0.0308,10.253 1.2148,18.225 7.2258,26.105 -2.5091,-6.5752 -3.3692,-19.666 -3.1766,-27.939 z"
       id="path3882-6-0-9-8"
       style="color:#000000;text-indent:0;text-transform:none;block-progression:tb;opacity:0.7" />
    <path
       d="m 93.471,992.23 -3.8091,1.4862 c 1.929,5.5768 4.0509,11.842 7.1137,15.183 -1.0804,-2.6051 -2.0771,-11.978 -3.3046,-16.669 z"
       id="path3884-6-5-0-5"
       style="color:#000000;text-indent:0;text-transform:none;block-progression:tb;opacity:0.7" />
    <path
       d="m 79.642,1058.3 c 4.0369,-9.6783 3.976,-12.465 5.1951,-17.405"
       id="path3886-8-8-3-1"
       style="opacity:0.9;fill:none;stroke:#000000;stroke-width:4.06139994;stroke-linecap:round;stroke-linejoin:round" />
    <path
       d="m 70.26,1059 c 1.6922,-11.475 1.4242,-17.152 1.8555,-24.898"
       id="path3888-4-1-5-7"
       style="opacity:0.9;fill:none;stroke:#000000;stroke-width:4.06139994;stroke-linecap:round;stroke-linejoin:round" />
    <path
       d="m 59.041,1059.5 c 0.0971,-7.9806 -0.59887,-11.754 -1.049,-16.831"
       id="path3890-1-7-5-1"
       style="opacity:0.9;fill:none;stroke:#000000;stroke-width:4.06139994;stroke-linecap:round;stroke-linejoin:round" />
    <path
       d="m 36.249,991.71 c -1.7026,12.092 -6.1967,31.682 -4.8107,38.213 1.185,-3.9899 8.356,-33.636 9.1333,-39.703 z"
       id="path3892-0-5-3-0"
       style="color:#000000;text-indent:0;text-transform:none;block-progression:tb;opacity:0.7" />
  </g>
  <g
     id="g5442"
     transform="matrix(1.0125009,0,0,1.0127998,-67.554544,-354.3196)">
    <path
       style="fill:none"
       id="path6"
       d="m 508.73071,398.23553 h 41.37931 v 41.37931 h -41.37931 z" />
    <path
       style="fill:#000000;fill-opacity:1;stroke:none;filter:url(#filter4391-1-3)"
       id="path2930-9"
       transform="matrix(0.82302701,0,0,-0.8203982,509.82389,439.02179)"
       d="M 28.78125,0.5625 A 27,27 0 0 0 1,27.53125 27,27 0 0 0 12.6875,49.75 25.782362,25.782362 0 0 1 2.21875,29 25.782362,25.782362 0 1 1 53.78125,29 25.782362,25.782362 0 0 1 42.375,50.375 27,27 0 0 0 55,27.53125 27,27 0 0 0 28.78125,0.5625 Z M 42.375,50.375 a 27,27 0 0 1 -28,0.46875 25.782362,25.782362 0 0 0 28,-0.46875 z" />
    <path
       style="fill:#ff5722;fill-opacity:1;stroke:none"
       id="path2930-3-8"
       d="m 556.1445,414.63217 a 23.275862,23.275862 0 0 1 -46.55172,0 23.275862,23.275862 0 1 1 46.55172,0 z" />
    <g
       id="g3864"
       transform="translate(504.86864,386.7458)">
      <path
         style="fill:#ffffff;fill-opacity:1;stroke:none"
         id="path4"
         d="m 40.5,23.411936 -2.5,3.76875 v 10.5125 H 18 v -20 h 15.349173 l 1.67834,-2.5 H 18.8125 c -1.74533,0 -3.3125,1.326808 -3.3125,2.78125 v 19.4375 c 0,1.454442 1.56717,2.78125 3.3125,2.78125 h 18.34375 c 1.745329,0 3.34375,-1.326808 3.34375,-2.78125 z" />
      <g
         style="fill:#ffffff;fill-opacity:1;stroke:none"
         id="g963"
         transform="matrix(0.47407287,0,0,0.58722393,-125.93336,-199.01355)">
        <g
           style="fill:#ffffff;fill-opacity:1;stroke:none"
           id="g965">
          <path
             style="fill:#ffffff;fill-opacity:1;stroke:none"
             id="path967"
             d="m 326.994,399.715 c -0.77,0.855 -2.02,0.847 -2.777,-0.02 L 308.44,381.664 c -0.758,-0.866 -0.67,-2.195 0.195,-2.953 l 4.727,-4.136 c 0.867,-0.757 2.195,-0.669 2.953,0.197 l 8.014,9.156 c 0.756,0.865 2.006,0.875 2.777,0.02 l 16.801,-18.668 c 0.77,-0.856 2.1,-0.926 2.955,-0.156 l 4.67,4.2 c 0.855,0.77 0.924,2.101 0.154,2.957 z" />
        </g>
        <g
           style="fill:#ffffff;fill-opacity:1;stroke:none"
           id="g969" />
      </g>
    </g>
  </g>
</svg>
