<?xml version="1.0" encoding="UTF-8" standalone="no"?>
<svg
   xmlns:dc="http://purl.org/dc/elements/1.1/"
   xmlns:cc="http://creativecommons.org/ns#"
   xmlns:rdf="http://www.w3.org/1999/02/22-rdf-syntax-ns#"
   xmlns:svg="http://www.w3.org/2000/svg"
   xmlns="http://www.w3.org/2000/svg"
   id="svg11300"
   height="65"
   width="260"
   version="1.1">
  <metadata
     id="metadata16">
    <rdf:RDF>
      <cc:Work
         rdf:about="">
        <dc:format>image/svg+xml</dc:format>
        <dc:type
           rdf:resource="com.mkulesh.micromath" />
        <dc:title></dc:title>
      </cc:Work>
    </rdf:RDF>
  </metadata>
  <defs
     id="defs3" />
  <rect
     style="fill:#ff8000;fill-opacity:1;stroke:none"
     id="rect3644"
     y="0.28072211"
     x="10.022326"
     ry="0"
     rx="0"
     height="54"
     width="53.77887" />
  <g
     id="Revert"
     transform="matrix(0.86150698,0,0,1,-493.47719,-507.31009)" />
  <path
     style="fill:#353535;fill-opacity:0.8"
     id="path4-3"
     d="m 37.248543,20.280722 c -5.3,0 -10.1,2 -13.8,5.2 l -7.2,-7.2 0,18 18,0 -7.24,-7.24 c 2.78,-2.32 6.32,-3.76 10.24,-3.76 7.08,0 13.1,4.62 15.2,11 l 4.74,-1.56 c -2.78,-8.38 -10.64,-14.44 -19.94,-14.44 z" />
  <g
     id="g3915-6-3-7"
     transform="matrix(0.18191764,0.22336433,-0.26958493,0.1708351,282.14277,-139.20222)">
    <path
       style="opacity:0.8;fill:#ffffff;stroke:#000000;stroke-width:4.06139994;stroke-linecap:round;stroke-linejoin:round"
       id="path3894-6-5-0"
       d="m 89.471,1065.9 c 3.7268,6.1263 -0.48379,10.049 -6.16,12.947 -8.0302,4.0988 -27.898,2.1019 -34.7,-2.0136 -6.2427,-3.777 -9.0128,-9.3495 -6.0403,-14.184" />
    <path
       style="opacity:0.8;fill:#ffffff;fill-opacity:1;stroke:#000000;stroke-width:4.06139994;stroke-linecap:round;stroke-linejoin:round;stroke-opacity:1"
       id="path3112-2-1-9"
       d="m 21.354,1021 c -0.85728,15.682 13.892,40.298 31.364,46.018 9.0217,2.9538 29.326,3.8464 36.494,-1.431 12.273,-9.0365 18.48,-20.686 21.285,-35.088 0.99446,-5.1051 1.707,-10.986 0.95737,-15.702 -3.1898,-20.064 -14.951,-20.048 -19.514,-20.76 -2.7272,-8.7246 -12.699,-15.044 -26.068,-12.391 -0.1029,-10.746 0.22553,-17.365 1.1122,-27.536 1.4832,-17.013 -27.986,-20.845 -26.491,-0.0121 1.0183,14.187 0.02688,25.675 -2.4993,39 -3.4496,1.0381 -15.746,11.529 -16.641,27.901 z" />
    <path
       style="color:#000000;text-indent:0;text-transform:none;block-progression:tb;opacity:0.7"
       id="path3882-6-0-9"
       d="m 63.838,981.04 c 0.0308,10.253 1.2148,18.225 7.2258,26.105 -2.5091,-6.5752 -3.3692,-19.666 -3.1766,-27.939 z" />
    <path
       style="color:#000000;text-indent:0;text-transform:none;block-progression:tb;opacity:0.7"
       id="path3884-6-5-0"
       d="m 93.471,992.23 -3.8091,1.4862 c 1.929,5.5768 4.0509,11.842 7.1137,15.183 -1.0804,-2.6051 -2.0771,-11.978 -3.3046,-16.669 z" />
    <path
       style="opacity:0.9;fill:none;stroke:#000000;stroke-width:4.06139994;stroke-linecap:round;stroke-linejoin:round"
       id="path3886-8-8-3"
       d="m 79.642,1058.3 c 4.0369,-9.6783 3.976,-12.465 5.1951,-17.405" />
    <path
       style="opacity:0.9;fill:none;stroke:#000000;stroke-width:4.06139994;stroke-linecap:round;stroke-linejoin:round"
       id="path3888-4-1-5"
       d="m 70.26,1059 c 1.6922,-11.475 1.4242,-17.152 1.8555,-24.898" />
    <path
       style="opacity:0.9;fill:none;stroke:#000000;stroke-width:4.06139994;stroke-linecap:round;stroke-linejoin:round"
       id="path3890-1-7-5"
       d="m 59.041,1059.5 c 0.0971,-7.9806 -0.59887,-11.754 -1.049,-16.831" />
    <path
       style="color:#000000;text-indent:0;text-transform:none;block-progression:tb;opacity:0.7"
       id="path3892-0-5-3"
       d="m 36.249,991.71 c -1.7026,12.092 -6.1967,31.682 -4.8107,38.213 1.185,-3.9899 8.356,-33.636 9.1333,-39.703 z" />
  </g>
  <g
     transform="matrix(2,0,0,2,-106.16061,-141.70439)"
     id="g3824">
    <path
       d="m 92.675912,87.492558 7.999998,0 0,-2 -7.999998,0 m 15.999998,0 0,-4 -2,0 0,4 -4,0 0,2 4,0 0,4 2,0 0,-4 4,0 0,-2 m -8,-8 -11.999998,0 0,2 11.999998,0 m 0,2 -11.999998,0 0,2 11.999998,0 0,-2 z"
       id="path4-5"
       style="fill:#353535;fill-opacity:0.8" />
  </g>
  <path
     style="fill:#353535;fill-opacity:0.8"
     id="path4-8"
     d="m 174.82389,12.240721 -6.58,0 -1.88,-1.88 -9.4,0 -1.88,1.88 -6.58,0 0,3.76 26.32,0 m -24.44,24.440004 a 3.76,3.76 0 0 0 3.76,3.759998 l 15.04,0 a 3.76,3.76 0 0 0 3.76,-3.759998 l 0,-22.560004 -22.56,0 0,22.560004 z" />
  <path
     style="fill:#353535;fill-opacity:0.8"
     id="path4-6"
     d="m 224.14113,34.280726 a 7.1963724,7 0 0 1 -7.19638,-7 7.1963724,7 0 0 1 7.19638,-7 7.1963724,7 0 0 1 7.19636,7 7.1963724,7 0 0 1 -7.19636,7 m 15.27686,-5.06 c 0.0822,-0.64 0.144,-1.28 0.144,-1.94 0,-0.66 -0.0616,-1.32 -0.144,-2 l 4.3384,-3.26 c 0.39066,-0.3 0.49346,-0.84 0.24672,-1.28 l -4.1122,-6.92 c -0.24674,-0.44 -0.80188,-0.62 -1.25424,-0.44 l -5.1197,2 c -1.06918,-0.78 -2.17948,-1.46 -3.47482,-1.96 l -0.76076,-5.3 c -0.0822,-0.48 -0.51402,-0.84 -1.02806,-0.84 l -8.22442,0 c -0.51402,0 -0.9458,0.36 -1.02804,0.84 l -0.76076,5.3 c -1.29536,0.5 -2.40566,1.18 -3.47482,1.96 l -5.11972,-2 c -0.45234,-0.18 -1.00748,0 -1.25422,0.44 l -4.11222,6.92 c -0.26728,0.44 -0.144,0.98 0.24674,1.28 l 4.33838,3.26 c -0.0822,0.68 -0.144,1.34 -0.144,2 0,0.66 0.0616,1.3 0.144,1.94 l -4.33838,3.32 c -0.39066,0.3 -0.51402,0.84 -0.24674,1.28 l 4.11222,6.92 c 0.24674,0.44 0.80188,0.6 1.25422,0.44 l 5.11972,-2.02 c 1.06916,0.8 2.17946,1.48 3.47482,1.98 l 0.76076,5.299992 c 0.0822,0.48 0.51402,0.84 1.02804,0.84 l 8.22442,0 c 0.51404,0 0.94582,-0.36 1.02806,-0.84 l 0.76076,-5.299992 c 1.29534,-0.52 2.40564,-1.18 3.47482,-1.98 l 5.1197,2.02 c 0.45236,0.16 1.0075,0 1.25424,-0.44 l 4.1122,-6.92 c 0.24674,-0.44 0.144,-0.98 -0.24672,-1.28 l -4.3384,-3.32 z" />
</svg>
