<?xml version="1.0" encoding="UTF-8" standalone="no"?>
<svg
   xmlns:dc="http://purl.org/dc/elements/1.1/"
   xmlns:cc="http://creativecommons.org/ns#"
   xmlns:rdf="http://www.w3.org/1999/02/22-rdf-syntax-ns#"
   xmlns:svg="http://www.w3.org/2000/svg"
   xmlns="http://www.w3.org/2000/svg"
   id="svg11300"
   height="84"
   width="260"
   version="1.1">
  <metadata
     id="metadata16">
    <rdf:RDF>
      <cc:Work
         rdf:about="">
        <dc:format>image/svg+xml</dc:format>
        <dc:type
           rdf:resource="com.mkulesh.micromath" />
        <dc:title></dc:title>
      </cc:Work>
    </rdf:RDF>
  </metadata>
  <defs
     id="defs3" />
  <g
     id="Revert"
     transform="matrix(0.86150698,0,0,1,-488.66976,-507.4504)" />
  <path
     style="fill:#000000;fill-opacity:1;stroke:none;stroke-width:1;stroke-miterlimit:4;stroke-dasharray:none;stroke-opacity:1"
     id="path4-3"
     d="m 33.846363,20.140408 c -5.3,0 -10.1,2 -13.8,5.2 l -7.2,-7.2 v 18 h 18 l -7.24,-7.24 c 2.78,-2.32 6.32,-3.76 10.24,-3.76 7.08,0 13.1,4.62 15.2,11 l 4.74,-1.56 c -2.78,-8.38 -10.64,-14.44 -19.94,-14.44 z" />
  <path
     style="fill:#000000;fill-opacity:1;stroke:none;stroke-width:1;stroke-miterlimit:4;stroke-dasharray:none;stroke-opacity:1"
     id="path4-5"
     d="M 75.789034,33.140412 H 91.78903 v -4 H 75.789034 Z m 32.000006,-4 v -8 h -4.00001 v 8 h -8 v 4 h 8 v 8 h 4.00001 v -8 h 8 v -4 z m -8.000006,-16 h -24 v 4 h 24 z m 0,8 h -24 v 4 h 24 z" />
  <path
     style="fill:#000000;fill-opacity:1;stroke:none;stroke-width:1;stroke-miterlimit:4;stroke-dasharray:none;stroke-opacity:1"
     id="path4-8"
     d="m 171.42172,12.100407 h -6.58 l -1.88,-1.88 h -9.4 l -1.88,1.88 h -6.58 v 3.76 h 26.32 z m -24.44,28.200004 c 0,2.07659 1.68341,3.759998 3.76,3.759998 h 15.04 c 2.07659,0 3.76,-1.683408 3.76,-3.759998 V 17.740407 h -22.56 z" />
  <path
     style="fill:#000000;fill-opacity:1;stroke:none;stroke-width:1;stroke-miterlimit:4;stroke-dasharray:none;stroke-opacity:1"
     id="path4-6"
     d="m 220.73896,34.140412 a 7.1963724,7 0 0 1 -7.19638,-7 7.1963724,7 0 0 1 7.19638,-7 7.1963724,7 0 0 1 7.19636,7 7.1963724,7 0 0 1 -7.19636,7 m 15.27686,-5.06 c 0.0822,-0.64 0.144,-1.28 0.144,-1.94 0,-0.66 -0.0616,-1.32 -0.144,-2 l 4.3384,-3.26 c 0.39066,-0.3 0.49346,-0.84 0.24672,-1.28 l -4.1122,-6.92 c -0.24674,-0.44 -0.80188,-0.62 -1.25424,-0.44 l -5.1197,2 c -1.06918,-0.78 -2.17948,-1.46 -3.47482,-1.96 l -0.76076,-5.2999999 c -0.0822,-0.48 -0.51402,-0.84 -1.02806,-0.84 h -8.22442 c -0.51402,0 -0.9458,0.36 -1.02804,0.84 l -0.76076,5.2999999 c -1.29536,0.5 -2.40566,1.18 -3.47482,1.96 l -5.11972,-2 c -0.45234,-0.18 -1.00748,0 -1.25422,0.44 l -4.11222,6.92 c -0.26728,0.44 -0.144,0.98 0.24674,1.28 l 4.33838,3.26 c -0.0822,0.68 -0.144,1.34 -0.144,2 0,0.66 0.0616,1.3 0.144,1.94 l -4.33838,3.32 c -0.39066,0.3 -0.51402,0.84 -0.24674,1.28 l 4.11222,6.92 c 0.24674,0.44 0.80188,0.6 1.25422,0.44 l 5.11972,-2.02 c 1.06916,0.8 2.17946,1.48 3.47482,1.98 l 0.76076,5.299992 c 0.0822,0.48 0.51402,0.84 1.02804,0.84 h 8.22442 c 0.51404,0 0.94582,-0.36 1.02806,-0.84 l 0.76076,-5.299992 c 1.29534,-0.52 2.40564,-1.18 3.47482,-1.98 l 5.1197,2.02 c 0.45236,0.16 1.0075,0 1.25424,-0.44 l 4.1122,-6.92 c 0.24674,-0.44 0.144,-0.98 -0.24672,-1.28 z" />
  <rect
     width="53.77887"
     height="54"
     rx="0"
     ry="0"
     x="193.37477"
     y="0.16932097"
     id="rect3644"
     style="fill:#000000;fill-opacity:0.30196078;stroke:none" />
  <g
     transform="translate(122.07808)"
     id="g887">
    <path
       d="m 72.353699,81.792529 c -0.97359,1.87902 -2.79707,1.60866 -4.61093,0.83587 -2.56581,-1.09344 -5.64178,-5.87234 -5.76971,-8.09473 -0.11743,-2.03964 0.8809,-3.61036 2.72496,-3.77232"
       id="path3894-6-5-0-6"
       style="opacity:1;fill:#000000;fill-opacity:0.1;stroke:#000000;stroke-width:1.22714496;stroke-linecap:round;stroke-linejoin:round" />
    <path
       d="m 72.066379,58.90712 c -4.38359,2.48755 -8.33654,9.987289 -6.7001,14.867089 0.84491,2.51974 4.29799,7.20748 7.02468,7.90699 4.66878,1.1976 8.93847,0.59388 13.33131,-1.23995 1.55717,-0.65 3.2722,-1.49551 4.40719,-2.46861 4.82867,-4.14012 2.68479,-6.76442 2.04664,-7.90527 1.85589,-2.09963 1.74546,-5.40655 -1.4018,-7.939478 2.87824,-1.858778 4.72237,-2.916176 7.62562,-4.455689 4.856271,-2.575124 0.52835,-9.812132 -4.81592,-5.919212 -3.63936,2.65109 -6.9167,4.392196 -10.96848,6.104315 -0.9074,-0.593174 -5.97252,-1.547537 -10.54898,1.049464 z"
       id="path3112-2-1-9-7"
       style="opacity:1;fill:#060606;fill-opacity:0.1;stroke:#000000;stroke-width:1.22714496;stroke-linecap:round;stroke-linejoin:round;stroke-opacity:1" />
    <path
       d="m 90.567579,61.56996 c -2.75845,1.758452 -4.69219,3.384809 -5.72302,6.073639 1.31613,-1.68372 4.68874,-4.112205 6.95406,-5.482504 z"
       id="path3882-6-0-9-5"
       style="color:#000000;text-indent:0;text-transform:none;opacity:0.7;stroke-width:0.30214825" />
    <path
       d="m 92.941689,70.100559 -1.0936,-0.59692 c -1.1525,1.38358 -2.4555,2.92785 -2.799,4.18273 0.50575,-0.68636 2.85123,-2.51021 3.89254,-3.58578 z"
       id="path3884-6-5-0-3"
       style="color:#000000;text-indent:0;text-transform:none;opacity:0.7;stroke-width:0.30214825" />
    <path
       d="m 72.614469,78.298729 c 3.34351,-0.75169 4.08368,-1.24136 5.63721,-1.81298"
       id="path3886-8-8-3-5"
       style="opacity:0.9;fill:none;stroke:#000000;stroke-width:1.22714496;stroke-linecap:round;stroke-linejoin:round" />
    <path
       d="m 70.719009,76.322709 c 3.40133,-1.58235 4.88301,-2.61205 7.04968,-3.839"
       id="path3888-4-1-5-6"
       style="opacity:0.9;fill:none;stroke:#000000;stroke-width:1.22714496;stroke-linecap:round;stroke-linejoin:round" />
    <path
       d="m 68.543289,73.902199 c 2.16911,-1.34167 3.05975,-2.14176 4.34655,-3.10963"
       id="path3890-1-7-5-2"
       style="opacity:0.9;fill:none;stroke:#000000;stroke-width:1.22714496;stroke-linecap:round;stroke-linejoin:round" />
    <path
       d="m 82.672179,57.230372 c -3.56955,1.685438 -9.66828,4.028276 -11.1768,5.453583 1.29119,-0.416929 10.58786,-3.879778 12.36484,-4.742613 z"
       id="path3892-0-5-3-9"
       style="color:#000000;text-indent:0;text-transform:none;opacity:0.7;stroke-width:0.30214825" />
  </g>
</svg>
