<?xml version="1.0" encoding="UTF-8" standalone="no"?><svg   xmlns:ns0="http://www.iki.fi/pav/software/textext/"   xmlns:dc="http://purl.org/dc/elements/1.1/"   xmlns:cc="http://creativecommons.org/ns#"   xmlns:rdf="http://www.w3.org/1999/02/22-rdf-syntax-ns#"   xmlns:svg="http://www.w3.org/2000/svg"   xmlns="http://www.w3.org/2000/svg"   version="1.0"   id="svg2"   height="300"   width="620">  <defs     id="defs4" />  <metadata     id="metadata7">    <rdf:RDF>      <cc:Work         rdf:about="">        <dc:format>image/svg+xml</dc:format>        <dc:type           rdf:resource="http://purl.org/dc/dcmitype/StillImage" />        <dc:title></dc:title>      </cc:Work>    </rdf:RDF>  </metadata>  <g     transform="translate(466.54663,229.07318)"     id="layer1">    <g       transform="translate(10.309036,-11.556335)"       id="g1140">      <text         x="16.057711"         y="14.743889"         xml:space="preserve"         style="font-style:normal;font-weight:normal;font-size:40px;line-height:0%;font-family:'Bitstream Vera Sans';fill:none;fill-opacity:1;stroke:#000000;stroke-width:2;stroke-linecap:round;stroke-linejoin:miter;stroke-miterlimit:5.78694439;stroke-dasharray:none;stroke-opacity:1"         id="text10397"><tspan           x="16.057711"           y="14.743889"           style="fill:none;stroke:#000000;stroke-width:2;stroke-linecap:round;stroke-miterlimit:5.78694439;stroke-dasharray:none;stroke-opacity:1"           id="tspan10399"><tspan             style="font-style:normal;font-variant:normal;font-weight:normal;font-stretch:normal;font-size:40px;line-height:100%;font-family:Arial;-inkscape-font-specification:Arial;text-align:start;writing-mode:lr-tb;text-anchor:start;fill:none;stroke:#000000;stroke-width:2;stroke-linecap:round;stroke-miterlimit:5.78694439;stroke-dasharray:none;stroke-opacity:1"             id="tspan10401" /></tspan></text>      <path         d="M 29.96649,-9.291929 58.531927,-19.488053 29.96649,-30.291929 m 0,0 28.565437,-10.249745 -28.565437,-10.750255 m 0,-21 28.659637,-10.328294 -14.41669,-5.26751 M 29.96649,-51.291929 58.531927,-61.578784 29.96649,-72.291929 m 0,63 14,5 m 0.02254,-97.892291 v 14.093427"         style="fill:none;fill-opacity:1;fill-rule:nonzero;stroke:#000000;stroke-width:2;stroke-linecap:round;stroke-linejoin:round;stroke-miterlimit:5.78694439;stroke-dasharray:none;stroke-dashoffset:0;stroke-opacity:1"         id="path3963" />      <g         id="g11517"         ns0:preamble=""         ns0:text="$\nR_ \\mathrm L\n$"         style="font-style:normal;font-variant:normal;font-weight:normal;font-stretch:normal;letter-spacing:normal;word-spacing:normal;text-anchor:start;fill:#000000;fill-opacity:1;fill-rule:evenodd;stroke:#000000;stroke-width:0.44709635;stroke-linecap:round;stroke-linejoin:miter;stroke-miterlimit:5.78694439;stroke-dasharray:none;stroke-dashoffset:0;stroke-opacity:1"         xml:space="preserve"         transform="matrix(4.7428709,0,0,-4.2190673,-985.4894,2947.3176)"><path           id="path11519"           style="fill:#000000;fill-opacity:1;stroke:#000000;stroke-width:0.44709635;stroke-linecap:round;stroke-miterlimit:5.78694439;stroke-dasharray:none;stroke-opacity:1"           d="m 228.6,710.51 0.1,0.02 0.09,0.03 0.1,0.02 0.1,0.03 0.09,0.04 0.1,0.03 0.09,0.04 0.1,0.04 0.09,0.04 0.1,0.05 0.09,0.05 0.09,0.05 0.09,0.05 0.08,0.06 0.09,0.06 0.08,0.06 0.07,0.06 0.08,0.06 0.07,0.07 0.07,0.07 0.06,0.07 0.06,0.07 0.05,0.08 0.05,0.08 0.05,0.08 0.04,0.08 0.03,0.08 0.03,0.09 0.02,0.09 0.02,0.09 0.01,0.09 v 0.09 c 0,0.86 -0.89,1.5 -2.2,1.5 h -2.84 c -0.2,0 -0.29,0 -0.29,-0.2 0,-0.11 0.09,-0.11 0.28,-0.11 0.02,0 0.21,0 0.38,-0.02 0.18,-0.02 0.27,-0.03 0.27,-0.16 0,-0.04 -0.01,-0.07 -0.04,-0.19 l -1.33,-5.35 c -0.1,-0.39 -0.12,-0.47 -0.91,-0.47 -0.18,0 -0.27,0 -0.27,-0.2 0,-0.11 0.12,-0.11 0.14,-0.11 0.28,0 0.98,0.03 1.26,0.03 0.27,0 0.98,-0.03 1.26,-0.03 0.08,0 0.2,0 0.2,0.2 0,0.11 -0.09,0.11 -0.28,0.11 -0.37,0 -0.65,0 -0.65,0.18 0,0.06 0.02,0.11 0.03,0.17 l 0.66,2.64 h 1.19 l -0.01,0.22 h -1.12 l 0.65,2.6 c 0.06,0.24 0.09,0.34 0.28,0.37 0.09,0.01 0.41,0.01 0.6,0.01 0.71,0 1.82,0 1.82,-0.99 0,-0.34 -0.16,-1.02 -0.55,-1.41 -0.26,-0.26 -0.79,-0.58 -1.68,-0.58 l 0.01,-0.22 c 0.9,0 1.08,-0.56 1.08,-0.91 0,-0.15 -0.08,-0.46 -0.14,-0.68 -0.07,-0.28 -0.16,-0.65 -0.16,-0.85 0,-1.08 1.2,-1.08 1.33,-1.08 0.85,0 1.19,1.01 1.19,1.15 0,0.12 -0.1,0.12 -0.11,0.12 -0.1,0 -0.11,-0.07 -0.13,-0.14 -0.25,-0.74 -0.68,-0.91 -0.91,-0.91 -0.33,0 -0.4,0.22 -0.4,0.61 0,0.31 0.06,0.82 0.1,1.14 0.02,0.14 0.04,0.33 0.04,0.46 0,0.77 -0.67,1.08 -0.94,1.18 z" /><path           id="path11521"           style="fill:#000000;fill-opacity:1;stroke:#000000;stroke-width:0.44709635;stroke-linecap:round;stroke-miterlimit:5.78694439;stroke-dasharray:none;stroke-opacity:1"           d="m 235.54,707.46 h -0.24 c -0.07,-0.68 -0.18,-1.58 -1.5,-1.58 h -0.69 c -0.33,0 -0.34,0.06 -0.34,0.27 v 3.67 c 0,0.23 0,0.32 0.66,0.32 h 0.24 v 0.25 c -0.15,0 -1.04,-0.03 -1.22,-0.03 -0.26,0 -1.05,0.03 -1.06,0.03 v -0.25 h 0.17 c 0.54,0 0.55,-0.07 0.55,-0.31 v -3.63 c 0,-0.24 -0.01,-0.32 -0.55,-0.32 h -0.17 v -0.25 h 3.94 z" /></g>      <g         transform="matrix(4.7428709,0,0,-4.2190673,-1275.131,2957.2236)"         xml:space="preserve"         style="font-style:normal;font-variant:normal;font-weight:normal;font-stretch:normal;letter-spacing:normal;word-spacing:normal;text-anchor:start;fill:#000000;fill-opacity:1;fill-rule:evenodd;stroke:#000000;stroke-width:0.44709635;stroke-linecap:round;stroke-linejoin:miter;stroke-miterlimit:5.78694439;stroke-dasharray:none;stroke-dashoffset:0;stroke-opacity:1"         ns0:text="$\nC\n$"         ns0:preamble=""         id="g13211"><path           d="m 231,714.05 v 0 0 0.01 0 0 0.01 0 0 0.01 0 l -0.01,0.01 v 0 0.01 0 0 l -0.01,0.01 v 0 0.01 h -0.01 v 0 l -0.01,0.01 v 0 h -0.01 v 0 l -0.01,0.01 v 0 0 h -0.01 v 0 0 h -0.01 v 0 0 h -0.01 v 0.01 0 h -0.01 v 0 h -0.01 c -0.02,0 -0.04,-0.01 -0.15,-0.12 l -0.69,-0.77 c -0.09,0.14 -0.55,0.89 -1.66,0.89 -2.22,0 -4.46,-2.21 -4.46,-4.52 0,-1.64 1.18,-2.73 2.7,-2.73 0.87,0 1.62,0.4 2.15,0.86 0.93,0.82 1.1,1.72 1.1,1.75 0,0.1 -0.1,0.1 -0.12,0.1 -0.06,0 -0.11,-0.02 -0.13,-0.1 -0.09,-0.29 -0.32,-0.99 -1.01,-1.57 -0.68,-0.56 -1.31,-0.73 -1.83,-0.73 -0.9,0 -1.95,0.52 -1.95,2.07 0,0.57 0.21,2.19 1.2,3.35 0.61,0.71 1.55,1.21 2.43,1.21 1.02,0 1.61,-0.77 1.61,-1.93 0,-0.39 -0.03,-0.4 -0.03,-0.5 0,-0.1 0.11,-0.1 0.15,-0.1 0.13,0 0.13,0.02 0.18,0.2 z"           style="fill:#000000;fill-opacity:1;stroke:#000000;stroke-width:0.44709635;stroke-linecap:round;stroke-miterlimit:5.78694439;stroke-dasharray:none;stroke-opacity:1"           id="path13213" /></g>      <g         transform="rotate(90.061699,-113.2268,-132.55661)"         id="g13215"         style="fill:#000000;fill-opacity:1;stroke:#000000;stroke-width:2.00000024;stroke-linecap:round;stroke-miterlimit:5.78694439;stroke-dasharray:none;stroke-opacity:1">        <rect           width="5.0178571"           height="38.135715"           ry="1.0035714"           x="-37.132141"           y="-120.42857"           id="rect13217"           style="fill:#000000;fill-opacity:1;stroke:#000000;stroke-width:2.00000024;stroke-linecap:round;stroke-miterlimit:5.78694439;stroke-dasharray:none;stroke-opacity:1" />        <rect           width="5.0178571"           height="38.135715"           ry="1.0035714"           x="-15.555355"           y="-120.42857"           id="rect13219"           style="fill:#000000;fill-opacity:1;stroke:#000000;stroke-width:2.00000024;stroke-linecap:round;stroke-miterlimit:5.78694439;stroke-dasharray:none;stroke-opacity:1" />      </g>      <path         id="path13221"         style="fill:none;fill-opacity:1;fill-rule:nonzero;stroke:#000000;stroke-width:2;stroke-linecap:round;stroke-linejoin:round;stroke-miterlimit:5.78694439;stroke-dasharray:none;stroke-dashoffset:0;stroke-opacity:1"         d="m -281.56455,-163.74767 c -1.2274,-0.13799 -2.6642,-0.0144 -4.3087,0.22511 -6.7547,0.9835 -16.3202,6.20049 -15.2944,20.74309 0.8449,11.9781 1.6284,13.105 3.7356,15.9423 1.461,1.9671 4.503,2.15401 4.503,2.15401 m -20.56446,-18.1545 c 0.3859,-2.9277 0.63146,-10.13371 3.96316,-14.7572 2.887,-4.00631 7.4324,-5.665 9.6952,-5.9277 6.7804,-0.7873 16.3202,6.20049 15.2944,20.74309 -0.8449,11.9781 -1.6284,13.105 -3.7356,15.9423 -1.461,1.9671 -4.503,2.15401 -4.503,2.15401 m 34.3641,-39.06451 c -1.2274,-0.13799 -2.6642,-0.0144 -4.3087,0.22511 -6.7547,0.9835 -16.3202,6.20049 -15.2944,20.74309 0.8449,11.9781 1.6284,13.105 3.7356,15.9423 1.461,1.9671 4.503,2.15401 4.503,2.15401 m -11.2148,-39.06451 c 1.2274,-0.13799 2.6642,-0.0144 4.3087,0.22511 6.7547,0.9835 16.3202,6.20049 15.2944,20.74309 -0.8449,11.9781 -1.6284,13.105 -3.7356,15.9423 -1.461,1.9671 -4.503,2.15401 -4.503,2.15401 m 34.364,-39.06451 c -1.2273,-0.13799 -2.6641,-0.0144 -4.3086,0.22511 -6.7548,0.9835 -16.3203,6.20049 -15.2945,20.74309 0.8449,11.9781 1.6284,13.105 3.7357,15.9423 1.4609,1.9671 4.5029,2.15401 4.5029,2.15401 m -11.2147,-39.06451 c 1.2273,-0.13799 2.6641,-0.0144 4.3086,0.22511 6.7547,0.9835 16.3203,6.20049 15.2945,20.74309 -0.8449,11.9781 -1.6285,13.105 -3.7357,15.9423 -1.4609,1.9671 -4.503,2.15401 -4.503,2.15401 m 43.8783,-18.1545 c 0.3059,-2.4324 -0.4056,-9.3372 -3.0443,-14.23891 -2.9352,-5.45249 -7.3664,-6.5073 -10.7786,-6.44599 -4.6761,0.087 -16.3203,6.20049 -15.2945,20.74309 0.845,11.9781 1.6285,13.105 3.7357,15.9423 1.4609,1.9671 4.503,2.15401 4.503,2.15401 m -11.2148,-39.06451 c 1.2274,-0.13799 2.6641,-0.0144 4.3087,0.22511 6.7547,0.9835 16.3202,6.20049 15.2944,20.74309 -0.8449,11.9781 -1.6284,13.105 -3.7357,15.9423 -1.4609,1.9671 -4.5029,2.15401 -4.5029,2.15401" />      <text         x="-4.0123978"         y="30.84457"         xml:space="preserve"         style="font-style:normal;font-weight:normal;font-size:40px;line-height:0%;font-family:'Bitstream Vera Sans';fill:none;fill-opacity:1;stroke:#000000;stroke-width:2;stroke-linecap:round;stroke-linejoin:miter;stroke-miterlimit:5.78694439;stroke-dasharray:none;stroke-opacity:1"         id="text13223"><tspan           x="-4.0123978"           y="30.84457"           style="fill:none;stroke:#000000;stroke-width:2;stroke-linecap:round;stroke-miterlimit:5.78694439;stroke-dasharray:none;stroke-opacity:1"           id="tspan13225"><tspan             style="font-style:normal;font-variant:normal;font-weight:normal;font-stretch:normal;font-size:40px;line-height:100%;font-family:Arial;-inkscape-font-specification:Arial;text-align:start;writing-mode:lr-tb;text-anchor:start;fill:none;stroke:#000000;stroke-width:2;stroke-linecap:round;stroke-miterlimit:5.78694439;stroke-dasharray:none;stroke-opacity:1"             id="tspan13227" /></tspan></text>      <path         d="m -138.38914,63.86342 c 0.001,3.3482 -2.7126,6.0634 -6.0609,6.0634 -3.3483,0 -6.0623,-2.7152 -6.0609,-6.0634 -0.001,-3.3483 2.7126,-6.0632 6.0609,-6.0632 3.3483,0 6.0622,2.7149 6.0609,6.0632 z"         id="path13229"         style="display:inline;fill:#000000;fill-opacity:1;stroke:#000000;stroke-width:2;stroke-linecap:round;stroke-miterlimit:5.78694439;stroke-dasharray:none;stroke-opacity:1" />      <path         style="fill:none;fill-opacity:1;fill-rule:nonzero;stroke:#000000;stroke-width:2;stroke-linecap:round;stroke-linejoin:round;stroke-miterlimit:5.78694439;stroke-dasharray:none;stroke-dashoffset:0;stroke-opacity:1"         d="m -201.82744,-142.31975 156.79393,0.0278"         id="path10407" />      <path         style="fill:none;fill-opacity:1;fill-rule:nonzero;stroke:#000000;stroke-width:2;stroke-linecap:round;stroke-linejoin:round;stroke-miterlimit:5.78694439;stroke-dasharray:none;stroke-dashoffset:0;stroke-opacity:1"         d="M -449.5199,63.75602 -45.03351,63.70807"         id="path13234" />      <path         d="m -138.20969,-142.31981 c 0.001,3.34831 -2.7126,6.0634 -6.0609,6.0634 -3.3483,0 -6.0623,-2.71509 -6.0609,-6.0634 -0.001,-3.34829 2.7126,-6.0633 6.0609,-6.0633 3.3483,0 6.0622,2.71501 6.0609,6.0633 z"         id="path13236"         style="display:inline;fill:#000000;fill-opacity:1;stroke:#000000;stroke-width:2;stroke-linecap:round;stroke-miterlimit:5.78694439;stroke-dasharray:none;stroke-opacity:1" />      <path         style="fill:none;fill-opacity:1;fill-rule:nonzero;stroke:#000000;stroke-width:2;stroke-linecap:round;stroke-linejoin:round;stroke-miterlimit:5.78694439;stroke-dasharray:none;stroke-dashoffset:0;stroke-opacity:1"         d="m -144.51894,-141.94244 v 85.5964"         id="path10413" />      <path         style="fill:none;fill-opacity:1;fill-rule:nonzero;stroke:#000000;stroke-width:2;stroke-linecap:round;stroke-linejoin:round;stroke-miterlimit:5.78694439;stroke-dasharray:none;stroke-dashoffset:0;stroke-opacity:1"         d="m -144.03351,-29.291929 -0.30023,91.283249"         id="path10415" />      <path         d="m -449.44743,-142.31975 c 10e-4,3.34829 -2.7126,6.0634 -6.0609,6.0634 -3.3483,0 -6.0623,-2.71511 -6.0609,-6.0634 -10e-4,-3.34831 2.7126,-6.0634 6.0609,-6.0634 3.3483,0 6.0622,2.71509 6.0609,6.0634 z"         id="path13240"         style="display:inline;fill:none;fill-opacity:1;stroke:#000000;stroke-width:2;stroke-linecap:round;stroke-miterlimit:5.78694439;stroke-dasharray:none;stroke-opacity:1" />      <path         d="m -449.44771,63.86352 c 10e-4,3.3483 -2.7126,6.0633 -6.0609,6.0633 -3.3483,0 -6.0623,-2.715 -6.0609,-6.0633 -0.001,-3.3484 2.7126,-6.0634 6.0609,-6.0634 3.3483,0 6.0622,2.715 6.0609,6.0634 z"         id="path13242"         style="display:inline;fill:none;fill-opacity:1;stroke:#000000;stroke-width:2;stroke-linecap:round;stroke-miterlimit:5.78694439;stroke-dasharray:none;stroke-opacity:1" />      <g         id="g13246"         ns0:preamble=""         ns0:text="$\nL\n$"         style="font-style:normal;font-variant:normal;font-weight:normal;font-stretch:normal;letter-spacing:normal;word-spacing:normal;text-anchor:start;fill:#000000;fill-opacity:1;fill-rule:evenodd;stroke:#000000;stroke-width:0.44709635;stroke-linecap:round;stroke-linejoin:miter;stroke-miterlimit:5.78694439;stroke-dasharray:none;stroke-dashoffset:0;stroke-opacity:1"         xml:space="preserve"         transform="matrix(4.7428709,0,0,-4.2190673,-1253.1342,3249.7292)"><path           id="path13248"           style="fill:#000000;fill-opacity:1;stroke:#000000;stroke-width:0.44709635;stroke-linecap:round;stroke-miterlimit:5.78694439;stroke-dasharray:none;stroke-opacity:1"           d="m 210.14366,817.81488 0.01,0.03 0.01,0.03 v 0.03 l 0.01,0.03 0.01,0.03 0.01,0.03 0.01,0.02 0.01,0.02 0.01,0.03 0.01,0.02 0.02,0.02 0.02,0.02 0.01,0.01 0.02,0.02 0.02,0.01 0.03,0.02 0.03,0.01 0.03,0.01 0.03,0.01 0.03,0.01 0.02,0.01 h 0.02 l 0.02,0.01 h 0.02 l 0.03,0.01 h 0.02 0.02 l 0.03,0.01 h 0.02 0.03 0.03 l 0.03,0.01 h 0.03 0.03 0.03 0.03 0.04 0.03 l 0.04,0.01 h 0.04 0.04 0.04 0.04 0.04 c 0.3,0 0.38,0 0.38,0.19 0,0.12 -0.11,0.12 -0.16,0.12 -0.33,0 -1.14,-0.03 -1.47,-0.03 -0.3,0 -1.03,0.03 -1.33,0.03 -0.07,0 -0.18,0 -0.18,-0.2 0,-0.11 0.09,-0.11 0.27,-0.11 0.02,0 0.21,0 0.38,-0.02 0.18,-0.02 0.27,-0.03 0.27,-0.16 0,-0.04 -0.01,-0.07 -0.04,-0.19 l -1.33,-5.35 c -0.1,-0.39 -0.12,-0.47 -0.91,-0.47 -0.17,0 -0.27,0 -0.27,-0.2 0,-0.11 0.09,-0.11 0.27,-0.11 h 4.61 c 0.24,0 0.25,0 0.31,0.17 l 0.79,2.15 c 0.04,0.11 0.04,0.13 0.04,0.14 0,0.04 -0.03,0.11 -0.12,0.11 -0.09,0 -0.1,-0.05 -0.17,-0.21 -0.34,-0.91 -0.78,-2.05 -2.5,-2.05 h -0.94 c -0.14,0 -0.16,0 -0.22,0.01 -0.1,0.01 -0.13,0.02 -0.13,0.1 0,0.03 0,0.05 0.05,0.23 z" /></g>      <path         style="opacity:1;fill:none;fill-opacity:1;fill-rule:evenodd;stroke:#000000;stroke-width:2;stroke-linecap:round;stroke-linejoin:miter;stroke-miterlimit:5.78694439;stroke-dasharray:none;stroke-dashoffset:0;stroke-opacity:1"         d="m -33.03351,-142.29193 h 77 l 0.07117,49.502473"         id="path13335" />      <path         style="opacity:1;fill:none;fill-opacity:1;fill-rule:evenodd;stroke:#000000;stroke-width:2;stroke-linecap:round;stroke-linejoin:miter;stroke-miterlimit:5.78694439;stroke-dasharray:none;stroke-dashoffset:0;stroke-opacity:1"         d="m -33.03351,63.708071 77.071169,0.07612 -0.07117,-68.07612"         id="path13337" />      <path         d="m -32.94766,63.86342 c 0.0013,3.3483 -2.7126,6.0634 -6.0609,6.0634 -3.3483,0 -6.0623,-2.7151 -6.0609,-6.0634 -0.0014,-3.3482 2.7126,-6.0634 6.0609,-6.0634 3.3483,0 6.0622,2.7152 6.0609,6.0634 z"         id="path10421"         style="display:inline;fill:none;fill-opacity:1;stroke:#000000;stroke-width:2;stroke-linecap:round;stroke-miterlimit:5.78694439;stroke-dasharray:none;stroke-opacity:1" />      <path         d="m -32.94766,-142.31975 c 0.0013,3.34829 -2.7126,6.0634 -6.0609,6.0634 -3.3483,0 -6.0623,-2.71511 -6.0609,-6.0634 -0.0014,-3.34831 2.7126,-6.0634 6.0609,-6.0634 3.3483,0 6.0622,2.71509 6.0609,6.0634 z"         id="path10427"         style="display:inline;fill:none;fill-opacity:1;stroke:#000000;stroke-width:2;stroke-linecap:round;stroke-miterlimit:5.78694439;stroke-dasharray:none;stroke-opacity:1" />      <text         xml:space="preserve"         style="font-style:normal;font-variant:normal;font-weight:normal;font-stretch:normal;line-height:0%;font-family:Arial;-inkscape-font-specification:Arial;text-align:start;writing-mode:lr-tb;text-anchor:start;fill:#000000;fill-opacity:1;stroke:#000000;stroke-width:2;stroke-linecap:round;stroke-linejoin:miter;stroke-miterlimit:5.78694439;stroke-dasharray:none;stroke-opacity:1"         x="-467.68726"         y="-25.291929"         id="text13359"><tspan           id="tspan13361"           x="-467.68726"           y="-25.291929"           style="font-size:32px;line-height:1;fill:#000000;fill-opacity:1;stroke:#000000;stroke-width:2;stroke-linecap:round;stroke-miterlimit:5.78694439;stroke-dasharray:none;stroke-opacity:1">in</tspan></text>      <text         xml:space="preserve"         style="font-style:normal;font-variant:normal;font-weight:normal;font-stretch:normal;line-height:0%;font-family:Arial;-inkscape-font-specification:Arial;text-align:start;writing-mode:lr-tb;text-anchor:start;fill:#000000;fill-opacity:1;stroke:#000000;stroke-width:2;stroke-linecap:round;stroke-linejoin:miter;stroke-miterlimit:5.78694439;stroke-dasharray:none;stroke-opacity:1"         x="-56.883965"         y="-25.604429"         id="text13363"><tspan           id="tspan13365"           x="-56.883965"           y="-25.604429"           style="font-size:32px;line-height:1;fill:#000000;fill-opacity:1;stroke:#000000;stroke-width:2;stroke-linecap:round;stroke-miterlimit:5.78694439;stroke-dasharray:none;stroke-opacity:1">out</tspan></text>      <path         d="m -434.12428,-142.21615 c 0.0712,0 5.40988,-14.49615 5.40988,-14.49615 l 10.39266,28.91284 10.28823,-28.49247 m 0,0 10.7654,28.49247 10.2346,-28.49247 m 21,0 10.84395,28.58667 5.26751,-14.41669 m -37.11146,-14.16998 10.80251,28.49247 10.19749,-28.49247 m -68.0626,14.07578 h -14.09343 m 134.69603,-0.12621 h -36.22548"         style="fill:none;fill-opacity:1;fill-rule:nonzero;stroke:#000000;stroke-width:2;stroke-linecap:round;stroke-linejoin:round;stroke-miterlimit:5.78694439;stroke-dasharray:none;stroke-dashoffset:0;stroke-opacity:1"         id="path3963-3" />      <path         d="m -393.75351,-190.52278 0.47428,-0.0844 0.42686,-0.12657 0.47429,-0.0844 0.47429,-0.12657 0.42686,-0.16877 0.47428,-0.12657 0.42686,-0.16876 0.47429,-0.16876 0.42686,-0.16877 0.47428,-0.21095 0.42686,-0.21095 0.42686,-0.21096 0.42686,-0.21095 0.37943,-0.25314 0.42686,-0.25315 0.37943,-0.25314 0.332,-0.25315 0.37943,-0.25314 0.332,-0.29534 0.332,-0.29533 0.28457,-0.29533 0.28457,-0.29534 0.23715,-0.33752 0.23714,-0.33753 0.23714,-0.33753 0.18972,-0.33752 0.14229,-0.33753 0.14228,-0.37971 0.0949,-0.37972 0.0949,-0.37971 0.0474,-0.37972 v -0.37972 c 0,-3.62839 -4.22116,-6.3286 -10.43432,-6.3286 h -13.46975 c -0.94858,0 -1.37544,0 -1.37544,0.84382 0,0.46409 0.42686,0.46409 1.32801,0.46409 0.0949,0 0.996,0 1.80229,0.0844 0.85371,0.0844 1.28057,0.12658 1.28057,0.67506 0,0.16876 -0.0474,0.29533 -0.18971,0.80162 l -6.30802,22.57201 c -0.47429,1.64543 -0.56914,1.98296 -4.31601,1.98296 -0.85372,0 -1.28058,0 -1.28058,0.84381 0,0.4641 0.56915,0.4641 0.664,0.4641 1.32801,0 4.64802,-0.12657 5.97602,-0.12657 1.28058,0 4.64801,0.12657 5.97602,0.12657 0.37943,0 0.94857,0 0.94857,-0.84381 0,-0.4641 -0.42686,-0.4641 -1.328,-0.4641 -1.75486,0 -3.08287,0 -3.08287,-0.75943 0,-0.25315 0.0949,-0.4641 0.14229,-0.71724 l 3.13029,-11.13834 h 5.64402 l -0.0474,-0.9282 h -5.31201 l 3.08286,-10.96957 c 0.28457,-1.01258 0.42686,-1.43448 1.32801,-1.56106 0.42685,-0.0422 1.94457,-0.0422 2.84572,-0.0422 3.36744,0 8.63202,0 8.63202,4.17688 0,1.43448 -0.75886,4.30345 -2.60858,5.94888 -1.23314,1.09696 -3.74686,2.44706 -7.96802,2.44706 l 0.0474,0.9282 c 4.26858,0 5.1223,2.36268 5.1223,3.83935 0,0.63286 -0.37943,1.94077 -0.664,2.86897 -0.332,1.18133 -0.75886,2.74239 -0.75886,3.5862 0,4.5566 5.69144,4.5566 6.30802,4.5566 4.03144,0 5.64401,-4.26126 5.64401,-4.85193 0,-0.50629 -0.47428,-0.50629 -0.52171,-0.50629 -0.47429,0 -0.52172,0.29533 -0.61657,0.59067 -1.18572,3.12211 -3.22516,3.83935 -4.31602,3.83935 -1.56514,0 -1.89715,-0.92819 -1.89715,-2.57363 0,-1.30791 0.28458,-3.45964 0.47429,-4.80974 0.0949,-0.59067 0.18972,-1.39229 0.18972,-1.94077 0,-3.24868 -3.17773,-4.55659 -4.4583,-4.9785 z"         style="font-style:normal;font-variant:normal;font-weight:normal;font-stretch:normal;letter-spacing:normal;word-spacing:normal;text-anchor:start;fill:#000000;fill-opacity:1;fill-rule:evenodd;stroke:#000000;stroke-width:2;stroke-linecap:round;stroke-linejoin:miter;stroke-miterlimit:5.78694439;stroke-dasharray:none;stroke-dashoffset:0;stroke-opacity:1"         id="path11519-7" />    </g>  </g></svg>