<?xml version="1.0" encoding="UTF-8" standalone="no"?>
<svg
   xmlns:dc="http://purl.org/dc/elements/1.1/"
   xmlns:cc="http://creativecommons.org/ns#"
   xmlns:rdf="http://www.w3.org/1999/02/22-rdf-syntax-ns#"
   xmlns:svg="http://www.w3.org/2000/svg"
   xmlns="http://www.w3.org/2000/svg"
   version="1.1"
   width="48"
   height="48"
   id="svg11300">
  <metadata
     id="metadata11">
    <rdf:RDF>
      <cc:Work
         rdf:about="">
        <dc:format>image/svg+xml</dc:format>
        <dc:type
           rdf:resource="com.mkulesh.micromath" />
      </cc:Work>
    </rdf:RDF>
  </metadata>
  <defs
     id="defs3" />
  <path
     d="M 6.5,4 39.833333,4 41.5,12.64167 40.248957,13.184526 C 39.685776,10.99473 39.791423,10.550891 38.641664,9.169046 37.66989,8.0011128 35.666665,7.8095235 34.833333,7.8095235 c -1.032504,0 -2.850045,-0.019676 -4.999999,0 l -16.666667,0 13.719441,16.7612745 -13.027072,14.756758 17.529607,-0.06786 c 2.950924,0 4.591063,-0.382749 6.053551,-1.463148 1.381634,-1.020667 1.957716,-2.054969 2.737613,-4.867154 L 41.381252,33.127025 39.666217,44 6.5,44 6.5,42.938052 23.004059,24.766962 6.5,5.061948 6.5,4 z"
     id="path16657"
     style="fill:#000000;fill-opacity:1" />
</svg>
