<?xml version="1.0" encoding="UTF-8" standalone="no"?>
<svg
   xmlns:dc="http://purl.org/dc/elements/1.1/"
   xmlns:cc="http://creativecommons.org/ns#"
   xmlns:rdf="http://www.w3.org/1999/02/22-rdf-syntax-ns#"
   xmlns:svg="http://www.w3.org/2000/svg"
   xmlns="http://www.w3.org/2000/svg"
   version="1.1"
   width="48"
   height="48"
   id="svg2">
  <metadata
     id="metadata32">
    <rdf:RDF>
      <cc:Work
         rdf:about="">
        <dc:format>image/svg+xml</dc:format>
        <dc:type
           rdf:resource="com.mkulesh.micromath" />
      </cc:Work>
    </rdf:RDF>
  </metadata>
  <defs
     id="defs6" />
  <path
     d="m 13.285714,4.0000001 h 21.428571 a 4.2857143,4 0 0 1 4.285715,4 V 40 a 4.2857143,4 0 0 1 -4.285715,4 H 13.285714 A 4.2857143,4 0 0 1 9,40 V 8.0000001 a 4.2857143,4 0 0 1 4.285715,-4 m 0,4 V 16 h 21.42857 V 8.0000001 H 13.285714 m 0,11.9999999 v 4 h 4.285715 v -4 h -4.285715 m 8.571429,0 v 4 h 4.285713 v -4 h -4.285713 m 8.571428,0 v 4 h 4.285714 v -4 h -4.285714 m -17.142857,8 v 4 h 4.285715 v -4 h -4.285715 m 8.571429,0 v 4 h 4.285713 v -4 h -4.285713 m 8.571428,0 v 4 h 4.285714 v -4 h -4.285714 m -17.142857,8 v 4 h 4.285715 v -4 h -4.285715 m 8.571429,0 v 4 h 4.285713 v -4 h -4.285713 m 8.571428,0 v 4 h 4.285714 v -4 h -4.285714 z"
     id="path4"
     style="fill:#353535;fill-opacity:0.8;stroke:none" />
</svg>
