<?xml version="1.0" encoding="UTF-8" standalone="no"?>
<svg
   xmlns:dc="http://purl.org/dc/elements/1.1/"
   xmlns:cc="http://creativecommons.org/ns#"
   xmlns:rdf="http://www.w3.org/1999/02/22-rdf-syntax-ns#"
   xmlns:svg="http://www.w3.org/2000/svg"
   xmlns="http://www.w3.org/2000/svg"
   version="1.1"
   width="24"
   height="24"
   viewBox="0 0 24 24"
   id="svg4">
  <metadata
     id="metadata10">
    <rdf:RDF>
      <cc:Work
         rdf:about="">
        <dc:format>image/svg+xml</dc:format>
        <dc:type
           rdf:resource="http://purl.org/dc/dcmitype/StillImage" />
      </cc:Work>
    </rdf:RDF>
  </metadata>
  <defs
     id="defs8" />
  <path
     d="M7,2H17A2,2 0 0,1 19,4V20A2,2 0 0,1 17,22H7A2,2 0 0,1 5,20V4A2,2 0 0,1 7,2M7,4V8H17V4H7M7,10V12H9V10H7M11,10V12H13V10H11M15,10V12H17V10H15M7,14V16H9V14H7M11,14V16H13V14H11M15,14V16H17V14H15M7,18V20H9V18H7M11,18V20H13V18H11M15,18V20H17V18H15Z"
     id="path2" />
</svg>
