<?xml version="1.0" encoding="UTF-8" standalone="no"?>
<svg
   xmlns:dc="http://purl.org/dc/elements/1.1/"
   xmlns:cc="http://creativecommons.org/ns#"
   xmlns:rdf="http://www.w3.org/1999/02/22-rdf-syntax-ns#"
   xmlns:svg="http://www.w3.org/2000/svg"
   xmlns="http://www.w3.org/2000/svg"
   version="1.1"
   width="100%"
   height="100%"
   viewBox="0 0 48 48"
   id="svg6624">
  <metadata
     id="metadata11">
    <rdf:RDF>
      <cc:Work
         rdf:about="">
        <dc:format>image/svg+xml</dc:format>
        <dc:type
           rdf:resource="http://purl.org/dc/dcmitype/StillImage" />
      </cc:Work>
    </rdf:RDF>
  </metadata>
  <defs
     id="defs2904" />
  <g
     transform="matrix(0.95226213,0,0,0.95009361,-77.619699,-652.81818)"
     id="layer1">
    <path
       d="m 85.783458,725.37332 0,0.69138 0.391691,0.85093 1.077132,1.64868 1.419854,1.32959 1.32198,0.95732 0.783382,0.31909 2.594925,0.37228 22.424108,1.80825 11.84865,-34.67564 -1.22404,0.0532 -0.58753,-0.95732 -0.68545,-1.17001 -0.2448,-1.70187 -0.14689,-1.11682 0.53858,-2.34003 -0.34273,-0.0532 -21.15156,2.28691 -0.48961,0 -0.34273,-0.21273 -16.74495,31.11247 -0.440654,0.79774 z"
       id="path6726"
       style="fill:#353535;fill-opacity:0.8;stroke:#000000;stroke-width:0.14287686px" />
    <path
       d="m 86.4689,725.69247 0.342728,0.90413 0.93029,1.54229 1.32198,1.22321 1.126102,0.79774 0.734412,0.42546 2.448083,0.10637 21.787495,1.59548 11.65278,-33.34583 -0.48961,-0.26592 -1.27301,-2.02095 -0.29376,-3.24416 -11.99557,33.45222 -1.32198,0.15955 -24.970522,-1.32959 z"
       id="path6728"
       style="fill:#ffffff;stroke:#000000;stroke-width:0.5;stroke-miterlimit:4;stroke-dasharray:none" />
    <path
       d="M 86.860789,725.69247 103.55677,693.72964"
       id="path6730"
       style="fill:none;stroke:#000000;stroke-width:0.14287686px" />
    <path
       d="m 111.5858,727.12795 -0.0979,1.2764 0.39169,1.38278 1.66471,1.59548 1.17507,0.85094"
       id="path6732"
       style="fill:none;stroke:#000000;stroke-width:0.5;stroke-miterlimit:4;stroke-dasharray:none" />
  </g>
</svg>
