<?xml version="1.0" encoding="UTF-8" standalone="no"?>
<svg
   xmlns:dc="http://purl.org/dc/elements/1.1/"
   xmlns:cc="http://creativecommons.org/ns#"
   xmlns:rdf="http://www.w3.org/1999/02/22-rdf-syntax-ns#"
   xmlns:svg="http://www.w3.org/2000/svg"
   xmlns="http://www.w3.org/2000/svg"
   version="1.1"
   width="48"
   height="48"
   id="svg11300">
  <metadata
     id="metadata8">
    <rdf:RDF>
      <cc:Work
         rdf:about="">
        <dc:format>image/svg+xml</dc:format>
        <dc:type
           rdf:resource="com.mkulesh.micromath" />
      </cc:Work>
    </rdf:RDF>
  </metadata>
  <defs
     id="defs3" />
  <path
     d="m 19,38 7.5,0 0,6 -7.5,0 0,-6 M 24,4.0000001 c 3.926991,0 7.8298,1.2932771 10.606602,3.5147186 C 37.383404,9.7361601 39,12.858407 39,16 c -0.01144,2.86339 -1.675,5.34 -3.75,7.34 -2.075,2 -5.425,3.32 -7.075,5 C 26.5,30 26.5,32 26.5,34 L 19,34 c 0,-3.34 0,-6.16 1.675,-8.16 1.65,-2 5,-3.18 7.075,-4.5 2.075,-1.34 3.535169,-3.13661 3.75,-5.34 0,-3.141593 -3.573009,-6 -7.5,-6 -3.926991,0 -7.5,2.858407 -7.5,6 L 9,16 C 9,12.858407 10.616596,9.7361601 13.393398,7.5147187 16.1702,5.2932772 20.073009,4.0000001 24,4.0000001 z"
     id="path4"
     style="fill:#000000;fill-opacity:1" />
</svg>
