<?xml version="1.0" encoding="UTF-8" standalone="no"?>
<svg
   xmlns:dc="http://purl.org/dc/elements/1.1/"
   xmlns:cc="http://creativecommons.org/ns#"
   xmlns:rdf="http://www.w3.org/1999/02/22-rdf-syntax-ns#"
   xmlns:svg="http://www.w3.org/2000/svg"
   xmlns="http://www.w3.org/2000/svg"
   version="1.1"
   width="56"
   height="56"
   id="svg4387">
  <metadata
     id="metadata12">
    <rdf:RDF>
      <cc:Work
         rdf:about="">
        <dc:format>image/svg+xml</dc:format>
        <dc:type
           rdf:resource="http://purl.org/dc/dcmitype/StillImage" />
        <dc:title />
      </cc:Work>
    </rdf:RDF>
  </metadata>
  <defs
     id="defs4391">
    <filter
       color-interpolation-filters="sRGB"
       id="filter4391">
      <feGaussianBlur
         id="feGaussianBlur4393"
         stdDeviation="1.4065307" />
    </filter>
  </defs>
  <path
     d="M 28.78125,0.5625 A 27,27 0 0 0 1,27.53125 27,27 0 0 0 12.6875,49.75 25.782362,25.782362 0 0 1 2.21875,29 25.782362,25.782362 0 1 1 53.78125,29 25.782362,25.782362 0 0 1 42.375,50.375 27,27 0 0 0 55,27.53125 27,27 0 0 0 28.78125,0.5625 z M 42.375,50.375 a 27,27 0 0 1 -28,0.46875 25.782362,25.782362 0 0 0 28,-0.46875 z"
     transform="matrix(0.95471133,0,0,-0.95166191,1.2680828,55.340261)"
     id="path2930-9"
     style="fill:#000000;fill-opacity:1;stroke:none;filter:url(#filter4391)" />
  <path
     d="m 19.390953,16.334556 24,12 -24,12 0,-24 z"
     id="path4399"
     style="fill:#ffffff;fill-opacity:1;stroke:none" />
  <path
     d="m 55,27.048306 a 27,27 0 0 1 -54.00000024,0 27,27 0 1 1 54.00000024,0 z"
     id="path2930-3"
     style="fill:#ff8000;fill-opacity:0.70588235;stroke:none" />
  <rect
     width="24"
     height="24"
     rx="0"
     ry="0"
     x="16"
     y="15.048306"
     id="rect2994"
     style="fill:#ffffff;fill-opacity:1;stroke:none" />
</svg>
