<?xml version="1.0" encoding="UTF-8" standalone="no"?>
<svg
   xmlns:dc="http://purl.org/dc/elements/1.1/"
   xmlns:cc="http://creativecommons.org/ns#"
   xmlns:rdf="http://www.w3.org/1999/02/22-rdf-syntax-ns#"
   xmlns:svg="http://www.w3.org/2000/svg"
   xmlns="http://www.w3.org/2000/svg"
   version="1.1"
   width="56"
   height="56"
   viewBox="0 0 56 56"
   id="svg2">
  <metadata
     id="metadata17">
    <rdf:RDF>
      <cc:Work
         rdf:about="">
        <dc:format>image/svg+xml</dc:format>
        <dc:type
           rdf:resource="http://purl.org/dc/dcmitype/StillImage" />
      </cc:Work>
    </rdf:RDF>
  </metadata>
  <defs
     id="defs10">
    <filter
       color-interpolation-filters="sRGB"
       id="filter4391-1">
      <feGaussianBlur
         stdDeviation="1.4065307"
         id="feGaussianBlur4393-3" />
    </filter>
  </defs>
  <path
     d="m 3.862069,11.296552 41.37931,0 0,41.37931 -41.37931,0 z"
     id="path6"
     style="fill:none" />
  <path
     d="M 28.78125,0.5625 A 27,27 0 0 0 1,27.53125 27,27 0 0 0 12.6875,49.75 25.782362,25.782362 0 0 1 2.21875,29 25.782362,25.782362 0 1 1 53.78125,29 25.782362,25.782362 0 0 1 42.375,50.375 27,27 0 0 0 55,27.53125 27,27 0 0 0 28.78125,0.5625 z M 42.375,50.375 a 27,27 0 0 1 -28,0.46875 25.782362,25.782362 0 0 0 28,-0.46875 z"
     transform="matrix(0.82302701,0,0,-0.8203982,4.955244,52.082803)"
     id="path2930-9"
     style="fill:#000000;fill-opacity:1;stroke:none;filter:url(#filter4391-1)" />
  <path
     d="m 51.275862,27.693186 a 23.275862,23.275862 0 0 1 -46.551724,0 23.275862,23.275862 0 1 1 46.551724,0 z"
     id="path2930-3-8"
     style="fill:#ff8000;fill-opacity:0.70588235;stroke:none" />
  <g
     transform="translate(0,-0.193186)"
     id="g3864">
    <path
       d="m 40.5,23.411936 -2.5,3.76875 0,10.5125 -20,0 0,-20 15.349173,0 1.67834,-2.5 -16.215013,0 c -1.74533,0 -3.3125,1.326808 -3.3125,2.78125 l 0,19.4375 c 0,1.454442 1.56717,2.78125 3.3125,2.78125 l 18.34375,0 c 1.745329,0 3.34375,-1.326808 3.34375,-2.78125 l 0,-14 z"
       id="path4"
       style="fill:#ffffff;fill-opacity:1;stroke:none" />
    <g
       transform="matrix(0.47407287,0,0,0.58722393,-125.93336,-199.01355)"
       id="g963"
       style="fill:#ffffff;fill-opacity:1;stroke:none">
      <g
         id="g965"
         style="fill:#ffffff;fill-opacity:1;stroke:none">
        <path
           d="m 326.994,399.715 c -0.77,0.855 -2.02,0.847 -2.777,-0.02 L 308.44,381.664 c -0.758,-0.866 -0.67,-2.195 0.195,-2.953 l 4.727,-4.136 c 0.867,-0.757 2.195,-0.669 2.953,0.197 l 8.014,9.156 c 0.756,0.865 2.006,0.875 2.777,0.02 l 16.801,-18.668 c 0.77,-0.856 2.1,-0.926 2.955,-0.156 l 4.67,4.2 c 0.855,0.77 0.924,2.101 0.154,2.957 l -24.692,27.434 z"
           id="path967"
           style="fill:#ffffff;fill-opacity:1;stroke:none" />
      </g>
      <g
         id="g969"
         style="fill:#ffffff;fill-opacity:1;stroke:none" />
    </g>
  </g>
</svg>
