<?xml version="1.0" encoding="UTF-8" standalone="no"?>
<svg
   xmlns:dc="http://purl.org/dc/elements/1.1/"
   xmlns:cc="http://creativecommons.org/ns#"
   xmlns:rdf="http://www.w3.org/1999/02/22-rdf-syntax-ns#"
   xmlns:svg="http://www.w3.org/2000/svg"
   xmlns="http://www.w3.org/2000/svg"
   version="1.1"
   width="48"
   height="48"
   id="svg4387">
  <metadata
     id="metadata12">
    <rdf:RDF>
      <cc:Work
         rdf:about="">
        <dc:format>image/svg+xml</dc:format>
        <dc:type
           rdf:resource="http://purl.org/dc/dcmitype/StillImage" />
        <dc:title />
      </cc:Work>
    </rdf:RDF>
  </metadata>
  <defs
     id="defs4391" />
  <g
     transform="matrix(0.02566964,0,0,-0.03267045,-50.776575,33.171463)"
     id="g3988">
    <path
       d="m 2529.0356,-135.27343 v -192 q 0,-40 -28,-68 -28,-28 -68,-28 h -320 q -40,0 -68,28 -28,28 -28,68 v 192 q 0,39.999997 28,67.999997 28,28 68,28 h 320 q 40,0 68,-28 28,-28 28,-67.999997 z m 0,512 v -192 q 0,-40 -28,-68 -28,-28.000003 -68,-28.000003 h -320 q -40,0 -68,28.000003 -28,28 -28,68 v 192 q 0,40 28,68 28,28 68,28 h 320 q 40,0 68,-28 28,-28 28,-68 z m 1280,-512 v -192 q 0,-40 -28,-68 -28,-28 -68,-28 h -960 q -40,0 -68,28 -28,28 -28,68 v 192 q 0,39.999997 28,67.999997 28,28 68,28 h 960 q 40,0 68,-28 28,-28 28,-67.999997 z m -1280,1024 v -192 q 0,-40 -28,-68 -28,-28 -68,-28 h -320 q -40,0 -68,28 -28,28 -28,68 v 192 q 0,40 28,68 28,28 68,28 h 320 q 40,0 68,-28 28,-28 28,-68 z m 1280,-512 v -192 q 0,-40 -28,-68 -28,-28.000003 -68,-28.000003 h -960 q -40,0 -68,28.000003 -28,28 -28,68 v 192 q 0,40 28,68 28,28 68,28 h 960 q 40,0 68,-28 28,-28 28,-68 z m 0,512 v -192 q 0,-40 -28,-68 -28,-28 -68,-28 h -960 q -40,0 -68,28 -28,28 -28,68 v 192 q 0,40 28,68 28,28 68,28 h 960 q 40,0 68,-28 28,-28 28,-68 z"
       id="path3990"
       style="fill:#000000;fill-opacity:1" />
  </g>
</svg>
