<?xml version="1.0" encoding="UTF-8" standalone="no"?>
<svg
   xmlns:dc="http://purl.org/dc/elements/1.1/"
   xmlns:cc="http://creativecommons.org/ns#"
   xmlns:rdf="http://www.w3.org/1999/02/22-rdf-syntax-ns#"
   xmlns:svg="http://www.w3.org/2000/svg"
   xmlns="http://www.w3.org/2000/svg"
   height="58"
   width="58"
   version="1.1"
   id="Capa_1"
   x="0px"
   y="0px"
   viewBox="0 0 58 58"
   xml:space="preserve"><metadata
     id="metadata8771"><rdf:RDF><cc:Work
         rdf:about=""><dc:format>image/svg+xml</dc:format><dc:type
           rdf:resource="http://purl.org/dc/dcmitype/StillImage" /><dc:title /></cc:Work></rdf:RDF></metadata><defs
     id="defs8769" /><g
     transform="translate(1,1)"
     id="g11130"><path
       style="fill:#ffffff;fill-opacity:1;stroke:#ff5364;stroke-width:2;stroke-miterlimit:4;stroke-dasharray:none;stroke-opacity:1"
       d="M 36.985,0 7.963,0 C 7.155,0 6.5,0.655 6.5,1.926 L 6.5,55 c 0,0.345 0.655,1 1.463,1 l 40.074,0 c 0.808,0 1.463,-0.655 1.463,-1 l 0,-42.022 c 0,-0.696 -0.093,-0.92 -0.257,-1.085 L 37.607,0.257 C 37.442,0.093 37.218,0 36.985,0 Z"
       id="path8719" /><polygon
       style="fill:#ff5364;fill-opacity:1"
       points="37.5,0.151 37.5,12 49.349,12 "
       id="polygon8735" /></g><path
     id="path8721"
     d="M 49.037,57 8.963,57 C 8.155,57 7.5,56.345 7.5,55.537 L 7.5,40 l 43,0 0,15.537 C 50.5,56.345 49.845,57 49.037,57 Z"
     style="fill:#ff5364" /><g
     transform="matrix(0.9,0,0,0.9,4.0796611,5.6525426)"
     id="g11122"><path
       style="fill:#ff5364;fill-opacity:1"
       d="M 24.5,28 C 24.334,28 24.169,27.959 24.019,27.877 23.699,27.701 23.5,27.365 23.5,27 l 0,-14 c 0,-0.365 0.199,-0.701 0.519,-0.877 0.321,-0.175 0.71,-0.162 1.019,0.033 l 11,7 C 36.325,19.34 36.5,19.658 36.5,20 c 0,0.342 -0.175,0.66 -0.463,0.844 l -11,7 C 24.874,27.947 24.687,28 24.5,28 Z m 1,-13.179 0,10.357 L 33.637,20 25.5,14.821 Z"
       id="path8731" /><path
       style="fill:#ff5364;fill-opacity:1"
       d="M 28,35 C 19.729,35 13,28.271 13,20 13,11.729 19.729,5 28,5 c 8.271,0 15,6.729 15,15 0,8.271 -6.729,15 -15,15 z M 28,7 c -7.168,0 -13,5.832 -13,13 0,7.168 5.832,13 13,13 7.168,0 13,-5.832 13,-13 C 41,12.832 35.168,7 28,7 Z"
       id="path8733" /></g><text
     xml:space="preserve"
     style="font-style:normal;font-variant:normal;font-weight:bold;font-stretch:normal;font-size:15px;line-height:100%;font-family:sans-serif;-inkscape-font-specification:'sans-serif, Bold';text-align:start;letter-spacing:0px;word-spacing:0px;writing-mode:lr-tb;text-anchor:start;fill:#ffffff;fill-opacity:1;stroke:none;stroke-width:1px;stroke-linecap:butt;stroke-linejoin:miter;stroke-opacity:1"
     x="15.776123"
     y="53.917835"
     id="text4214"><tspan
       id="tspan4216"
       x="15.776123"
       y="53.917835">AVI</tspan></text>
</svg>