<?xml version="1.0" encoding="UTF-8" standalone="no"?>
<svg
   xmlns:dc="http://purl.org/dc/elements/1.1/"
   xmlns:cc="http://creativecommons.org/ns#"
   xmlns:rdf="http://www.w3.org/1999/02/22-rdf-syntax-ns#"
   xmlns:svg="http://www.w3.org/2000/svg"
   xmlns="http://www.w3.org/2000/svg"
   version="1.1"
   width="100%"
   height="100%"
   viewBox="0 0 297 297"
   id="Layer_1"
   xml:space="preserve"><metadata
     id="metadata69"><rdf:RDF><cc:Work
         rdf:about=""><dc:format>image/svg+xml</dc:format><dc:type
           rdf:resource="http://purl.org/dc/dcmitype/StillImage" /></cc:Work></rdf:RDF></metadata><defs
     id="defs67" /><g
     id="g5"><g
       id="g7"><g
         id="g9"><circle
           cx="148.5"
           cy="148.5"
           r="148.5"
           id="circle11"
           style="fill:#16a085" /></g></g></g><path
     d="m 202.207,56.368 -106.736,184.965 55.58,55.635 c 79.961,-1.348 144.527,-65.889 145.916,-145.84 l -94.76,-94.76 z"
     id="path13"
     style="fill:#107a66" /><g
     id="g15"><path
       d="m 106.083,245.25 84.833,0 c 9.021,0 16.333,-7.313 16.333,-16.333 l 0,-160.833 c 0,-9.021 -7.313,-16.334 -16.333,-16.334 l -84.833,0 c -9.021,0 -16.334,7.313 -16.334,16.334 l 0,160.833 c 0.001,9.02 7.314,16.333 16.334,16.333 z"
       id="path17"
       style="fill:#e3e5e4" /></g><g
     id="g19"><rect
       width="99"
       height="156"
       x="99"
       y="62.25"
       id="rect21"
       style="fill:#32373b" /></g><g
     id="g23"><path
       d="m 154.771,233 -12.543,0 c -1.381,0 -2.5,-1.119 -2.5,-2.5 0,-1.381 1.119,-2.5 2.5,-2.5 l 12.543,0 c 1.381,0 2.5,1.119 2.5,2.5 0,1.381 -1.119,2.5 -2.5,2.5 z"
       id="path25"
       style="fill:#32373b" /></g><g
     id="g27"><path
       d="m 128.043,233 -12.543,0 c -1.381,0 -2.5,-1.119 -2.5,-2.5 0,-1.381 1.119,-2.5 2.5,-2.5 l 12.543,0 c 1.381,0 2.5,1.119 2.5,2.5 0,1.381 -1.119,2.5 -2.5,2.5 z"
       id="path29"
       style="fill:#32373b" /></g><g
     id="g31"><path
       d="m 181.5,233 -12.543,0 c -1.381,0 -2.5,-1.119 -2.5,-2.5 0,-1.381 1.119,-2.5 2.5,-2.5 l 12.543,0 c 1.381,0 2.5,1.119 2.5,2.5 0,1.381 -1.119,2.5 -2.5,2.5 z"
       id="path33"
       style="fill:#32373b" /></g></svg>