<?xml version="1.0" encoding="UTF-8" standalone="no"?>
<svg
   xmlns:dc="http://purl.org/dc/elements/1.1/"
   xmlns:cc="http://creativecommons.org/ns#"
   xmlns:rdf="http://www.w3.org/1999/02/22-rdf-syntax-ns#"
   xmlns:svg="http://www.w3.org/2000/svg"
   xmlns="http://www.w3.org/2000/svg"
   height="58"
   width="58"
   version="1.1"
   id="Capa_1"
   x="0px"
   y="0px"
   viewBox="0 0 58 58"
   xml:space="preserve"><metadata
     id="metadata51"><rdf:RDF><cc:Work
         rdf:about=""><dc:format>image/svg+xml</dc:format><dc:type
           rdf:resource="http://purl.org/dc/dcmitype/StillImage" /><dc:title /></cc:Work></rdf:RDF></metadata><defs
     id="defs49" /><g
     transform="translate(6.5,0)"
     id="g9905"><g
       id="g9876"
       transform="translate(-5.5,1)"><path
         id="path5"
         d="M 36.985,0 7.963,0 C 7.155,0 6.5,0.655 6.5,1.926 L 6.5,55 c 0,0.345 0.655,1 1.463,1 l 40.074,0 c 0.808,0 1.463,-0.655 1.463,-1 l 0,-42.022 c 0,-0.696 -0.093,-0.92 -0.257,-1.085 L 37.607,0.257 C 37.442,0.093 37.218,0 36.985,0 Z"
         style="fill:#ffffff;fill-opacity:1;stroke:#bdb0aa;stroke-width:2;stroke-miterlimit:4;stroke-dasharray:none;stroke-opacity:1" /></g><polygon
       style="fill:#bdb0aa;fill-opacity:1"
       points="37.5,12 49.349,12 37.5,0.151 "
       id="polygon7"
       transform="translate(-5.5,1)" /></g><path
     id="path9"
     d="M 49.037,57 8.963,57 C 8.155,57 7.5,56.345 7.5,55.537 L 7.5,40 l 43,0 0,15.537 C 50.5,56.345 49.845,57 49.037,57 Z"
     style="fill:#bdb0aa;fill-opacity:1" /><g
     transform="translate(-5.9745763,2.1864407)"
     id="g17" /><g
     transform="translate(-5.9745763,2.1864407)"
     id="g19" /><g
     transform="translate(-5.9745763,2.1864407)"
     id="g21" /><g
     transform="translate(-5.9745763,2.1864407)"
     id="g23" /><g
     transform="translate(-5.9745763,2.1864407)"
     id="g25" /><g
     transform="translate(-5.9745763,2.1864407)"
     id="g27" /><g
     transform="translate(-5.9745763,2.1864407)"
     id="g29" /><g
     transform="translate(-5.9745763,2.1864407)"
     id="g31" /><g
     transform="translate(-5.9745763,2.1864407)"
     id="g33" /><g
     transform="translate(-5.9745763,2.1864407)"
     id="g35" /><g
     transform="translate(-5.9745763,2.1864407)"
     id="g37" /><g
     transform="translate(-5.9745763,2.1864407)"
     id="g39" /><g
     transform="translate(-5.9745763,2.1864407)"
     id="g41" /><g
     transform="translate(-5.9745763,2.1864407)"
     id="g43" /><g
     transform="translate(-5.9745763,2.1864407)"
     id="g45" /><text
     transform="scale(0.86017732,1.162551)"
     id="text4214"
     y="47.813965"
     x="14.002524"
     style="font-style:normal;font-variant:normal;font-weight:bold;font-stretch:normal;font-size:20.29615784px;line-height:100%;font-family:sans-serif;-inkscape-font-specification:'sans-serif, Bold';text-align:start;letter-spacing:0px;word-spacing:0px;writing-mode:lr-tb;text-anchor:start;fill:#ffffff;fill-opacity:1;stroke:none;stroke-width:1px;stroke-linecap:butt;stroke-linejoin:miter;stroke-opacity:1"
     xml:space="preserve"><tspan
       y="47.813965"
       x="14.002524"
       id="tspan4216">- - -</tspan></text>
</svg>