<?xml version="1.0" encoding="UTF-8" standalone="no"?>
<svg
   xmlns:dc="http://purl.org/dc/elements/1.1/"
   xmlns:cc="http://creativecommons.org/ns#"
   xmlns:rdf="http://www.w3.org/1999/02/22-rdf-syntax-ns#"
   xmlns:svg="http://www.w3.org/2000/svg"
   xmlns="http://www.w3.org/2000/svg"
   xml:space="preserve"
   id="Capa_1"
   viewBox="0 0 58 58"
   height="58"
   width="58"
   version="1.1"><metadata
   id="metadata63"><rdf:RDF><cc:Work
       rdf:about=""><dc:format>image/svg+xml</dc:format><dc:type
         rdf:resource="http://purl.org/dc/dcmitype/StillImage" /><dc:title /></cc:Work></rdf:RDF></metadata><defs
   id="defs61" /><g
   id="g11732"
   transform="translate(1,1)"><path
     style="fill:#ffffff;fill-opacity:1;stroke:#f29c1f;stroke-width:2;stroke-miterlimit:4;stroke-opacity:1;stroke-dasharray:none"
     id="path5"
     d="M 36.985,0 7.963,0 C 7.155,0 6.5,0.655 6.5,1.926 L 6.5,55 c 0,0.345 0.655,1 1.463,1 l 40.074,0 c 0.808,0 1.463,-0.655 1.463,-1 l 0,-42.022 c 0,-0.696 -0.093,-0.92 -0.257,-1.085 L 37.607,0.257 C 37.442,0.093 37.218,0 36.985,0 z" /><polygon
     style="fill:#f29c1f;fill-opacity:1"
     id="polygon7"
     points="49.349,12 37.5,0.151 37.5,12 " /></g><path
   style="fill:#f29c1f"
   id="path9"
   d="M 49.037,57 8.963,57 C 8.155,57 7.5,56.345 7.5,55.537 L 7.5,40 l 43,0 0,15.537 C 50.5,56.345 49.845,57 49.037,57 z" /><g
   id="g11736"
   transform="translate(1.5,1)"><path
     style="fill:#f29c1f"
     id="path19"
     d="m 15.5,24 c -0.256,0 -0.512,-0.098 -0.707,-0.293 -0.391,-0.391 -0.391,-1.023 0,-1.414 l 6,-6 c 0.391,-0.391 1.023,-0.391 1.414,0 0.391,0.391 0.391,1.023 0,1.414 l -6,6 C 16.012,23.902 15.756,24 15.5,24 z" /><path
     style="fill:#f29c1f"
     id="path21"
     d="m 21.5,30 c -0.256,0 -0.512,-0.098 -0.707,-0.293 l -6,-6 c -0.391,-0.391 -0.391,-1.023 0,-1.414 0.391,-0.391 1.023,-0.391 1.414,0 l 6,6 c 0.391,0.391 0.391,1.023 0,1.414 C 22.012,29.902 21.756,30 21.5,30 z" /><path
     style="fill:#f29c1f"
     id="path23"
     d="m 33.5,30 c -0.256,0 -0.512,-0.098 -0.707,-0.293 -0.391,-0.391 -0.391,-1.023 0,-1.414 l 6,-6 c 0.391,-0.391 1.023,-0.391 1.414,0 0.391,0.391 0.391,1.023 0,1.414 l -6,6 C 34.012,29.902 33.756,30 33.5,30 z" /><path
     style="fill:#f29c1f"
     id="path25"
     d="m 39.5,24 c -0.256,0 -0.512,-0.098 -0.707,-0.293 l -6,-6 c -0.391,-0.391 -0.391,-1.023 0,-1.414 0.391,-0.391 1.023,-0.391 1.414,0 l 6,6 c 0.391,0.391 0.391,1.023 0,1.414 C 40.012,23.902 39.756,24 39.5,24 z" /><path
     style="fill:#f29c1f"
     id="path27"
     d="m 24.5,32 c -0.11,0 -0.223,-0.019 -0.333,-0.058 -0.521,-0.184 -0.794,-0.755 -0.61,-1.276 l 6,-17 c 0.185,-0.521 0.753,-0.795 1.276,-0.61 0.521,0.184 0.794,0.755 0.61,1.276 l -6,17 C 25.298,31.744 24.912,32 24.5,32 z" /></g><text
   style="font-size:15px;font-style:normal;font-variant:normal;font-weight:bold;font-stretch:normal;text-align:start;line-height:100%;letter-spacing:0px;word-spacing:0px;writing-mode:lr-tb;text-anchor:start;fill:#ffffff;fill-opacity:1;stroke:none;font-family:sans-serif;-inkscape-font-specification:'sans-serif, Bold'"
   xml:space="preserve"
   id="text4214"
   y="54.741955"
   x="11.026367"><tspan
     id="tspan4216"
     y="54.741955"
     x="11.026367">XML</tspan></text>










</svg>