<?xml version="1.0" encoding="UTF-8" standalone="no"?>
<svg
   xmlns:dc="http://purl.org/dc/elements/1.1/"
   xmlns:cc="http://creativecommons.org/ns#"
   xmlns:rdf="http://www.w3.org/1999/02/22-rdf-syntax-ns#"
   xmlns:svg="http://www.w3.org/2000/svg"
   xmlns="http://www.w3.org/2000/svg"
   id="svg7847"
   height="24"
   width="24"
   version="1.1">
  <metadata
     id="metadata2964">
    <rdf:RDF>
      <cc:Work
         rdf:about="">
        <dc:format>image/svg+xml</dc:format>
        <dc:type
           rdf:resource="http://purl.org/dc/dcmitype/StillImage" />
      </cc:Work>
    </rdf:RDF>
  </metadata>
  <defs
     id="defs7851" />
  <g
     style="fill:#000000;fill-opacity:0;stroke:#000000;stroke-opacity:1"
     id="g2974"
     transform="matrix(0.44999862,0,0,0.45000912,1.2000119,11.999824)">
    <path
       style="fill:#000000;fill-opacity:0;stroke:#000000;stroke-width:2.39868402;stroke-miterlimit:4;stroke-opacity:1;stroke-dasharray:none"
       id="path2817"
       d="m 14.800657,-13.999999 a 4.8006576,4.8006578 0 1 1 -9.6013152,0 4.8006576,4.8006578 0 1 1 9.6013152,0 z" />
    <path
       style="fill:#000000;fill-opacity:0;stroke:#000000;stroke-width:3.97238731;stroke-linecap:round;stroke-linejoin:miter;stroke-miterlimit:4;stroke-opacity:1;stroke-dasharray:none"
       id="path3593"
       d="m 23.986194,-14.013806 18.027613,0.02761" />
    <path
       style="fill:#000000;fill-opacity:0;stroke:#000000;stroke-width:2.39868402;stroke-miterlimit:4;stroke-opacity:1;stroke-dasharray:none"
       id="path2817-5"
       d="m 14.800657,7.319511e-7 a 4.8006576,4.8006578 0 1 1 -9.6013152,0 4.8006576,4.8006578 0 1 1 9.6013152,0 z" />
    <path
       style="fill:#000000;fill-opacity:0;stroke:#000000;stroke-width:3.97238731;stroke-linecap:round;stroke-linejoin:miter;stroke-miterlimit:4;stroke-opacity:1;stroke-dasharray:none"
       id="path3593-7"
       d="m 23.986194,-0.0138062 18.027613,0.027613" />
    <path
       style="fill:#000000;fill-opacity:0;stroke:#000000;stroke-width:2.39868402;stroke-miterlimit:4;stroke-opacity:1;stroke-dasharray:none"
       id="path2817-6"
       d="m 14.800657,14 a 4.8006576,4.8006578 0 1 1 -9.6013152,0 4.8006576,4.8006578 0 1 1 9.6013152,0 z" />
    <path
       style="fill:#000000;fill-opacity:0;stroke:#000000;stroke-width:3.97238731;stroke-linecap:round;stroke-linejoin:miter;stroke-miterlimit:4;stroke-opacity:1;stroke-dasharray:none"
       id="path3593-9"
       d="m 23.986194,13.986194 18.027613,0.02761" />
  </g>
</svg>
