<?xml version="1.0" encoding="UTF-8" standalone="no"?>
<svg
   xmlns:dc="http://purl.org/dc/elements/1.1/"
   xmlns:cc="http://creativecommons.org/ns#"
   xmlns:rdf="http://www.w3.org/1999/02/22-rdf-syntax-ns#"
   xmlns:svg="http://www.w3.org/2000/svg"
   xmlns="http://www.w3.org/2000/svg"
   xml:space="preserve"
   viewBox="0 0 58 58"
   y="0px"
   x="0px"
   id="Capa_1"
   version="1.1"
   width="58"
   height="58"><metadata
     id="metadata5041"><rdf:RDF><cc:Work
         rdf:about=""><dc:format>image/svg+xml</dc:format><dc:type
           rdf:resource="http://purl.org/dc/dcmitype/StillImage" /><dc:title /></cc:Work></rdf:RDF></metadata><defs
     id="defs5039" /><path
     style="fill:#ffffff;fill-opacity:1;stroke:#7d6599;stroke-width:2;stroke-miterlimit:4;stroke-dasharray:none;stroke-opacity:1"
     d="M 37.985,1 8.963,1 C 8.155,1 7.5,1.655 7.5,2.926 L 7.5,56 c 0,0.345 0.655,1 1.463,1 l 40.074,0 c 0.808,0 1.463,-0.655 1.463,-1 l 0,-42.022 c 0,-0.696 -0.093,-0.92 -0.257,-1.085 L 38.607,1.257 C 38.442,1.093 38.218,1 37.985,1 Z"
     id="path4991" /><polygon
     style="fill:#7d6599;fill-opacity:1"
     points="37.5,12 49.349,12 37.5,0.151 "
     id="polygon4993"
     transform="translate(0.38905938,1)" /><path
     style="fill:#7d6599"
     d="M 49.037,57 8.963,57 C 8.155,57 7.5,56.345 7.5,55.537 L 7.5,40 l 43,0 0,15.537 C 50.5,56.345 49.845,57 49.037,57 Z"
     id="path4995" /><path
     style="fill:#7d6599;fill-opacity:1"
     d="m 37.391385,15.986 c -0.567,-0.796 -1.3,-1.543 -2.308,-2.351 -3.914,-3.131 -4.757,-6.277 -4.862,-6.738 l 0,-0.897 c 0,-0.553 -0.447,-1 -1,-1 -0.553,0 -1,0.447 -1,1 l 0,1 0,8.359 0,9.053 -3.706,0 c -3.882,0 -6.294,1.961 -6.294,5.117 0,3.466 2.24,5.706 5.706,5.706 3.471,0 6.294,-2.823 6.294,-6.294 l 0,-11.473 0.298,0.243 c 0.34,0.336 0.861,0.72 1.521,1.205 2.318,1.709 6.2,4.567 5.224,7.793 -0.029,0.098 -0.043,0.195 -0.043,0.291 0,0.43 0.278,0.826 0.71,0.957 0.097,0.029 0.194,0.043 0.29,0.043 0.43,0 0.826,-0.278 0.957,-0.71 1.627,-5.375 -0.422,-9.39 -1.787,-11.304 z m -9.17,12.955 c 0,2.368 -1.926,4.294 -4.294,4.294 -2.355,0 -3.706,-1.351 -3.706,-3.706 0,-2.576 2.335,-3.117 4.294,-3.117 l 3.706,0 0,2.529 z m 5.005,-11.633 c -0.571,-0.422 -1.065,-0.785 -1.371,-1.081 l -1.634,-1.34 0,-3.473 c 0.827,1.174 1.987,2.483 3.612,3.783 0.858,0.688 1.472,1.308 1.929,1.95 0.716,1.003 1.431,2.339 1.788,3.978 -1.327,-1.61 -3.084,-2.904 -4.324,-3.817 z"
     id="path4997" /><g
     id="g5007"
     transform="translate(-5.5,1)" /><g
     id="g5009"
     transform="translate(-5.5,1)" /><g
     id="g5011"
     transform="translate(-5.5,1)" /><g
     id="g5013"
     transform="translate(-5.5,1)" /><g
     id="g5015"
     transform="translate(-5.5,1)" /><g
     id="g5017"
     transform="translate(-5.5,1)" /><g
     id="g5019"
     transform="translate(-5.5,1)" /><g
     id="g5021"
     transform="translate(-5.5,1)" /><g
     id="g5023"
     transform="translate(-5.5,1)" /><g
     id="g5025"
     transform="translate(-5.5,1)" /><g
     id="g5027"
     transform="translate(-5.5,1)" /><g
     id="g5029"
     transform="translate(-5.5,1)" /><g
     id="g5031"
     transform="translate(-5.5,1)" /><g
     id="g5033"
     transform="translate(-5.5,1)" /><g
     id="g5035"
     transform="translate(-5.5,1)" /><text
     id="text4214"
     y="54.162445"
     x="10.726074"
     style="font-style:normal;font-variant:normal;font-weight:bold;font-stretch:normal;font-size:15px;line-height:100%;font-family:sans-serif;-inkscape-font-specification:'sans-serif, Bold';text-align:start;letter-spacing:0px;word-spacing:0px;writing-mode:lr-tb;text-anchor:start;fill:#ffffff;fill-opacity:1;stroke:none;stroke-width:1px;stroke-linecap:butt;stroke-linejoin:miter;stroke-opacity:1"
     xml:space="preserve"><tspan
       y="54.162445"
       x="10.726074"
       id="tspan4216">MP3</tspan></text>
</svg>