<?xml version="1.0" encoding="UTF-8" standalone="no"?>
<svg
   xmlns:dc="http://purl.org/dc/elements/1.1/"
   xmlns:cc="http://creativecommons.org/ns#"
   xmlns:rdf="http://www.w3.org/1999/02/22-rdf-syntax-ns#"
   xmlns:svg="http://www.w3.org/2000/svg"
   xmlns="http://www.w3.org/2000/svg"
   version="1.1"
   width="100%"
   height="100%"
   viewBox="0 0 297 297"
   id="Layer_1"
   xml:space="preserve"><metadata
     id="metadata73"><rdf:RDF><cc:Work
         rdf:about=""><dc:format>image/svg+xml</dc:format><dc:type
           rdf:resource="http://purl.org/dc/dcmitype/StillImage" /></cc:Work></rdf:RDF></metadata><defs
     id="defs71" /><g
     id="g5"><g
       id="g7"><g
         id="g9"><circle
           cx="148.5"
           cy="148.5"
           r="148.5"
           id="circle11"
           style="fill:#16a085;fill-opacity:1" /></g></g></g><path
     d="m 202.19,73.741 -120.472,168.206 54.548,54.548 c 4.035,0.329 8.114,0.505 12.234,0.505 75.624,0 138.045,-56.529 147.313,-129.637 L 202.19,73.741 z"
     id="path13"
     style="fill:#107a66;fill-opacity:1" /><g
     id="g15"><path
       d="m 180.012,51.563 -89.877,0 C 83.433,51.563 78,56.996 78,63.698 l 0,23.115 13.085,0 0,35.25 -13.085,0 0,111.24 c 0,6.702 5.433,12.135 12.135,12.135 l 116.729,0 c 6.702,0 12.135,-5.433 12.135,-12.135 l 0,-142.752 -38.987,-38.988 z"
       id="path17"
       style="fill:#32373b" /></g><g
     id="g19"><path
       d="m 166.125,86.272 c -2.209,0 -4,-1.791 -4,-4 l 0,-17.625 c 0,-2.209 1.791,-4 4,-4 2.209,0 4,1.791 4,4 l 0,17.625 c 0,2.209 -1.791,4 -4,4 z"
       id="path21"
       style="fill:#e3e5e4" /></g><g
     id="g23"><path
       d="m 148.5,86.272 c -2.209,0 -4,-1.791 -4,-4 l 0,-17.625 c 0,-2.209 1.791,-4 4,-4 2.209,0 4,1.791 4,4 l 0,17.625 c 0,2.209 -1.791,4 -4,4 z"
       id="path25"
       style="fill:#e3e5e4" /></g><g
     id="g27"><path
       d="m 130.875,86.272 c -2.209,0 -4,-1.791 -4,-4 l 0,-17.625 c 0,-2.209 1.791,-4 4,-4 2.209,0 4,1.791 4,4 l 0,17.625 c 0,2.209 -1.791,4 -4,4 z"
       id="path29"
       style="fill:#e3e5e4" /></g><g
     id="g31"><path
       d="m 113.25,86.272 c -2.209,0 -4,-1.791 -4,-4 l 0,-17.625 c 0,-2.209 1.791,-4 4,-4 2.209,0 4,1.791 4,4 l 0,17.625 c 0,2.209 -1.791,4 -4,4 z"
       id="path33"
       style="fill:#e3e5e4" /></g><g
     id="g35"><rect
       width="105.75"
       height="52.875"
       x="95.625"
       y="174.938"
       id="rect37"
       style="fill:#e3e5e4;fill-opacity:1" /></g><g
     id="g39" /><g
     id="g41" /><g
     id="g43" /><g
     id="g45" /><g
     id="g47" /><g
     id="g49" /><g
     id="g51" /><g
     id="g53" /><g
     id="g55" /><g
     id="g57" /><g
     id="g59" /><g
     id="g61" /><g
     id="g63" /><g
     id="g65" /><g
     id="g67" /></svg>