<?xml version="1.0" encoding="UTF-8" standalone="no"?>
<svg
   xmlns:dc="http://purl.org/dc/elements/1.1/"
   xmlns:cc="http://creativecommons.org/ns#"
   xmlns:rdf="http://www.w3.org/1999/02/22-rdf-syntax-ns#"
   xmlns:svg="http://www.w3.org/2000/svg"
   xmlns="http://www.w3.org/2000/svg"
   version="1.1"
   width="58"
   height="58"
   viewBox="0 0 58 58"
   id="Capa_1"
   xml:space="preserve"><metadata
     id="metadata4322"><rdf:RDF><cc:Work
         rdf:about=""><dc:format>image/svg+xml</dc:format><dc:type
           rdf:resource="http://purl.org/dc/dcmitype/StillImage" /><dc:title /></cc:Work></rdf:RDF></metadata><defs
     id="defs4320" /><g
     transform="translate(1,1)"
     id="g7298"><path
       d="M 36.985,0 7.963,0 C 7.155,0 6.5,0.655 6.5,1.926 L 6.5,55 c 0,0.345 0.655,1 1.463,1 l 40.074,0 c 0.808,0 1.463,-0.655 1.463,-1 l 0,-42.022 c 0,-0.696 -0.093,-0.92 -0.257,-1.085 L 37.607,0.257 C 37.442,0.093 37.218,0 36.985,0 z"
       id="path4266"
       style="fill:#ffffff;fill-opacity:1;stroke:#9777a8;stroke-width:2;stroke-miterlimit:4;stroke-opacity:1;stroke-dasharray:none" /><polygon
       points="49.349,12 37.5,0.151 37.5,12 "
       id="polygon4268"
       style="fill:#9777a8;fill-opacity:1" /></g><path
     d="M 49.037,57 8.963,57 C 8.155,57 7.5,56.345 7.5,55.537 L 7.5,40 l 43,0 0,15.537 C 50.5,56.345 49.845,57 49.037,57 z"
     id="path4270"
     style="fill:#9777a8" /><g
     transform="translate(2.0000533,1)"
     id="g7302"><path
       d="m 33.5,32 c -0.099,0 -0.2,-0.015 -0.299,-0.046 -0.527,-0.165 -0.821,-0.726 -0.656,-1.253 l 5,-16 c 0.165,-0.527 0.726,-0.821 1.253,-0.656 0.527,0.165 0.821,0.726 0.656,1.253 l -5,16 C 34.321,31.726 33.926,32 33.5,32 z"
       id="path4280"
       style="fill:#9777a8" /><circle
       cx="29"
       cy="19.5"
       r="1.5"
       id="circle4282"
       style="fill:#9777a8" /><circle
       cx="29"
       cy="26.5"
       r="1.5"
       id="circle4284"
       style="fill:#9777a8" /><path
       d="m 23.5,30 -2,0 c -3.86,0 -7,-3.14 -7,-7 0,-3.86 3.14,-7 7,-7 l 2,0 c 0.552,0 1,0.448 1,1 0,0.552 -0.448,1 -1,1 l -2,0 c -2.757,0 -5,2.243 -5,5 0,2.757 2.243,5 5,5 l 2,0 c 0.552,0 1,0.448 1,1 0,0.552 -0.448,1 -1,1 z"
       id="path4286"
       style="fill:#9777a8" /></g><text
     x="12.769531"
     y="54.162445"
     id="text4214"
     xml:space="preserve"
     style="font-size:15px;font-style:normal;font-variant:normal;font-weight:bold;font-stretch:normal;text-align:start;line-height:100%;letter-spacing:0px;word-spacing:0px;writing-mode:lr-tb;text-anchor:start;fill:#ffffff;fill-opacity:1;stroke:none;font-family:sans-serif;-inkscape-font-specification:'sans-serif, Bold'"><tspan
       x="12.769531"
       y="54.162445"
       id="tspan4216">SYS</tspan></text>
</svg>