<?xml version="1.0" encoding="UTF-8" standalone="no"?>
<svg
   xmlns:dc="http://purl.org/dc/elements/1.1/"
   xmlns:cc="http://creativecommons.org/ns#"
   xmlns:rdf="http://www.w3.org/1999/02/22-rdf-syntax-ns#"
   xmlns:svg="http://www.w3.org/2000/svg"
   xmlns="http://www.w3.org/2000/svg"
   version="1.1"
   width="460.298"
   height="460.297"
   viewBox="0 0 460.298 460.297"
   id="Capa_1"
   xml:space="preserve"><metadata
     id="metadata45"><rdf:RDF><cc:Work
         rdf:about=""><dc:format>image/svg+xml</dc:format><dc:type
           rdf:resource="http://purl.org/dc/dcmitype/StillImage" /></cc:Work></rdf:RDF></metadata><defs
     id="defs43" /><g
     id="g3"><g
       id="g5"><path
         d="M 230.149,120.939 65.986,256.274 c 0,0.191 -0.048,0.472 -0.144,0.855 -0.094,0.38 -0.144,0.656 -0.144,0.852 v 137.041 c 0,4.948 1.809,9.236 5.426,12.847 3.616,3.613 7.898,5.431 12.847,5.431 h 109.63 V 303.664 h 73.097 v 109.64 h 109.629 c 4.948,0 9.236,-1.814 12.847,-5.435 3.617,-3.607 5.432,-7.898 5.432,-12.847 V 257.981 c 0,-0.76 -0.104,-1.334 -0.288,-1.707 L 230.149,120.939 z"
         id="path7"
         style="fill:#000000;fill-opacity:1" /><path
         d="M 457.122,225.438 394.6,173.476 V 56.989 c 0,-2.663 -0.856,-4.853 -2.574,-6.567 -1.704,-1.712 -3.894,-2.568 -6.563,-2.568 h -54.816 c -2.666,0 -4.855,0.856 -6.57,2.568 -1.711,1.714 -2.566,3.905 -2.566,6.567 v 55.673 L 251.849,54.417 c -6.084,-4.949 -13.318,-7.423 -21.694,-7.423 -8.375,0 -15.608,2.474 -21.698,7.423 L 3.172,225.438 c -1.903,1.52 -2.946,3.566 -3.14,6.136 -0.193,2.568 0.472,4.811 1.997,6.713 l 17.701,21.128 c 1.525,1.712 3.521,2.759 5.996,3.142 2.285,0.192 4.57,-0.476 6.855,-1.998 L 230.149,95.817 427.719,260.558 c 1.526,1.328 3.521,1.991 5.996,1.991 h 0.858 c 2.471,-0.376 4.463,-1.43 5.996,-3.138 l 17.703,-21.125 c 1.522,-1.906 2.189,-4.145 1.991,-6.716 -0.195,-2.563 -1.242,-4.609 -3.141,-6.132 z"
         id="path9"
         style="fill:#000000;fill-opacity:1" /></g></g><g
     id="g11" /><g
     id="g13" /><g
     id="g15" /><g
     id="g17" /><g
     id="g19" /><g
     id="g21" /><g
     id="g23" /><g
     id="g25" /><g
     id="g27" /><g
     id="g29" /><g
     id="g31" /><g
     id="g33" /><g
     id="g35" /><g
     id="g37" /><g
     id="g39" /></svg>