<?xml version="1.0" encoding="UTF-8" standalone="no"?>
<svg
   xmlns:dc="http://purl.org/dc/elements/1.1/"
   xmlns:cc="http://creativecommons.org/ns#"
   xmlns:rdf="http://www.w3.org/1999/02/22-rdf-syntax-ns#"
   xmlns:svg="http://www.w3.org/2000/svg"
   xmlns="http://www.w3.org/2000/svg"
   xml:space="preserve"
   id="Capa_1"
   viewBox="0 0 58 58"
   height="58"
   width="58"
   version="1.1"><metadata
     id="metadata5803"><rdf:RDF><cc:Work
         rdf:about=""><dc:format>image/svg+xml</dc:format><dc:type
           rdf:resource="http://purl.org/dc/dcmitype/StillImage" /><dc:title /></cc:Work></rdf:RDF></metadata><defs
     id="defs5801" /><g
     id="g5438"
     transform="translate(1,1)"><path
       style="fill:#ffffff;fill-opacity:1;stroke:#8697cb;stroke-width:2;stroke-miterlimit:4;stroke-opacity:1;stroke-dasharray:none"
       id="path5731"
       d="M 36.985,0 7.963,0 C 7.155,0 6.5,0.655 6.5,1.926 L 6.5,55 c 0,0.345 0.655,1 1.463,1 l 40.074,0 c 0.808,0 1.463,-0.655 1.463,-1 l 0,-42.022 c 0,-0.696 -0.093,-0.92 -0.257,-1.085 L 37.607,0.257 C 37.442,0.093 37.218,0 36.985,0 z" /><polygon
       style="fill:#8697cb;fill-opacity:1"
       id="polygon5733"
       points="49.349,12 37.5,0.151 37.5,12 " /></g><g
     id="g5424"
     transform="translate(1,1)"><path
       style="fill:#8697cb"
       id="path5735"
       d="m 18.5,13 -6,0 c -0.552,0 -1,-0.448 -1,-1 0,-0.552 0.448,-1 1,-1 l 6,0 c 0.552,0 1,0.448 1,1 0,0.552 -0.448,1 -1,1 z" /><path
       style="fill:#8697cb"
       id="path5737"
       d="m 21.5,18 -9,0 c -0.552,0 -1,-0.448 -1,-1 0,-0.552 0.448,-1 1,-1 l 9,0 c 0.552,0 1,0.448 1,1 0,0.552 -0.448,1 -1,1 z" /><path
       style="fill:#8697cb"
       id="path5739"
       d="M 25.5,18 C 25.24,18 24.98,17.89 24.79,17.71 24.61,17.52 24.5,17.26 24.5,17 c 0,-0.26 0.11,-0.52 0.29,-0.71 0.37,-0.37 1.05,-0.37 1.42,0 0.18,0.19 0.29,0.45 0.29,0.71 0,0.26 -0.11,0.52 -0.29,0.71 C 26.02,17.89 25.76,18 25.5,18 z" /><path
       style="fill:#8697cb"
       id="path5741"
       d="m 37.5,18 -8,0 c -0.552,0 -1,-0.448 -1,-1 0,-0.552 0.448,-1 1,-1 l 8,0 c 0.552,0 1,0.448 1,1 0,0.552 -0.448,1 -1,1 z" /><path
       style="fill:#8697cb"
       id="path5743"
       d="M 12.5,33 C 12.24,33 11.98,32.89 11.79,32.71 11.61,32.52 11.5,32.26 11.5,32 c 0,-0.26 0.11,-0.52 0.29,-0.71 0.37,-0.37 1.05,-0.37 1.42,0 0.18,0.19 0.29,0.44 0.29,0.71 0,0.26 -0.11,0.52 -0.29,0.71 C 13.02,32.89 12.76,33 12.5,33 z" /><path
       style="fill:#8697cb"
       id="path5745"
       d="m 24.5,33 -8,0 c -0.552,0 -1,-0.448 -1,-1 0,-0.552 0.448,-1 1,-1 l 8,0 c 0.552,0 1,0.448 1,1 0,0.552 -0.448,1 -1,1 z" /><path
       style="fill:#8697cb"
       id="path5747"
       d="m 43.5,18 -2,0 c -0.552,0 -1,-0.448 -1,-1 0,-0.552 0.448,-1 1,-1 l 2,0 c 0.552,0 1,0.448 1,1 0,0.552 -0.448,1 -1,1 z" /><path
       style="fill:#8697cb"
       id="path5749"
       d="m 34.5,23 -22,0 c -0.552,0 -1,-0.448 -1,-1 0,-0.552 0.448,-1 1,-1 l 22,0 c 0.552,0 1,0.448 1,1 0,0.552 -0.448,1 -1,1 z" /><path
       style="fill:#8697cb"
       id="path5751"
       d="m 43.5,23 -6,0 c -0.552,0 -1,-0.448 -1,-1 0,-0.552 0.448,-1 1,-1 l 6,0 c 0.552,0 1,0.448 1,1 0,0.552 -0.448,1 -1,1 z" /><path
       style="fill:#8697cb"
       id="path5753"
       d="m 16.5,28 -4,0 c -0.552,0 -1,-0.448 -1,-1 0,-0.552 0.448,-1 1,-1 l 4,0 c 0.552,0 1,0.448 1,1 0,0.552 -0.448,1 -1,1 z" /><path
       style="fill:#8697cb"
       id="path5755"
       d="m 30.5,28 -10,0 c -0.552,0 -1,-0.448 -1,-1 0,-0.552 0.448,-1 1,-1 l 10,0 c 0.552,0 1,0.448 1,1 0,0.552 -0.448,1 -1,1 z" /><path
       style="fill:#8697cb"
       id="path5757"
       d="m 43.5,28 -9,0 c -0.552,0 -1,-0.448 -1,-1 0,-0.552 0.448,-1 1,-1 l 9,0 c 0.552,0 1,0.448 1,1 0,0.552 -0.448,1 -1,1 z" /></g><path
     style="fill:#8697cb;fill-opacity:1"
     id="path5759"
     d="M 49.037,57 8.963,57 C 8.155,57 7.5,56.345 7.5,55.537 L 7.5,40 l 43,0 0,15.537 C 50.5,56.345 49.845,57 49.037,57 z" /><g
     id="g5769"
     transform="translate(-5.5,1)" /><g
     id="g5771"
     transform="translate(-5.5,1)" /><g
     id="g5773"
     transform="translate(-5.5,1)" /><g
     id="g5775"
     transform="translate(-5.5,1)" /><g
     id="g5777"
     transform="translate(-5.5,1)" /><g
     id="g5779"
     transform="translate(-5.5,1)" /><g
     id="g5781"
     transform="translate(-5.5,1)" /><g
     id="g5783"
     transform="translate(-5.5,1)" /><g
     id="g5785"
     transform="translate(-5.5,1)" /><g
     id="g5787"
     transform="translate(-5.5,1)" /><g
     id="g5789"
     transform="translate(-5.5,1)" /><g
     id="g5791"
     transform="translate(-5.5,1)" /><g
     id="g5793"
     transform="translate(-5.5,1)" /><g
     id="g5795"
     transform="translate(-5.5,1)" /><g
     id="g5797"
     transform="translate(-5.5,1)" /><text
     style="font-size:15px;font-style:normal;font-variant:normal;font-weight:bold;font-stretch:normal;text-align:start;line-height:100%;letter-spacing:0px;word-spacing:0px;writing-mode:lr-tb;text-anchor:start;fill:#ffffff;fill-opacity:1;stroke:none;font-family:sans-serif;-inkscape-font-specification:'sans-serif, Bold'"
     xml:space="preserve"
     id="text4214"
     y="53.917831"
     x="10.689453"><tspan
       id="tspan4216"
       y="53.917831"
       x="10.689453">DOC</tspan></text>
</svg>