<?xml version="1.0" encoding="UTF-8" standalone="no"?>
<svg
   xmlns:dc="http://purl.org/dc/elements/1.1/"
   xmlns:cc="http://creativecommons.org/ns#"
   xmlns:rdf="http://www.w3.org/1999/02/22-rdf-syntax-ns#"
   xmlns:svg="http://www.w3.org/2000/svg"
   xmlns="http://www.w3.org/2000/svg"
   xml:space="preserve"
   id="Capa_1"
   viewBox="0 0 58 58"
   height="58"
   width="58"
   version="1.1"><metadata
     id="metadata55"><rdf:RDF><cc:Work
         rdf:about=""><dc:format>image/svg+xml</dc:format><dc:type
           rdf:resource="http://purl.org/dc/dcmitype/StillImage" /><dc:title /></cc:Work></rdf:RDF></metadata><defs
     id="defs53" /><path
     style="fill:#ffffff;fill-opacity:1;stroke:#9fbf3b;stroke-width:2;stroke-miterlimit:4;stroke-opacity:1;stroke-dasharray:none"
     id="path5"
     d="M 37.985,1 8.963,1 C 8.155,1 7.5,1.655 7.5,2.926 L 7.5,56 c 0,0.345 0.655,1 1.463,1 l 40.074,0 c 0.808,0 1.463,-0.655 1.463,-1 l 0,-42.022 c 0,-0.696 -0.093,-0.92 -0.257,-1.085 L 38.607,1.257 C 38.442,1.093 38.218,1 37.985,1 z" /><polygon
     style="fill:#9fbf3b;fill-opacity:1"
     id="polygon7"
     transform="translate(0.62634752,1)"
     points="49.349,12 37.5,0.151 37.5,12 " /><path
     style="fill:#9fbf3b;fill-opacity:1"
     id="path9"
     d="M 49.037,57 8.963,57 C 8.155,57 7.5,56.345 7.5,55.537 L 7.5,40 l 43,0 0,15.537 C 50.5,56.345 49.845,57 49.037,57 z" /><g
     id="g21"
     transform="translate(-5.5,1)" /><g
     id="g23"
     transform="translate(-5.5,1)" /><g
     id="g25"
     transform="translate(-5.5,1)" /><g
     id="g27"
     transform="translate(-5.5,1)" /><g
     id="g29"
     transform="translate(-5.5,1)" /><g
     id="g31"
     transform="translate(-5.5,1)" /><g
     id="g33"
     transform="translate(-5.5,1)" /><g
     id="g35"
     transform="translate(-5.5,1)" /><g
     id="g37"
     transform="translate(-5.5,1)" /><g
     id="g39"
     transform="translate(-5.5,1)" /><g
     id="g41"
     transform="translate(-5.5,1)" /><g
     id="g43"
     transform="translate(-5.5,1)" /><g
     id="g45"
     transform="translate(-5.5,1)" /><g
     id="g47"
     transform="translate(-5.5,1)" /><g
     id="g49"
     transform="translate(-5.5,1)" /><text
     style="font-size:40px;font-style:normal;font-weight:normal;line-height:125%;letter-spacing:0px;word-spacing:0px;fill:#000000;fill-opacity:1;stroke:none;font-family:sans-serif"
     xml:space="preserve"
     id="text4191"
     y="52.016949"
     x="32.703388"><tspan
       id="tspan4193"
       y="52.016949"
       x="32.703388" /></text>
<text
     style="font-size:15px;font-style:normal;font-variant:normal;font-weight:bold;font-stretch:normal;text-align:start;line-height:100%;letter-spacing:0px;word-spacing:0px;writing-mode:lr-tb;text-anchor:start;fill:#ffffff;fill-opacity:1;stroke:none;font-family:sans-serif;-inkscape-font-specification:'sans-serif, Bold'"
     xml:space="preserve"
     id="text4214"
     y="54.147602"
     x="11.630615"><tspan
       id="tspan4216"
       y="54.147602"
       x="11.630615">APK</tspan></text>
<g
     id="androd"
     transform="matrix(0.06953409,0,0,0.07589802,11.647212,3.5979511)"><path
       style="fill:#9fbf3b"
       id="path4290"
       d="m 301.314,83.298 20.159,-29.272 c 1.197,-1.74 0.899,-4.024 -0.666,-5.104 -1.563,-1.074 -3.805,-0.543 -4.993,1.199 L 294.863,80.53 c -13.807,-5.439 -29.139,-8.47 -45.299,-8.47 -16.16,0 -31.496,3.028 -45.302,8.47 L 183.314,50.12 c -1.201,-1.74 -3.439,-2.273 -5.003,-1.199 -1.564,1.077 -1.861,3.362 -0.664,5.104 l 20.166,29.272 c -32.063,14.916 -54.548,43.26 -57.413,76.34 l 218.316,0 c -2.855,-33.08 -25.341,-61.423 -57.402,-76.339" /><path
       style="fill:#ffffff"
       id="path4292"
       d="m 203.956,129.438 c -6.673,0 -12.08,-5.407 -12.08,-12.079 0,-6.671 5.404,-12.08 12.08,-12.08 6.668,0 12.073,5.407 12.073,12.08 0.001,6.671 -5.405,12.079 -12.073,12.079" /><path
       style="fill:#ffffff"
       id="path4294"
       d="m 295.161,129.438 c -6.668,0 -12.074,-5.407 -12.074,-12.079 0,-6.673 5.406,-12.08 12.074,-12.08 6.675,0 12.079,5.409 12.079,12.08 0,6.671 -5.406,12.079 -12.079,12.079" /><path
       style="fill:#9fbf3b"
       id="path4296"
       d="m 126.383,297.598 c 0,13.45 -10.904,24.354 -24.355,24.354 l 0,0 c -13.45,0 -24.354,-10.904 -24.354,-24.354 l 0,-98.508 c 0,-13.45 10.904,-24.354 24.354,-24.354 l 0,0 c 13.451,0 24.355,10.904 24.355,24.354 l 0,98.508 z" /><path
       style="fill:#9fbf3b"
       id="path4298"
       d="m 140.396,175.489 0,177.915 c 0,10.566 8.566,19.133 19.135,19.133 l 22.633,0 0,54.744 c 0,13.451 10.903,24.354 24.354,24.354 13.451,0 24.355,-10.903 24.355,-24.354 l 0,-54.744 37.371,0 0,54.744 c 0,13.451 10.902,24.354 24.354,24.354 13.452,0 24.354,-10.903 24.354,-24.354 l 0,-54.744 22.633,0 c 10.569,0 19.137,-8.562 19.137,-19.133 l 0,-177.915 -218.326,0 z" /><path
       style="fill:#9fbf3b"
       id="path4300"
       d="m 372.734,297.598 c 0,13.45 10.903,24.354 24.354,24.354 l 0,0 c 13.45,0 24.354,-10.904 24.354,-24.354 l 0,-98.508 c 0,-13.45 -10.904,-24.354 -24.354,-24.354 l 0,0 c -13.451,0 -24.354,10.904 -24.354,24.354 l 0,98.508 z" /></g></svg>