<?xml version="1.0" encoding="UTF-8" standalone="no"?>
<svg
   xmlns:dc="http://purl.org/dc/elements/1.1/"
   xmlns:cc="http://creativecommons.org/ns#"
   xmlns:rdf="http://www.w3.org/1999/02/22-rdf-syntax-ns#"
   xmlns:svg="http://www.w3.org/2000/svg"
   xmlns="http://www.w3.org/2000/svg"
   xml:space="preserve"
   id="Capa_1"
   viewBox="0 0 58 58"
   height="58"
   width="58"
   version="1.1"><metadata
   id="metadata51"><rdf:RDF><cc:Work
       rdf:about=""><dc:format>image/svg+xml</dc:format><dc:type
         rdf:resource="http://purl.org/dc/dcmitype/StillImage" /><dc:title /></cc:Work></rdf:RDF></metadata><defs
   id="defs49" /><g
   id="g9905"
   transform="translate(6.5,0)"><g
     id="g9876"
     transform="translate(-5.5,1)"><path
       style="fill:#ffffff;fill-opacity:1;stroke:#bdb0aa;stroke-width:2;stroke-miterlimit:4;stroke-opacity:1;stroke-dasharray:none"
       id="path5"
       d="M 36.985,0 7.963,0 C 7.155,0 6.5,0.655 6.5,1.926 L 6.5,55 c 0,0.345 0.655,1 1.463,1 l 40.074,0 c 0.808,0 1.463,-0.655 1.463,-1 l 0,-42.022 c 0,-0.696 -0.093,-0.92 -0.257,-1.085 L 37.607,0.257 C 37.442,0.093 37.218,0 36.985,0 z" /></g><polygon
     style="fill:#bdb0aa;fill-opacity:1"
     id="polygon7"
     transform="translate(-5.5,1)"
     points="37.5,0.151 37.5,12 49.349,12 " /></g><path
   style="fill:#bdb0aa;fill-opacity:1"
   id="path9"
   d="M 49.037,57 8.963,57 C 8.155,57 7.5,56.345 7.5,55.537 L 7.5,40 l 43,0 0,15.537 C 50.5,56.345 49.845,57 49.037,57 z" /><g
   id="g17"
   transform="translate(-5.9745763,2.1864407)" /><g
   id="g19"
   transform="translate(-5.9745763,2.1864407)" /><g
   id="g21"
   transform="translate(-5.9745763,2.1864407)" /><g
   id="g23"
   transform="translate(-5.9745763,2.1864407)" /><g
   id="g25"
   transform="translate(-5.9745763,2.1864407)" /><g
   id="g27"
   transform="translate(-5.9745763,2.1864407)" /><g
   id="g29"
   transform="translate(-5.9745763,2.1864407)" /><g
   id="g31"
   transform="translate(-5.9745763,2.1864407)" /><g
   id="g33"
   transform="translate(-5.9745763,2.1864407)" /><g
   id="g35"
   transform="translate(-5.9745763,2.1864407)" /><g
   id="g37"
   transform="translate(-5.9745763,2.1864407)" /><g
   id="g39"
   transform="translate(-5.9745763,2.1864407)" /><g
   id="g41"
   transform="translate(-5.9745763,2.1864407)" /><g
   id="g43"
   transform="translate(-5.9745763,2.1864407)" /><g
   id="g45"
   transform="translate(-5.9745763,2.1864407)" /><text
   style="font-size:20.29615784px;font-style:normal;font-variant:normal;font-weight:bold;font-stretch:normal;text-align:start;line-height:100%;letter-spacing:0px;word-spacing:0px;writing-mode:lr-tb;text-anchor:start;fill:#ffffff;fill-opacity:1;stroke:none;font-family:sans-serif;-inkscape-font-specification:'sans-serif, Bold'"
   xml:space="preserve"
   id="text4214"
   transform="scale(0.86017732,1.162551)"
   y="47.813965"
   x="14.002524"><tspan
     id="tspan4216"
     y="47.813965"
     x="14.002524">- - -</tspan></text>










</svg>