<?xml version="1.0" encoding="UTF-8" standalone="no"?>
<svg
   xmlns:dc="http://purl.org/dc/elements/1.1/"
   xmlns:cc="http://creativecommons.org/ns#"
   xmlns:rdf="http://www.w3.org/1999/02/22-rdf-syntax-ns#"
   xmlns:svg="http://www.w3.org/2000/svg"
   xmlns="http://www.w3.org/2000/svg"
   version="1.1"
   width="58"
   height="58"
   viewBox="0 0 58 58"
   id="Capa_1"
   xml:space="preserve"><metadata
     id="metadata6536"><rdf:RDF><cc:Work
         rdf:about=""><dc:format>image/svg+xml</dc:format><dc:type
           rdf:resource="http://purl.org/dc/dcmitype/StillImage" /><dc:title /></cc:Work></rdf:RDF></metadata><defs
     id="defs6534" /><g
     transform="translate(1,1)"
     id="g6076"><path
       d="M 36.985,0 7.963,0 C 7.155,0 6.5,0.655 6.5,1.926 L 6.5,55 c 0,0.345 0.655,1 1.463,1 l 40.074,0 c 0.808,0 1.463,-0.655 1.463,-1 l 0,-42.022 c 0,-0.696 -0.093,-0.92 -0.257,-1.085 L 37.607,0.257 C 37.442,0.093 37.218,0 36.985,0 z"
       id="path6484"
       style="fill:#ffffff;fill-opacity:1;stroke:#14a085;stroke-width:2;stroke-miterlimit:4;stroke-opacity:1;stroke-dasharray:none" /><polygon
       points="49.349,12 37.5,0.151 37.5,12 "
       id="polygon6486"
       style="fill:#14a085;fill-opacity:1" /></g><g
     transform="translate(0.99999984,1)"
     id="g6072"><circle
       cx="18.931"
       cy="14.431"
       r="4.5689998"
       id="circle6488"
       style="fill:#f3d55b" /><polygon
       points="49.5,39 49.5,28 39.5,18.5 29,30 23.517,24.517 6.5,39 17.5,39 "
       transform="matrix(0.94481672,0,0,1,1.545132,0)"
       id="polygon6490"
       style="fill:#26b99a" /></g><path
     d="M 49.037,57 8.963,57 C 8.155,57 7.5,56.345 7.5,55.537 L 7.5,40 l 43,0 0,15.537 C 50.5,56.345 49.845,57 49.037,57 z"
     id="path6492"
     style="fill:#14a085" /><g
     transform="translate(-5.5,1)"
     id="g6502" /><g
     transform="translate(-5.5,1)"
     id="g6504" /><g
     transform="translate(-5.5,1)"
     id="g6506" /><g
     transform="translate(-5.5,1)"
     id="g6508" /><g
     transform="translate(-5.5,1)"
     id="g6510" /><g
     transform="translate(-5.5,1)"
     id="g6512" /><g
     transform="translate(-5.5,1)"
     id="g6514" /><g
     transform="translate(-5.5,1)"
     id="g6516" /><g
     transform="translate(-5.5,1)"
     id="g6518" /><g
     transform="translate(-5.5,1)"
     id="g6520" /><g
     transform="translate(-5.5,1)"
     id="g6522" /><g
     transform="translate(-5.5,1)"
     id="g6524" /><g
     transform="translate(-5.5,1)"
     id="g6526" /><g
     transform="translate(-5.5,1)"
     id="g6528" /><g
     transform="translate(-5.5,1)"
     id="g6530" /><text
     x="12.439941"
     y="54.39241"
     id="text4214"
     xml:space="preserve"
     style="font-size:15px;font-style:normal;font-variant:normal;font-weight:bold;font-stretch:normal;text-align:start;line-height:100%;letter-spacing:0px;word-spacing:0px;writing-mode:lr-tb;text-anchor:start;fill:#ffffff;fill-opacity:1;stroke:none;font-family:sans-serif;-inkscape-font-specification:'sans-serif, Bold'"><tspan
       x="12.439941"
       y="54.39241"
       id="tspan4216">IMG</tspan></text>
</svg>