<?xml version="1.0" encoding="UTF-8" standalone="no"?>
<svg
   xmlns:dc="http://purl.org/dc/elements/1.1/"
   xmlns:cc="http://creativecommons.org/ns#"
   xmlns:rdf="http://www.w3.org/1999/02/22-rdf-syntax-ns#"
   xmlns:svg="http://www.w3.org/2000/svg"
   xmlns="http://www.w3.org/2000/svg"
   height="58"
   width="58"
   version="1.1"
   id="Capa_1"
   x="0px"
   y="0px"
   viewBox="0 0 58 58"
   xml:space="preserve"><metadata
     id="metadata59"><rdf:RDF><cc:Work
         rdf:about=""><dc:format>image/svg+xml</dc:format><dc:type
           rdf:resource="http://purl.org/dc/dcmitype/StillImage" /><dc:title /></cc:Work></rdf:RDF></metadata><defs
     id="defs57" /><g
     transform="translate(1,1)"
     id="g4141"><path
       style="fill:#ffffff;fill-opacity:1;stroke:#556080;stroke-width:2;stroke-miterlimit:4;stroke-dasharray:none;stroke-opacity:1"
       d="M 36.985,0 7.963,0 C 7.155,0 6.5,0.655 6.5,1.926 L 6.5,55 c 0,0.345 0.655,1 1.463,1 l 40.074,0 c 0.808,0 1.463,-0.655 1.463,-1 l 0,-42.022 c 0,-0.696 -0.093,-0.92 -0.257,-1.085 L 37.607,0.257 C 37.442,0.093 37.218,0 36.985,0 Z"
       id="path5" /><polygon
       style="fill:#556080;fill-opacity:1"
       points="37.5,0.151 37.5,12 49.349,12 "
       id="polygon7" /></g><path
     id="path9"
     d="M 49.037,57 8.963,57 C 8.155,57 7.5,56.345 7.5,55.537 L 7.5,40 l 43,0 0,15.537 C 50.5,56.345 49.845,57 49.037,57 Z"
     style="fill:#556080" /><g
     transform="translate(1.5,1)"
     id="g19"><path
       id="path21"
       d="m 28.5,24 0,-2 2,0 0,-2 -2,0 0,-2 2,0 0,-2 -2,0 0,-2 2,0 0,-2 -2,0 0,-2 2,0 0,-2 -2,0 0,-2 -2,0 0,2 -2,0 0,2 2,0 0,2 -2,0 0,2 2,0 0,2 -2,0 0,2 2,0 0,2 -2,0 0,2 2,0 0,2 -4,0 0,5 c 0,2.757 2.243,5 5,5 2.757,0 5,-2.243 5,-5 l 0,-5 -4,0 z m 2,5 c 0,1.654 -1.346,3 -3,3 -1.654,0 -3,-1.346 -3,-3 l 0,-3 6,0 0,3 z"
       style="fill:#556080;fill-opacity:1" /><path
       id="path23"
       d="m 26.5,30 2,0 c 0.552,0 1,-0.447 1,-1 0,-0.553 -0.448,-1 -1,-1 l -2,0 c -0.552,0 -1,0.447 -1,1 0,0.553 0.448,1 1,1 z"
       style="fill:#556080;fill-opacity:1" /></g><text
     xml:space="preserve"
     style="font-style:normal;font-variant:normal;font-weight:bold;font-stretch:normal;font-size:15px;line-height:100%;font-family:sans-serif;-inkscape-font-specification:'sans-serif, Bold';text-align:start;letter-spacing:0px;word-spacing:0px;writing-mode:lr-tb;text-anchor:start;fill:#ffffff;fill-opacity:1;stroke:none;stroke-width:1px;stroke-linecap:butt;stroke-linejoin:miter;stroke-opacity:1"
     x="15.241455"
     y="54.155121"
     id="text4214"><tspan
       id="tspan4216"
       x="15.241455"
       y="54.155121">ZIP</tspan></text>
</svg>