<?xml version="1.0" encoding="UTF-8" standalone="no"?>
<svg
   xmlns:dc="http://purl.org/dc/elements/1.1/"
   xmlns:cc="http://creativecommons.org/ns#"
   xmlns:rdf="http://www.w3.org/1999/02/22-rdf-syntax-ns#"
   xmlns:svg="http://www.w3.org/2000/svg"
   xmlns="http://www.w3.org/2000/svg"
   version="1.1"
   id="Capa_1"
   x="0px"
   y="0px"
   viewBox="0 0 58 58"
   xml:space="preserve"
   width="58"
   height="58"><metadata
     id="metadata6536"><rdf:RDF><cc:Work
         rdf:about=""><dc:format>image/svg+xml</dc:format><dc:type
           rdf:resource="http://purl.org/dc/dcmitype/StillImage" /><dc:title /></cc:Work></rdf:RDF></metadata><defs
     id="defs6534" /><g
     id="g6076"
     transform="translate(1,1)"><path
       style="fill:#ffffff;fill-opacity:1;stroke:#14a085;stroke-width:2;stroke-miterlimit:4;stroke-dasharray:none;stroke-opacity:1"
       d="M 36.985,0 7.963,0 C 7.155,0 6.5,0.655 6.5,1.926 L 6.5,55 c 0,0.345 0.655,1 1.463,1 l 40.074,0 c 0.808,0 1.463,-0.655 1.463,-1 l 0,-42.022 c 0,-0.696 -0.093,-0.92 -0.257,-1.085 L 37.607,0.257 C 37.442,0.093 37.218,0 36.985,0 Z"
       id="path6484" /><polygon
       style="fill:#14a085;fill-opacity:1"
       points="37.5,0.151 37.5,12 49.349,12 "
       id="polygon6486" /></g><g
     id="g6072"
     transform="translate(0.99999984,1)"><circle
       style="fill:#f3d55b"
       cx="18.931"
       cy="14.431"
       r="4.5689998"
       id="circle6488" /><polygon
       transform="matrix(0.94481672,0,0,1,1.545132,0)"
       style="fill:#26b99a"
       points="39.5,18.5 29,30 23.517,24.517 6.5,39 17.5,39 49.5,39 49.5,28 "
       id="polygon6490" /></g><path
     id="path6492"
     d="M 49.037,57 8.963,57 C 8.155,57 7.5,56.345 7.5,55.537 L 7.5,40 l 43,0 0,15.537 C 50.5,56.345 49.845,57 49.037,57 Z"
     style="fill:#14a085" /><g
     id="g6502"
     transform="translate(-5.5,1)" /><g
     id="g6504"
     transform="translate(-5.5,1)" /><g
     id="g6506"
     transform="translate(-5.5,1)" /><g
     id="g6508"
     transform="translate(-5.5,1)" /><g
     id="g6510"
     transform="translate(-5.5,1)" /><g
     id="g6512"
     transform="translate(-5.5,1)" /><g
     id="g6514"
     transform="translate(-5.5,1)" /><g
     id="g6516"
     transform="translate(-5.5,1)" /><g
     id="g6518"
     transform="translate(-5.5,1)" /><g
     id="g6520"
     transform="translate(-5.5,1)" /><g
     id="g6522"
     transform="translate(-5.5,1)" /><g
     id="g6524"
     transform="translate(-5.5,1)" /><g
     id="g6526"
     transform="translate(-5.5,1)" /><g
     id="g6528"
     transform="translate(-5.5,1)" /><g
     id="g6530"
     transform="translate(-5.5,1)" /><text
     xml:space="preserve"
     style="font-style:normal;font-variant:normal;font-weight:bold;font-stretch:normal;font-size:15px;line-height:100%;font-family:sans-serif;-inkscape-font-specification:'sans-serif, Bold';text-align:start;letter-spacing:0px;word-spacing:0px;writing-mode:lr-tb;text-anchor:start;fill:#ffffff;fill-opacity:1;stroke:none;stroke-width:1px;stroke-linecap:butt;stroke-linejoin:miter;stroke-opacity:1"
     x="12.439941"
     y="54.39241"
     id="text4214"><tspan
       id="tspan4216"
       x="12.439941"
       y="54.39241">IMG</tspan></text>
</svg>