<?xml version="1.0" encoding="UTF-8" standalone="no"?>
<svg
   xmlns:dc="http://purl.org/dc/elements/1.1/"
   xmlns:cc="http://creativecommons.org/ns#"
   xmlns:rdf="http://www.w3.org/1999/02/22-rdf-syntax-ns#"
   xmlns:svg="http://www.w3.org/2000/svg"
   xmlns="http://www.w3.org/2000/svg"
   version="1.1"
   width="48"
   height="48"
   id="svg11300">
  <metadata
     id="metadata3034">
    <rdf:RDF>
      <cc:Work
         rdf:about="">
        <dc:format>image/svg+xml</dc:format>
        <dc:type
           rdf:resource="http://purl.org/dc/dcmitype/StillImage" />
      </cc:Work>
    </rdf:RDF>
  </metadata>
  <defs
     id="defs3" />
  <rect
     width="34"
     height="14"
     rx="1.899653"
     ry="1.9622538"
     x="14"
     y="0"
     id="rect2889"
     style="fill:#353535;fill-opacity:0.8;stroke:none" />
  <path
     d="M 22,37.00258 A 11,11 0 0 1 3.05e-7,37.00258 11,11 0 1 1 22,37.00258 z"
     id="path3637"
     style="fill:#353535;fill-opacity:0.8;stroke:none" />
  <text
     x="-0.52224785"
     y="47.555145"
     transform="scale(0.95226947,1.0501229)"
     id="text4407"
     xml:space="preserve"
     style="font-size:35.20000076px;font-style:italic;font-variant:normal;font-weight:bold;font-stretch:normal;text-align:start;line-height:125%;letter-spacing:0px;word-spacing:0px;writing-mode:lr-tb;text-anchor:start;fill:#ffffff;fill-opacity:1;stroke:none;font-family:URW Bookman L;-inkscape-font-specification:URW Bookman L Bold Italic"><tspan
       x="-0.52224785"
       y="47.555145"
       id="tspan4409">+</tspan></text>
  <path
     d="m 21.643181,45.081352 c 2.680362,0 8.041095,-3.579036 8.041095,-11.930121 l -5.360733,0 8.041095,-7.158074 8.041093,7.158074 -5.360733,0 c 0,6.577895 -6.012467,11.930121 -13.401817,11.930121 z"
     id="path3802"
     style="fill:#353535;fill-opacity:0.8" />
  <path
     d="M 6.90625,15 C 5.8538422,15 5,15.881661 5,16.96875 l 0,9.875 A 11.130258,11 0 0 1 19.6875,29 l 8.1875,0 4.5,-4 4.5,4 9.25,0 C 47.177408,29 48,28.149589 48,27.0625 L 48,16.96875 C 48,15.881661 47.177408,15 46.125,15 L 6.90625,15 z M 5,27.0625 c 0,0.271772 0.058545,0.518528 0.15625,0.75 C 5.0603769,27.577581 5,27.334272 5,27.0625 z m 0.84375,1.625 c 0.2020608,0.140776 0.4397288,0.229143 0.6875,0.28125 C 6.2836156,28.9187 6.045674,28.82622 5.84375,28.6875 z"
     id="path3637-4"
     style="opacity:0.4;fill:#353535;fill-opacity:0.8;stroke:none" />
</svg>
