<?xml version="1.0" encoding="UTF-8" standalone="no"?>
<svg
   xmlns:dc="http://purl.org/dc/elements/1.1/"
   xmlns:cc="http://creativecommons.org/ns#"
   xmlns:rdf="http://www.w3.org/1999/02/22-rdf-syntax-ns#"
   xmlns:svg="http://www.w3.org/2000/svg"
   xmlns="http://www.w3.org/2000/svg"
   id="svg11300"
   height="48"
   width="48"
   version="1.1">
  <metadata
     id="metadata4981">
    <rdf:RDF>
      <cc:Work
         rdf:about="">
        <dc:format>image/svg+xml</dc:format>
        <dc:type
           rdf:resource="http://purl.org/dc/dcmitype/StillImage" />
      </cc:Work>
    </rdf:RDF>
  </metadata>
  <defs
     id="defs3" />
  <path
     style="fill:#000000;fill-opacity:1"
     id="path3802"
     d="m 22.443181,35.281352 c 2.680362,0 8.041095,-3.579036 8.041095,-11.930121 l -5.360733,0 8.041095,-7.158074 8.041093,7.158074 -5.360733,0 c 0,6.577895 -6.012467,11.930121 -13.401817,11.930121 z" />
  <path
     style="fill:#000000;fill-opacity:1;stroke:none"
     d="M 11.320312 26.005859 A 11 11 0 0 0 0 37.001953 A 11 11 0 0 0 22 37.001953 A 11 11 0 0 0 11.320312 26.005859 z M 9.0566406 28.019531 L 12.943359 28.019531 L 12.943359 34.894531 L 19.447266 34.894531 L 19.447266 39.107422 L 12.943359 39.107422 L 12.943359 45.984375 L 9.0566406 45.984375 L 9.0566406 39.107422 L 2.5527344 39.107422 L 2.5527344 34.894531 L 9.0566406 34.894531 L 9.0566406 28.019531 z "
     id="path3637" />
  <path
     style="fill:#000000;fill-opacity:1;stroke:none"
     id="rect2889"
     d="M 1.90625,0 C 0.85384226,0 0,0.8816614 0,1.96875 l 0,24.0625 C 0,27.118339 0.85384226,28 1.90625,28 l 1.5625,0 A 11,11 0 0 1 4.15625,27.40625 11,11 0 0 1 5.0625,26.75 11,11 0 0 1 6,26.21875 11,11 0 0 1 7,25.75 a 11,11 0 0 1 1.0625,-0.34375 11,11 0 0 1 1.0625,-0.25 11,11 0 0 1 1.09375,-0.125 A 11,11 0 0 1 11.3125,25 a 11,11 0 0 1 0.25,0 11,11 0 0 1 1.09375,0.125 11,11 0 0 1 1.09375,0.21875 11,11 0 0 1 1.03125,0.34375 11,11 0 0 1 1.03125,0.4375 11,11 0 0 1 0.9375,0.53125 11,11 0 0 1 0.90625,0.625 A 11,11 0 0 1 18.5,28 l 1.59375,0 C 21.146158,28 22,27.118339 22,26.03125 L 22,1.96875 C 22,0.8816614 21.146158,0 20.09375,0 L 1.90625,0 z" />
  <path
     style="opacity:0.4;fill:#000000;fill-opacity:1;stroke:none"
     id="rect2889-3"
     d="M 24.90625,0 C 23.853842,0 23,0.8816613 23,1.96875 l 0,16.0625 C 23,19.118339 23.853842,20 24.90625,20 l 2.53125,0 5.71875,-5.09375 5.75,5.09375 7.1875,0 C 47.146158,20 48,19.118339 48,18.03125 L 48,1.96875 C 48,0.8816613 47.146158,0 46.09375,0 l -21.1875,0 z" />
</svg>
