<?xml version="1.0" encoding="UTF-8" standalone="no"?>
<svg
   xmlns:dc="http://purl.org/dc/elements/1.1/"
   xmlns:cc="http://creativecommons.org/ns#"
   xmlns:rdf="http://www.w3.org/1999/02/22-rdf-syntax-ns#"
   xmlns:svg="http://www.w3.org/2000/svg"
   xmlns="http://www.w3.org/2000/svg"
   version="1.1"
   width="24"
   height="24"
   viewBox="0 0 24 24"
   id="svg2">
  <metadata
     id="metadata10">
    <rdf:RDF>
      <cc:Work
         rdf:about="">
        <dc:format>image/svg+xml</dc:format>
        <dc:type
           rdf:resource="http://purl.org/dc/dcmitype/StillImage" />
      </cc:Work>
    </rdf:RDF>
  </metadata>
  <defs
     id="defs8" />
  <path
     d="m 19,3 -6,6 2,2 7,-7 V 3 M 12,12.5 A 0.5,0.5 0 0 1 11.5,12 0.5,0.5 0 0 1 12,11.5 0.5,0.5 0 0 1 12.5,12 0.5,0.5 0 0 1 12,12.5 M 6,20 A 2,2 0 0 1 4,18 c 0,-1.11 0.9,-2 2,-2 a 2,2 0 0 1 2,2 c 0,1.11 -0.9,2 -2,2 M 6,8 A 2,2 0 0 1 4,6 C 4,4.89 4.9,4 6,4 A 2,2 0 0 1 8,6 C 8,7.11 7.1,8 6,8 M 9.64,7.64 C 9.87,7.14 10,6.59 10,6 A 4,4 0 0 0 6,2 4,4 0 0 0 2,6 4,4 0 0 0 6,10 C 6.59,10 7.14,9.87 7.64,9.64 L 10,12 7.64,14.36 C 7.14,14.13 6.59,14 6,14 a 4,4 0 0 0 -4,4 4,4 0 0 0 4,4 4,4 0 0 0 4,-4 C 10,17.41 9.87,16.86 9.64,16.36 L 12,14 l 7,7 h 3 V 20 L 9.64,7.64 z"
     id="path4"
     style="fill:#000000;fill-opacity:1" />
</svg>
