<?xml version="1.0" encoding="UTF-8" standalone="no"?>
<svg
   xmlns:dc="http://purl.org/dc/elements/1.1/"
   xmlns:cc="http://creativecommons.org/ns#"
   xmlns:rdf="http://www.w3.org/1999/02/22-rdf-syntax-ns#"
   xmlns:svg="http://www.w3.org/2000/svg"
   xmlns="http://www.w3.org/2000/svg"
   version="1.1"
   width="24"
   height="24"
   id="svg5404">
  <metadata
     id="metadata16">
    <rdf:RDF>
      <cc:Work
         rdf:about="">
        <dc:format>image/svg+xml</dc:format>
        <dc:type
           rdf:resource="http://purl.org/dc/dcmitype/StillImage" />
      </cc:Work>
    </rdf:RDF>
  </metadata>
  <defs
     id="defs5408" />
  <path
     d="M 12.002271,15.5 A 3.5981862,3.5 0 0 1 8.4040843,12 3.5981862,3.5 0 0 1 12.002271,8.5 3.5981862,3.5 0 0 1 15.600457,12 3.5981862,3.5 0 0 1 12.002271,15.5 m 7.638435,-2.53 c 0.04112,-0.32 0.07196,-0.64 0.07196,-0.97 0,-0.33 -0.03084,-0.66 -0.07196,-1 l 2.169193,-1.6299999 c 0.19533,-0.15 0.246732,-0.42 0.123366,-0.6400001 L 19.877159,5.27 C 19.753792,5.05 19.476218,4.96 19.250046,5.05 l -2.559852,1 C 16.155606,5.66 15.600457,5.32 14.952784,5.07 L 14.572404,2.42 C 14.531284,2.18 14.315391,2 14.058377,2 H 9.9461649 C 9.6891508,2 9.4732597,2.18 9.4321375,2.42 L 9.0517578,5.07 C 8.4040843,5.32 7.8489356,5.66 7.3143479,6.05 l -2.5598525,-1 C 4.5283237,4.96 4.2507494,5.05 4.127383,5.27 L 2.0712766,8.73 C 1.9376297,8.9500001 1.9993126,9.2200001 2.194643,9.3700001 L 4.3638352,11 c -0.041122,0.34 -0.071964,0.67 -0.071964,1 0,0.33 0.030842,0.65 0.071964,0.97 L 2.194643,14.63 c -0.1953302,0.15 -0.2570133,0.42 -0.1233664,0.64 l 2.0561064,3.46 c 0.1233664,0.22 0.4009407,0.3 0.6271124,0.22 l 2.5598525,-1.01 c 0.5345877,0.4 1.0897364,0.74 1.7374099,0.99 l 0.3803797,2.65 C 9.4732597,21.82 9.6891508,22 9.9461649,22 h 4.1122121 c 0.257014,0 0.472905,-0.18 0.514027,-0.42 l 0.38038,-2.65 c 0.647673,-0.26 1.202822,-0.59 1.73741,-0.99 l 2.559852,1.01 c 0.226172,0.08 0.503746,0 0.627113,-0.22 l 2.056106,-3.46 c 0.123366,-0.22 0.07196,-0.49 -0.123366,-0.64 l -2.169193,-1.66 z"
     id="path4-6"
     style="fill:#000000;fill-opacity:1" />
</svg>
