<?xml version="1.0" encoding="UTF-8" standalone="no"?>
<svg
   xmlns:dc="http://purl.org/dc/elements/1.1/"
   xmlns:cc="http://creativecommons.org/ns#"
   xmlns:rdf="http://www.w3.org/1999/02/22-rdf-syntax-ns#"
   xmlns:svg="http://www.w3.org/2000/svg"
   xmlns="http://www.w3.org/2000/svg"
   version="1.1"
   width="24"
   height="24"
   id="svg7847">
  <metadata
     id="metadata12524">
    <rdf:RDF>
      <cc:Work
         rdf:about="">
        <dc:format>image/svg+xml</dc:format>
        <dc:type
           rdf:resource="http://purl.org/dc/dcmitype/StillImage" />
      </cc:Work>
    </rdf:RDF>
  </metadata>
  <defs
     id="defs7851" />
  <path
     d="M 15,9.0000001 H 4.9999998 v -4 H 15 M 12,19 A 3,3 0 0 1 9.0000002,16 3,3 0 0 1 12,13 a 3,3 0 0 1 3,3 3,3 0 0 1 -3,3 M 17,3.0000001 H 4.9999998 c -1.11,0 -2,0.9 -2,2 V 19 a 2,2 0 0 0 2,2 H 19 a 2,2 0 0 0 2,-2 V 7.0000001 l -4,-4 z"
     id="path4-5"
     style="fill:#353535;fill-opacity:0.8" />
</svg>
