<?xml version="1.0" encoding="UTF-8" standalone="no"?>
<svg
   xmlns:dc="http://purl.org/dc/elements/1.1/"
   xmlns:cc="http://creativecommons.org/ns#"
   xmlns:rdf="http://www.w3.org/1999/02/22-rdf-syntax-ns#"
   xmlns:svg="http://www.w3.org/2000/svg"
   xmlns="http://www.w3.org/2000/svg"
   version="1.1"
   width="48"
   height="48"
   id="svg11300">
  <metadata
     id="metadata4422">
    <rdf:RDF>
      <cc:Work
         rdf:about="">
        <dc:format>image/svg+xml</dc:format>
        <dc:type
           rdf:resource="http://purl.org/dc/dcmitype/StillImage" />
      </cc:Work>
    </rdf:RDF>
  </metadata>
  <defs
     id="defs3" />
  <path
     d="M 27.90625,0 C 26.853842,0 26,0.88166139 26,1.96875 l 0,10.25 5.125,0 L 26.25,16.75 c 0.585919,0.840324 1.069128,1.712185 1.4375,2.625 0.368372,0.912815 0.630295,1.855878 0.78125,2.8125 0.150955,0.956622 0.191332,1.934504 0.125,2.90625 C 28.52742,26.065496 28.345989,27.041814 28.0625,28 l 18.03125,0 C 47.146158,28 48,27.118339 48,26.03125 L 48,1.96875 C 48,0.88166139 47.146158,0 46.09375,0 l -18.1875,0 z"
     id="rect2889"
     style="fill:#000000;fill-opacity:1;stroke:none" />
  <path
     id="path3637"
     d="M 11.320312 26.005859 A 11 11 0 0 0 0 37.001953 A 11 11 0 0 0 22 37.001953 A 11 11 0 0 0 11.320312 26.005859 z M 9.0566406 28.019531 L 12.943359 28.019531 L 12.943359 34.894531 L 19.447266 34.894531 L 19.447266 39.107422 L 12.943359 39.107422 L 12.943359 45.984375 L 9.0566406 45.984375 L 9.0566406 39.107422 L 2.5527344 39.107422 L 2.5527344 34.894531 L 9.0566406 34.894531 L 9.0566406 28.019531 z "
     style="fill:#000000;fill-opacity:1;stroke:none" />
  <path
     d="m 22.838325,34.443266 c 2.006709,-1.776924 3.647442,-8.010298 -1.888841,-14.262513 l -4.013426,3.553854 1.274749,-10.68982 10.765519,0.02827 -4.013426,3.553854 c 4.360762,4.924679 3.407616,12.91765 -2.124575,17.816359 z"
     id="path3802"
     style="fill:#000000;fill-opacity:1" />
  <path
     d="M 1.90625,0 C 0.8538423,0 0,0.8816614 0,1.96875 l 0,16.0625 C 0,19.118339 0.8538423,20 1.90625,20 l 14.375,0 0.9375,-7.96875 L 25,12.0625 25,1.96875 C 25,0.8816614 24.146158,0 23.09375,0 L 1.90625,0 z"
     id="rect2889-9"
     style="opacity:0.4;fill:#000000;fill-opacity:1;stroke:none" />
</svg>
