<?xml version="1.0" encoding="UTF-8" standalone="no"?>
<svg
   xmlns:dc="http://purl.org/dc/elements/1.1/"
   xmlns:cc="http://creativecommons.org/ns#"
   xmlns:rdf="http://www.w3.org/1999/02/22-rdf-syntax-ns#"
   xmlns:svg="http://www.w3.org/2000/svg"
   xmlns="http://www.w3.org/2000/svg"
   version="1.1"
   width="48"
   height="48"
   id="svg11300">
  <metadata
     id="metadata4422">
    <rdf:RDF>
      <cc:Work
         rdf:about="">
        <dc:format>image/svg+xml</dc:format>
        <dc:type
           rdf:resource="http://purl.org/dc/dcmitype/StillImage" />
      </cc:Work>
    </rdf:RDF>
  </metadata>
  <defs
     id="defs3" />
  <path
     d="M 27.90625,0 C 26.853842,0 26,0.88166139 26,1.96875 l 0,10.25 5.125,0 L 26.25,16.75 c 0.585919,0.840324 1.069128,1.712185 1.4375,2.625 0.368372,0.912815 0.630295,1.855878 0.78125,2.8125 0.150955,0.956622 0.191332,1.934504 0.125,2.90625 C 28.52742,26.065496 28.345989,27.041814 28.0625,28 l 18.03125,0 C 47.146158,28 48,27.118339 48,26.03125 L 48,1.96875 C 48,0.88166139 47.146158,0 46.09375,0 l -18.1875,0 z"
     id="rect2889"
     style="fill:#353535;fill-opacity:0.8;stroke:none" />
  <path
     d="M 22,37.00258 A 11,11 0 0 1 3.05e-7,37.00258 11,11 0 1 1 22,37.00258 z"
     id="path3637"
     style="fill:#353535;fill-opacity:0.8;stroke:none" />
  <text
     x="-0.52224785"
     y="47.555145"
     transform="scale(0.95226947,1.0501229)"
     id="text4407"
     xml:space="preserve"
     style="font-size:35.20000076px;font-style:italic;font-variant:normal;font-weight:bold;font-stretch:normal;text-align:start;line-height:125%;letter-spacing:0px;word-spacing:0px;writing-mode:lr-tb;text-anchor:start;fill:#ffffff;fill-opacity:1;stroke:none;font-family:URW Bookman L;-inkscape-font-specification:URW Bookman L Bold Italic"><tspan
       x="-0.52224785"
       y="47.555145"
       id="tspan4409">+</tspan></text>
  <path
     d="m 22.838325,34.443266 c 2.006709,-1.776924 3.647442,-8.010298 -1.888841,-14.262513 l -4.013426,3.553854 1.274749,-10.68982 10.765519,0.02827 -4.013426,3.553854 c 4.360762,4.924679 3.407616,12.91765 -2.124575,17.816359 z"
     id="path3802"
     style="fill:#353535;fill-opacity:0.8" />
  <path
     d="M 1.90625,0 C 0.8538423,0 0,0.8816614 0,1.96875 l 0,16.0625 C 0,19.118339 0.8538423,20 1.90625,20 l 14.375,0 0.9375,-7.96875 L 25,12.0625 25,1.96875 C 25,0.8816614 24.146158,0 23.09375,0 L 1.90625,0 z"
     id="rect2889-9"
     style="opacity:0.4;fill:#353535;fill-opacity:0.8;stroke:none" />
</svg>
