<?xml version="1.0" encoding="UTF-8" standalone="no"?>
<svg
   xmlns:dc="http://purl.org/dc/elements/1.1/"
   xmlns:cc="http://creativecommons.org/ns#"
   xmlns:rdf="http://www.w3.org/1999/02/22-rdf-syntax-ns#"
   xmlns:svg="http://www.w3.org/2000/svg"
   xmlns="http://www.w3.org/2000/svg"
   version="1.1"
   width="48"
   height="48"
   id="svg11300">
  <metadata
     id="metadata3863">
    <rdf:RDF>
      <cc:Work
         rdf:about="">
        <dc:format>image/svg+xml</dc:format>
        <dc:type
           rdf:resource="http://purl.org/dc/dcmitype/StillImage" />
      </cc:Work>
    </rdf:RDF>
  </metadata>
  <defs
     id="defs3" />
  <path
     d="M 6.1083659,27.996365 C 4.1038836,26.216929 2.4709589,19.981505 8.0150679,13.736229 L 12.024039,17.295106 10.76268,6.6036984 -0.00286633,6.6184784 4.0061049,10.177355 c -4.36692563,4.919214 -3.42379143,12.913373 2.102261,17.819007 z"
     id="path3802"
     style="fill:#353535;fill-opacity:0.8" />
  <path
     d="M 6.90625,0 C 5.8538422,0 5,0.8816614 5,1.96875 L 5,5.625 11.75,5.59375 12.75,14 46.09375,14 C 47.146158,14 48,13.118339 48,12.03125 L 48,1.96875 C 48,0.8816614 47.146158,0 46.09375,0 L 6.90625,0 z"
     id="rect2889"
     style="opacity:0.4;fill:#353535;fill-opacity:0.8;stroke:none" />
  <path
     d="M 22,37.00258 A 11,11 0 0 1 3.05e-7,37.00258 11,11 0 1 1 22,37.00258 z"
     id="path3637"
     style="fill:#353535;fill-opacity:0.8;stroke:none" />
  <text
     x="-0.52224785"
     y="47.555145"
     transform="scale(0.95226947,1.0501229)"
     id="text4407"
     xml:space="preserve"
     style="font-size:35.20000076px;font-style:italic;font-variant:normal;font-weight:bold;font-stretch:normal;text-align:start;line-height:125%;letter-spacing:0px;word-spacing:0px;writing-mode:lr-tb;text-anchor:start;fill:#ffffff;fill-opacity:1;stroke:none;font-family:URW Bookman L;-inkscape-font-specification:URW Bookman L Bold Italic"><tspan
       x="-0.52224785"
       y="47.555145"
       id="tspan4409">+</tspan></text>
  <path
     d="M 15.90625,15 C 14.853842,15 14,15.881661 14,16.96875 l 0,8.21875 a 11,11 0 0 1 1.03125,0.25 11,11 0 0 1 1.03125,0.34375 11,11 0 0 1 1,0.46875 11,11 0 0 1 0.96875,0.5625 11,11 0 0 1 0.875,0.65625 11,11 0 0 1 0.8125,0.71875 11,11 0 0 1 0.75,0.8125 l 25.625,0 C 47.146158,29 48,28.118339 48,27.03125 l 0,-10.0625 C 48,15.881661 47.146158,15 46.09375,15 l -30.1875,0 z"
     id="rect2889-0"
     style="fill:#353535;fill-opacity:0.8;stroke:none" />
</svg>
