<?xml version="1.0" encoding="UTF-8" standalone="no"?>
<svg
   xmlns:dc="http://purl.org/dc/elements/1.1/"
   xmlns:cc="http://creativecommons.org/ns#"
   xmlns:rdf="http://www.w3.org/1999/02/22-rdf-syntax-ns#"
   xmlns:svg="http://www.w3.org/2000/svg"
   xmlns="http://www.w3.org/2000/svg"
   id="svg11300"
   height="48"
   width="48"
   version="1.1">
  <metadata
     id="metadata3034">
    <rdf:RDF>
      <cc:Work
         rdf:about="">
        <dc:format>image/svg+xml</dc:format>
        <dc:type
           rdf:resource="http://purl.org/dc/dcmitype/StillImage" />
      </cc:Work>
    </rdf:RDF>
  </metadata>
  <defs
     id="defs3" />
  <rect
     style="fill:#000000;fill-opacity:1;stroke:none"
     id="rect2889"
     y="0"
     x="14"
     ry="1.9622538"
     rx="1.899653"
     height="14"
     width="34" />
  <path
     style="fill:#000000;fill-opacity:1;stroke:none"
     d="M 11.320312 26.005859 A 11 11 0 0 0 0 37.001953 A 11 11 0 0 0 22 37.001953 A 11 11 0 0 0 11.320312 26.005859 z M 9.0566406 28.019531 L 12.943359 28.019531 L 12.943359 34.894531 L 19.447266 34.894531 L 19.447266 39.107422 L 12.943359 39.107422 L 12.943359 45.984375 L 9.0566406 45.984375 L 9.0566406 39.107422 L 2.5527344 39.107422 L 2.5527344 34.894531 L 9.0566406 34.894531 L 9.0566406 28.019531 z "
     id="path3637" />
  <path
     style="fill:#000000;fill-opacity:1"
     id="path3802"
     d="m 21.643181,45.081352 c 2.680362,0 8.041095,-3.579036 8.041095,-11.930121 l -5.360733,0 8.041095,-7.158074 8.041093,7.158074 -5.360733,0 c 0,6.577895 -6.012467,11.930121 -13.401817,11.930121 z" />
  <path
     style="opacity:0.4;fill:#000000;fill-opacity:1;stroke:none"
     id="path3637-4"
     d="M 6.90625,15 C 5.8538422,15 5,15.881661 5,16.96875 l 0,9.875 A 11.130258,11 0 0 1 19.6875,29 l 8.1875,0 4.5,-4 4.5,4 9.25,0 C 47.177408,29 48,28.149589 48,27.0625 L 48,16.96875 C 48,15.881661 47.177408,15 46.125,15 L 6.90625,15 z M 5,27.0625 c 0,0.271772 0.058545,0.518528 0.15625,0.75 C 5.0603769,27.577581 5,27.334272 5,27.0625 z m 0.84375,1.625 c 0.2020608,0.140776 0.4397288,0.229143 0.6875,0.28125 C 6.2836156,28.9187 6.045674,28.82622 5.84375,28.6875 z" />
</svg>
