<?xml version="1.0" encoding="UTF-8" standalone="no"?>
<svg
   xmlns:dc="http://purl.org/dc/elements/1.1/"
   xmlns:cc="http://creativecommons.org/ns#"
   xmlns:rdf="http://www.w3.org/1999/02/22-rdf-syntax-ns#"
   xmlns:svg="http://www.w3.org/2000/svg"
   xmlns="http://www.w3.org/2000/svg"
   id="svg11300"
   height="48"
   width="48"
   version="1.1">
  <metadata
     id="metadata3863">
    <rdf:RDF>
      <cc:Work
         rdf:about="">
        <dc:format>image/svg+xml</dc:format>
        <dc:type
           rdf:resource="http://purl.org/dc/dcmitype/StillImage" />
      </cc:Work>
    </rdf:RDF>
  </metadata>
  <defs
     id="defs3" />
  <path
     style="fill:#000000;fill-opacity:1"
     id="path3802"
     d="M 6.1083659,27.996365 C 4.1038836,26.216929 2.4709589,19.981505 8.0150679,13.736229 L 12.024039,17.295106 10.76268,6.6036984 -0.00286633,6.6184784 4.0061049,10.177355 c -4.36692563,4.919214 -3.42379143,12.913373 2.102261,17.819007 z" />
  <path
     style="opacity:0.4;fill:#000000;fill-opacity:1;stroke:none"
     id="rect2889"
     d="M 6.90625,0 C 5.8538422,0 5,0.8816614 5,1.96875 L 5,5.625 11.75,5.59375 12.75,14 46.09375,14 C 47.146158,14 48,13.118339 48,12.03125 L 48,1.96875 C 48,0.8816614 47.146158,0 46.09375,0 L 6.90625,0 z" />
  <path
     style="fill:#000000;fill-opacity:1;stroke:none"
     d="M 11.320312 26.005859 A 11 11 0 0 0 0 37.001953 A 11 11 0 0 0 22 37.001953 A 11 11 0 0 0 11.320312 26.005859 z M 9.0566406 28.019531 L 12.943359 28.019531 L 12.943359 34.894531 L 19.447266 34.894531 L 19.447266 39.107422 L 12.943359 39.107422 L 12.943359 45.984375 L 9.0566406 45.984375 L 9.0566406 39.107422 L 2.5527344 39.107422 L 2.5527344 34.894531 L 9.0566406 34.894531 L 9.0566406 28.019531 z "
     id="path3637" />
  <path
     style="fill:#000000;fill-opacity:1;stroke:none"
     id="rect2889-0"
     d="M 15.90625,15 C 14.853842,15 14,15.881661 14,16.96875 l 0,8.21875 a 11,11 0 0 1 1.03125,0.25 11,11 0 0 1 1.03125,0.34375 11,11 0 0 1 1,0.46875 11,11 0 0 1 0.96875,0.5625 11,11 0 0 1 0.875,0.65625 11,11 0 0 1 0.8125,0.71875 11,11 0 0 1 0.75,0.8125 l 25.625,0 C 47.146158,29 48,28.118339 48,27.03125 l 0,-10.0625 C 48,15.881661 47.146158,15 46.09375,15 l -30.1875,0 z" />
</svg>
