<?xml version="1.0" encoding="UTF-8" standalone="no"?>
<svg
   xmlns:dc="http://purl.org/dc/elements/1.1/"
   xmlns:cc="http://creativecommons.org/ns#"
   xmlns:rdf="http://www.w3.org/1999/02/22-rdf-syntax-ns#"
   xmlns:svg="http://www.w3.org/2000/svg"
   xmlns="http://www.w3.org/2000/svg"
   version="1.1"
   width="48"
   height="48"
   id="svg11300">
  <metadata
     id="metadata14">
    <rdf:RDF>
      <cc:Work
         rdf:about="">
        <dc:format>image/svg+xml</dc:format>
        <dc:type
           rdf:resource="com.mkulesh.micromath" />
        <dc:title />
      </cc:Work>
    </rdf:RDF>
  </metadata>
  <defs
     id="defs3" />
  <path
     d="M 7,3.5 C 5.061,3.5 3.5,5.061 3.5,7 l 0,34 c 0,1.939 1.561,3.5 3.5,3.5 l 34,0 c 1.939,0 3.5,-1.561 3.5,-3.5 l 0,-34 C 44.5,5.061 42.939,3.5 41,3.5 l -34,0 z m 9.0625,15.34375 10.96875,8.40625 7.75,-4.59375 7.125,5.46875 0,13.96875 -35.5625,0 0,-15.34375 9.71875,-7.90625 z"
     id="rect11528-8"
     style="color:#000000;fill:#000000;fill-opacity:1;stroke:none" />
  <path
     d="M 6,0.5 C 2.953,0.5 0.5,2.953 0.5,6 l 0,36 c 0,3.047 2.453,5.5 5.5,5.5 l 36,0 c 3.047,0 5.5,-2.453 5.5,-5.5 l 0,-36 C 47.5,2.953 45.047,0.5 42,0.5 l -36,0 z m 0,1 36,0 c 2.493,0 4.5,2.007 4.5,4.5 l 0,36 c 0,2.493 -2.007,4.5 -4.5,4.5 l -36,0 C 3.507,46.5 1.5,44.493 1.5,42 L 1.5,6 C 1.5,3.507 3.507,1.5 6,1.5 z"
     id="rect11518"
     style="color:#000000;fill:#000000;fill-opacity:1;fill-rule:evenodd;stroke:none" />
</svg>
