<?xml version="1.0" encoding="UTF-8" standalone="no"?>
<svg
   xmlns:dc="http://purl.org/dc/elements/1.1/"
   xmlns:cc="http://creativecommons.org/ns#"
   xmlns:rdf="http://www.w3.org/1999/02/22-rdf-syntax-ns#"
   xmlns:svg="http://www.w3.org/2000/svg"
   xmlns="http://www.w3.org/2000/svg"
   id="svg2896"
   height="48"
   width="48"
   version="1.1">
  <title
     id="title2898">sig</title>
  <metadata
     id="metadata9">
    <rdf:RDF>
      <cc:Work
         rdf:about="">
        <dc:format>image/svg+xml</dc:format>
        <dc:type
           rdf:resource="com.mkulesh.micromath" />
      </cc:Work>
    </rdf:RDF>
  </metadata>
  <defs
     id="defs2910" />
  <g
     id="layer1"
     transform="translate(0,-499.19745)" />
  <path
     style="fill:#000000;fill-opacity:1"
     id="path16657"
     d="m 3,3 40,0 2,9.073754 -1.501252,0.569998 C 42.822931,10.344467 42.949707,9.8784362 41.569997,8.427498 40.403869,7.2011679 38,7 37,7 35.760994,7 33.579946,6.979341 31,7 l -20,0 16.463331,17.599338 -15.632489,15.494596 21.03553,-0.07125 c 3.541107,0 5.509276,-0.401888 7.264261,-1.536305 1.657961,-1.071701 2.349259,-2.157719 3.285134,-5.110512 L 44.857501,33.583379 42.79946,45 3,45 3,43.884955 22.80487,24.80531 3,4.1150447 3,3 z" />
</svg>
