<?xml version="1.0" encoding="UTF-8" standalone="no"?>
<svg
   xmlns:dc="http://purl.org/dc/elements/1.1/"
   xmlns:cc="http://creativecommons.org/ns#"
   xmlns:rdf="http://www.w3.org/1999/02/22-rdf-syntax-ns#"
   xmlns:svg="http://www.w3.org/2000/svg"
   xmlns="http://www.w3.org/2000/svg"
   version="1.0"
   width="48"
   height="48"
   viewBox="0 -410 49.28 45.6"
   id="svg2">
  <metadata
     id="metadata9">
    <rdf:RDF>
      <cc:Work
         rdf:about="">
        <dc:format>image/svg+xml</dc:format>
        <dc:type
           rdf:resource="com.mkulesh.micromath" />
      </cc:Work>
    </rdf:RDF>
  </metadata>
  <defs
     id="defs13" />
  <text
     x="-471.24011"
     y="-2950.4648"
     id="text2171"
     xml:space="preserve"
     style="font-size:12px;font-style:normal;font-weight:normal;fill:#000000;fill-opacity:1;stroke:none;font-family:Lello"><tspan
       x="-471.24011"
       y="-2950.4648"
       id="tspan2173" /></text>
  <path
     d="m 34.292125,-406.40686 -19.30425,0 0,32.91242 c -1.8e-5,2.84078 0.352922,4.64267 1.058811,5.40593 0.705871,0.76317 2.358029,1.18711 4.956499,1.2719 l 0,1.17661 -17.923185,0 0,-1.17661 c 2.5779862,-0.0849 4.2250425,-0.50873 4.9411512,-1.2719 0.7161,-0.76326 1.0741588,-2.56515 1.0741675,-5.40593 l 0,-27.41112 c -8.7e-6,-2.84069 -0.3580675,-4.64266 -1.0741675,-5.40593 -0.7161087,-0.76308 -2.363165,-1.18711 -4.9411512,-1.2719 l 0,-1.17661 43.12,0 0,1.17661 c -2.578039,0.0849 -4.225086,0.50882 -4.941151,1.2719 -0.716153,0.76327 -1.074203,2.56524 -1.074168,5.40593 l 0,27.41112 c 0,2.84078 0.358015,4.64267 1.074168,5.40593 0.716065,0.76317 2.363112,1.18711 4.941151,1.2719 l 0,1.17661 -17.892499,0 0,-1.17661 c 2.557503,-0.0849 4.194321,-0.50348 4.910465,-1.25606 0.716074,-0.75259 1.074133,-2.55982 1.074159,-5.42177 l 0,-32.91242 z"
     id="text2175"
     style="font-size:2050.27807617px;font-style:normal;font-weight:normal;fill:#000000;fill-opacity:1;stroke:none;font-family:Times New Roman" />
</svg>
