<?xml version="1.0" encoding="UTF-8" standalone="no"?>
<svg
   xmlns:dc="http://purl.org/dc/elements/1.1/"
   xmlns:cc="http://creativecommons.org/ns#"
   xmlns:rdf="http://www.w3.org/1999/02/22-rdf-syntax-ns#"
   xmlns:svg="http://www.w3.org/2000/svg"
   xmlns="http://www.w3.org/2000/svg"
   version="1.1"
   width="48"
   height="48"
   id="svg3057">
  <defs
     id="defs3059" />
  <metadata
     id="metadata3062">
    <rdf:RDF>
      <cc:Work
         rdf:about="">
        <dc:format>image/svg+xml</dc:format>
        <dc:type
           rdf:resource="http://purl.org/dc/dcmitype/StillImage" />
        <dc:title />
      </cc:Work>
    </rdf:RDF>
  </metadata>
  <g
     transform="matrix(1.5743683,0,0,1,-13.796854,-1004.3622)"
     id="layer1">
    <g
       transform="matrix(0.03797468,0,0,-0.03780378,11.373419,1037.7942)"
       id="g3268"
       style="fill:#000000;fill-opacity:1">
      <path
         d="M 534.72781,731.15685 C 534.31952,699.77202 522.41262,679 493.26667,679 c -19.53886,0 -40.79715,13.00146 -41,42 -0.13039,18.63964 1.00863,54.51047 38.30343,54.54261 -13.93176,4.55268 -13.66478,4.81215 -27.43677,4.81215 C 429.44929,780.35476 421,758 407,574 L 388,325 c -8,-111 -44,-402 -57,-454 -22,-90 -33.13333,-177 -128.13333,-177 -60,0 -72.21167,27.06429 -72.21167,75.06429 0,30 16.79339,50.84935 42.6949,50.93571 21.1828,0.0706 38.55449,-18.47741 38.84457,-44.31982 0.28157,-25.08462 -1.32156,-50.55161 -38.07771,-53.1275 16.54771,-8.29381 17.60453,-8.11273 30.90533,-7.32595 C 244.23987,-282.45342 259,-239 272,-75 l 19,249 c 9,121 45,403 57,458 17,76 19.13333,173 114.13333,173 60,0 73.19211,-27.90495 72.59448,-73.84315 z"
         id="path3270"
         style="fill:#000000;fill-opacity:1" />
    </g>
  </g>
</svg>
