<?xml version="1.0" encoding="UTF-8" standalone="no"?>
<svg
   xmlns:dc="http://purl.org/dc/elements/1.1/"
   xmlns:cc="http://creativecommons.org/ns#"
   xmlns:rdf="http://www.w3.org/1999/02/22-rdf-syntax-ns#"
   xmlns:svg="http://www.w3.org/2000/svg"
   xmlns="http://www.w3.org/2000/svg"
   version="1.1"
   width="48"
   height="48"
   id="svg11300">
  <metadata
     id="metadata14">
    <rdf:RDF>
      <cc:Work
         rdf:about="">
        <dc:format>image/svg+xml</dc:format>
        <dc:type
           rdf:resource="com.mkulesh.micromath" />
        <dc:title />
      </cc:Work>
    </rdf:RDF>
  </metadata>
  <defs
     id="defs3" />
  <path
     d="M 7,3.5 C 5.061,3.5 3.5,5.061 3.5,7 l 0,34 c 0,1.939 1.561,3.5 3.5,3.5 l 34,0 c 1.939,0 3.5,-1.561 3.5,-3.5 l 0,-34 C 44.5,5.061 42.939,3.5 41,3.5 z m 2,1.5 4,8 -3,0 0,18.09375 C 10.269626,28.599642 11.164916,25.649947 12.46875,22.875 14.329845,18.914036 17.187338,14.988323 20.25,12.1875 23.312661,9.3866775 26.529836,7.75 29,7.75 c 2.470164,0 4.163072,1.6366775 4.59375,4.4375 0.430677,2.800823 -0.420155,6.726536 -2.28125,10.6875 -1.861095,3.960964 -4.718588,7.886677 -7.78125,10.6875 C 20.468589,36.363323 17.470164,38 15,38 l 20,0 0,-3 8,4 -8,4 0,-3 C 26.922681,40.0019 17.38876,40.120085 8,40 L 8,13 5,13 z m 6,33 z m -5,-6.90625 z"
     id="rect11528-8"
     style="color:#000000;fill:#000000;fill-opacity:1;stroke:none" />
  <path
     d="M 6,0.5 C 2.953,0.5 0.5,2.953 0.5,6 l 0,36 c 0,3.047 2.453,5.5 5.5,5.5 l 36,0 c 3.047,0 5.5,-2.453 5.5,-5.5 l 0,-36 C 47.5,2.953 45.047,0.5 42,0.5 l -36,0 z m 0,1 36,0 c 2.493,0 4.5,2.007 4.5,4.5 l 0,36 c 0,2.493 -2.007,4.5 -4.5,4.5 l -36,0 C 3.507,46.5 1.5,44.493 1.5,42 L 1.5,6 C 1.5,3.507 3.507,1.5 6,1.5 z"
     id="rect11518"
     style="color:#000000;fill:#000000;fill-opacity:1;fill-rule:evenodd;stroke:none" />
  <path
     d="m 29.1897,22.976019 a 6.9538212,14.070023 27.243988 0 1 -15.159822,0 6.9538212,14.070023 27.243988 1 1 15.159822,0 z"
     id="path2911-3-5"
     style="fill:#000000;fill-opacity:0.11764706;stroke:none" />
  <path
     d="m 27.260742,23.319842 a 5.7289663,11.19035 19.551907 0 1 -11.962918,0 5.7289663,11.19035 19.551907 1 1 11.962918,0 z"
     id="path2911-3-5-0-5"
     style="fill:#000000;fill-opacity:0.23529412;stroke:none" />
  <path
     d="m 25.608655,23.655554 a 4.5435024,8.3039033 8.626828 0 1 -9.159485,0 4.5435024,8.3039033 8.626828 1 1 9.159485,0 z"
     id="path2911-3-5-0"
     style="fill:#000000;fill-opacity:0.35294118;stroke:none" />
</svg>
