<?xml version="1.0" encoding="UTF-8" standalone="no"?>
<svg
   xmlns:dc="http://purl.org/dc/elements/1.1/"
   xmlns:cc="http://creativecommons.org/ns#"
   xmlns:rdf="http://www.w3.org/1999/02/22-rdf-syntax-ns#"
   xmlns:svg="http://www.w3.org/2000/svg"
   xmlns="http://www.w3.org/2000/svg"
   version="1.1"
   width="48"
   height="48"
   id="svg11300">
  <metadata
     id="metadata19">
    <rdf:RDF>
      <cc:Work
         rdf:about="">
        <dc:format>image/svg+xml</dc:format>
        <dc:type
           rdf:resource="com.mkulesh.micromath" />
      </cc:Work>
    </rdf:RDF>
  </metadata>
  <defs
     id="defs3" />
  <path
     d="m 26,29.076271 a 10.381356,18.076271 0 1 1 -20.7627125,0 10.381356,18.076271 0 1 1 20.7627125,0 z"
     transform="matrix(1.0763265,0,-0.59341768,0.9978903,20.617342,-4.0149288)"
     id="path2911"
     style="fill:#353535;fill-opacity:0.84313725;stroke:none" />
  <rect
     width="46.014156"
     height="45.816196"
     rx="6.2652392"
     ry="5.4422288"
     x="1.074217"
     y="1.0784065"
     id="rect11518"
     style="color:#000000;fill:#323232;fill-opacity:0.8;fill-rule:evenodd;stroke:#353535;stroke-width:1.14610016;stroke-linejoin:bevel;stroke-miterlimit:10;stroke-opacity:0.8" />
  <path
     d="m 26,29.076271 a 10.381356,18.076271 0 1 1 -20.7627125,0 10.381356,18.076271 0 1 1 20.7627125,0 z"
     transform="matrix(0.90887264,0,-0.39327017,0.83699602,17.1642,0.8649529)"
     id="path2911-3"
     style="fill:#5a5a5a;fill-opacity:0.84313725;stroke:none" />
  <path
     d="m 26,29.076271 a 10.381356,18.076271 0 1 1 -20.7627125,0 10.381356,18.076271 0 1 1 20.7627125,0 z"
     transform="matrix(0.73014646,0,-0.26096866,0.71407752,15.905744,4.734754)"
     id="path2911-3-5"
     style="fill:#828282;fill-opacity:0.84313725;stroke:none" />
  <path
     d="m 26,29.076271 a 10.381356,18.076271 0 1 1 -20.7627125,0 10.381356,18.076271 0 1 1 20.7627125,0 z"
     transform="matrix(0.5761732,0,-0.15040962,0.5929307,14.765447,8.601075)"
     id="path2911-3-5-0-5"
     style="fill:#aaaaaa;fill-opacity:0.84313725;stroke:none" />
  <path
     d="m 26,29.076271 a 10.381356,18.076271 0 1 1 -20.7627125,0 10.381356,18.076271 0 1 1 20.7627125,0 z"
     transform="matrix(0.4411507,0,-0.04811202,0.45574627,13.649512,12.925599)"
     id="path2911-3-5-0"
     style="fill:#d2d2d2;fill-opacity:0.84313725;stroke:none" />
  <rect
     width="42.613228"
     height="42.429905"
     rx="4.4872475"
     ry="3.8977964"
     x="2.7749097"
     y="2.7717824"
     id="rect11528"
     style="color:#000000;fill:none;stroke:#ffffff;stroke-width:2.29220033;stroke-linejoin:bevel;stroke-miterlimit:10" />
  <path
     d="m 8.7846059,9.759678 0,29.110395 31.1792301,0"
     id="path9988"
     style="fill:none;stroke:#ffffff;stroke-width:2.31746578" />
  <path
     d="m 8.6777283,5.0408691 -4.0040559,8.2569019 8.0081206,0 -4.0040647,-8.2569019"
     id="path9992"
     style="fill:#ffffff;fill-rule:evenodd" />
  <path
     d="m 43.326328,38.830678 -8.008116,-4.128453 0,8.256906 8.008116,-4.128453"
     id="path9994"
     style="fill:#ffffff;fill-rule:evenodd" />
</svg>
