<?xml version="1.0" encoding="UTF-8" standalone="no"?>
<!-- Created with Inkscape (http://www.inkscape.org/) -->

<svg
   xmlns:dc="http://purl.org/dc/elements/1.1/"
   xmlns:cc="http://creativecommons.org/ns#"
   xmlns:rdf="http://www.w3.org/1999/02/22-rdf-syntax-ns#"
   xmlns:svg="http://www.w3.org/2000/svg"
   xmlns="http://www.w3.org/2000/svg"
   xmlns:inkscape="http://www.inkscape.org/namespaces/inkscape"
   version="1.1"
   width="108"
   height="108"
   id="svg3840">
  <metadata
     id="metadata3846">
    <rdf:RDF>
      <cc:Work
         rdf:about="">
        <dc:format>image/svg+xml</dc:format>
        <dc:type
           rdf:resource="http://purl.org/dc/dcmitype/StillImage" />
        <dc:title />
      </cc:Work>
    </rdf:RDF>
  </metadata>
  <defs
     id="defs3844" />
  <path
     d="m 44.38983,35.008476 a 45.076271,45.076271 0 1 1 -90.152542,0 45.076271,45.076271 0 1 1 90.152542,0 z"
     inkscape:connector-curvature="0"
     transform="matrix(1.1979695,0,0,1.1979695,54.822335,12.060913)"
     id="path2983"
     style="fill:#ffffff;fill-opacity:1;stroke:none" />
  <path
     d="M 53.937522,-2.9618491e-4 53.750022,0.49970382 c -0.541177,1.36842278 -0.73055,2.78124998 -0.375,2.78124998 0.09745,0 0.498128,-0.1993702 0.875,-0.4375 l 0.6875,-0.4375 0.71875,0.46875 0.75,0.46875 0.3125,-0.34375 c 0.18123,-0.1833433 0.832929,-1.0950326 1.4375,-2.03124998 l 0.5,-0.75 c -0.761833,-0.0645849 -1.541344,-0.11770872 -2.3125,-0.15625 -0.771156,-0.03854128 -1.533956,-0.0625000049 -2.3125,-0.0625000049 -0.0314,0 -0.06236,-5.357651e-5 -0.09375,0 z M 51.093772,0.06220382 c -0.104611,0.0056025 -0.208808,0.01614965 -0.3125,0.03125 -0.07341,0.0043558 -0.145417,0.02660115 -0.21875,0.03125 l 0.5,0.09375 0.03125,-0.15625 z m -0.5625,0.0625 c -0.816407,0.0522235 -1.631361,0.13064119 -2.4375,0.21875 0.806868,-0.0875097 1.620631,-0.16667175 2.4375,-0.21875 z m -2.5625,0.21875 c -0.211054,0.023561 -0.414688,0.0677633 -0.625,0.09375 l -0.09375,0.59374998 0.6875,-0.65624998 0.03125,-0.03125 z m 11.625,0.15625 -0.96875,1.71874998 -0.96875,1.75 -0.5625,0.3125 -0.5625,0.34375 -0.84375,-0.34375 -0.8125,-0.3125 -0.28125,0.1875 c -0.251317,0.1571196 -1.375,3.5539741 -1.375,4.15625 0,0.3397777 0.613183,0.2524293 0.84375,-0.125 l 0.21875,-0.375 1.3125,0 1.3125,0 0.4375,-1 c 0.228022,-0.5569387 0.769337,-1.3540651 1.21875,-1.78125 l 0.8125,-0.78125 0.5625,0.21875 0.53125,0.1875 0.71875,1.25 c 0.39446,0.6764543 0.841358,1.21875 1,1.21875 0.158667,0 0.661342,-0.134182 1.125,-0.3125 l 0.84375,-0.34375 0.78125,0.5625 0.78125,0.53125 -0.28125,-2.21875 c -0.13805,-1.2260077 -0.297596,-2.3363185 -0.375,-2.46875 l -0.15625,-0.25 -1.09375,0.46875 -1.125,0.4375 -0.4375,-0.15625 c -0.242238,-0.088784 -0.746786,-0.7810938 -1.125,-1.53125 l -0.6875,-1.34374998 -0.4375,0 -0.40625,0 z m 2.03125,0.03125 c 0.287006,0.50053568 0.605575,1.06209818 0.78125,1.31249998 l 0.40625,0.5625 0.71875,-0.4375 c 0.891549,-0.5507621 1.841035,-0.5401532 2.375,0 l 0.40625,0.40625 0,-0.96875 c -0.468564,-0.1090335 -0.933427,-0.2156104 -1.40625,-0.3125 -0.07196,-0.014725 -0.146689,-0.016812 -0.21875,-0.03125 -0.714111,-0.14307772 -1.432262,-0.26039576 -2.15625,-0.37499998 -0.09431,-0.0149487 -0.186765,-0.0480462 -0.28125,-0.0625 -0.208439,-0.0318489 -0.415783,-0.0642918 -0.625,-0.09375 z m -15.53125,0.0625 c -0.663127,0.0977594 -1.3137,0.22211232 -1.96875,0.34375 l 0.34375,0.31249998 0.8125,0.78125 0.3125,-0.34375 c 0.153116,-0.1584331 0.363968,-0.6235481 0.5,-1.09374998 z m -1.96875,0.34375 c -0.817387,0.15178238 -1.633493,0.31184178 -2.4375,0.49999998 0.804007,-0.1881582 1.620113,-0.3482176 2.4375,-0.49999998 z m -2.4375,0.49999998 c -0.186253,0.043588 -0.376995,0.079489 -0.5625,0.125 l 0,0.3125 -0.59375,0.3125 -0.59375,0.3125 -0.6875,-0.25 c -0.05505,-0.021666 -0.149442,-0.085625 -0.21875,-0.125 -0.322173,0.092976 -0.649083,0.182466 -0.96875,0.28125 l 1,1.03125 c 0.650801,0.6793477 1.358007,1.25 1.59375,1.25 l 0.4375,0 0.21875,-1.65625 c 0.08366,-0.5849108 0.237236,-1.1771683 0.375,-1.59375 z m -0.5625,0.125 c -0.680045,0.1668373 -1.361599,0.3389235 -2.03125,0.53125 0.669966,-0.192644 1.351073,-0.3643803 2.03125,-0.53125 z m 11.125,-0.78124998 -0.6875,0.43749998 -0.71875,0.46875 -0.875,-0.40625 -0.84375,-0.40624998 -0.40625,0.49999998 -0.4375,0.53125 -0.1875,1.65625 -0.15625,1.65625 0.53125,-0.46875 0.53125,-0.46875 1.21875,0.25 1.1875,0.21875 0.1875,-0.3125 c 0.09812,-0.1612035 0.268897,-1.04009 0.40625,-1.96875 l 0.25,-1.68749998 z m -9.03125,0.62499998 -0.28125,0.28125 c -0.144284,0.14429 -0.404025,1.1605288 -0.59375,2.25 l -0.34375,1.96875 -0.8125,0.125 -0.8125,0.09375 -1.28125,-1.25 -1.28125,-1.25 -0.25,0.25 c -0.130287,0.1318814 -0.21875,0.9543004 -0.21875,1.84375 l 0,1.625 -0.40625,0.40625 -0.4375,0.4375 -0.75,0 -0.75,0 -0.40625,-0.53125 c -0.236177,-0.2879325 -0.664123,-0.53125 -0.9375,-0.53125 l -0.5,0 0.09375,1.125 0.125,1.15625 1.15625,0.0625 1.15625,0.03125 0.375,0.375 c 0.20533,0.2077762 0.57237,0.4062502 0.8125,0.4062502 l 0.4375,0 0.21875,-1.7812502 0.25,-1.75 0.625,-0.34375 c 0.341647,-0.1849812 0.680521,-0.3125 0.78125,-0.3125 0.100695,0 0.75124,0.4840916 1.4375,1.09375 l 1.25,1.09375 0.3125,-0.46875 c 0.171202,-0.2737153 0.309601,-0.8789516 0.3125,-1.34375 l 0,-0.84375 0.59375,-0.65625 0.5625,-0.625 0.53125,0 0.53125,0 0.78125,0.75 0.8125,0.75 0.1875,-0.1875 c 0.103725,-0.1049583 0.261768,-0.7627024 0.375,-1.46875 l 0.21875,-1.28125 -0.9375,0.21875 -0.9375,0.25 -1,-0.96875 -1,-1 z m 23.3125,0.0625 c 0.385862,0.092573 0.774659,0.1817977 1.15625,0.28125 l 0,-0.03125 c -0.378973,-0.098704 -0.774085,-0.1593707 -1.15625,-0.25 z m 1.15625,0.28125 0.25,2.625 1,1.03125 c 0.533826,0.5637915 1.095771,1.03125 1.25,1.03125 l 0.28125,0 0,-1.6875 0,-1.6875 -0.71875,-0.71875 c -0.01231,-0.00374 -0.01894,-0.027519 -0.03125,-0.03125 -0.669397,-0.2028286 -1.351136,-0.3852449 -2.03125,-0.5625 z m -31.3125,1.21875 c -0.05313,0.018381 -0.104165,0.041758 -0.15625,0.0625 -0.08422,0.029431 -0.165975,0.063914 -0.25,0.09375 l -0.5625,0.78125 -0.53125,0.78125 -0.59375,0 c -0.307893,0 -0.820623,-0.2156299 -1.1875,-0.46875 -0.19076,0.080275 -0.372863,0.1676042 -0.5625,0.25 -0.321916,0.1350101 -0.648008,0.2592978 -0.96875,0.40625 l 0,0.03125 0.09375,0.65625 1.3125,0.1875 1.3125,0.21875 0.375,0.40625 c 0.218032,0.2206002 0.592312,0.40625 0.8125,0.40625 l 0.40625,0 0.28125,-2.1875 0.21875,-1.625 z m -0.40625,0.15625 c -0.481215,0.1708721 -0.962676,0.3472268 -1.4375,0.53125 0.480818,-0.181239 0.955103,-0.3599578 1.4375,-0.53125 z m 38.625,0.9375 0,0.03125 0.59375,0.6875 0.625,0.6875 0.0625,-0.84375 c -0.427735,-0.1894701 -0.84776,-0.3839014 -1.28125,-0.5625 z m 1.28125,0.5625 c 1.092926,0.4841246 2.165403,1.0093994 3.21875,1.5625 -1.053347,-0.5531006 -2.125824,-1.0783754 -3.21875,-1.5625 z m 3.21875,1.5625 0,0.25 0.34375,0 0.15625,0 c -0.162269,-0.087343 -0.336741,-0.1642744 -0.5,-0.25 z m -12.53125,-1.625 0.15625,1.96875 0.15625,1.9375 0.59375,0.90625 0.59375,0.9062502 0.5,0 0.5,0 0,-1.4687502 0,-1.4375 -1.25,-1.40625 -1.25,-1.40625 z m 6.65625,0.125 0,1.53125 0,1.5625 0.4375,0.15625 c 0.237167,0.096837 0.545208,0.2036061 0.6875,0.21875 l 0.25,0.03125 0,-1.09375 c 0,-1.1868285 -0.5491,-2.40625 -1.0625,-2.40625 l -0.3125,0 z m -20.34375,0.25 -0.6875,0.59375 -0.65625,0.625 -1.0625,-0.25 -1.0625,-0.21875 -0.34375,0.90625 c -0.190664,0.5074555 -0.34375,1.2154048 -0.34375,1.5625 l 0,0.625 1.53125,0.03125 1.53125,0.03125 0.53125,-1.625 c 0.299975,-0.8907268 0.5625,-1.7812294 0.5625,-1.96875 l 0,-0.3125 z m -21.65625,0.125 c -0.724178,0.3382329 -1.449995,0.6935066 -2.15625,1.0625 0.707055,-0.3694111 1.431874,-0.7190142 2.15625,-1.0625 z m -2.15625,1.0625 c -0.428669,0.2239644 -0.85944,0.4524592 -1.28125,0.6875 0.147475,-0.013658 0.303815,-0.03125 0.4375,-0.03125 l 0.84375,0 0,-0.65625 z m 15.21875,-0.46875 -0.375,0.21875 -0.34375,0.25 0,0.6875 c 0,0.3787653 -0.225103,1.2405305 -0.5,1.90625 l -0.5,1.1875 -0.46875,0 -0.46875,0 -1.15625,-1.1875 -1.15625,-1.21875 -0.3125,0.1875 -0.28125,0.1875 0,1.21875 0,1.2187502 -0.34375,0.6875 -0.375,0.65625 -0.8125,0 -0.8125,0 -0.40625,-0.53125 c -0.236192,-0.287955 -0.583525,-0.5 -0.75,-0.5 l -0.28125,0 0,1.40625 0,1.4375 1,-0.21875 1.03125,-0.25 0.625,0.375 c 0.339268,0.199797 0.710041,0.369171 0.84375,0.375 0.133716,0.0059 0.350534,-0.59263 0.46875,-1.3125 0.118244,-0.719872 0.269611,-1.478791 0.34375,-1.71875 l 0.125,-0.4375 0.71875,0 0.71875,0 1,0.71875 0.96875,0.75 0.375,-0.25 0.40625,-0.21875 0,-0.8125 0,-0.8125002 0.65625,-0.84375 0.65625,-0.8125 1,0.96875 1,0.9375 0.40625,-0.40625 0.40625,-0.40625 0,-1.15625 0,-1.15625 -0.6875,0.40625 -0.65625,0.4375 -1.03125,-0.96875 -1.03125,-1 z m 15.75,0.0625 -0.40625,0.03125 -0.375,0.03125 -1.03125,1.625 -1.0625,1.625 -1.34375,0 -1.375,0 -0.375,1.4062502 c -0.217782,0.767865 -0.51799,1.866813 -0.65625,2.4375 l -0.25,1.03125 0.6875,-0.625 0.6875,-0.625 1,0.21875 1,0.21875 1.09375,-1.75 1.0625,-1.7812502 0.5625,0 0.53125,0 0.71875,1.2500002 0.75,1.25 1.3125,-0.21875 1.34375,-0.25 0.28125,0.8125 c 0.163613,0.448533 0.408717,1.834361 0.53125,3.0625 l 0.21875,2.21875 0.375,0.5 c 0.212962,0.259616 0.520987,0.46875 0.6875,0.46875 l 0.3125,0 0,-1.65625 0,-1.625 -0.71875,-0.78125 -0.71875,-0.78125 -0.34375,-2.71875 C 64.34707,9.5874826 64.085713,8.2133131 63.937522,8.0622038 l -0.28125,-0.25 -0.84375,0.3125 -0.84375,0.3125 -0.53125,-0.28125 -0.5625,-0.3125 -0.40625,-1.0625 -0.4375,-1.0625 z m -29.25,0.9375 -0.625,0.59375 -0.625,0.5625 -0.75,0 -0.71875,0 -0.21875,0.375 -0.21875,0.375 0.21875,0.875 0.21875,0.9062502 0.53125,-0.21875 c 0.292153,-0.113461 0.884956,-0.2187502 1.34375,-0.2187502 l 0.84375,0 0,-1.625 0,-1.625 z m -3.1875,0.25 c -0.660422,0.3713951 -1.294654,0.7582523 -1.9375,1.15625 0.63763,-0.395178 1.279297,-0.7860659 1.9375,-1.15625 z m 53.65625,0.46875 c 0.543772,0.3177718 1.062857,0.6329348 1.59375,0.96875 -0.527386,-0.3335889 -1.05422,-0.6531375 -1.59375,-0.96875 z m -28.0625,1.3125 -0.625,0.8125 -0.59375,0.8125002 -1,-0.09375 -1,-0.125 -0.5625,2.09375 c -0.302804,1.155443 -0.668134,2.294937 -0.8125,2.53125 -0.383972,0.628653 -1.070877,0.544218 -1.78125,-0.25 -0.343407,-0.383931 -0.71984,-0.71875 -0.84375,-0.71875 -0.123874,0 -0.352492,0.684139 -0.53125,1.5 l -0.34375,1.46875 -0.6875,0.09375 -0.71875,0.125 -0.65625,-0.71875 c -0.35093,-0.392406 -0.838553,-0.71875 -1.09375,-0.71875 l -0.46875,0 0,1.125 c -0.0035,0.623892 -0.134196,1.370946 -0.3125,1.65625 l -0.34375,0.53125 -1.09375,-0.4375 c -0.612645,-0.233963 -1.203253,-0.360151 -1.28125,-0.28125 -0.07798,0.07889 -0.03589,0.652809 0.09375,1.25 l 0.25,1.0625 0.65625,-0.1875 0.65625,-0.21875 0.59375,0.34375 c 0.335858,0.197814 0.725707,0.369169 0.84375,0.375 0.118053,0.0059 0.31497,-0.599789 0.4375,-1.375 l 0.21875,-1.4375 0.53125,-0.1875 0.53125,-0.21875 0.9375,0.90625 0.90625,0.9375 0.34375,-1.28125 0.34375,-1.25 0.59375,-0.375 0.59375,-0.375 0.6875,0.625 0.71875,0.65625 0.34375,-0.9375 c 0.194575,-0.517743 0.34375,-1.220823 0.34375,-1.5625 l 0,-0.625 0.59375,-0.5625 0.625,-0.53125 1,-0.125 1.03125,-0.125 0.4375,-1.75 c 0.244769,-0.959831 0.438046,-1.9017857 0.4375,-2.0937502 l 0,-0.34375 z m 19,0.125 0,1 0,1.0000002 0.40625,0.40625 0.375,0.40625 0.3125,-0.15625 0.28125,-0.1875 0,-1.03125 c 0,-0.5645694 -0.07693,-1.0312502 -0.15625,-1.0312502 -0.07934,0 -0.387386,-0.1022171 -0.6875,-0.21875 l -0.53125,-0.1875 z m -6.5625,0.03125 0,1.3125002 c 0,0.727817 0.161146,1.855832 0.34375,2.5 l 0.3125,1.1875 0.625,0.4375 0.625,0.46875 0.09375,-1.75 0.09375,-1.71875 -1.03125,-1.21875 -1.0625,-1.2187502 z m -41.78125,0.375 c -0.08127,0.054908 -0.169041,0.1009117 -0.25,0.15625 l 0,0.03125 c 0.08601,-0.058829 0.16376,-0.1292143 0.25,-0.1875 z m -0.25,0.1875 c -0.04295,0.029377 -0.08214,0.064252 -0.125,0.09375 -0.03992,0.023767 -0.08695,0.036171 -0.125,0.0625 l 0.15625,0 0.09375,-0.15625 z m 55.875,0.15625 c -0.166502,0 -0.513809,0.243286 -0.75,0.5312502 l -0.40625,0.53125 0.71875,0 0.75,0 0,-0.53125 0,-0.5312502 -0.3125,0 z m -34.15625,0.28125 -0.375,0.2187502 -0.34375,0.25 0,0.78125 0,0.75 -0.5625,0.78125 -0.53125,0.78125 -0.4375,0 c -0.240746,0 -0.804382,-0.395088 -1.25,-0.875 -0.445584,-0.479922 -0.998493,-0.875 -1.25,-0.875 l -0.46875,0 0,1.3125 0,1.3125 -0.3125,0.5 -0.34375,0.53125 -1.15625,-0.4375 c -0.640543,-0.234332 -1.277409,-0.40625 -1.40625,-0.40625 l -0.21875,0 0,1.15625 c 0,0.639889 0.07221,1.25832 0.1875,1.375 l 0.21875,0.21875 0.65625,-0.4375 0.65625,-0.40625 0.71875,0.46875 0.03125,0 0.71875,0.46875 0.28125,-0.46875 c 0.161389,-0.257663 0.309597,-0.745188 0.3125,-1.09375 0.0035,-0.34856 0.178611,-0.941181 0.375,-1.3125 l 0.34375,-0.6875 0.53125,0 0.5625,0 0.65625,0.875 c 0.373107,0.479918 0.813928,0.875 0.96875,0.875 l 0.28125,0 0.21875,-1.1875 0.21875,-1.1875 0.5,-0.40625 0.5,-0.4375 0.4375,0.21875 c 0.239578,0.116231 0.708332,0.390606 1.03125,0.625 l 0.59375,0.4375 0.1875,-0.21875 c 0.112087,-0.113381 0.322825,-0.785066 0.4375,-1.5 l 0.1875,-1.3125 -0.71875,0.46875 -0.71875,0.46875 -0.84375,-0.8125 -0.875,-0.8125002 z m 40.65625,0.6250002 -0.34375,0.40625 0.5625,1.09375 0.5625,1.125 0.375,-0.15625 0.40625,-0.125 -0.0625,-1 -0.03125,-0.21875 c -0.483239,-0.381198 -0.972374,-0.760166 -1.46875,-1.125 z m -53.40625,0.0625 -0.625,0.25 c -0.345963,0.146683 -0.943871,0.305425 -1.3125,0.34375 l -0.65625,0.0625 -0.15625,0.4375 c -0.07616,0.231197 -0.04392,0.62555 0.0625,0.90625 l 0.1875,0.53125 1.15625,-0.125 1.125,-0.125 0.09375,-1.15625 0.125,-1.125 z m -7.34375,0.09375 -1.21875,0.15625 c -1.402741,0.17604 -1.671667,0.338178 -1.34375,0.875 l 0.25,0.375 1.25,-0.21875 c 0.696677,-0.127346 1.339811,-0.286009 1.40625,-0.34375 0.06638,-0.05771 2.49e-4,-0.263631 -0.125,-0.46875 l -0.21875,-0.375 z m 34.03125,0.34375 c -0.04773,0 -0.561268,0.781546 -1.15625,1.75 l -1.09375,1.78125 -1.28125,-0.125 -1.28125,-0.09375 -0.5625,2.09375 -0.5625,2.09375 -1.15625,0.1875 -1.15625,0.15625 -0.375,1.75 -0.375,1.75 -1.25,-0.03125 -1.25,-0.03125 -0.1875,0.96875 -0.1875,1 -0.65625,0 -0.6875,0 -0.40625,-0.5 c -0.236199,-0.287948 -0.548477,-0.53125 -0.6875,-0.53125 -0.139052,0 -0.412508,0.501109 -0.59375,1.125 l -0.3125,1.125 -1.15625,-0.03125 -1.125,-0.0625 0.21875,1.5 0.21875,1.5 -0.71875,0.71875 -0.75,0.6875 0.625,1.9375 0.59375,1.96875 -0.4375,0.84375 -0.46875,0.875 0.59375,0.90625 0.59375,0.90625 -0.1875,0.53125 -0.21875,0.53125 -0.75,-0.09375 -0.78125,-0.09375 -0.71875,0.375 -0.71875,0.40625 -2.40625,-1.25 -2.375,-1.28125 -1.09375,0.09375 -1.0625,0.0625 -2.65625,-1.03125 c -1.455665,-0.567127 -3.08096,-1.129105 -3.625,-1.25 l -1,-0.21875 -0.6875,0.4375 -0.6875,0.4375 -1.78125,-0.4375 c -0.978379,-0.228378 -2.31916,-0.40625 -2.96875,-0.40625 l -1.15625,0 0,0.84375 0,0.8125 -0.46875,0.40625 c -0.255229,0.214352 -0.963964,0.472631 -1.5625,0.59375 -0.598539,0.121114 -1.09375,0.338434 -1.09375,0.46875 0,0.130333 0.554703,0.755036 1.21875,1.40625 l 1.21875,1.1875 0,0.75 c 0,0.403864 -0.168687,0.884981 -0.375,1.09375 l -0.40625,0.375 1.28125,1 c 0.703925,0.549494 1.688997,1.361449 2.1875,1.78125 l 0.90625,0.75 -0.4375,0.75 c -0.250299,0.414744 -0.404324,0.801278 -0.34375,0.84375 0.0606,0.0425 0.849136,0.531031 1.75,1.09375 l 1.625,1.03125 0,0.40625 c 3.1e-4,0.229049 -0.334567,0.674331 -0.75,0.96875 -0.415432,0.294416 -0.677161,0.562484 -0.59375,0.625 0.08339,0.06254 0.572001,0.388495 1.09375,0.71875 l 0.9375,0.625 0,0.46875 0,0.46875 -0.84375,0.5625 c -0.474317,0.314457 -0.875,0.718712 -0.875,0.90625 l 0,0.34375 0.6875,0 0.71875,0 0.21875,0.59375 0.21875,0.5625 -0.4375,0.6875 -0.40625,0.6875 0.21875,0.21875 c 0.122636,0.125286 0.957141,0.401076 1.84375,0.59375 l 1.59375,0.34375 0.125,0.8125 0.09375,0.8125 2.1875,-0.21875 2.15625,-0.25 0.5625,0.59375 c 0.310493,0.314136 0.5625,0.705787 0.5625,0.875 l 0,0.3125 1.71875,-0.21875 1.75,-0.21875 0,0.75 0,0.71875 -0.375,0.21875 -0.375,0.21875 0.21875,0.9375 0.1875,0.9375 -2.0625,2.0625 -2.09375,2.09375 0,0.75 0,0.75 -2.1875,2.59375 c -1.205907,1.42997 -2.355183,2.920529 -2.5625,3.3125 l -0.375,0.71875 0.15625,0.65625 0.1875,0.65625 -1.25,2.40625 -1.25,2.375 0.1875,0.5 0.1875,0.5 0.5,0 0.53125,0 0.3125,0.59375 0.3125,0.625 -0.1875,1.125 -0.15625,1.125 0.5625,0 c 0.31367,0 1.183455,-0.298271 1.9375,-0.6875 l 1.375,-0.71875 0.6875,0.375 c 0.376664,0.204029 0.6875,0.50229 0.6875,0.6875 l 0,0.34375 0.59375,0 0.625,0 1.71875,-1.375 c 0.948637,-0.763784 1.856457,-1.404207 2.03125,-1.40625 0.174786,-0.002 0.598853,0.252393 0.9375,0.5625 l 0.625,0.5625 1.4375,-1.25 1.46875,-1.28125 0.625,0 0.625,0 0.21875,0.875 0.21875,0.875 0.375,0 c 0.204362,0 0.695528,-0.34178 1.125,-0.75 l 0.78125,-0.71875 0.53125,0.1875 0.5,0.1875 0.21875,1.0625 c 0.12784,0.588868 0.339732,1.09375 0.46875,1.09375 0.129002,0 0.419268,-0.334812 0.65625,-0.71875 l 0.4375,-0.6875 0.5625,0 c 0.315465,0 0.858619,0.230118 1.1875,0.53125 l 0.59375,0.5625 1.09375,-1.625 1.125,-1.625 0.625,0.15625 0.65625,0.1875 0.3125,-0.40625 c 0.182647,-0.222681 0.518845,-1.16481 0.75,-2.09375 l 0.4375,-1.6875 0.9375,-0.34375 0.9375,-0.34375 0.21875,-1.375 0.21875,-1.40625 0.5625,-0.21875 0.5625,-0.1875 0.46875,0.65625 0.5,0.65625 0.75,0 0.75,0 1.4375,2.625 1.46875,2.625 0.96875,0.53125 0.96875,0.5625 1.46875,2.71875 c 0.802202,1.503328 1.713093,3.019294 2.03125,3.375 l 0.59375,0.65625 1.125,0 1.125,0 1.84375,2.09375 1.8125,2.09375 0.375,0 0.40625,0 0.375,-0.875 0.40625,-0.875 0.59375,0.03125 c 0.336099,0.0062 0.912938,0.218147 1.28125,0.5 0.36828,0.281842 0.890117,0.53125 1.15625,0.53125 l 0.5,0 -0.25,-1.71875 -0.21875,-1.71875 0.375,-0.71875 0.375,-0.75 0.5,0 c 0.266719,0 0.558177,-0.120692 0.65625,-0.28125 l 0.1875,-0.28125 -0.6875,-2.25 c -0.370037,-1.23121 -0.654799,-2.354755 -0.65625,-2.5 0,-0.145228 0.378714,-0.590894 0.84375,-1 l 0.84375,-0.75 -0.8125,-1.5625 -0.84375,-1.5625 0.1875,-0.5 0.1875,-0.5 1.03125,-0.21875 1.03125,-0.1875 -0.25,-0.75 c -0.125322,-0.404911 -0.304587,-1.099327 -0.40625,-1.53125 l -0.1875,-0.78125 1.46875,0 1.46875,0 -0.25,-0.59375 c -0.1367,-0.335924 -0.335491,-0.920012 -0.4375,-1.28125 l -0.1875,-0.65625 0.8125,-0.625 0.84375,-0.625 -1.03125,-1.09375 -1.03125,-1.09375 0,-1.09375 0,-1.125 -1.8125,-1.34375 -1.8125,-1.375 0,-0.78125 0,-0.78125 -1.40625,-0.90625 c -0.758912,-0.508147 -1.375,-1.113271 -1.375,-1.3125 l 0,-0.34375 1.03125,-0.375 1,-0.34375 0.125,-0.75 0.09375,-0.75 1.375,-0.25 c 0.758911,-0.135514 2.12819,-0.270196 3.03125,-0.28125 l 1.625,0 0.625,-0.71875 c 0.330159,-0.397677 1.087203,-0.961237 1.6875,-1.21875 l 1.09375,-0.46875 1.84375,-1.875 1.84375,-1.875 1.65625,-0.4375 1.625,-0.40625 0.21875,-0.53125 0.1875,-0.5625 -0.375,-0.375 -0.40625,-0.40625 0,-0.75 0,-0.75 0.6875,-0.625 0.6875,-0.625 -0.15625,-0.25 c -0.08806,-0.144182 -0.863115,-0.37018 -1.71875,-0.5 l -1.5625,-0.25 -0.40625,-0.75 c -0.222305,-0.420236 -0.329517,-0.841516 -0.25,-0.9375 0.07946,-0.096 -0.64512,-0.231073 -1.59375,-0.28125 -0.948641,-0.05013 -2.066425,-0.150822 -2.5,-0.25 l -0.78125,-0.1875 -0.34375,-0.90625 -0.34375,-0.875 -1.34375,0.21875 -1.34375,0.21875 -0.75,-0.375 -0.75,-0.40625 0.21875,-0.84375 0.1875,-0.8125 -1.28125,-0.125 -1.3125,-0.09375 0.09375,-1.34375 0.0625,-1.34375 -0.875,0.15625 -0.875,0.1875 -0.46875,-0.5 c -0.25695,-0.259928 -0.514825,-0.666696 -0.59375,-0.90625 l -0.15625,-0.4375 -1.375,0.65625 -1.40625,0.625 -0.6875,-0.4375 -0.6875,-0.4375 -1.625,1.15625 -1.625,1.125 -0.84375,-0.21875 -0.875,-0.21875 -1.03125,0.875 c -0.571633,0.486659 -1.261219,0.875 -1.53125,0.875 l -0.5,0 0,-0.8125 0,-0.84375 -0.53125,-0.4375 -0.5,-0.4375 0,-0.96875 c 0,-0.537746 0.180442,-1.791339 0.40625,-2.78125 l 0.40625,-1.78125 -0.4375,-0.71875 -0.4375,-0.71875 0.25,-3.59375 0.25,-3.59375 -0.71875,-0.9375 -0.71875,-0.90625 -0.21875,-1.625 c -0.116703,-0.898317 -0.276024,-2.091488 -0.375,-2.625 l -0.1875,-0.96875 -1.1875,0.21875 -1.15625,0.21875 -0.71875,-1.25 c -0.403636,-0.692214 -0.795972,-1.25 -0.84375,-1.25 z m 11.5625,0.6875 0,0.90625 c 0,0.492538 0.144511,1.185816 0.34375,1.5625 l 0.375,0.6875 0.3125,-0.1875 0.34375,-0.21875 0,-0.9375 0,-0.96875 -0.4375,-0.40625 c -0.227673,-0.230361 -0.535718,-0.4375 -0.6875,-0.4375 l -0.25,0 z m 7.59375,0.625 -0.59375,0.21875 -0.625,0.25 0.53125,0.3125 0.5,0.3125 0.3125,-0.3125 0.34375,-0.34375 -0.25,-0.21875 -0.21875,-0.21875 z m 6.40625,0.4375 c -0.278093,0 -0.615743,0.14385 -0.71875,0.3125 l -0.1875,0.28125 0.53125,1.09375 0.53125,1.0625 0.5,-0.1875 c 0.275409,-0.106932 0.5,-0.341068 0.5,-0.5 0,-0.158909 -0.127446,-0.695092 -0.3125,-1.1875 l -0.34375,-0.875 -0.5,0 z m -8.75,0.3125 c -0.142148,0.02428 -0.300886,0.181276 -0.375,0.40625 l -0.15625,0.40625 0.4375,-0.125 c 0.227673,-0.07678 0.389247,-0.267071 0.375,-0.40625 -0.02134,-0.208666 -0.139102,-0.305532 -0.28125,-0.28125 z m -51.5,0.03125 0,0.46875 c 0,0.705485 0.295475,0.842547 1.5,0.78125 l 1.09375,-0.0625 0.125,-0.59375 0.09375,-0.59375 -1.40625,0 -1.40625,0 z m 6.90625,1.03125 0,0.8125 c 0,0.447924 0.112554,0.954654 0.25,1.09375 l 0.25,0.25 0.71875,-0.1875 c 0.384282,-0.104452 0.887839,-0.216142 1.125,-0.21875 l 0.40625,0 0,-0.875 0,-0.875 -1.375,0 -1.375,0 z m 58.9375,0 -0.875,0.5625 -0.90625,0.59375 0.5625,0.3125 0.59375,0.3125 0,0.625 c 0,0.3424 0.07655,0.731446 0.1875,0.84375 l 0.21875,0.1875 1,-0.34375 c 0.553072,-0.195083 1,-0.475317 1,-0.625 0,-0.149718 -0.246653,-0.479774 -0.53125,-0.71875 -0.2846,-0.238982 -0.5,-0.621883 -0.5,-0.875 0,-0.06772 -0.04171,-0.1477 -0.0625,-0.21875 -0.230781,-0.217973 -0.452905,-0.44233 -0.6875,-0.65625 z m -37.75,0.1875 c -0.272505,0.02028 -0.620871,0.06143 -1,0.125 l -1.375,0.25 -0.375,1.6875 -0.34375,1.71875 -0.59375,0.375 -0.59375,0.375 -0.71875,-0.46875 c -0.398563,-0.25177 -0.768302,-0.405037 -0.8125,-0.34375 -0.04418,0.0613 -0.22542,0.671865 -0.40625,1.34375 l -0.3125,1.21875 -0.71875,0.09375 -0.6875,0.125 -0.65625,-0.75 -0.65625,-0.71875 -0.375,1.3125 -0.375,1.34375 -1.28125,-0.09375 -1.28125,-0.0625 0,0.46875 c 0,0.26652 0.10414,0.728966 0.21875,1.03125 l 0.1875,0.5625 0.8125,-0.1875 0.78125,-0.21875 0.21875,0.375 c 0.126739,0.207526 0.37381,0.375 0.53125,0.375 l 0.28125,0 0.21875,-1.21875 0.25,-1.25 0.5,-0.1875 0.5,-0.21875 0.6875,0.625 0.6875,0.625 0.3125,-0.3125 c 0.166834,-0.177819 0.365716,-0.647317 0.4375,-1.03125 l 0.125,-0.6875 0.6875,0.03125 c 0.37356,0.02202 0.929566,0.174499 1.25,0.3125 l 0.59375,0.25 0.21875,-1.34375 c 0.116692,-0.73592 0.3148,-1.587049 0.46875,-1.875 l 0.28125,-0.5 1,-0.03125 1,0 0.46875,-1.5 c 0.258417,-0.820705 0.412435,-1.528506 0.34375,-1.59375 -0.03432,-0.03262 -0.227495,-0.05153 -0.5,-0.03125 z m 24.09375,0.1875 -0.4375,0.5 -0.4375,0.53125 0.5625,0 c 0.296634,0 0.609602,-0.133794 0.71875,-0.3125 l 0.21875,-0.34375 -0.3125,-0.1875 -0.3125,-0.1875 z m -7,0.34375 0,1.34375 c 0,0.735873 0.12867,1.439739 0.25,1.5625 l 0.21875,0.21875 0.28125,-0.1875 0.3125,-0.1875 0,-0.84375 c 0,-1.050036 -0.354054,-1.90625 -0.75,-1.90625 l -0.3125,0 z m 13.34375,0.34375 c -0.214997,0.0024 -0.617832,0.147623 -0.875,0.3125 l -0.46875,0.28125 0.59375,0.9375 0.59375,0.90625 0.5,0 0.46875,0 0,-0.4375 c -0.0035,-0.239958 -0.104345,-0.786829 -0.21875,-1.21875 l -0.21875,-0.78125 -0.375,0 z m -56.78125,0.34375 0,0.46875 c 0,0.25596 0.07023,0.568856 0.1875,0.6875 l 0.21875,0.21875 1.09375,-0.21875 c 0.594225,-0.114188 1.121058,-0.256874 1.1875,-0.3125 0.06638,-0.05565 0.03109,-0.263993 -0.09375,-0.46875 l -0.21875,-0.375 -1.1875,0 -1.1875,0 z m -10.875,0.75 c -0.779604,0.79696 -1.520567,1.62492 -2.25,2.46875 0.725365,-0.839222 1.476069,-1.674915 2.25,-2.46875 z m 4.65625,0.53125 -0.1875,0.1875 -0.21875,0.21875 0.21875,0.75 0.25,0.75 0.5,-0.4375 0.5,-0.40625 -0.53125,-0.53125 -0.53125,-0.53125 z m 67.84375,0.125 c -0.266037,0 -0.662398,0.209559 -0.875,0.46875 l -0.40625,0.46875 0.5625,1.09375 c 0.298095,0.604664 0.584221,1.09375 0.65625,1.09375 0.07208,0 0.547991,-0.183466 1.03125,-0.40625 0.879606,-0.405516 1.164772,-0.96875 0.5,-0.96875 l -0.34375,0 -0.3125,-0.875 -0.34375,-0.875 -0.46875,0 z m -52.375,0.03125 -1.09375,0.1875 c -0.605988,0.11662 -1.148515,0.284277 -1.21875,0.34375 -0.0702,0.05944 -0.02834,0.50857 0.09375,1 l 0.21875,0.875 0.9375,-0.21875 c 0.517473,-0.123344 1.057592,-0.352143 1.21875,-0.5 l 0.3125,-0.25 -0.21875,-0.71875 -0.25,-0.71875 z m 39.75,0.3125 c -0.178564,0 -0.413965,0.151791 -0.53125,0.34375 l -0.21875,0.34375 0.53125,0 0.53125,0 0,-0.34375 c 0,-0.191961 -0.133969,-0.34375 -0.3125,-0.34375 z m 18.28125,0 -0.15625,0.09375 0.4375,0.21875 c -0.03979,-0.04349 -0.08594,-0.08105 -0.125,-0.125 -0.05511,-0.05985 -0.100874,-0.127904 -0.15625,-0.1875 z m -19.65625,0.34375 c -0.178568,0 -0.445213,0.151796 -0.5625,0.34375 l -0.1875,0.34375 0.53125,0 0.53125,0 0,-0.34375 c 0,-0.19197 -0.13397,-0.34375 -0.3125,-0.34375 z m 7.375,0.03125 -0.5,0.3125 -0.5,0.3125 0.4375,0.90625 0.40625,0.9375 0.5625,-0.125 c 0.314186,-0.06166 0.628822,-0.245546 0.6875,-0.4375 0.05864,-0.191965 -0.172514,-0.698105 -0.5,-1.125 l -0.59375,-0.78125 z m -51.0625,0.03125 -0.9375,0.1875 -0.9375,0.1875 0,0.46875 0,0.5 1.1875,0 1.21875,0 0,-0.28125 c -0.0035,-0.144005 -0.110125,-0.433833 -0.25,-0.65625 l -0.28125,-0.40625 z m 64.34375,0.75 -0.15625,1.3125 -0.25,1.71875 0.5,0 c 0.262352,0 1.176513,-0.203636 2.0625,-0.46875 -0.683054,-0.882064 -1.420984,-1.725107 -2.15625,-2.5625 z m -26.03125,0.0625 -0.125,0.8125 c -0.06241,0.445887 -0.02219,1.068907 0.09375,1.375 l 0.21875,0.5625 0.375,-0.375 0.34375,-0.375 -0.09375,-0.90625 -0.125,-0.9375 -0.34375,-0.09375 -0.34375,-0.0625 z m -55.46875,0.34375 c -0.03388,0.03939 -0.06005,0.08542 -0.09375,0.125 -0.403391,0.471689 -0.800292,0.951951 -1.1875,1.4375 l 0.53125,0 1.09375,0 0.4375,-0.5 0.40625,-0.5 -0.875,-0.40625 -0.3125,-0.15625 z m -1.28125,1.5625 c -0.545805,0.684426 -1.081103,1.382789 -1.59375,2.09375 0.516475,-0.713689 1.045813,-1.40665 1.59375,-2.09375 z m -1.59375,2.09375 c -0.5166536,0.716516 -1.0182218,1.445229 -1.5000006,2.1875 0.4799111,-0.739394 0.9835247,-1.473811 1.5000006,-2.1875 z m -1.5000006,2.1875 c -0.2502626,0.385577 -0.5093938,0.76397 -0.75,1.15625 l 0.28125,0.09375 c 0.5373757,0.198075 1.6231292,0.359845 2.4062506,0.375 l 1.40625,0.03125 0.4375,-0.53125 0.46875,-0.53125 -0.375,-0.375 c -0.196654,-0.198969 -0.974261,-0.430219 -1.71875,-0.53125 l -1.3437506,-0.1875 -0.8125,0.5 z m 84.0937506,-5.65625 c -0.269854,0 -0.780146,0.213583 -1.125,0.46875 l -0.625,0.4375 0.375,0.71875 0.375,0.71875 -0.21875,1.28125 -0.1875,1.28125 1,-0.21875 c 0.548241,-0.134905 1.308043,-0.387597 1.6875,-0.53125 l 0.6875,-0.25 -0.96875,-0.375 -0.96875,-0.40625 0.21875,-1.5625 0.25,-1.5625 -0.5,0 z m -71,0.03125 0.0625,1.46875 c 0.04228,1.362151 0.222459,2.170415 0.4375,1.90625 0.04947,-0.06077 0.192177,-0.735563 0.3125,-1.53125 l 0.21875,-1.46875 -0.5,-0.1875 -0.53125,-0.1875 z m 15.5,0.21875 -0.40625,0.40625 c -0.217187,0.219718 -0.669705,0.375 -1,0.375 -0.798377,0 -0.94834,0.363243 -0.59375,1.3125 l 0.28125,0.78125 0.875,0 0.90625,0 0.1875,-0.5 0.1875,-0.53125 -0.21875,-0.9375 -0.21875,-0.90625 z m -17.1875,0.09375 -0.21875,0.34375 -0.1875,0.34375 0.1875,0.34375 c 0.117299,0.191962 0.383946,0.375 0.5625,0.375 l 0.3125,0 0,-0.5 c 0,-0.276612 -0.135877,-0.608312 -0.3125,-0.71875 l -0.34375,-0.1875 z m 65.59375,0 -0.78125,0.625 -0.78125,0.65625 0.59375,0.9375 c 0.332887,0.514045 0.712117,0.90625 0.84375,0.90625 0.13161,0 0.511691,-0.191849 0.84375,-0.4375 l 0.625,-0.4375 -0.34375,-0.90625 c -0.189224,-0.50355 -0.505845,-1.0114 -0.6875,-1.125 l -0.3125,-0.21875 z m -10.96875,0.25 -1.1875,0.28125 c -0.660321,0.14351 -1.323351,0.319574 -1.46875,0.40625 l -0.28125,0.15625 0.21875,0.3125 0.1875,0.34375 0.625,-0.34375 c 0.342995,-0.185751 0.688456,-0.250101 0.78125,-0.15625 0.09275,0.09389 0.395773,-0.08868 0.65625,-0.40625 l 0.46875,-0.59375 z m -42.59375,0.375 -0.53125,0.21875 c -0.300081,0.116523 -0.762151,0.1875 -1.03125,0.1875 l -0.5,0 0,0.53125 0,0.53125 1.03125,0 1.03125,0 0,-0.75 0,-0.71875 z m 47.1875,0.09375 c -0.145339,0.01742 -0.315568,0.156768 -0.53125,0.375 l -0.375,0.40625 0.53125,0.8125 c 0.566078,0.874118 0.988515,1.030412 1.3125,0.5 l 0.1875,-0.3125 -0.40625,-0.90625 c -0.280954,-0.623904 -0.476518,-0.904031 -0.71875,-0.875 z m -64.375,0.71875 -0.625,0.5 -0.625,0.5 0.5,0.34375 c 0.591709,0.400591 1.427072,0.463643 2.21875,0.15625 0.825314,-0.320428 0.650501,-0.730222 -0.46875,-1.125 l -1,-0.375 z m 8.6875,0.28125 0.09375,1.5 c 0.04983,0.82318 0.114622,1.545756 0.125,1.59375 0.01037,0.04797 0.156171,0.0625 0.34375,0.0625 l 0.34375,0 0,-0.78125 c -0.01037,-0.43193 0.0028,-1.092173 0.0625,-1.46875 l 0.125,-0.6875 -0.53125,-0.09375 -0.5625,-0.125 z m 43.6875,0.21875 0,1.46875 0,1.46875 0.34375,0 0.34375,0 0.21875,-0.90625 0.21875,-0.875 -0.5625,-0.59375 -0.5625,-0.5625 z m 22.8125,0.5 c -0.568255,0 -2.09375,0.801045 -2.09375,1.09375 0,0.149829 0.15404,0.350107 0.34375,0.46875 l 0.34375,0.21875 0,1.25 0,1.25 1.09375,-0.21875 c 0.602778,-0.122002 1.155171,-0.310283 1.25,-0.40625 0.09485,-0.09596 -0.09251,-0.369766 -0.4375,-0.625 l -0.625,-0.46875 0.21875,-1.28125 0.25,-1.28125 -0.34375,0 z m -17.28125,0.28125 -0.5625,0.21875 c -0.300081,0.116512 -0.762151,0.1875 -1.03125,0.1875 l -0.46875,0 0,0.375 0,0.34375 1.03125,0 1.03125,0 0,-0.5625 0,-0.5625 z m 24.0625,0.0625 c -0.426884,0.0024 -0.993248,0.14789 -1.25,0.3125 l -0.46875,0.3125 0.40625,0.75 0.40625,0.78125 -0.71875,1.375 c -0.392423,0.761823 -0.71875,1.450341 -0.71875,1.53125 0,0.08092 0.970455,0.192846 2.15625,0.25 l 2.15625,0.09375 -0.03125,0.875 c -0.02745,0.479917 -0.17567,1.224326 -0.3125,1.65625 l -0.25,0.8125 1.1875,0 c 0.654548,0 1.286438,-0.128758 1.406248,-0.25 l 0.21875,-0.21875 -0.34375,-0.625 -0.34375,-0.65625 0.53125,-1.28125 c 0.066,-0.159754 0.0667,-0.165671 0.125,-0.3125 -0.22375,-0.397144 -0.42282,-0.796669 -0.65625,-1.1875 -0.009,-3.7e-4 -0.0218,3.74e-4 -0.0312,0 -0.34936,-0.01386 -0.70697,-0.03125 -1.156248,-0.03125 l -2.25,0 -0.21875,-0.53125 -0.21875,-0.5625 0.56245,-1.21875 c 0.311499,-0.660946 0.59375,-1.345799 0.59375,-1.53125 l 0,-0.21875 c -0.0306,-0.04202 -0.06303,-0.08307 -0.09375,-0.125 l -0.6875,0 z m -64.09375,0.28125 -0.53125,0.21875 -0.5625,0.21875 0.40625,0.53125 0.4375,0.5 0.65625,0 0.625,0 0,-0.53125 0,-0.53125 -0.5,-0.1875 -0.53125,-0.21875 z m 50.53125,0.0625 c -0.230929,0 -0.61763,0.255563 -0.84375,0.53125 l -0.40625,0.5 0.40625,0.71875 0.375,0.71875 0.4375,0 c 0.239999,0 0.599486,-0.190725 0.8125,-0.40625 l 0.375,-0.375 -0.375,-0.84375 -0.34375,-0.84375 -0.4375,0 z m -5.65625,0.21875 -0.21875,0.21875 -0.21875,0.21875 0.25,0.71875 c 0.248985,0.793782 0.698088,0.940374 1.0625,0.34375 l 0.21875,-0.375 -0.5625,-0.5625 -0.53125,-0.5625 z m -38.90625,0.21875 c -0.176537,0.0092 -0.510801,0.109911 -0.875,0.25 l -0.875,0.34375 0.1875,0.71875 0.1875,0.75 0.90625,-0.125 0.90625,-0.09375 -0.09375,-0.84375 c -0.0515,-0.468058 -0.154319,-0.903529 -0.21875,-0.96875 -0.01613,-0.0163 -0.06615,-0.03432 -0.125,-0.03125 z m -12.5625,0.25 -0.3125,0.21875 -0.3125,0.1875 0.21875,0.53125 0.1875,0.53125 0.34375,-0.34375 0.34375,-0.34375 -0.21875,-0.375 -0.25,-0.40625 z m -8.15625,0.03125 c -0.51054,0.0024 -1.152904,0.154732 -1.4375,0.34375 l -0.53125,0.34375 0.53125,0.34375 c 0.640487,0.425411 1.712543,0.435739 2.34375,0.03125 l 0.5,-0.28125 -0.25,-0.40625 -0.25,-0.375 -0.90625,0 z m 80.5,0.3125 -0.03125,0.03125 c -0.271138,0.479918 -0.493273,1.092033 -0.5,1.34375 l 0,0.4375 1.5,-0.21875 0.0625,0 c -0.339753,-0.534658 -0.673432,-1.072071 -1.03125,-1.59375 z m -4.34375,0.78125 -1.09375,0.3125 c -0.59236,0.171923 -1.153859,0.402734 -1.25,0.5 -0.09612,0.09727 0.04266,0.396668 0.28125,0.6875 l 0.4375,0.53125 -0.1875,0.96875 c -0.08982,0.529665 -0.264276,1.226555 -0.40625,1.5625 l -0.25,0.625 1.75,0 1.78125,0 0.21875,0.5625 0.21875,0.5625 -0.40625,0.65625 c -0.219669,0.355898 -0.40625,0.825084 -0.40625,1.03125 l 0,0.375 1.3125,-0.125 1.28125,-0.09375 -0.15625,-0.53125 c -0.207392,-0.747492 -0.147719,-1.795825 0.15625,-2.75 l 0.28125,-0.8125 -1.40625,0.25 -1.4375,0.21875 -0.65625,-0.21875 c -0.369933,-0.118817 -0.776064,-0.426616 -0.875,-0.6875 l -0.15625,-0.46875 0.65625,-1.28125 0.6875,-1.25 -0.1875,-0.3125 -0.1875,-0.3125 z m -7.0625,0.28125 c -0.623791,0 -2.25,0.774324 -2.25,1.0625 0,0.122735 0.137373,0.348884 0.3125,0.53125 0.175133,0.182362 0.375479,0.804529 0.4375,1.375 l 0.125,1.03125 1.625,-0.09375 1.65625,-0.09375 0.21875,0.59375 0.21875,0.59375 -0.40625,0.65625 c -0.219673,0.355898 -0.375,0.784694 -0.375,0.96875 l 0,0.34375 1.625,0.09375 1.625,0.09375 -0.03125,0.875 c -0.01824,0.479916 -0.137115,1.164063 -0.28125,1.5 l -0.25,0.59375 0.625,0 c 0.352336,-0.0024 0.859798,-0.142613 1.125,-0.3125 l 0.46875,-0.3125 0.0625,-1.15625 c 0.03241,-0.643029 0.18403,-1.481416 0.34375,-1.84375 l 0.3125,-0.65625 -1.53125,0.21875 -1.53125,0.21875 -0.5,-0.3125 -0.53125,-0.34375 0.5625,-1.59375 0.5625,-1.59375 -0.25,-0.15625 c -0.137582,-0.08602 -0.820327,0.02016 -1.53125,0.21875 l -1.28125,0.34375 -0.53125,-0.1875 -0.53125,-0.21875 0.1875,-1.21875 0.1875,-1.21875 -0.46875,0 z m -16,0.03125 c -0.200256,-0.0018 -0.510891,0.173451 -0.9375,0.5 l -0.65625,0.5 0.9375,0.03125 0.96875,0 0,-0.53125 c 0,-0.330336 -0.112244,-0.498207 -0.3125,-0.5 z m 5.03125,0.3125 -0.34375,0.3125 -0.3125,0.34375 0.21875,0.71875 0.25,0.75 0.3125,0 c 0.182898,0 0.421106,-0.240843 0.53125,-0.53125 l 0.21875,-0.53125 -0.4375,-0.53125 -0.4375,-0.53125 z m -41.21875,0.03125 -0.5625,0.1875 c -0.301733,0.117143 -0.5625,0.359823 -0.5625,0.53125 l 0,0.3125 0.875,0 0.875,0 0,-0.3125 c 0,-0.180622 -0.139917,-0.423311 -0.3125,-0.53125 l -0.3125,-0.1875 z m 30.96875,0 0,1.03125 0,1.0625 0.3125,0 c 0.176977,0 0.442588,-0.33653 0.5625,-0.71875 l 0.21875,-0.6875 -0.21875,-0.34375 c -0.118313,-0.193612 -0.383949,-0.34375 -0.5625,-0.34375 l -0.3125,0 z m 15.1875,0 c -0.122962,0 -0.514204,0.201811 -0.875,0.46875 l -0.65625,0.5 0.40625,0.90625 c 0.225583,0.500948 0.529958,0.90625 0.6875,0.90625 0.157517,0 0.571366,-0.189735 0.90625,-0.4375 l 0.59375,-0.46875 -0.40625,-0.9375 c -0.234233,-0.520101 -0.533235,-0.9375 -0.65625,-0.9375 z m -61.75,0.34375 0,0.46875 0,0.46875 0.78125,0.375 c 0.988616,0.482413 1.006588,0.481199 1.625,0.0625 l 0.53125,-0.34375 -0.6875,-0.53125 -0.65625,-0.5 -0.8125,0 -0.78125,0 z m 8.5625,0.03125 c -0.196584,0.03264 -0.276038,0.331871 -0.09375,0.8125 l 0.25,0.59375 0.34375,-0.375 0.375,-0.375 -0.40625,-0.40625 c -0.197195,-0.199518 -0.3508,-0.269583 -0.46875,-0.25 z m 12.65625,0.84375 -0.84375,0.09375 c -0.462591,0.05213 -0.894237,0.143355 -0.96875,0.21875 -0.07451,0.07541 0.03212,0.494292 0.25,0.90625 l 0.40625,0.75 0.5625,-0.125 0.59375,-0.125 0,-0.84375 0,-0.875 z m -26.96875,0.09375 -1.28125,0.875 -1.28125,0.90625 1.46875,0.3125 c 0.814102,0.184245 1.796868,0.354439 2.1875,0.375 l 0.71875,0.0625 0.65625,-0.5 0.625,-0.46875 -0.21875,-0.3125 c -0.114337,-0.187219 -0.798589,-0.567857 -1.53125,-0.8125 l -1.34375,-0.4375 z m -6.2500006,0.53125 c -0.3707766,0.633831 -0.748414,1.256289 -1.09375,1.90625 -0.165844,0.307342 -0.3088006,0.626628 -0.46875,0.9375 -0.2604335,0.506169 -0.5078816,1.015287 -0.75,1.53125 -0.039752,0.08499 -0.085678,0.164766 -0.125,0.25 l 0.125,-0.03125 1.71875,-0.375 0.09375,-1.375 0.125,-1.375 0.71875,-0.59375 0.75,-0.5625 -1.09375,-0.3125 z m 15.4062506,0.5 -0.40625,0.40625 -0.40625,0.4375 0.6875,0.5 0.6875,0.53125 0.65625,-0.125 0.65625,-0.09375 0.125,-0.375 0.125,-0.40625 -1.0625,-0.4375 -1.0625,-0.4375 z m 13.15625,0.03125 -0.375,0.25 -0.34375,0.21875 0.375,0.46875 0.34375,0.4375 0.6875,-0.1875 c 0.372488,-0.09859 0.6875,-0.280865 0.6875,-0.4375 0,-0.156648 -0.309732,-0.409942 -0.6875,-0.53125 l -0.6875,-0.21875 z m 38.40625,0.03125 -0.46875,0.53125 -0.4375,0.53125 0.4375,0.5625 0.46875,0.53125 0.53125,-0.53125 0.53125,-0.5625 -0.53125,-0.53125 -0.53125,-0.53125 z m -44.625,0.03125 0,0.46875 c 0,0.255964 0.0939,0.561184 0.21875,0.6875 l 0.25,0.21875 0.4375,-0.375 0.46875,-0.375 -0.1875,-0.3125 c -0.103988,-0.170206 -0.414088,-0.3125 -0.6875,-0.3125 l -0.5,0 z m 39.3125,0 0,0.34375 0,0.34375 0.5,0 c 0.273407,0 0.601496,-0.151781 0.71875,-0.34375 l 0.21875,-0.34375 -0.71875,0 -0.71875,0 z m 14.9375,0 c -0.363761,0 -0.951363,0.20157 -1.3125,0.46875 l -0.65625,0.5 0.46875,0.5625 0.46875,0.5625 -0.1875,0.6875 -0.1875,0.65625 1.625,0.125 1.59375,0.09375 -0.03125,0.875 c -0.01824,0.479924 -0.156857,1.16497 -0.3125,1.53125 l -0.28125,0.6875 1.1875,-0.21875 1.21875,-0.1875 0.4375,0.28125 0.4375,0.25 -0.25,1.09375 -0.21875,1.09375 0.78125,-0.03125 c 0.441964,-0.01903 1.213185,-0.147553 1.6875,-0.28125 l 0.84375,-0.25 -0.625,-0.25 -0.65625,-0.25 0.1875,-0.78125 c 0.09214,-0.429532 0.286721,-1.072008 0.4375,-1.4375 l 0.25,-0.65625 -1.46875,0.1875 c -0.813792,0.110427 -1.676265,0.132588 -1.9375,0.03125 l -0.5,-0.1875 0.03125,-0.5625 c 0.0059,-0.315397 0.227514,-0.885775 0.5,-1.25 l 0.5,-0.65625 -0.15625,-0.28125 -0.1875,-0.25 -1.40625,0.1875 -1.40625,0.1875 -0.3125,-0.46875 -0.28125,-0.5 0.1875,-0.78125 0.21875,-0.78125 -0.6875,0 z m 17.124998,0.25 c 0.35409,0.631361 0.70221,1.257409 1.03125,1.90625 -0.32716,-0.642195 -0.67946,-1.279207 -1.03125,-1.90625 z m 1.03125,1.90625 c 0.34383,0.678017 0.68402,1.370879 1,2.0625 -0.31794,-0.695918 -0.65374,-1.382819 -1,-2.0625 z m 1,2.0625 -0.28125,-0.125 -1.21875,0.25 -1.25,0.21875 0.25,0.59375 c 0.13752,0.324236 0.31666,1.034594 0.40625,1.5625 l 0.15625,0.96875 1.625,-0.03125 1.59375,0 0.125,-0.09375 c -0.0755,-0.199921 -0.17225,-0.394967 -0.25,-0.59375 l -0.0312,0 -0.34375,-0.65625 -0.375,-0.6875 0.125,-0.25 c -0.004,-0.0088 0.004,-0.02242 0,-0.03125 -0.16516,-0.385086 -0.35745,-0.744591 -0.53125,-1.125 z m -24.468748,-3.78125 c -0.227087,0.02938 -0.546122,0.177916 -0.8125,0.375 l -0.625,0.46875 0.21875,0.59375 0.21875,0.625 0.78125,-0.125 0.78125,-0.125 0,-0.84375 0,-0.84375 -0.34375,-0.09375 c -0.04935,-0.01665 -0.143054,-0.04104 -0.21875,-0.03125 z m -61.3125,0.875 -0.875,0.6875 -0.875,0.71875 -2.53125,-0.5 c -1.377485,-0.271564 -3.023453,-0.519998 -3.6875006,-0.5625 l -1.21875,-0.09375 -0.125,1.21875 c -0.062935,0.671107 -0.2597013,1.408225 -0.4375,1.625 l -0.3125,0.375 -1.375,0.25 -1.375,0.21875 0,0.375 c 0,0.216214 0.6160857,1.073211 1.375,1.90625 l 1.375,1.53125 0,0.71875 0,0.71875 -0.5,0.1875 -0.53125,0.1875 0,0.625 0,0.625 1.65625,1.09375 c 0.9012054,0.596358 1.7603327,1.091491 1.90625,1.09375 l 0.2500006,0 -0.2187506,-0.90625 -0.21875,-0.875 0.5937506,-0.65625 0.59375,-0.6875 -1.4062506,-1.65625 -1.4375,-1.65625 0.09375,-0.6875 0.09375,-0.71875 1.5625,-0.375 1.5312506,-0.375 0.1875,-1.1875 0.15625,-1.21875 0.9375,-0.3125 0.9375,-0.34375 2.625,0.65625 2.625,0.625 0.84375,-0.40625 c 0.462348,-0.213153 0.84375,-0.538545 0.84375,-0.71875 l 0,-0.3125 -1.53125,-0.59375 -1.53125,-0.59375 z m 14.78125,1 -0.1875,0.21875 -0.21875,0.21875 0.28125,0.4375 0.25,0.4375 0.15625,-0.4375 c 0.07992,-0.242507 0.05216,-0.540266 -0.0625,-0.65625 l -0.21875,-0.21875 z m 6.25,0.03125 -0.53125,0.21875 -0.53125,0.1875 0.21875,0.5625 0.1875,0.53125 0.46875,0 c 0.253107,0 0.560002,-0.166321 0.6875,-0.375 l 0.25,-0.40625 -0.375,-0.34375 -0.375,-0.375 z m -13.4375,0.09375 -0.21875,0.34375 -0.21875,0.375 0.8125,0.3125 c 1.091627,0.442973 1.564232,0.426337 1.84375,-0.03125 l 0.25,-0.375 -0.5,-0.3125 c -0.261492,-0.167576 -0.803078,-0.309565 -1.21875,-0.3125 l -0.75,0 z m 42.375,0 0,0.34375 0,0.34375 0.6875,0 0.6875,0 0,-0.34375 0,-0.34375 -0.6875,0 -0.6875,0 z m 5.1875,0.3125 -0.34375,0.1875 -0.3125,0.21875 0.1875,0.5 0.1875,0.53125 0.46875,0 0.5,0 0,-0.5 c 0,-0.276612 -0.15404,-0.600107 -0.34375,-0.71875 l -0.34375,-0.21875 z m 8.375,0.03125 c -0.356,0 -0.962918,0.210098 -1.3125,0.46875 l -0.625,0.46875 0.40625,0.25 0.40625,0.25 0,0.84375 0,0.8125 1.4375,0.125 1.46875,0.09375 -0.03125,0.71875 c -0.02038,0.383933 -0.08168,0.930804 -0.15625,1.21875 l -0.15625,0.5 0.875,0.03125 c 0.474317,0.01524 1.08289,0.06088 1.34375,0.09375 l 0.46875,0.0625 -0.21875,1.0625 -0.1875,1.03125 1.15625,0 1.1875,0 0.1875,-0.3125 0.21875,-0.34375 -0.40625,-0.21875 -0.375,-0.25 0.1875,-1 0.21875,-0.96875 -1.46875,-0.125 -1.4375,-0.09375 0.03125,-0.875 c 0.01841,-0.479914 0.134847,-1.158143 0.28125,-1.5 l 0.28125,-0.625 -1.46875,0.25 -1.4375,0.21875 -0.3125,-0.46875 -0.3125,-0.5 0.1875,-0.59375 0.1875,-0.625 -0.625,0 z m -4.59375,0.21875 -0.5625,0.5625 -0.5625,0.5625 0.21875,0.5625 c 0.258692,0.68208 0.577587,0.676214 1.4375,0.03125 l 0.6875,-0.5 -0.59375,-0.625 -0.625,-0.59375 z m -55.21875,1.09375 -0.84375,0.4375 c -0.463968,0.251219 -0.84375,0.586496 -0.84375,0.71875 0,0.208556 2.293499,0.880515 3.28125,0.96875 0.189723,0.01679 0.63072,-0.186177 1,-0.46875 l 0.6875,-0.53125 -0.375,-0.34375 c -0.195908,-0.198198 -0.919492,-0.477921 -1.625,-0.59375 l -1.28125,-0.1875 z m 13.1875,0 -0.34375,0.21875 -0.34375,0.21875 0.21875,0.75 0.1875,0.75 0.46875,-0.65625 0.46875,-0.625 -0.3125,-0.3125 -0.34375,-0.34375 z m -21.75,0.09375 0.1875,1 0.1875,1.03125 -0.6875,0.375 c -0.387181,0.209658 -0.999273,0.372057 -1.34375,0.375 -0.344511,0.0025 -0.829058,0.142957 -1.0937506,0.3125 l -0.5,0.3125 1.4375006,1.71875 c 0.786439,0.943658 1.4375,1.889655 1.4375,2.09375 0,0.204104 -0.246652,0.573524 -0.53125,0.8125 -0.284603,0.238976 -0.5,0.644782 -0.5,0.90625 l 0,0.46875 2.25,1.4375 2.21875,1.4375 0,0.625 c 0,0.355398 -0.154043,0.756355 -0.34375,0.875 -0.189725,0.11865 -0.34375,0.420889 -0.34375,0.65625 l 0,0.40625 1.90625,1.03125 1.90625,1.0625 0,0.5 c 0,0.275581 -0.351368,0.851908 -0.75,1.28125 l -0.71875,0.78125 1.0625,0.5625 1.09375,0.53125 0,0.6875 0,0.6875 -0.875,0.5625 c -0.474318,0.314454 -0.84375,0.707689 -0.84375,0.875 0,0.167303 0.523454,0.53177 1.1875,0.8125 l 1.21875,0.53125 0,0.5 c 0,0.274242 -0.248766,0.669029 -0.53125,0.90625 l -0.5,0.4375 0.1875,0.3125 0.1875,0.3125 0.84375,0 0.84375,0 0,-0.65625 0,-0.65625 0.53125,-0.4375 0.53125,-0.4375 -1.0625,-0.65625 -1.03125,-0.625 0,-0.5 0,-0.5 0.90625,-0.59375 0.9375,-0.625 -0.9375,-0.65625 -0.90625,-0.6875 0,-0.5625 c 0,-0.304811 0.228936,-0.818244 0.53125,-1.15625 l 0.5625,-0.625 -1.4375,-0.75 -1.40625,-0.71875 -0.21875,-0.5625 -0.21875,-0.5625 0.375,-0.59375 0.375,-0.625 -0.75,-0.65625 c -0.414885,-0.368513 -1.321086,-1.061862 -2.03125,-1.53125 l -1.3125,-0.84375 0,-0.5 c 0,-0.272842 0.274899,-0.799783 0.59375,-1.15625 l 0.5625,-0.65625 -1.5,-1.5625 -1.53125,-1.5625 0.375,-0.59375 0.375,-0.59375 1.34375,-0.40625 1.34375,-0.375 0,-0.9375 0.03125,-0.96875 0.5,-0.3125 c 0.275645,-0.176412 0.808044,-0.323646 1.1875,-0.34375 l 0.6875,-0.0625 -1.71875,-0.46875 c -0.948655,-0.267088 -2.29325,-0.496298 -3,-0.5 l -1.28125,0 z m 15.15625,0.34375 0,0.34375 c 0,0.380738 1.016213,1.015524 1.625,1.03125 0.225957,0.0059 0.494639,-0.161573 0.625,-0.375 l 0.25,-0.375 -0.46875,-0.3125 c -0.261469,-0.167554 -0.823116,-0.30956 -1.25,-0.3125 l -0.78125,0 z m -22.9375006,0.03125 c -0.2561827,0.571424 -0.5133106,1.137005 -0.75,1.71875 0.2348336,-0.580664 0.4958849,-1.14847 0.75,-1.71875 z m 35.0625006,0.3125 -0.21875,0.34375 -0.21875,0.375 0.21875,0.34375 c 0.117315,0.191965 0.352704,0.34375 0.53125,0.34375 l 0.3125,0 0,-0.5 c 0,-0.276611 -0.135877,-0.608302 -0.3125,-0.71875 l -0.3125,-0.1875 z m 27.03125,0 c -0.273406,0 -0.570216,0.151782 -0.6875,0.34375 l -0.21875,0.375 0.6875,0 0.71875,0 0,-0.375 0,-0.34375 -0.5,0 z m 4.15625,0.34375 c -0.273411,0 -0.619607,0.192837 -0.75,0.40625 l -0.21875,0.375 0.4375,0.28125 c 0.566186,0.354042 1.03125,0.105761 1.03125,-0.5625 l 0,-0.5 -0.5,0 z m -34.71875,0.9375 -0.375,0.375 -0.375,0.40625 0.25,0.625 0.25,0.625 0.375,-0.78125 0.34375,-0.78125 -0.21875,-0.25 -0.25,-0.21875 z m 63.5,0.09375 -1.65625,0.09375 -1.625,0.09375 0.125,0.53125 c 0.07563,0.287963 0.176519,0.926337 0.21875,1.40625 0.04229,0.479917 0.100502,0.920759 0.125,0.96875 0.0998,0.195788 2.694891,-0.0051 3.312498,-0.25 l 0.65625,-0.25 -0.59375,-0.21875 -0.562498,-0.21875 0,-1.09375 0,-1.0625 z m -68.96875,0.375 c -0.202199,0 -0.375,0.176834 -0.375,0.375 l 0,0.34375 0.78125,0.3125 c 1.033875,0.420467 1.28125,0.433354 1.28125,0.03125 0,-0.367094 -1.097691,-1.0625 -1.6875,-1.0625 z m -27.0000006,0.125 c -0.056915,0.143725 -0.1009797,0.29305 -0.15625,0.4375 -0.2210811,0.577799 -0.4265415,1.161942 -0.625,1.75 -0.2480732,0.735073 -0.4956197,1.471415 -0.71875,2.21875 l 0.3125,0.28125 c 0.643972,0.572087 1.8087625,1.397359 2.59375,1.84375 l 1.4375,0.8125 0.21875,0.84375 0.1875,0.8125 -0.375,0.40625 c -0.2137562,0.216292 -0.40625,0.591376 -0.40625,0.84375 l 0,0.46875 1.125,0.6875 c 0.6166114,0.380392 1.336309,0.686785 1.59375,0.6875 l 0.46875,0 -0.1875,-0.5 -0.1875,-0.46875 0.5,-0.65625 c 0.265524,-0.354598 0.4627136,-0.836628 0.4687506,-1.0625 l 0.03125,-0.40625 -1.9375006,-1.09375 c -1.0555125,-0.611007 -2.1949821,-1.444624 -2.5625,-1.84375 l -0.6875,-0.71875 0,-0.59375 0,-0.59375 0.53125,-0.4375 0.5,-0.4375 0,-0.59375 0,-0.5625 -1.375,-1.375 -0.75,-0.75 z m 91.8125006,1.1875 -1.5625,0.1875 c -0.863122,0.09846 -1.660966,0.253301 -1.78125,0.375 l -0.21875,0.21875 0.40625,0.4375 c 0.224518,0.22716 0.40625,0.685711 0.40625,1.03125 l 0,0.625 2.15625,0 2.125,0 -0.75,-0.53125 -0.78125,-0.5625 0,-0.875 0,-0.90625 z m 8.312498,0.84375 c -0.299,0.01408 -0.51563,0.05125 -0.625,0.09375 l -0.53125,0.21875 0.53125,0.59375 0.53125,0.59375 0.125,1.0625 0.125,1.03125 1.90625,0.3125 c 0.0805,0.01272 0.13855,0.04834 0.21875,0.0625 -0.11975,-0.451608 -0.24406,-0.897249 -0.375,-1.34375 -0.0638,-0.217596 -0.12105,-0.439803 -0.1875,-0.65625 -0.0194,-0.06298 -0.0429,-0.124614 -0.0625,-0.1875 -0.18712,-0.601623 -0.38635,-1.188852 -0.59375,-1.78125 -0.38215,-0.0051 -0.7635,-0.01408 -1.0625,0 z m 2.28125,3.96875 c 0.0799,0.301431 0.17003,0.603004 0.25,0.90625 -0.0742,-0.300899 -0.13955,-0.607361 -0.21875,-0.90625 -7.5e-4,-0.0028 -0.0305,0.0028 -0.0312,0 z m -68.124998,-3.6875 c -0.142149,0.02429 -0.269634,0.150011 -0.34375,0.375 l -0.15625,0.40625 0.40625,-0.125 c 0.227673,-0.07678 0.420491,-0.267072 0.40625,-0.40625 -0.02133,-0.208669 -0.170351,-0.274286 -0.3125,-0.25 z m 50.46875,1.0625 -0.5,0.34375 -0.53125,0.34375 0.4375,0 0.4375,0 0.34375,0.875 0.3125,0.875 1.71875,0 1.71875,0 0.875,0.34375 0.875,0.34375 0,0.84375 0,0.875 1.3125,0.21875 c 0.711476,0.116888 1.635613,0.355624 2.0625,0.53125 l 0.78125,0.3125 0,0.59375 0,0.59375 -0.9375,1 -0.90625,0.96875 0.59375,0.6875 0.625,0.6875 -0.21875,0.90625 -0.21875,0.90625 0.78125,-0.21875 c 0.434271,-0.135922 1.382273,-0.574295 2.093748,-0.9375 l 1.28125,-0.65625 0,-0.46875 c 0,-0.260559 -0.24666,-0.667274 -0.53125,-0.90625 -0.73349,-0.615919 -0.64619,-1.152777 0.34375,-2.09375 0.47431,-0.450855 0.875,-1.004534 0.875,-1.25 l 0,-0.46875 -1.28125,-0.34375 c -0.71149,-0.199933 -1.554181,-0.373932 -1.874998,-0.375 l -0.59375,0 -0.25,-0.40625 c -0.133186,-0.218037 -0.260949,-0.719178 -0.28125,-1.125 l -0.03125,-0.75 -2.75,-0.1875 c -1.517821,-0.101291 -2.950336,-0.28762 -3.1875,-0.4375 l -0.4375,-0.28125 0,-0.6875 0,-0.65625 -1.46875,0 -1.46875,0 z m 9.875,0.34375 -0.21875,0.34375 -0.21875,0.34375 0.375,0 0.34375,0 0.28125,1.09375 0.28125,1.09375 2.062498,0.75 2.03125,0.75 0.125,0.625 0.125,0.65625 -0.9375,1 -0.96875,1 0.59375,0.65625 c 0.72735,0.813197 0.72281,1.409949 0,2.21875 l -0.5625,0.625 0.75,0 0.75,0 1.6875,-0.84375 c 0.92889,-0.476269 1.77117,-1.017535 1.875,-1.1875 l 0.1875,-0.3125 -0.6875,-0.625 c -0.37501,-0.343359 -0.6875,-0.85399 -0.6875,-1.125 0,-0.270994 0.4007,-0.995798 0.875,-1.625 0.13626,-0.18075 0.22888,-0.354424 0.34375,-0.53125 -0.10374,-0.489046 -0.19562,-0.984693 -0.3125,-1.46875 l -0.96875,-0.125 -1.8125,-0.25 -0.625,-0.53125 -0.59375,-0.5625 0,-0.96875 0,-1 -2.03125,0 -2.062498,0 z m 8.406248,4.90625 c 0.1032,0.486496 0.19125,0.97751 0.28125,1.46875 -0.09,-0.49124 -0.17805,-0.982254 -0.28125,-1.46875 z m 0.28125,1.46875 -0.1875,0.21875 0.21875,0.4375 c 0.0242,0.05138 0.0885,0.151723 0.125,0.21875 -0.0487,-0.293292 -0.10281,-0.583326 -0.15625,-0.875 z m 0.15625,0.875 c 0.13623,0.819876 0.24301,1.639843 0.34375,2.46875 -0.0989,-0.832148 -0.20748,-1.648653 -0.34375,-2.46875 z M 1.9375214,39.687204 c -0.022607,0.08248 -0.046559,0.165418 -0.0625,0.25 -0.01633,0.06072 -0.015127,0.126696 -0.03125,0.1875 l 0.1875,0.125 0.46875,0.90625 0.46875,0.875 -0.59375,0.625 c -0.3156744,0.352919 -0.5625,0.773165 -0.5625,0.90625 0,0.181013 3.0249818,2.3125 3.28125,2.3125 0.024851,0 -0.013425,-0.446834 -0.09375,-1 l -0.15625,-1.03125 0.375,-0.21875 0.375,-0.25 0,-0.59375 -0.03125,-0.5625 -2.3125,-1.625 -1.28125,-0.90625 c -7.731e-4,0.0028 -0.030477,-0.0028 -0.03125,0 z m -0.09375,0.4375 c -0.1205022,0.454443 -0.2348848,0.915938 -0.34375,1.375 0.1088652,-0.459062 0.2232478,-0.920557 0.34375,-1.375 z m -0.34375,1.375 c -0.024394,0.102865 -0.038695,0.209408 -0.0625,0.3125 l 0.125,-0.25 -0.0625,-0.0625 z m -0.0625,0.3125 c -0.00279,0.01209 -0.028466,0.01915 -0.03125,0.03125 -0.1943466,0.844336 -0.3457631,1.703549 -0.5,2.5625 0.1564467,-0.871257 0.3335437,-1.737536 0.53125,-2.59375 z m -0.53125,2.59375 c -0.0448544,0.249796 -0.083594,0.499024 -0.125,0.75 0.5851843,0.312837 1.1420497,0.622845 1.46875,0.84375 l 0.9375,0.65625 0,0.4375 0,0.46875 -0.8125,0.625 c -0.4537589,0.349872 -1.1280712,0.825954 -1.46875,1.03125 l -0.59375,0.375 1.96875,1.125 1.96875,1.15625 -0.09375,0.75 -0.09375,0.75 -1.5625,0.78125 c -0.8537659,0.435128 -1.60653976,0.914854 -1.65625,1.0625 l -0.09375,0.28125 1.90625,0.9375 1.90625,0.9375 0,0.6875 0,0.65625 -0.90625,0.75 -0.9375,0.71875 0.3125,0.3125 c 0.3166341,0.304017 1.2914694,0.610542 2.1875,0.6875 l 0.46875,0.03125 -0.1875,-0.71875 -0.1875,-0.75 0.84375,-0.84375 c 0.4620405,-0.467475 0.8125,-0.967841 0.8125,-1.125 0,-0.157196 -0.6753071,-0.575506 -1.53125,-0.90625 l -1.5625,-0.59375 -0.3125,-0.59375 -0.28125,-0.5625 0.15625,-0.4375 c 0.086745,-0.245084 0.7585807,-0.773548 1.5,-1.15625 0.7413847,-0.382703 1.3442648,-0.797426 1.34375,-0.9375 -3.456e-4,-0.140088 -0.5549772,-0.584818 -1.25,-0.96875 -0.6950583,-0.383931 -1.4506181,-0.966715 -1.65625,-1.3125 l -0.375,-0.625 1.125,-0.96875 c 0.6183374,-0.518067 1.1267301,-1.045165 1.125,-1.1875 -0.00358,-0.142365 -0.8268477,-0.731826 -1.84375,-1.3125 -1.0168715,-0.580671 -2.1212045,-1.392677 -2.46875,-1.78125 l -0.03125,-0.03125 z m 10.1562506,-1.6875 0.15625,0.5 0.1875,0.5 -0.46875,0.625 c -0.265554,0.354604 -0.493963,0.765952 -0.5,0.90625 -0.0087,0.19512 2.89799,1.916479 3.375,2 0.05106,0.0092 -0.01114,-0.353524 -0.125,-0.8125 l -0.21875,-0.84375 0.375,-0.21875 c 0.205109,-0.128238 0.375,-0.457787 0.375,-0.71875 l 0,-0.46875 -1.15625,-0.71875 c -0.63899,-0.399611 -1.358693,-0.75 -1.59375,-0.75 l -0.40625,0 z m -5.6250006,3.03125 0.78125,0.875 c 0.4268883,0.477049 0.75,1.047189 0.75,1.28125 l 0,0.4375 -1.1875,0.71875 c -0.6640441,0.396421 -1.2193006,0.812485 -1.21875,0.9375 0,0.124978 0.7555999,0.613836 1.65625,1.09375 l 1.625,0.875 0,0.6875 0,0.71875 -1.625,0.78125 c -0.9012062,0.432915 -1.65625,0.868478 -1.65625,0.96875 0,0.100251 0.8627523,0.564313 1.90625,1.03125 l 1.90625,0.84375 0,0.59375 0,0.625 -0.78125,0.8125 -0.78125,0.84375 0.53125,0.3125 c 0.2796161,0.178887 0.8543616,0.340811 1.28125,0.34375 l 0.78125,0 0,-0.78125 0,-0.75 0.7187506,-0.78125 0.71875,-0.78125 -0.1875,-0.34375 c -0.112969,-0.184945 -0.633777,-0.429822 -1.1562506,-0.5625 -1.1653743,-0.295947 -1.84375,-0.805462 -1.84375,-1.4375 l 0,-0.5 1.21875,-0.78125 c 0.6616636,-0.433686 1.2163756,-0.881534 1.2187506,-1 0.0035,-0.11848 -0.6160938,-0.6481 -1.3750006,-1.15625 l -1.40625,-0.90625 0,-0.53125 0,-0.53125 1.0625,-0.59375 1.03125,-0.59375 -0.09375,-0.3125 c -0.050169,-0.156194 -0.9605353,-0.747339 -2,-1.34375 l -1.875,-1.09375 z m -4.84375,0.5 c -0.0883309,0.61419 -0.15127328,1.223063 -0.21875,1.84375 l 1.09375,-0.4375 0,-0.46875 0,-0.5 -0.875,-0.4375 z m -0.21875,1.84375 c -0.0943982,0.868325 -0.19727049,1.744813 -0.25,2.625 0.054231,-0.880283 0.15560787,-1.75673 0.25,-2.625 z m 10.0625006,-1.1875 0.21875,1.03125 0.1875,1 -0.9062506,0.59375 c -0.4945321,0.327845 -0.8764487,0.690604 -0.875,0.8125 0,0.121866 0.6175758,0.593601 1.3750006,1.03125 l 1.375,0.8125 0,0.5 0,0.5 -1.21875,0.78125 c -0.6616951,0.433684 -1.1851542,0.921104 -1.1875006,1.0625 -0.0035,0.141396 0.5083909,0.457961 1.1250006,0.71875 0.616618,0.260788 1.346583,0.754078 1.625,1.09375 l 0.5,0.625 -0.96875,0.84375 -0.9375,0.8125 0.1875,0.34375 0.21875,0.375 1.03125,0 1,0 0,-0.4375 c 0,-0.229459 0.402194,-0.842662 0.90625,-1.375 l 0.9375,-0.96875 -1.625,-0.6875 -1.59375,-0.71875 0,-0.5 0,-0.53125 1.03125,-0.78125 c 0.569186,-0.425784 1.03125,-0.908393 1.03125,-1.0625 0,-0.154089 -0.525803,-0.628806 -1.1875,-1.0625 l -1.21875,-0.78125 0,-0.4375 0,-0.4375 0.875,-0.5625 c 0.47432,-0.314453 0.84375,-0.70229 0.84375,-0.875 0,-0.315756 -2.03313,-1.71631 -2.5,-1.71875 l -0.25,0 z m 97.249998,1.03125 -0.25,0.6875 0.3125,-0.125 c -0.0191,-0.18947 -0.0414,-0.373613 -0.0625,-0.5625 z m -93.124998,0.03125 0,0.6875 0,0.65625 -0.78125,0.5625 -0.75,0.5625 1.28125,1.0625 1.28125,1.0625 0,0.5 0,0.46875 -1.03125,0.53125 c -0.569183,0.297811 -1.03125,0.69054 -1.03125,0.875 l 0,0.34375 1.21875,0.5 1.21875,0.53125 0.21875,0.59375 0.21875,0.59375 -0.75,0.59375 c -0.411087,0.336811 -0.75,0.790811 -0.75,1 l 0,0.375 1.21875,0 1.21875,0 0,-0.65625 0,-0.65625 0.5,-0.40625 c 0.284603,-0.238983 0.53125,-0.554592 0.53125,-0.6875 0,-0.13289 -0.554709,-0.492104 -1.21875,-0.8125 l -1.21875,-0.59375 0,-0.5 0,-0.5 1.0625,-0.75 c 0.569184,-0.410073 1.03125,-0.871133 1.03125,-1.03125 0,-0.160138 -0.4908,-0.485862 -1.0625,-0.6875 l -1.03125,-0.34375 -0.21875,-0.59375 -0.21875,-0.5625 1,-0.78125 0.96875,-0.8125 -1.09375,-0.5625 c -0.598507,-0.313147 -1.238357,-0.5625 -1.4375,-0.5625 l -0.375,0 z m 91.124998,1.3125 -0.96875,0.21875 c -0.52118,0.132317 -1.44793,0.458962 -2.0625,0.71875 l -1.125,0.46875 -0.53125,1.09375 -0.5625,1.0625 0.78125,0 c 0.43174,-0.009 1.20647,-0.206195 1.71875,-0.4375 l 0.9375,-0.4375 0.90625,-1.34375 0.90625,-1.34375 z m 2.15625,0.53125 c -0.0335,0.01692 -0.06,0.01393 -0.0937,0.03125 l -1.75,0.90625 -0.34375,0.6875 c -0.19655,0.371571 -0.375,0.766397 -0.375,0.875 0,0.338085 1.33148,0.204701 2.25,-0.21875 l 0.4375,-0.21875 c -0.0267,-0.69018 -0.0726,-1.379203 -0.125,-2.0625 z m -7.71875,0.25 c -0.190773,0 -0.979978,0.250747 -1.749998,0.5625 l -1.375,0.5625 -0.53125,1 -0.5,1 0.53125,0 c 0.295559,0 1.073404,-0.22717 1.71875,-0.5 l 1.15625,-0.46875 0.5625,-1.09375 0.531248,-1.0625 -0.34375,0 z m -4.843748,0.21875 -1.375,0.4375 -1.375,0.40625 -0.34375,0.6875 -0.375,0.6875 0.1875,0.3125 0.1875,0.3125 1.40625,-0.375 1.40625,-0.34375 0.375,-0.84375 0.375,-0.8125 -0.21875,-0.21875 -0.25,-0.25 z m -95.1562506,0.53125 c -6.0306e-4,0.01036 5.7642e-4,0.02088 0,0.03125 -0.0131642,0.228492 -0.0209358,0.458255 -0.03125,0.6875 l 0.15625,0.09375 0,0.6875 0,0.71875 -0.1875,0.125 c -0.0043329,0.281797 -0.03125,0.560922 -0.03125,0.84375 0,0.0628 -2.1422e-4,0.124752 0,0.1875 l 1.25,-0.59375 1.71875,-0.84375 -0.6875,-0.46875 c -0.376383,-0.271291 -1.2109528,-0.850688 -1.875,-1.28125 l -0.3125,-0.1875 z m 96.2812506,4.0625 -0.96875,0.46875 c -0.526406,0.259471 -1.016481,0.666296 -1.09375,0.90625 l -0.15625,0.4375 0.65625,0 c 0.353066,0 0.999849,-0.252331 1.4375,-0.5625 l 0.78125,-0.5625 -0.34375,-0.34375 -0.3125,-0.34375 z m -6.9375,0.0625 c -0.971646,-1.4e-5 -2.125,0.591122 -2.125,1.09375 l 0,0.375 0.96875,-0.21875 c 0.521752,-0.129419 1.159704,-0.474686 1.4375,-0.75 l 0.5,-0.5 -0.78125,0 z m 12.906248,0.28125 -0.59375,0.78125 c -0.33774,0.422015 -0.625,0.891802 -0.625,1.0625 l 0,0.3125 0.71875,0 0.6875,0 0.9375,-0.9375 0.9375,-0.96875 -1.03125,-0.125 -1.03125,-0.125 z m 5.34375,0 -0.96875,0.21875 -0.9375,0.21875 -0.59375,0.75 c -0.33202,0.397007 -0.625,0.870993 -0.625,1.0625 l 0,0.34375 0.96875,-0.21875 0.9375,-0.25 0.59375,-0.71875 c 0.33202,-0.397009 0.625,-0.870988 0.625,-1.0625 l 0,-0.34375 z m -14.499998,0.03125 -0.90625,0.09375 -0.9375,0.125 -0.125,0.4375 -0.15625,0.4375 0.53125,0 c 0.284899,0 0.762424,-0.102217 1.0625,-0.21875 0.30011,-0.116536 0.53125,-0.34707 0.53125,-0.53125 l 0,-0.34375 z m 5.9375,0.03125 -0.78125,0.65625 -0.78125,0.625 0.25,0.40625 0.21875,0.375 0.59375,-0.1875 c 0.325915,-0.116755 0.886713,-0.461478 1.21875,-0.75 0.332018,-0.288513 0.593748,-0.650286 0.593748,-0.8125 l 0,-0.3125 -0.656248,0 -0.65625,0 z m -99.0625006,1.125 c 0.0095944,0.218786 0.01905941,0.438148 0.03125,0.65625 0.002978,0.09362 -0.005692,0.188027 0,0.28125 l 0.46875,0.21875 0.125,0.75 0.09375,0.75 -0.5,0.375 c 0.0768656,0.769985 0.17237982,1.521137 0.28125,2.28125 0.15808214,0.0016 0.32324407,-0.03326 0.40625,-0.0625 l 0.375,-0.125 -0.15625,-0.625 -0.15625,-0.625 1.0625,-0.90625 c 0.5837065,-0.496952 1.0625,-1.019815 1.0625,-1.1875 0,-0.167654 -0.816431,-0.687646 -1.8125,-1.15625 l -1.28125,-0.625 z m 0.5,5.3125 c 0.0872179,0.608941 0.17389028,1.210294 0.28125,1.8125 -0.10508587,-0.601021 -0.1940071,-1.203385 -0.28125,-1.8125 z m 80.5625006,-4.375 0.1875,0.53125 c 0.115345,0.303987 0.377257,0.5625 0.5625,0.5625 l 0.34375,0 -0.15625,-0.40625 c -0.07508,-0.227935 -0.305819,-0.486474 -0.53125,-0.5625 l -0.40625,-0.125 z m 2.8125,0.40625 0.1875,0.6875 0.1875,0.6875 0.46875,0 0.5,0 -0.375,-0.6875 c -0.203072,-0.383938 -0.49098,-0.6875 -0.65625,-0.6875 l -0.3125,0 z m 5.8125,0.9375 0,0.53125 c 0,0.27945 0.09228,0.590773 0.21875,0.71875 0.327607,0.33147 0.8125,0.298923 0.8125,-0.0625 0,-0.168468 -0.24666,-0.511024 -0.53125,-0.75 l -0.5,-0.4375 z m 2.71875,0.34375 -0.1875,0.1875 -0.1875,0.1875 0.40625,0.75 c 0.211792,0.400375 0.504463,0.71875 0.6875,0.71875 l 0.34375,0 0,-0.46875 c 0,-0.264445 -0.242068,-0.694671 -0.53125,-0.9375 l -0.53125,-0.4375 z m -5.53125,0.09375 0.21875,0.34375 c 0.117315,0.191965 0.434158,0.375 0.71875,0.375 l 0.53125,0 -0.21875,-0.375 c -0.117244,-0.191971 -0.434164,-0.34375 -0.71875,-0.34375 l -0.53125,0 z m 8.3125,0 c -0.455927,0 -0.427588,0.364234 0.09375,1.5 0.447825,0.97562 0.770588,1.185294 1.09375,0.65625 l 0.1875,-0.3125 -0.5,-0.4375 c -0.282486,-0.237217 -0.53125,-0.641808 -0.53125,-0.90625 l 0,-0.5 -0.34375,0 z m 2.3125,0.34375 -0.1875,0.21875 -0.21875,0.1875 0.59375,0.46875 0.625,0.4375 0,0.5625 0,0.59375 0.6875,0 c 0.379443,0 0.6875,-0.09318 0.6875,-0.1875 0,-0.09432 -0.494626,-0.639457 -1.09375,-1.21875 l -1.09375,-1.0625 z m -73.71875,0.09375 -0.5,0.09375 -0.125,0.78125 -0.09375,0.78125 0.875,0 0.90625,0 0.21875,-0.5625 0.21875,-0.5625 -0.5,-0.3125 c -0.264841,-0.172348 -0.715409,-0.26847 -1,-0.21875 z m -3.90625,0.375 c -0.07934,0.0096 -0.148615,0.03818 -0.1875,0.0625 l -0.28125,0.15625 0.15625,0.90625 0.1875,0.90625 0.90625,-0.125 0.90625,-0.09375 0.09375,-0.75 0.09375,-0.75 -0.875,-0.21875 c -0.369888,-0.09396 -0.76197,-0.122488 -1,-0.09375 z m 86.187498,0.59375 c -0.53865,0 -0.67812,0.410896 -0.28125,0.8125 0.39691,0.401608 0.8125,0.263783 0.8125,-0.28125 l 0,-0.53125 -0.53125,0 z m -89.874998,0.34375 0,0.8125 c 0,1.023983 0.269222,1.28125 1.28125,1.28125 l 0.8125,0 0,-1.03125 0,-1.0625 -1.03125,0 -1.0625,0 z m -3.65625,0.3125 0,1.25 0,1.21875 1.0625,0 1.0625,0 0,-1.125 0,-1.125 -1.0625,-0.125 -1.0625,-0.09375 z m 91.249998,0.34375 0.375,0.71875 c 0.42819,0.809526 0.58083,0.856615 0.875,0.375 l 0.1875,-0.3125 -0.71875,-0.40625 -0.71875,-0.375 z m -74.812498,0.03125 0,0.3125 c 0,0.811876 1.053122,0.912203 1.3125,0.125 l 0.125,-0.4375 -0.71875,0 -0.71875,0 z m 54.15625,0.3125 -0.5625,0.125 c -0.316289,0.06209 -0.639792,0.291291 -0.71875,0.53125 l -0.15625,0.4375 0.71875,0 0.71875,0 0,-0.53125 0,-0.5625 z m -74.0000006,0.0625 -0.03125,1.375 -0.0625,1.40625 0.9687506,0 0.96875,0 0.21875,-1.03125 0.25,-1.0625 -0.21875,-0.34375 -0.21875,-0.34375 -0.9375,0 -0.9375006,0 z m 97.8124986,0.28125 0,0.5625 0,0.53125 0.1875,0 c 0.0218,-0.125123 0.0416,-0.249583 0.0625,-0.375 0.032,-0.19742 0.0628,-0.394737 0.0937,-0.59375 l -0.34375,-0.125 z M 6.4687714,62.624704 c -0.1809655,-0.01698 -0.3091841,-0.0043 -0.34375,0.03125 -0.06909,0.07106 -0.2108308,0.717623 -0.34375,1.4375 l -0.25,1.3125 0.90625,0 0.90625,0 0.34375,-0.875 c 0.1850473,-0.492411 0.34375,-1.042943 0.34375,-1.21875 l 0,-0.3125 -0.90625,-0.25 c -0.2415719,-0.06134 -0.4752845,-0.108019 -0.65625,-0.125 z m 79.0000006,0 c -0.277999,2.67e-4 -0.574953,0.139675 -0.71875,0.375 l -0.21875,0.34375 0.1875,0.53125 c 0.245042,0.646098 0.719314,0.615619 1.25,-0.03125 l 0.40625,-0.5 -0.21875,-0.34375 c -0.143598,-0.235094 -0.409501,-0.375267 -0.6875,-0.375 z m -58.9375,0.15625 -0.15625,0.4375 -0.125,0.4375 0.75,0 0.75,0 -0.15625,-0.4375 -0.15625,-0.4375 -0.4375,0 -0.46875,0 z m -1.625,0.5 -0.59375,0.09375 -0.59375,0.125 -0.125,0.625 -0.09375,0.59375 0.71875,0 0.6875,0 0,-0.71875 0,-0.71875 z m -22.4062506,0.03125 0,0.625 c -0.00359,0.335942 -0.1004286,0.959027 -0.21875,1.40625 l -0.21875,0.8125 0.96875,-0.09375 0.96875,-0.125 0.28125,-1.03125 c 0.1468059,-0.559449 0.1916811,-1.120828 0.09375,-1.28125 -0.098019,-0.160411 -0.5681079,-0.3125 -1.03125,-0.3125 l -0.84375,0 z m 104.6874986,0.21875 c -0.14302,0.804875 -0.3238,1.611787 -0.5,2.40625 0.17977,-0.795877 0.35581,-1.597478 0.5,-2.40625 z m -0.5,2.40625 c -0.17326,0.781192 -0.3541,1.546678 -0.5625,2.3125 0.20764,-0.760882 0.3877,-1.538624 0.5625,-2.3125 z m -17.968748,-2.34375 -0.5,0.21875 -0.53125,0.1875 0,0.53125 0,0.53125 0.5,0 c 0.261345,0 0.652847,-0.229134 0.875,-0.5 l 0.40625,-0.46875 -0.375,-0.25 -0.375,-0.25 z m -67.28125,0.25 -0.5,0.6875 c -0.271823,0.372632 -0.5,0.78222 -0.5,0.9375 l 0,0.28125 0.65625,0 0.65625,0 0.21875,-0.5625 0.21875,-0.59375 -0.375,-0.375 -0.375,-0.375 z m 69.8125,0.15625 -0.5625,0.84375 -0.53125,0.84375 0.21875,0.21875 c 0.348619,0.352736 0.639182,0.24541 1.25,-0.4375 l 0.59375,-0.65625 -0.5,-0.40625 -0.46875,-0.40625 z m -90.2812506,0.03125 c 0.0528692,0.281126 0.0990417,0.56418 0.15625,0.84375 l 0,-0.1875 0,-0.65625 -0.15625,0 z m 93.2812506,0.875 -0.78125,0.78125 -0.75,0.8125 0.5,0.3125 0.53125,0.3125 0.65625,-0.65625 0.6875,-0.6875 -0.4375,-0.4375 -0.40625,-0.4375 z m -76.21875,0.15625 -0.34375,0.65625 -0.34375,0.65625 0.25,0.21875 c 0.126344,0.127871 0.456164,0.181601 0.75,0.125 l 0.53125,-0.09375 0.125,-0.78125 0.09375,-0.78125 -0.53125,0 -0.53125,0 z m -3.125,0.6875 0,1.0625 0,1.03125 0.53125,0 0.5,0 0,-0.46875 c 0,-0.272252 0.103594,-0.758853 0.21875,-1.0625 l 0.21875,-0.5625 -0.71875,0 -0.75,0 z m 15.09375,0.03125 -0.34375,0.21875 -0.34375,0.21875 0.8125,0.4375 c 1.02211,0.553474 1.417758,0.280877 0.53125,-0.375 l -0.65625,-0.5 z m 67.15625,0.0625 -0.78125,0.65625 -0.8125,0.65625 0.1875,0.53125 c 0.270631,0.713538 0.802547,0.644694 1.625,-0.1875 0.79827,-0.807689 0.843011,-1.257624 0.21875,-1.5 l -0.4375,-0.15625 z m -10.96875,0.28125 -0.625,0.5625 -0.625,0.59375 0.5625,0.625 c 0.315538,0.352775 0.666547,0.65625 0.78125,0.65625 0.114648,0 0.429613,-0.363419 0.6875,-0.78125 l 0.46875,-0.75 -0.625,-0.46875 -0.625,-0.4375 z m 14.281248,0.65625 -0.656248,0.375 c -0.371728,0.201254 -0.784,0.51862 -0.90625,0.71875 l -0.21875,0.375 0.1875,0.5 c 0.105729,0.278744 0.274159,0.5 0.375,0.5 0.100726,0 0.512098,-0.319973 0.906248,-0.71875 l 0.71875,-0.71875 -0.21875,-0.53125 -0.1875,-0.5 z m -88.312498,0.03125 0,0.5 c 0,0.272248 -0.103552,0.727601 -0.21875,1.03125 l -0.1875,0.5625 0.5625,0 0.5625,0 0.3125,-0.90625 c 0.185049,-0.492416 0.34375,-0.947758 0.34375,-1.03125 0,-0.08347 -0.308045,-0.15625 -0.6875,-0.15625 l -0.6875,0 z m 14.75,0.34375 0.4375,0.53125 0.40625,0.53125 0.5625,-0.03125 0.5625,0 -0.65625,-0.5 c -0.368281,-0.28185 -0.823315,-0.53125 -1,-0.53125 l -0.3125,0 z m -25.2187506,0.125 c 0.1060878,0.419416 0.2279117,0.834558 0.34375,1.25 -0.1171214,-0.419723 -0.2365828,-0.826244 -0.34375,-1.25 z m 7.71875,0.21875 0,0.4375 c -0.00349,0.239962 -0.1043763,0.786827 -0.21875,1.21875 l -0.21875,0.78125 0.71875,0 0.7500006,0 0,-0.65625 c 0,-0.368237 0.103585,-0.915105 0.21875,-1.21875 l 0.1875,-0.5625 -0.71875,0 -0.7187506,0 z m 93.6249986,0.09375 -0.96875,0.84375 -0.9375,0.8125 0.21875,0.34375 c 0.30005,0.491203 0.73838,0.431222 1.71875,-0.21875 l 0.84375,-0.5625 0,-0.4375 c 0,-0.245314 -0.19411,-0.530508 -0.4375,-0.625 l -0.4375,-0.15625 z m -13.593748,0.25 c -0.303561,0 -0.743666,0.209767 -0.96875,0.4375 l -0.40625,0.40625 0.5625,0.625 c 0.311394,0.348162 0.681585,0.625 0.8125,0.625 0.130923,0 0.469857,-0.276838 0.78125,-0.625 l 0.59375,-0.625 -0.4375,-0.40625 c -0.22506,-0.227754 -0.633935,-0.4375 -0.9375,-0.4375 z m -64.53125,0.34375 -0.375,0.21875 -0.40625,0.25 0.84375,0.46875 c 0.994067,0.557505 1.34375,0.602941 1.34375,0.15625 0,-0.185205 -0.335398,-0.511154 -0.71875,-0.71875 l -0.6875,-0.375 z m -18.2812506,0.03125 0,0.65625 0,0.6875 -0.34375,0.21875 c -0.1897222,0.11865 -0.34375,0.35061 -0.34375,0.53125 l 0,0.34375 0.875,0 0.84375,0 0,-0.6875 c 0,-0.368234 0.1035951,-0.915101 0.21875,-1.21875 l 0.21875,-0.53125 -0.71875,0 -0.75,0 z m 99.4062486,0.28125 -0.90625,0.875 -0.9375,0.875 0.21875,0.375 c 0.12329,0.201805 0.30796,0.375 0.40625,0.375 0.0612,0 0.31918,-0.223178 0.625,-0.5 0.21165,-0.660118 0.40708,-1.32909 0.59375,-2 z m -0.59375,2 c -0.36966,1.152941 -0.77515,2.28851 -1.21875,3.40625 0.4436,-1.11774 0.84909,-2.253309 1.21875,-3.40625 z m -1.21875,3.40625 -0.78125,-0.4375 -0.8125,-0.4375 -0.90625,0.84375 -0.90625,0.875 0.71875,0.90625 c 0.39325,0.505858 0.85528,0.9375 1.03125,0.9375 l 0.3125,0 0,-0.75 0,-0.71875 0.6875,-0.1875 0.28125,-0.0625 c 0.13284,-0.316816 0.24806,-0.648898 0.375,-0.96875 z m -11.593748,-5.3125 -0.71875,0.96875 -0.71875,1 0.59375,0.5625 c 0.311224,0.314899 0.663444,0.5625 0.8125,0.5625 0.149083,0 0.5893,-0.303566 0.96875,-0.6875 0.379456,-0.383932 0.6875,-0.830113 0.6875,-1 0,-0.169888 -0.364397,-0.546679 -0.8125,-0.84375 l -0.8125,-0.5625 z m -88.7500006,0.25 0,0.71875 0,0.6875 -0.34375,0.21875 c -0.1897251,0.118648 -0.34375,0.46003 -0.34375,0.75 l 0,0.53125 0.75,-0.125 0.75,-0.09375 0.09375,-0.78125 c 0.063233,-0.425257 0.1691283,-0.952279 0.21875,-1.1875 l 0.09375,-0.4375 -0.625,-0.125 -0.59375,-0.15625 z m 18.2500006,0.40625 c -0.178546,0 -0.3125,0.151796 -0.3125,0.34375 l 0,0.34375 0.53125,0 0.5625,0 -0.21875,-0.34375 c -0.117243,-0.191963 -0.383947,-0.34375 -0.5625,-0.34375 z m 7.5625,0.6875 c -0.572739,0 -1.65625,1.066365 -1.65625,1.625 l 0,0.46875 0.46875,0 0.46875,0 0.5625,-0.84375 c 0.663502,-1.024551 0.692632,-1.25 0.15625,-1.25 z m 58.0625,0.3125 -0.65625,0.6875 c -0.372799,0.377191 -0.847799,0.740083 -1.0625,0.8125 l -0.40625,0.125 0.4375,1.15625 0.4375,1.15625 -0.6875,0.5 c -0.368208,0.272433 -0.918324,0.5 -1.25,0.5 l -0.625,0 0.0625,1.46875 0.09375,1.5 -1.125,0.09375 -1.125,0.125 0,0.25 c 0,0.137089 0.237163,0.606458 0.53125,1.03125 l 0.53125,0.75 0.8125,-0.53125 0.8125,-0.53125 0.65625,0.09375 0.625,0.125 -0.09375,-0.53125 c -0.04144,-0.287958 -0.154448,-0.98293 -0.28125,-1.53125 l -0.25,-1 0.46875,-0.28125 0.4375,-0.28125 1.15625,0.1875 1.15625,0.1875 0,-0.1875 c 0,-0.114591 -0.296715,-0.772139 -0.625,-1.46875 l -0.59375,-1.28125 0.6875,-0.5 c 0.364582,-0.269737 0.845415,-0.46875 1.09375,-0.46875 0.680915,0 0.550423,-0.495347 -0.375,-1.375 l -0.84375,-0.78125 z m 8.4375,0.0625 -0.78125,0.75 -0.8125,0.75 0.59375,0.65625 c 0.313704,0.350739 0.637133,0.63103 0.75,0.625 0.112888,-0.0062 0.512966,-0.435249 0.875,-0.9375 l 0.65625,-0.90625 -0.625,-0.46875 -0.65625,-0.46875 z m -76.40625,0.34375 c -0.178565,0 -0.445214,0.151777 -0.5625,0.34375 l -0.21875,0.34375 0.5625,0 0.53125,0 0,-0.34375 c 0,-0.191964 -0.133971,-0.34375 -0.3125,-0.34375 z m 6.5625,0.65625 -0.5625,0.875 -0.5625,0.875 0.21875,0.375 0.25,0.40625 0.65625,-0.59375 c 0.360624,-0.330205 0.65625,-0.815631 0.65625,-1.0625 0,-0.246866 -0.162385,-0.542819 -0.34375,-0.65625 l -0.3125,-0.21875 z m 72.9375,0.09375 -0.78125,0.875 c -0.433785,0.47358 -0.78125,0.940791 -0.78125,1.0625 0,0.121727 0.330185,0.610347 0.75,1.0625 l 0.75,0.8125 0.3125,-0.8125 c 0.156581,-0.43978 0.550188,-1.000443 0.874998,-1.25 l 0.5625,-0.4375 -0.84375,-0.65625 -0.843748,-0.65625 z m -82.46875,0.59375 c -0.180233,0 -0.369508,0.168626 -0.4375,0.375 l -0.125,0.375 0.5625,0 0.5625,0 -0.125,-0.375 c -0.06799,-0.206359 -0.257263,-0.375 -0.4375,-0.375 z m 75.03125,0.65625 -1.1875,0.5625 c -0.646517,0.310424 -1.322761,0.5625 -1.53125,0.5625 -0.512336,0 -0.481399,0.260482 0.1875,1.40625 l 0.5625,0.96875 -0.21875,0.5625 -0.21875,0.5625 -1.40625,0 -1.4375,0 0.25,0.78125 c 0.136866,0.431926 0.253686,1.176337 0.28125,1.65625 l 0.0625,0.875 -1.21875,0.1875 -1.1875,0.1875 0.09375,0.5 c 0.06302,0.281144 0.295484,0.719394 0.5,0.96875 l 0.375,0.46875 0.53125,-0.25 c 0.301633,-0.136262 1.132273,-0.223662 1.84375,-0.1875 l 1.3125,0.0625 0,-0.34375 c 0,-0.190103 -0.251012,-0.870308 -0.5625,-1.53125 l -0.59375,-1.21875 0.25,-0.59375 0.21875,-0.59375 1.53125,0.1875 1.5625,0.21875 0,-0.25 c -0.0069,-0.140275 -0.260082,-0.645082 -0.53125,-1.125 -0.271166,-0.479913 -0.493265,-1.238908 -0.5,-1.6875 l 0,-0.8125 1.03125,-0.40625 c 0.569187,-0.217391 1.03125,-0.498631 1.03125,-0.625 0,-0.126359 -0.216663,-0.418314 -0.5,-0.65625 l -0.53125,-0.4375 z m -67.96875,0.34375 -0.53125,0.46875 c -0.292691,0.245784 -0.686856,0.738056 -0.875,1.09375 l -0.34375,0.625 0.21875,0.40625 0.25,0.375 0.875,-0.875 0.84375,-0.90625 -0.21875,-0.59375 -0.21875,-0.59375 z m 70.71875,0.65625 0,0.71875 0,0.75 -0.53125,0.1875 c -0.300114,0.116499 -0.916204,0.21875 -1.375,0.21875 -0.458795,0 -0.84375,0.100916 -0.84375,0.21875 0,0.11781 0.313046,0.800899 0.71875,1.53125 l 0.75,1.34375 -0.21875,0.59375 -0.21875,0.59375 -1.5625,-0.21875 -1.53125,-0.21875 0,0.34375 c 0,0.181776 0.251012,0.870297 0.5625,1.53125 l 0.5625,1.21875 -0.21875,0.53125 -0.21875,0.5625 -1.375,0 -1.40625,0 0,0.40625 c 0,0.223094 0.415134,1.089579 0.90625,1.9375 l 0.90625,1.5625 -0.21875,0.84375 -0.21875,0.875 -0.84375,0.375 c -0.468802,0.216244 -0.875,0.530233 -0.875,0.6875 0,0.15724 0.253344,0.905658 0.5625,1.6875 l 0.5625,1.4375 0.75,-0.65625 c 0.402325,-0.365417 0.980479,-0.756436 1.3125,-0.875 l 0.03125,0 0.59375,-0.21875 0,-0.59375 c 0,-0.317962 -0.414406,-1.484872 -0.90625,-2.59375 l -0.875,-2 0.125,-0.65625 0.125,-0.65625 1.46875,0.0625 1.4375,0.09375 0,-0.5 c 0,-0.269794 -0.251014,-1.026558 -0.5625,-1.6875 l -0.5625,-1.21875 0.21875,-0.5625 0.1875,-0.53125 1.75,0 1.71875,0 0,-0.4375 c 0,-0.239957 -0.310526,-0.924103 -0.6875,-1.5 -0.376932,-0.575897 -0.686259,-1.309597 -0.6875,-1.625 l 0,-0.5625 0.5625,-0.21875 c 0.300173,-0.11651 0.916205,-0.1875 1.375,-0.1875 l 0.8125,0 0,-0.3125 c 0,-0.156071 -0.462072,-0.729504 -1.03125,-1.28125 l -1.03125,-1 z m -89.6875006,0.4375 0,0.5625 0,0.59375 0.375,-0.125 c 0.2039621,-0.06877 0.375,-0.286378 0.375,-0.46875 0,-0.182382 -0.1710217,-0.368709 -0.375,-0.4375 l -0.375,-0.125 z m 6.8125006,0.375 -0.375,0.34375 -0.375,0.375 0.90625,0 0.875,0 0.4375,0.53125 0.4375,0.53125 0.375,-0.125 c 0.19683,-0.06643 0.409075,-0.256387 0.46875,-0.4375 l 0.09375,-0.34375 -1.4375,-0.4375 -1.40625,-0.4375 z m 9.1875,0.71875 c -0.12736,0 -0.528041,0.244802 -0.875,0.5625 l -0.625,0.59375 0,0.8125 0,0.8125 0.3125,0 c 0.178989,0 0.579651,-0.323351 0.875,-0.75 0.543797,-0.785539 0.737317,-2.03125 0.3125,-2.03125 z m -12.1875006,0.34375 0,0.34375 0,0.375 0.5,0 0.53125,0 0,-0.375 0,-0.34375 -0.53125,0 -0.5,0 z m 89.4062506,0.71875 -0.1875,0.46875 -0.1875,0.46875 -1.21875,0.25 c -0.679187,0.128918 -1.251239,0.333477 -1.25,0.46875 0,0.13523 0.310566,0.705355 0.6875,1.28125 l 0.6875,1.0625 0,0.75 0.03125,0.78125 -0.6875,0.21875 -0.6875,0.21875 -1.21875,-0.25 c -0.67264,-0.127629 -1.21875,-0.145664 -1.21875,-0.0625 0,0.08312 0.258965,0.879766 0.5625,1.78125 l 0.53125,1.625 -0.1875,0.53125 -0.1875,0.5 -1.40625,0 c -0.764843,0 -1.375,0.05772 -1.375,0.125 0,0.06733 0.166705,0.614201 0.375,1.21875 0.411191,1.193522 0.812642,1.41734 1.125,0.59375 l 0.1875,-0.53125 1.5625,0 1.5625,0 0,-0.375 c 0,-0.2015 -0.235275,-0.827134 -0.53125,-1.40625 l -0.53125,-1.0625 0.09375,-0.9375 0.125,-0.9375 1.96875,0.125 2,0.09375 0,-0.40625 c 0,-0.228157 -0.3257,-0.950278 -0.71875,-1.59375 l -0.71875,-1.15625 0.125,-0.78125 0.09375,-0.78125 1.15625,-0.25 c 0.62624,-0.128834 1.228044,-0.320434 1.343748,-0.4375 l 0.1875,-0.21875 -0.624998,-0.6875 c -0.344467,-0.385105 -0.796367,-0.6875 -1.03125,-0.6875 l -0.4375,0 z m -91.4062506,0.25 -0.40625,0.25 c -0.2079418,0.130045 -0.375,0.381863 -0.375,0.5625 l 0,0.3125 0.9375,0 0.9375,0 -0.5625,-0.5625 -0.53125,-0.5625 z m 11.2500006,0.03125 -0.84375,0.78125 -0.84375,0.78125 0,0.59375 c 0,0.627026 0.306077,1.03125 0.75,1.03125 0.15374,0 0.539048,-0.373234 0.84375,-0.84375 l 0.5625,-0.875 -0.25,-0.71875 -0.21875,-0.75 z m -13.0000006,0.03125 c 0.2266602,0.492002 0.4466109,0.984864 0.6875,1.46875 -0.2421141,-0.486476 -0.4597566,-0.974058 -0.6875,-1.46875 z m 98.1249986,0 c -0.2615,0.555461 -0.53557,1.105677 -0.8125,1.65625 0.27606,-0.548852 0.55481,-1.096884 0.8125,-1.65625 z m -0.8125,1.65625 -0.21875,-0.25 -0.625,0.71875 -0.65625,0.6875 -0.968748,0 c -0.530172,0 -1.061349,0.09109 -1.1875,0.21875 l -0.21875,0.25 0.84375,1.46875 0.65625,1.15625 c 0.09949,-0.159948 0.210258,-0.311584 0.312498,-0.46875 0.0635,-0.104443 0.12473,-0.207594 0.1875,-0.3125 l -0.0625,-0.09375 0.21875,-0.5625 0.21875,-0.5625 0.34375,-0.0625 c 0.40164,-0.715055 0.7867,-1.452777 1.15625,-2.1875 z m -2.374998,4.25 c -0.441782,0.710248 -0.901662,1.406024 -1.375,2.09375 0.473338,-0.687726 0.933218,-1.383502 1.375,-2.09375 z m -1.375,2.09375 -1.1875,-0.15625 -1.625,-0.21875 0.71875,2.125 0.25,0.75 c 0.262801,-0.338552 0.553311,-0.658036 0.8125,-1 0.02227,-0.03014 0.04029,-0.06356 0.0625,-0.09375 0.005,-0.0068 -0.005,-0.0244 0,-0.03125 l 0.21875,-0.71875 0.28125,0.03125 c 0.160536,-0.225746 0.311617,-0.459197 0.46875,-0.6875 z m -87.78125,-7.96875 0.1875,0.34375 c 0.117299,0.191964 0.383949,0.34375 0.5625,0.34375 0.178546,0 0.3125,-0.1518 0.3125,-0.34375 l 0,-0.34375 -0.53125,0 -0.53125,0 z m 13.84375,0.34375 c -0.404088,0 -2.09375,2.444209 -2.09375,3.03125 0,0.230901 0.169049,0.865844 0.375,1.40625 l 0.375,0.96875 0.8125,-1.5625 0.8125,-1.59375 0.03125,-1.125 0,-1.125 -0.3125,0 z m -9.78125,2.09375 c -0.246661,0 -0.647327,0.175873 -0.875,0.40625 l -0.40625,0.4375 0,1.15625 0,1.125 0.34375,0 c 0.178928,0 0.548394,-0.323356 0.84375,-0.75 l 0.53125,-0.78125 0,-0.8125 0,-0.78125 -0.4375,0 z m 5.75,0.6875 -0.75,1.375 -0.75,1.34375 0.21875,1.09375 0.21875,1.09375 0.28125,0 c 0.163326,0 0.677034,-0.611057 1.15625,-1.34375 l 0.875,-1.34375 -0.21875,-1.09375 -0.21875,-1.125 -0.40625,0 -0.40625,0 z m -9.0625,0.65625 -0.5625,0.875 -0.5625,0.875 0.21875,0.71875 c 0.123392,0.39333 0.358667,0.71875 0.53125,0.71875 0.172547,0 0.570332,-0.373268 0.875,-0.84375 l 0.5625,-0.875 -0.125,-0.59375 c -0.06315,-0.329484 -0.306201,-0.642932 -0.53125,-0.71875 l -0.40625,-0.15625 z m 43.78125,0 0,0.71875 0,0.71875 0.53125,0 0.5625,0 -0.125,-0.5625 c -0.0614,-0.320034 -0.29409,-0.6701 -0.53125,-0.75 l -0.4375,-0.125 z m -48.1250006,0.4375 c 0.3271798,0.570906 0.6528103,1.129933 1,1.6875 -0.3447237,-0.553586 -0.6749865,-1.120695 -1,-1.6875 z m 1.84375,1.3125 -0.65625,0.59375 -0.03125,0.03125 c 0.3377157,0.535806 0.6754358,1.070868 1.03125,1.59375 l 0.40625,-0.78125 -0.375,-0.71875 -0.375,-0.71875 z m 74.6562506,0.0625 c -0.145085,0.0044 -0.654993,0.290842 -1.125,0.65625 l -0.84375,0.65625 0.46875,1.6875 c 0.265642,0.92609 0.516624,2.234366 0.53125,2.90625 l 0,1.21875 -0.75,0.125 -0.78125,0.09375 0,2.4375 0,2.4375 -0.5625,0.21875 -0.53125,0.21875 -1.21875,-0.59375 -1.1875,-0.59375 -1.0625,0.90625 -1.03125,0.875 -0.75,-0.21875 -0.75,-0.21875 1.71875,1.78125 c 0.941494,0.980674 1.809865,1.78125 1.9375,1.78125 0.127579,0 0.501731,-0.395088 0.8125,-0.875 l 0.5625,-0.875 0.78125,0.03125 c 0.422507,0.0065 1.150681,0.225652 1.625,0.5 0.474316,0.274358 0.982698,0.524449 1.125,0.53125 l 0.25,0 0,-2.46875 0,-2.46875 1.03125,-0.40625 1.03125,-0.40625 0,-0.5625 c 0,-0.31865 -0.409711,-1.496414 -0.90625,-2.59375 l -0.90625,-1.96875 0.375,-0.8125 0.375,-0.8125 0.6875,-0.21875 c 0.391015,-0.125567 0.719476,-0.337713 0.71875,-0.46875 -0.0035,-0.426651 -1.353861,-2.507979 -1.625,-2.5 z m -66.0625,0.15625 -1,1.21875 -1.03125,1.21875 0.21875,1.5 0.21875,1.46875 -1.625,2.875 c 0.250612,0.27126 0.493938,0.546436 0.75,0.8125 l 0,-0.21875 0.03125,-1.21875 1.1875,-1.78125 c 0.657491,-0.967109 1.404255,-2.259497 1.65625,-2.875 l 0.46875,-1.125 -0.4375,-0.9375 -0.4375,-0.9375 z m -3.21875,8.28125 c -0.265662,-0.28755 -0.521814,-0.581714 -0.78125,-0.875 0.259436,0.293286 0.515588,0.58745 0.78125,0.875 z m -0.78125,-0.875 c 0.164738,-0.287352 0.323269,-0.611069 0.46875,-0.9375 l 0.59375,-1.40625 -0.28125,-1.46875 -0.3125,-1.4375 -1,1.4375 -0.96875,1.4375 0.09375,0.71875 c 0.0052,0.0063 -0.0052,0.02493 0,0.03125 0.05143,0.06299 0.10419,0.125004 0.15625,0.1875 0.0093,0.01127 0.02196,0.01999 0.03125,0.03125 0.397792,0.475947 0.808119,0.94204 1.21875,1.40625 z m 9,-6.875 c -0.190395,0 -2.84375,4.256654 -2.84375,4.5625 0,0.15962 0.523453,0.531767 1.1875,0.8125 l 1.21875,0.5 0,1.53125 c 0,1.349593 0.200656,2 0.59375,2 0.06676,0 0.879869,-0.381571 1.8125,-0.875 l 1.6875,-0.90625 0.6875,0.34375 c 0.369627,0.200161 0.763786,0.612962 0.875,0.90625 l 0.1875,0.53125 0.4375,0 c 0.243105,-0.002 1.365361,-0.70067 2.5,-1.5625 l 2.0625,-1.5625 0.625,0 0.625,0 0.21875,0.5 0.1875,0.53125 0.625,0 0.625,0 0.875,-1.125 0.875,-1.125 -0.625,-0.25 c -0.353235,-0.132208 -0.749501,-0.388332 -0.875,-0.59375 -0.125463,-0.205424 -0.373357,-0.375 -0.53125,-0.375 -0.157917,0 -1.019081,0.607137 -1.9375,1.375 l -1.6875,1.40625 -0.75,0 -0.71875,0 -0.5,-0.75 -0.5,-0.78125 -1.9375,0.8125 -1.90625,0.8125 -0.5625,-0.21875 -0.5625,-0.21875 0,-1.6875 0,-1.71875 -1.0625,-0.21875 -1.0625,-0.21875 0.125,-1.21875 c 0.07757,-0.672466 0.09214,-1.21875 0.03125,-1.21875 z m 32.65625,0.59375 -0.21875,0.21875 -0.1875,0.1875 0.21875,0.53125 0.1875,0.5625 0.53125,0 0.53125,0 0,-0.53125 0,-0.53125 -0.53125,-0.21875 -0.53125,-0.21875 z m 7.96875,0.0625 0,0.65625 c 0,0.819562 0.627506,1.46875 1.4375,1.46875 l 0.65625,0 -0.375,-0.6875 c -0.200756,-0.379538 -0.656142,-0.859382 -1.03125,-1.0625 l -0.6875,-0.375 z m -2.34375,0.375 c -0.145709,0 -0.450508,0.334823 -0.6875,0.71875 l -0.4375,0.6875 0.28125,0 c 0.145708,0 0.450509,-0.303569 0.6875,-0.6875 l 0.4375,-0.71875 -0.28125,0 z m -9.0625,0.78125 -0.5,0.71875 c -0.283137,0.409045 -0.53125,0.86482 -0.53125,1 0,0.293279 1.024142,0.606154 1.75,0.53125 l 0.5,-0.0625 0.09375,-0.90625 0.125,-0.90625 -0.71875,-0.1875 -0.71875,-0.1875 z m -11.40625,0.5 -0.875,0.875 -0.875,0.90625 0.84375,0.84375 c 0.46352,0.469006 0.911966,1.076512 1,1.34375 l 0.15625,0.46875 1.0625,-0.75 c 0.585877,-0.422111 1.251217,-0.78125 1.46875,-0.78125 l 0.40625,0 0.5,1.28125 0.53125,1.25 0.78125,-0.75 0.78125,-0.71875 0.78125,0 0.78125,0 0.1875,0.6875 c 0.09921,0.383935 0.307211,0.6875 0.46875,0.6875 0.161544,0 0.512288,-0.418118 0.78125,-0.9375 l 0.5,-0.9375 -1.0625,-1 -1.03125,-0.96875 -0.96875,0.90625 -0.96875,0.9375 -0.5,-0.1875 -0.5,-0.1875 -0.25,-1.09375 c -0.12784,-0.588869 -0.348561,-1.0625 -0.5,-1.0625 -0.151393,0 -0.482559,0.243311 -0.71875,0.53125 l -0.40625,0.53125 -0.84375,0 -0.8125,0 -0.375,-0.9375 -0.34375,-0.9375 z m 46.625,0.1875 -1.21875,0.59375 -1.1875,0.5625 -0.03125,0.4375 c -0.0061,0.233443 0.274791,0.979547 0.59375,1.65625 l 0.5625,1.21875 0.5625,-0.46875 c 0.29768,-0.257078 0.792975,-0.568363 1.125,-0.6875 l 0.625,-0.21875 0,-0.5625 c 0,-0.303507 -0.252642,-0.986173 -0.53125,-1.53125 l -0.5,-1 z m -25.53125,0.84375 -0.71875,0.75 c -0.379454,0.412102 -0.6875,0.957756 -0.6875,1.1875 l 0,0.40625 0.6875,-0.625 0.71875,-0.65625 0,-0.53125 0,-0.53125 z m -4.78125,0.09375 -0.96875,0.09375 -1,0.125 -0.09375,0.625 -0.125,0.65625 0.96875,-0.125 0.96875,-0.125 0.125,-0.625 0.125,-0.625 z m 7.65625,0.75 c -0.606373,0 -0.596591,0.36039 0.0625,1.3125 l 0.53125,0.78125 0.5,0 0.5,0 0,-0.40625 c 0,-0.579486 -1.041609,-1.6875 -1.59375,-1.6875 z m 32.3125,0.03125 c -0.4714,0.607148 -0.972959,1.19437 -1.46875,1.78125 0.496522,-0.585899 0.997163,-1.174293 1.46875,-1.78125 z m -78.34375,0.3125 c -0.391599,0 -2.0625,2.859151 -2.0625,3.53125 l 0,0.5 1.125,0.34375 1.125,0.34375 0.09375,1.75 c 0.01851,0.335042 0.06433,0.628709 0.09375,0.9375 0.446228,0.386366 0.884909,0.784446 1.34375,1.15625 l 0.6875,-0.34375 1.71875,-0.90625 0.875,0 0.875,0 0.34375,0.71875 0.375,0.6875 0.625,0 0.625,0 2.03125,-1.5625 2.0625,-1.5625 0.71875,0 0.75,0 0.40625,0.5 0.4375,0.53125 0.5625,0 0.5625,-0.03125 1.125,-1.03125 c 0.616613,-0.567571 1.125,-1.08881 1.125,-1.1875 0,-0.09866 -0.394751,-0.1875 -0.875,-0.1875 l -0.875,0 -0.21875,-0.53125 c -0.109196,-0.287909 -0.338486,-0.53125 -0.53125,-0.53125 -0.192783,0 -1.334799,0.729905 -2.53125,1.59375 l -2.1875,1.5625 -0.53125,0 -0.53125,0 -0.5625,-0.875 -0.5625,-0.875 -0.53125,0 c -0.287827,0 -1.021287,0.321675 -1.65625,0.71875 l -1.15625,0.71875 -0.96875,-0.09375 -0.9375,-0.125 -0.125,-1.8125 -0.09375,-1.84375 -1.09375,-0.28125 -1.125,-0.28125 -0.09375,-0.78125 -0.125,-0.75 -0.3125,0 z m 33.03125,0.96875 -0.46875,0.625 -0.46875,0.65625 0.59375,0.4375 c 0.3274,0.242212 0.773811,0.4375 1,0.4375 l 0.40625,0 0.1875,-0.6875 0.1875,-0.71875 -0.71875,-0.375 -0.71875,-0.375 z m 10.8125,0.3125 -0.875,0.8125 c -0.851528,0.809414 -1.155618,1.75 -0.5625,1.75 0.167925,0 0.568611,-0.401838 0.875,-0.875 0.306426,-0.473163 0.5625,-1.04907 0.5625,-1.28125 l 0,-0.40625 z m 31.375,0.03125 0,0.375 c 0,0.165995 0.204936,0.673038 0.4375,1.21875 0.397251,-0.437073 0.773321,-0.893773 1.15625,-1.34375 l -0.28125,-0.0625 -1.3125,-0.1875 z m -54.875,0.09375 c -0.131274,0 -0.667094,0.50111 -1.1875,1.125 l -0.96875,1.125 0.78125,0.125 0.75,0.09375 0.40625,0.9375 c 0.217432,0.513138 0.441598,1.011755 0.5,1.09375 0.05842,0.08196 0.545304,-0.280853 1.09375,-0.8125 l 1,-0.96875 0.59375,0.125 c 0.680881,0.135406 1.08548,0.732685 1.375,2.125 0.109802,0.527908 0.318143,0.9375 0.46875,0.9375 0.150616,0 0.704689,-0.455352 1.25,-1.03125 0.54531,-0.575894 1.172989,-1.0625 1.40625,-1.0625 l 0.4375,0 0.6875,0.96875 0.6875,0.96875 0.40625,-0.90625 0.40625,-0.875 -1.09375,-1.1875 -1.0625,-1.15625 -1,0.96875 -1,0.96875 -0.53125,-0.21875 c -0.295916,-0.11488 -0.53125,-0.345748 -0.53125,-0.53125 0,-0.185464 -0.18508,-0.744638 -0.375,-1.25 l -0.34375,-0.9375 -1,0.75 c -0.550863,0.39688 -1.243275,0.71875 -1.5625,0.71875 l -0.59375,0 -0.375,-1.0625 c -0.214823,-0.575896 -0.493744,-1.03125 -0.625,-1.03125 z m 16.25,0.28125 0,0.59375 0,0.59375 0.59375,0.46875 0.59375,0.4375 0.3125,-0.28125 0.28125,-0.28125 -0.125,-0.65625 -0.125,-0.65625 -0.75,-0.09375 -0.78125,-0.125 z m 10.34375,0.96875 -0.21875,0.25 -0.25,0.21875 0.40625,0.875 0.40625,0.875 0.6875,0 0.6875,0 0,-0.28125 c 0,-0.158489 -0.370189,-0.6436 -0.84375,-1.09375 l -0.875,-0.84375 z m 27.4375,0.4375 -0.28125,1.03125 -0.125,0.5625 c 0.06245,-0.06275 0.12536,-0.124442 0.1875,-0.1875 0.201245,-0.215566 0.389772,-0.442391 0.59375,-0.65625 l -0.375,-0.75 z m -23.65625,0.40625 0,0.21875 c 0,0.132073 0.354362,0.765589 0.78125,1.40625 l 0.78125,1.1875 0.875,0.1875 c 0.474323,0.104809 1.151797,0.303468 1.53125,0.46875 0.935148,0.407314 0.936077,0.401921 0.65625,-0.09375 -0.135483,-0.239957 -0.758941,-1.090394 -1.40625,-1.90625 l -1.1875,-1.46875 -1,0 -1.03125,0 z m -17.96875,0.5 -0.5,0.6875 c -0.273649,0.372628 -0.5,0.887812 -0.5,1.125 l 0,0.40625 0.625,0.15625 c 0.332018,0.08779 0.788156,0.196466 1.03125,0.21875 l 0.4375,0.03125 0.21875,-0.5625 0.21875,-0.53125 -0.78125,-0.75 -0.75,-0.78125 z m 11.3125,0.1875 -0.8125,0.90625 c -0.445754,0.486691 -0.8125,1.036678 -0.8125,1.21875 0,0.623384 0.57622,0.32013 1.3125,-0.6875 l 0.75,-1 -0.21875,-0.21875 -0.21875,-0.21875 z m 23.5625,0 0,0.71875 0,0.75 -1.0625,0.40625 -1.0625,0.40625 0.21875,2.125 0.25,2.125 -0.59375,0.5625 c -0.310455,0.314138 -0.629893,0.59375 -0.71875,0.59375 -0.08888,0 -0.773372,-0.327559 -1.53125,-0.71875 l -1.375,-0.71875 -0.34375,0.21875 c -0.19494,0.121868 -0.514159,0.601236 -0.6875,1.0625 l -0.3125,0.84375 -0.6875,0 -0.71875,0 -2.53125,-2.4375 -2.53125,-2.4375 -0.71875,0 c -0.393665,0 -0.798933,0.13678 -0.90625,0.3125 l -0.21875,0.3125 0.875,1.03125 0.84375,1.03125 1.34375,0.21875 1.34375,0.21875 2.3125,2.624996 1.21875,1.34375 c 0.64814,-0.3281 1.30377,-0.68047 1.9375,-1.03125 0.580164,-0.32113 1.15169,-0.62787 1.71875,-0.96875 0.05198,-0.0316 0.104382,-0.062 0.15625,-0.0937 0.694387,-0.42063 1.358383,-0.860829 2.03125,-1.312496 0.526628,-0.355783 1.049322,-0.720098 1.5625,-1.09375 l 0.03125,-1.03125 1.03125,-0.1875 0.625,-0.09375 c 0.145136,-0.114679 0.293575,-0.227617 0.4375,-0.34375 l 0.0625,-0.3125 0.125,-0.59375 -0.75,-1.75 -0.75,-1.78125 -0.3125,0 -0.3125,0 z m 1.5,4.78125 c -0.517084,0.408575 -1.031925,0.826081 -1.5625,1.21875 0.532161,-0.389822 1.045396,-0.81016 1.5625,-1.21875 z m -9.09375,5.812496 c -0.773706,0.39166 -1.551648,0.76752 -2.34375,1.125 0.794181,-0.3548 1.570402,-0.73352 2.34375,-1.125 z m -23.21875,-10.281246 -0.375,0.375 -0.375,0.40625 0.875,0.65625 0.84375,0.65625 0.34375,-0.34375 0.375,-0.375 -0.84375,-0.6875 -0.84375,-0.6875 z m -18.125,0.75 c -0.421295,0.02155 -1.75,1.305732 -1.75,1.6875 l 0,0.375 0.5,0 0.53125,0 0.3125,0.8125 c 0.170248,0.431925 0.414863,1.069851 0.53125,1.4375 l 0.21875,0.65625 1.15625,-1.125 1.15625,-1.125 0.78125,0.125 0.8125,0.09375 0.28125,1.5 0.3125,1.46875 0.375,0 c 0.205897,0 0.865936,-0.575666 1.46875,-1.28125 l 1.09375,-1.28125 0.5625,0.21875 0.59375,0.25 0.34375,0.875 0.3125,0.875 0.34375,0 c 0.294694,0 1.40625,-1.750802 1.40625,-2.21875 0,-0.08751 -0.306081,-0.06957 -0.6875,0.03125 l -0.6875,0.1875 -0.375,-1.09375 c -0.206323,-0.598814 -0.48933,-1.09375 -0.625,-1.09375 -0.135697,0 -0.697411,0.478921 -1.25,1.0625 l -1,1.0625 -0.71875,-0.09375 -0.6875,-0.09375 -0.125,-0.71875 c -0.07227,-0.383922 -0.26375,-1.068445 -0.4375,-1.53125 l -0.34375,-0.84375 -1.15625,1.15625 -1.1875,1.15625 -0.53125,-0.21875 -0.5625,-0.21875 -0.375,-1.0625 c -0.199288,-0.578433 -0.470014,-1.037635 -0.59375,-1.03125 z m 54.5625,0.125 -0.46875,0.15625 -1.0625,0.375 0.21875,0.71875 c 0.448604,-0.406404 0.877814,-0.828918 1.3125,-1.25 z m -75.09375,0.03125 c 0.382108,0.369546 0.763394,0.735516 1.15625,1.09375 l 0.09375,-0.78125 -1.25,-0.3125 z m 50.3125,0.8125 -0.8125,0.125 -0.78125,0.125 0.75,0.9375 0.75,0.96875 0.46875,0 c 0.25962,0 0.551176,-0.14055 0.65625,-0.3125 l 0.1875,-0.3125 -0.625,-0.78125 -0.59375,-0.75 z m -36.5625,0.75 -1.21875,1.03125 -1.1875,1.03125 0.9375,0.03125 0.9375,0 0.59375,0.90625 0.5625,0.875 1.375,-1.3125 1.34375,-1.34375 -0.90625,-0.09375 -0.90625,-0.125 -0.1875,-0.5 -0.1875,-0.5 -0.59375,0 -0.5625,0 z m 32.65625,0.28125 -0.875,0.65625 -0.875,0.65625 0,0.4375 -0.03125,0.40625 0.34375,0 c 0.184818,0 0.601305,-0.465808 0.90625,-1.0625 l 0.53125,-1.09375 z m -7.875,0.09375 -0.21875,0.21875 c -0.118921,0.120338 -0.21875,0.50589 -0.21875,0.84375 l 0,0.625 0.59375,0.15625 c 0.909066,0.245846 1.566004,0.120491 1.71875,-0.34375 l 0.125,-0.4375 -1,-0.53125 -1,-0.53125 z m -4.8125,0.34375 -0.40625,0.875 c -0.220169,0.488951 -0.40625,0.975551 -0.40625,1.0625 0,0.08694 0.319257,0.15625 0.6875,0.15625 l 0.65625,0 0.21875,0.34375 0.21875,0.375 0.40625,-0.125 0.40625,-0.125 0.125,-0.8125 0.09375,-0.78125 -0.625,-0.46875 c -0.347232,-0.266255 -0.793305,-0.493892 -1,-0.5 l -0.375,0 z m -27,0.53125 -1.90625,0.9375 -0.3125,0.15625 c 0.05246,0.04063 0.103562,0.08465 0.15625,0.125 0.53723,0.411461 1.099734,0.800093 1.65625,1.1875 0.611095,0.425401 1.219261,0.843959 1.84375,1.25 0.09978,-0.08395 0.179154,-0.131105 0.28125,-0.21875 1.032153,-0.886067 1.967629,-1.685059 2.0625,-1.78125 0.09484,-0.0962 -0.377351,-0.07943 -1.03125,0.0625 l -1.1875,0.28125 -0.78125,-1 -0.78125,-1 z m 11.90625,0.5 c -0.219915,0 -0.9186,0.516686 -1.53125,1.15625 l -1.09375,1.1875 1.0625,-0.1875 1.09375,-0.15625 0.3125,0.5 c 0.165817,0.264854 0.278358,0.909597 0.28125,1.437496 l 0.03125,0.9375 0.375,0 c 0.212115,0 0.933226,-0.47568 1.59375,-1.062496 l 1.1875,-1.0625 0.90625,0.125 0.90625,0.09375 0.28125,1.406246 c 0.152375,0.76787 0.362574,1.61831 0.46875,1.90625 l 0.1875,0.53125 0.8125,-0.9375 c 0.442372,-0.51741 1.022012,-1.29908 1.3125,-1.71875 l 0.53125,-0.749996 0.53125,0.1875 0.53125,0.21875 0.5,1.249996 c 0.280896,0.68023 0.653992,1.21875 0.8125,1.21875 0.328194,0 1.46875,-1.8449 1.46875,-2.375 l 0,-0.343746 -0.6875,0.1875 -0.65625,0.156246 -0.59375,-1.249996 c -0.326395,-0.692501 -0.742842,-1.25 -0.90625,-1.25 -0.163401,0 -0.551807,0.481235 -0.875,1.0625 l -0.59375,1.03125 -0.78125,0.21875 -0.78125,0.187496 -0.46875,-0.187496 -0.5,-0.1875 -0.21875,-1.40625 c -0.130477,-0.78123 -0.307903,-1.4375 -0.40625,-1.4375 -0.09834,0 -0.80228,0.515785 -1.5625,1.125 l -1.40625,1.09375 -0.5625,-0.34375 -0.5625,-0.375 -0.3125,-1.09375 -0.3125,-1.09375 -0.375,0 z m 32.0625,0.6875 c -0.26263,0 -0.558108,0.151846 -0.65625,0.3125 l -0.1875,0.28125 0.53125,0.75 0.5,0.75 0.6875,0 0.65625,0 0,-0.25 c 0,-0.149249 -0.235892,-0.635861 -0.53125,-1.0625 l -0.53125,-0.78125 -0.46875,0 z m -38.375,0.59375 -1.78125,1.3125 c -0.5881,0.436793 -1.083964,0.866208 -1.40625,1.1875 0.26379,0.163606 0.514458,0.340836 0.78125,0.499996 l 0.5625,-0.15625 0.78125,0.90625 c 0.01251,0.007 0.01874,0.0243 0.03125,0.0312 0.03254,0.0181 0.06111,0.0444 0.09375,0.0625 0.135598,0.0752 0.26994,0.1447 0.40625,0.21875 0.258662,0.13939 0.521673,0.27063 0.78125,0.40625 0.322926,-0.23198 0.833044,-0.6631 1.40625,-1.1875 l 1.53125,-1.374996 -0.9375,-0.03125 -0.90625,0 -0.6875,-0.9375 -0.65625,-0.9375 z m 0.25,4.468746 c 0.901282,0.47089 1.819724,0.92315 2.75,1.34375 -0.930276,-0.4206 -1.848718,-0.87286 -2.75,-1.34375 z m 2.75,1.34375 c 0.09432,0.0426 0.186639,0.0829 0.28125,0.125 -0.028,-0.0523 -0.07675,-0.1703 -0.09375,-0.1875 -0.02698,-0.0273 -0.09709,0.0201 -0.1875,0.0625 z m 22.78125,-5.343746 0,0.5625 0,0.59375 0.59375,0.4375 c 0.749321,0.575516 1.339441,0.612406 1.65625,0.09375 l 0.25,-0.375 -0.8125,-0.65625 c -0.454174,-0.353321 -1.01284,-0.65198 -1.25,-0.65625 l -0.4375,0 z m 8.1875,0.4375 -0.65625,0.15625 -0.625,0.1875 0,0.46875 0,0.5 0.46875,0 0.46875,0 0.15625,-0.65625 0.1875,-0.65625 z m -12.84375,0.21875 -0.4375,0.625 c -0.240197,0.332343 -0.4375,0.811234 -0.4375,1.062496 l 0,0.4375 0.6875,0 0.65625,0 0.21875,0.375 0.21875,0.375 0.375,-0.125 c 0.201627,-0.0679 0.505335,-0.46223 0.65625,-0.875 l 0.25,-0.749996 -1.09375,-0.5625 -1.09375,-0.5625 z m 21.90625,0.53125 0,0.34375 c 0,0.183304 0.391022,0.857986 0.875,1.499996 l 0.875,1.15625 0.9375,0.0312 c 0.512094,0.0134 1.245547,0.15812 1.625,0.3125 0.379459,0.15441 0.76072,0.2009 0.84375,0.125 0.08303,-0.076 -0.527645,-0.81489 -1.34375,-1.65625 l -1.5,-1.531246 -1.15625,-0.15625 -1.15625,-0.125 z m -38.28125,0.5625 c -0.133687,0 -0.67344,0.455336 -1.21875,1.031246 l -1,1.0625 0.90625,0 0.875,0 0.21875,0.53125 c 0.115184,0.30365 0.1875,0.96727 0.1875,1.4375 l 0,0.28125 c 0.193687,0.0795 0.395516,0.14526 0.59375,0.21875 0.298422,0.11844 0.605243,0.23051 0.90625,0.34375 l 0.9375,-0.875 1.375,-1.25 0.65625,0 c 0.367724,0 0.760545,0.15635 0.875,0.34375 0.114464,0.18738 0.324628,1.12935 0.4375,2.09375 l 0.125,1.15625 c 0.114185,0.032 0.22931,0.0622 0.34375,0.0937 0.250986,0.0685 0.497572,0.1538 0.75,0.21875 0.0195,0.005 0.04299,-0.005 0.0625,0 l 0.9375,-1.3125 1.125,-1.5625 0.6875,0.0937 0.71875,0.0937 0.625,1.3125 c 0.347651,0.71988 0.767265,1.3125 0.90625,1.3125 0.138966,0 0.495859,-0.54686 0.8125,-1.21875 l 0.59375,-1.21875 -0.875,0 -0.84375,0 -0.5625,-1.3125 -0.53125,-1.3125 -1.09375,1.25 c -0.601814,0.69059 -1.34041,1.33819 -1.625,1.4375 l -0.5,0.1875 -0.5625,-0.28125 -0.5625,-0.3125 -0.25,-1.5625 -0.21875,-1.59375 -0.40625,0.0312 c -0.225512,0.008 -0.96813,0.46315 -1.625,1.03125 l -1.1875,1.03125 -0.5625,0 c -0.72172,0 -1.226028,-0.61334 -1.53125,-1.84375 -0.130679,-0.52683 -0.366328,-0.937496 -0.5,-0.937496 z m 1.46875,4.906246 c 0.363695,0.13682 0.72637,0.2771 1.09375,0.40625 -0.36738,-0.12915 -0.730055,-0.26943 -1.09375,-0.40625 z m 1.09375,0.40625 c 0.734229,0.25812 1.470386,0.49186 2.21875,0.71875 -0.03829,-0.3883 -0.113907,-0.78461 -0.1875,-1.0625 l -0.21875,-0.78125 -0.4375,0 -0.46875,0 -0.90625,1.125 z m 2.21875,0.71875 c 0.0028,8.5e-4 -0.0028,0.0304 0,0.0312 0.24536,0.0743 0.503176,0.11657 0.75,0.1875 -0.248555,-0.0788 -0.50197,-0.14355 -0.75,-0.21875 z m 29,-5.34375 0,0.375 c 0,0.20457 0.178614,0.69118 0.375,1.0625 l 0.34375,0.65625 1.03125,0 1.0625,0 -0.625,-1.03125 -0.59375,-1.0625 -0.8125,0 -0.78125,0 z m -12.75,0.6875 0,0.625 0,0.625 0.78125,0.375 c 0.955018,0.47554 1.412345,0.3979 1.53125,-0.25 l 0.09375,-0.5 -0.9375,-0.4375 c -0.514646,-0.23995 -1.03561,-0.4375 -1.1875,-0.4375 l -0.28125,0 z m 8.65625,0.0937 -0.875,0.1875 c -0.97689,0.18893 -1.087605,0.43633 -0.46875,1.0625 0.492014,0.4978 0.96875,0.54141 0.96875,0.0937 0,-0.17628 0.08156,-0.53336 0.1875,-0.8125 l 0.1875,-0.53125 z m -14.0625,0.96875 -0.40625,0.875 c -0.220167,0.48895 -0.40625,0.96227 -0.40625,1.03125 0,0.0691 0.279718,0.0601 0.625,-0.0312 l 0.625,-0.1875 0.46875,0.5625 c 0.606649,0.73958 0.933212,0.67559 1.40625,-0.21875 l 0.40625,-0.75 -0.8125,-0.625 c -0.449412,-0.34969 -1.07344,-0.65198 -1.375,-0.65625 l -0.53125,0 z m 14.71875,0.34375 0,0.5625 0,0.53125 0.34375,-0.21875 c 0.189722,-0.11866 0.34375,-0.35062 0.34375,-0.53125 0,-0.18063 -0.154045,-0.34375 -0.34375,-0.34375 l -0.34375,0 z m 11.84375,1.03125 -1.1875,0.0937 -1.5,0.0937 0.59375,0.6875 c 0.186348,-0.0727 0.377165,-0.14402 0.5625,-0.21875 0.282351,-0.11278 0.563661,-0.22651 0.84375,-0.34375 0.234392,-0.0991 0.454813,-0.21016 0.6875,-0.3125 z m -20.90625,0.28125 -0.28125,0.46875 -0.28125,0.5 0.9375,0.75 c 0.514163,0.42565 1.060273,0.74314 1.25,0.6875 0.189724,-0.0556 0.414968,-0.41236 0.46875,-0.78125 l 0.09375,-0.65625 -1.09375,-0.5 -1.09375,-0.46875 z m 8.375,0 -0.5,0.40625 -0.5,0.4375 0.1875,0.5 c 0.271733,0.7165 0.736693,0.62061 1,-0.21875 l 0.21875,-0.75 -0.1875,-0.1875 -0.21875,-0.1875 z m 4.78125,0.0937 0.40625,0.71875 0.375,0.71875 0.75,0.3125 c 0.07994,0.0326 0.163578,0.0635 0.25,0.0937 0.02183,-0.007 0.04068,-0.0246 0.0625,-0.0312 0.262024,-0.0808 0.521761,-0.16431 0.78125,-0.25 0.07249,-0.0234 0.146398,-0.0388 0.21875,-0.0625 -0.16177,-0.25586 -0.410945,-0.61724 -0.65625,-0.90625 l -0.53125,-0.59375 -0.8125,0 -0.84375,0 z m 5.375,0.59375 c -0.774019,0.29592 -1.553154,0.58254 -2.34375,0.84375 0.79068,-0.26211 1.569753,-0.54656 2.34375,-0.84375 z m -8,0.375 -0.46875,0.125 c -0.248985,0.084 -0.510719,0.37305 -0.59375,0.625 l -0.15625,0.46885 0.46875,-0.15625 c 0.249018,-0.084 0.510754,-0.37305 0.59375,-0.625 l 0.15625,-0.4375 z m -22.125,0.0625 c -0.156075,0 -0.761873,0.7299 -1.375,1.59375 l -0.125,0.15625 c 0.205035,0.0477 0.418537,0.0813 0.625,0.125 0.260929,0.0575 0.51892,0.13382 0.78125,0.1875 0.489669,0.094 0.976254,0.16336 1.46875,0.25 l -0.46875,-1 c -0.334268,-0.71987 -0.750191,-1.3125 -0.90625,-1.3125 z m 1.375,2.3125 c 0.84014,0.14779 1.678204,0.26653 2.53125,0.375 -0.853098,-0.10992 -1.687475,-0.22657 -2.53125,-0.375 z m 2.53125,0.375 c 0.860428,0.10941 1.721174,0.21283 2.59375,0.28125 -0.868833,-0.0681 -1.740652,-0.17133 -2.59375,-0.28125 z m 2.59375,0.28125 c 0.488151,0.0383 0.977037,0.0998 1.46875,0.125 l 0.21875,-0.46875 c 0.512987,-1.13914 0.510107,-1.21875 -0.125,-1.21875 -0.29129,0 -0.925207,-0.23305 -1.375,-0.53125 l -0.8125,-0.5625 -0.53125,0.78125 -0.53125,0.78125 0.1875,0.28125 c 0.09816,0.16069 0.374839,0.3125 0.625,0.3125 0.250152,0 0.638805,0.21205 0.875,0.5 z m 19.84375,-2.09375 c -0.844491,0.25381 -1.698761,0.50416 -2.5625,0.71875 0.861792,-0.21298 1.717577,-0.46494 2.5625,-0.71875 z m -3.21875,0.84375 c -0.715587,0.16839 -1.431852,0.33008 -2.15625,0.46875 0.723488,-0.13828 1.443322,-0.30191 2.15625,-0.46875 z m -11.5,0.0312 -0.3125,0.1875 c -0.172933,0.10809 -0.3125,0.44211 -0.3125,0.71875 l 0,0.5 c 0.156849,-6.2e-4 0.312219,0.002 0.46875,0 0.752107,-0.009 1.505601,-0.0226 2.25,-0.0625 l 0.03125,-0.125 -1.0625,-0.59375 -1.0625,-0.625 z m 8.53125,0.375 c -0.266257,0.044 -0.565029,0.15536 -0.6875,0.3125 0.198583,-0.0322 0.395797,-0.064 0.59375,-0.0937 0.197851,-0.0343 0.396644,-0.0573 0.59375,-0.0937 0,-0.14567 -0.233743,-0.16901 -0.5,-0.125 z"
     inkscape:connector-curvature="0"
     id="path3850"
     style="fill:#3f51b5;fill-opacity:1;stroke:none" />
</svg>
