<?xml version="1.0" encoding="UTF-8" standalone="no"?>
<!-- Created with Inkscape (http://www.inkscape.org/) -->

<svg
   xmlns:dc="http://purl.org/dc/elements/1.1/"
   xmlns:cc="http://creativecommons.org/ns#"
   xmlns:rdf="http://www.w3.org/1999/02/22-rdf-syntax-ns#"
   xmlns:svg="http://www.w3.org/2000/svg"
   xmlns="http://www.w3.org/2000/svg"
   xmlns:inkscape="http://www.inkscape.org/namespaces/inkscape"
   version="1.1"
   width="108"
   height="108"
   id="svg3840">
  <metadata
     id="metadata3846">
    <rdf:RDF>
      <cc:Work
         rdf:about="">
        <dc:format>image/svg+xml</dc:format>
        <dc:type
           rdf:resource="http://purl.org/dc/dcmitype/StillImage" />
        <dc:title />
      </cc:Work>
    </rdf:RDF>
  </metadata>
  <defs
     id="defs3844" />
  <path
     d="m 20.1875,18.15625 c 0.04046,0.207378 0.106714,0.587189 0.125,0.65625 l 0.09375,0.34375 0.1875,-0.15625 0.1875,-0.125 -0.125,-0.71875 -0.46875,0 z m 8.46875,0 0.125,0.21875 0.28125,0.53125 0.3125,-0.28125 0.3125,-0.3125 0.6875,0.1875 0.6875,0.15625 0.125,-0.28125 0.125,-0.21875 -2.65625,0 z m 7.8125,0 -0.125,0.1875 -0.125,0.28125 -0.8125,0 -0.8125,0 0,0.25 c 0,0.144483 0.112039,0.477272 0.25,0.75 l 0.25,0.5 L 35.4375,20 c 0.192827,-0.0783 0.627716,-0.125 0.9375,-0.125 l 0.53125,0 0,-0.71875 0,-0.75 -0.1875,-0.15625 -0.15625,-0.09375 -0.09375,0 z m 2.125,0 0.03125,0.15625 0.0625,0.65625 0.875,0.1875 0.875,0.125 0.28125,0.28125 c 0.147212,0.155764 0.382575,0.3125 0.53125,0.3125 l 0.28125,0 0.21875,-1.5625 0.03125,-0.15625 -0.78125,0 -0.15625,0.21875 -0.375,0 c -0.168321,0 -0.431226,-0.08929 -0.65625,-0.21875 l -1.21875,0 z m 4,0 C 42.553782,18.406909 42.5,18.715278 42.5,19.09375 l 0,1.15625 -0.25,0.3125 -0.28125,0.28125 -0.5,0 -0.53125,0 -0.28125,-0.40625 c -0.159476,-0.20335 -0.440415,-0.34375 -0.625,-0.34375 l -0.34375,0 0.0625,0.8125 0.0625,0.78125 0.8125,0.03125 0.8125,0.09375 0.21875,0.25 c 0.138642,0.146715 0.400371,0.25 0.5625,0.25 l 0.28125,0 0.15625,-1.25 0.1875,-1.21875 0.40625,-0.25 c 0.230688,-0.130639 0.463236,-0.21875 0.53125,-0.21875 0.06802,0 0.505385,0.350724 0.96875,0.78125 l 0.8125,0.75 0.25,-0.3125 c 0.115602,-0.19332 0.216782,-0.640517 0.21875,-0.96875 l 0,-0.59375 0.375,-0.4375 0.34375,-0.4375 -0.90625,0 -0.15625,1.09375 -0.59375,0.0625 -0.53125,0.09375 -0.875,-0.875 -0.34375,-0.375 -0.75,0 z m 1.78125,0 c 0.176808,0.133446 0.334825,0.21875 0.40625,0.21875 l 0.28125,0 0.03125,-0.21875 -0.71875,0 z m 3.15625,0 0.5,0.5 0.5625,0.5625 0.125,-0.15625 c 0.06362,-0.0673 0.144446,-0.460079 0.21875,-0.90625 l -1.40625,0 z m 2.1875,0 -0.0625,0.59375 0.40625,-0.34375 0.28125,-0.25 -0.625,0 z m 1,0 L 51.1875,18.25 52,18.40625 l 0.125,-0.1875 c 0.0039,-0.0067 -0.0043,-0.05226 0,-0.0625 l -1.40625,0 z m 3.40625,0 c -0.238157,0.433864 -0.875,2.392394 -0.875,2.78125 0,0.239926 0.406821,0.172761 0.5625,-0.09375 l 0.125,-0.25 0.90625,0 0.90625,0 0.28125,-0.71875 c 0.153982,-0.3933 0.509055,-0.948336 0.8125,-1.25 l 0.46875,-0.46875 -1.5625,0 -0.28125,0.15625 -0.40625,-0.15625 -0.9375,0 z m 3.5,0 0.15625,0.0625 0.34375,0.125 0.5,0.90625 c 0.266305,0.477693 0.54913,0.84375 0.65625,0.84375 0.107135,0 0.46819,-0.09285 0.78125,-0.21875 l 0.5625,-0.25 0.5,0.40625 0.5625,0.375 -0.1875,-1.5625 c -0.02772,-0.257434 -0.065,-0.461134 -0.09375,-0.6875 l -3.78125,0 z m 5.5625,0 0.65625,0.71875 c 0.360433,0.398131 0.739612,0.71875 0.84375,0.71875 l 0.1875,0 0,-1.1875 0,-0.25 -1.6875,0 z m 4.65625,0 0.21875,0.28125 0.4375,0.46875 0.0625,-0.75 -0.71875,0 z m 11.0625,0 0.125,0.28125 0.40625,0.90625 0.28125,0 c 0.138736,0.0047 0.294099,-0.03942 0.375,-0.125 l 0.15625,-0.1875 -0.34375,-0.5 -0.28125,-0.375 -0.71875,0 z m 4.8125,0 0.21875,0.25 c 0.130657,0.175197 0.290818,0.658459 0.375,1.03125 l 0.15625,0.65625 0.40625,0 c 0.243296,0 0.637827,-0.04142 0.84375,-0.125 l 0.375,-0.1875 -0.3125,-0.375 c -0.163242,-0.208101 -0.36869,-0.705021 -0.5,-1.125 l -0.03125,-0.125 -1.53125,0 z m 2.34375,0 0,0.21875 0.53125,0 c 0.265764,-0.0018 0.612872,-0.102689 0.8125,-0.21875 l -1.34375,0 z m -23.8125,0.125 0.09375,1.375 0.125,1.375 0.40625,0.625 0.375,0.65625 0.34375,0 0.34375,0 0,-1 0,-1.03125 L 63.09375,19.3125 62.25,18.28125 z m -39.78125,0.0625 0,0.34375 c 0,0.190707 0.06817,0.438049 0.15625,0.53125 0.244145,0.258363 0.6875,0.01413 0.6875,-0.375 l 0,-0.3125 -0.4375,-0.125 -0.40625,-0.0625 z m 44.25,0.03125 0,1.09375 0,1.09375 0.3125,0.125 c 0.160122,0.0684 0.372673,0.114291 0.46875,0.125 l 0.1875,0.03125 0,-0.75 c 0,-0.838111 -0.372108,-1.71875 -0.71875,-1.71875 l -0.25,0 z m 6.21875,0 c -0.184607,0 -0.400617,0.102128 -0.46875,0.21875 l -0.125,0.21875 0.125,0.125 c 0.08192,0.08667 0.329208,0.15625 0.5,0.15625 l 0.28125,0 0,-0.34375 0,-0.375 -0.3125,0 z M 53,18.5625 l -0.46875,0.40625 -0.4375,0.4375 -0.6875,-0.15625 -0.71875,-0.1875 -0.25,0.65625 c -0.128755,0.358351 -0.21875,0.84864 -0.21875,1.09375 l 0,0.46875 1,0.03125 1.03125,0 0.375,-1.15625 C 52.827576,19.527243 53,18.913675 53,18.78125 l 0,-0.21875 z m -21.15625,0.28125 -0.15625,0.25 -0.125,0.28125 -0.8125,0 c -0.440792,0 -0.8125,0.037 -0.8125,0.09375 0,0.05668 0.07565,0.277758 0.15625,0.5 L 30.25,20.375 30.5625,20.21875 c 0.186098,-0.07556 0.65742,-0.125 1.03125,-0.125 l 0.6875,0 0,-0.46875 c 0,-0.263092 -0.09944,-0.547012 -0.21875,-0.625 l -0.21875,-0.15625 z m 38.84375,0.03125 0,0.375 0,0.34375 0.25,0 0.25,0 0,-0.34375 0,-0.375 -0.25,0 -0.25,0 z m 7.375,0 c -0.170793,0 -0.356609,0.03943 -0.4375,0.125 l -0.15625,0.1875 0.34375,0.5 c 0.187647,0.283489 0.375,0.72779 0.375,0.96875 l 0,0.40625 0.28125,0 c 0.166557,0 0.390336,-0.100889 0.53125,-0.25 l 0.28125,-0.25 -0.4375,-0.5 c -0.243396,-0.257544 -0.4375,-0.609162 -0.4375,-0.8125 l 0,-0.375 -0.34375,0 z m 11.78125,0 c -0.248976,0.02146 -0.659633,0.18058 -0.9375,0.34375 L 88.375,19.5 l 0.375,0.34375 0.34375,0.3125 0,0.6875 c 0,0.381257 -0.08589,1.005202 -0.21875,1.375 l -0.25,0.65625 0.1875,0.1875 0.1875,0.21875 0.84375,-0.25 0,-4.15625 z m -42.625,0.1875 -0.28125,0.1875 -0.21875,0.15625 0,0.46875 c 0,0.267435 -0.158132,0.873638 -0.34375,1.34375 l -0.34375,0.84375 -0.28125,0 -0.34375,0 -0.78125,-0.84375 -0.78125,-0.875 -0.1875,0.15625 -0.21875,0.125 0,0.84375 0,0.875 -0.21875,0.46875 -0.25,0.5 -0.5625,0 -0.53125,0 -0.28125,-0.375 c -0.159511,-0.203387 -0.387596,-0.375 -0.5,-0.375 l -0.21875,0 0,1 0,1.03125 0.71875,-0.1875 L 42.25,24.25 l 0.4375,0.28125 c 0.229053,0.141066 0.503471,0.245836 0.59375,0.25 0.09028,0.0044 0.20141,-0.397894 0.28125,-0.90625 0.07985,-0.508357 0.199938,-1.080553 0.25,-1.25 l 0.09375,-0.3125 0.5,0 0.46875,0 0.65625,0.53125 0.6875,0.53125 0.25,-0.15625 0.25,-0.1875 0,-0.5625 0,-0.59375 0.46875,-0.5625 0.4375,-0.59375 0.65625,0.6875 0.6875,0.65625 0.25,-0.3125 0.28125,-0.28125 0,-0.8125 0,-0.78125 -0.4375,0.28125 -0.46875,0.28125 -0.6875,-0.6875 -0.6875,-0.6875 z m 10.625,0.03125 -0.28125,0.0625 -0.25,0 -0.71875,1.125 -0.6875,1.1875 -0.90625,0 -0.9375,0 -0.25,1 c -0.147036,0.542281 -0.344149,1.284493 -0.4375,1.6875 l -0.15625,0.71875 0.4375,-0.40625 0.5,-0.46875 0.65625,0.15625 0.65625,0.15625 0.75,-1.25 0.75,-1.21875 0.34375,0 0.375,0 0.46875,0.875 0.5,0.84375 0.875,-0.125 0.90625,-0.15625 0.21875,0.5625 C 60.766726,24.160474 60.917262,25.132721 61,26 l 0.125,1.5625 0.3125,0.34375 c 0.143781,0.183336 0.325067,0.3125 0.4375,0.3125 l 0.21875,0 0,-1.125 0,-1.15625 -0.5,-0.5625 -0.5,-0.5625 L 60.875,22.875 c -0.124364,-1.063486 -0.306192,-1.987037 -0.40625,-2.09375 l -0.15625,-0.1875 -0.59375,0.21875 -0.5625,0.21875 -0.375,-0.21875 -0.34375,-0.1875 -0.3125,-0.75 -0.28125,-0.78125 z m 25.5,0.25 L 82.75,19.625 c -0.340683,0.164259 -0.65625,0.402803 -0.65625,0.5 0,0.09718 0.182826,0.300018 0.375,0.46875 0.19214,0.168763 0.34375,0.434114 0.34375,0.59375 0,0.159671 0.106163,0.41031 0.25,0.5625 l 0.28125,0.28125 0.5625,-0.28125 0.53125,-0.25 -0.34375,-0.4375 c -0.193099,-0.225729 -0.373045,-0.557332 -0.375,-0.75 -0.0024,-0.19264 -0.08178,-0.479861 -0.1875,-0.65625 l -0.1875,-0.3125 z M 23.875,19.5625 l 0,0.59375 c 0,0.330781 0.07196,0.660797 0.15625,0.75 l 0.15625,0.15625 0.34375,-0.25 c 0.171893,-0.150985 0.28125,-0.43826 0.28125,-0.625 0,-0.186734 -0.04022,-0.3125 -0.09375,-0.3125 -0.0536,0 -0.2661,-0.105229 -0.46875,-0.1875 l -0.375,-0.125 z m 14.21875,0.1875 -0.4375,0.4375 -0.40625,0.40625 -0.5,0 -0.5,0 -0.125,0.25 -0.15625,0.25 0.125,0.625 0.15625,0.625 0.34375,-0.125 c 0.197273,-0.08011 0.627727,-0.15625 0.9375,-0.15625 l 0.5625,0 0,-1.15625 0,-1.15625 z m -14.96875,0.8125 -0.1875,0.375 -0.25,0.40625 0.15625,0.25 0.1875,0.28125 0.1875,-0.25 0.21875,-0.21875 -0.15625,-0.4375 L 23.125,20.5625 z m 53.34375,0.03125 0.15625,0.5625 c 0.08935,0.305052 0.243841,0.788743 0.3125,1.09375 0.137071,0.608884 0.247018,0.680524 0.75,0.34375 l 0.3125,-0.25 -0.4375,-0.875 -0.4375,-0.875 -0.3125,0 -0.34375,0 z M 33.0625,20.8125 32.25,20.875 l -0.78125,0.09375 -0.09375,0.4375 -0.09375,0.4375 0.96875,0 0.9375,0 0.09375,-0.21875 c 0.06319,-0.108138 0.03872,-0.358193 -0.0625,-0.53125 L 33.0625,20.8125 z M 88,20.84375 c -0.58487,0 -1.9375,0.473089 -1.9375,0.6875 0,0.09013 0.243007,0.303691 0.53125,0.4375 l 0.53125,0.21875 -0.03125,0.625 c -0.01571,0.338894 -0.09088,0.965675 -0.1875,1.40625 l -0.1875,0.8125 0.46875,0 c 0.257466,0 1.01978,-0.178068 1.6875,-0.40625 l 0.96875,-0.34375 0,-0.40625 -1,0.28125 -0.375,-0.28125 -0.4375,-0.28125 0.03125,-0.6875 C 88.0722,22.516338 88.181362,21.872789 88.28125,21.5 l 0.1875,-0.65625 -0.46875,0 z M 53.21875,21.21875 52.8125,21.75 52.375,22.34375 51.71875,22.25 l -0.6875,-0.0625 -0.375,1.46875 c -0.204445,0.815937 -0.433778,1.645618 -0.53125,1.8125 -0.259238,0.443937 -0.70786,0.373322 -1.1875,-0.1875 -0.231843,-0.271137 -0.51008,-0.5 -0.59375,-0.5 -0.08366,0 -0.254303,0.486367 -0.375,1.0625 L 47.75,26.875 47.28125,26.9375 46.78125,27 46.375,26.53125 c -0.236943,-0.277124 -0.546438,-0.5 -0.71875,-0.5 l -0.34375,0 0,0.78125 C 45.3101,27.253074 45.21419,27.79853 45.09375,28 L 44.875,28.34375 44.09375,28.0625 c -0.413657,-0.165195 -0.759839,-0.243192 -0.8125,-0.1875 -0.05264,0.05573 -0.02504,0.422025 0.0625,0.84375 l 0.15625,0.75 0.4375,-0.125 0.4375,-0.15625 0.40625,0.25 c 0.226774,0.139732 0.482794,0.245839 0.5625,0.25 0.0797,0.0044 0.229738,-0.421322 0.3125,-0.96875 l 0.15625,-1 0.34375,-0.15625 0.34375,-0.125 0.65625,0.625 0.59375,0.65625 0.21875,-0.875 0.25,-0.9375 0.40625,-0.25 0.40625,-0.28125 0.4375,0.46875 0.5,0.46875 0.25,-0.65625 c 0.13137,-0.365628 0.21875,-0.883712 0.21875,-1.125 l 0,-0.40625 0.40625,-0.40625 0.4375,-0.40625 0.65625,-0.0625 0.6875,-0.09375 0.3125,-1.21875 c 0.165261,-0.677805 0.281623,-1.333186 0.28125,-1.46875 l 0,-0.25 z m 12.8125,0.0625 0,0.71875 0,0.71875 L 66.3125,23 l 0.25,0.28125 0.21875,-0.125 0.21875,-0.125 0,-0.75 c 0,-0.398681 -0.0402,-0.71875 -0.09375,-0.71875 -0.0536,0 -0.297383,-0.04273 -0.5,-0.125 l -0.375,-0.15625 z M 25.3125,21.3125 c -0.06616,-0.0035 -0.107836,0.01515 -0.15625,0.03125 -0.06456,0.02148 -0.09375,0.06539 -0.09375,0.125 0,0.07666 0.106424,0.372358 0.25,0.65625 l 0.25,0.53125 0.25,-0.4375 0.21875,-0.375 L 25.875,21.5625 c -0.08471,-0.145011 -0.364021,-0.23981 -0.5625,-0.25 z m 36.3125,0 0,0.9375 c 0,0.513962 0.09546,1.295107 0.21875,1.75 l 0.21875,0.84375 0.40625,0.34375 0.4375,0.28125 0.0625,-1.21875 0.09375,-1.21875 -0.75,-0.875 -0.6875,-0.84375 z m 20.1875,0.03125 c -0.163634,0 -0.550906,0.157979 -0.84375,0.375 l -0.53125,0.40625 0.34375,0.40625 c 0.180817,0.223486 0.420482,0.60652 0.5,0.84375 0.169776,0.506697 0.380143,0.514239 1.1875,0.125 L 83.0625,23.21875 82.59375,22.75 l -0.5,-0.46875 0,-0.4375 0,-0.5 -0.28125,0 z m -10.875,0.5 c -0.112403,0 -0.309284,0.140395 -0.46875,0.34375 l -0.28125,0.375 0.46875,0 0.53125,0 0,-0.375 0,-0.34375 -0.25,0 z m -23.03125,0.1875 -0.25,0.15625 -0.25,0.15625 0,0.53125 0,0.5625 L 47.0625,24 l -0.375,0.53125 -0.3125,0 c -0.162536,0 -0.542872,-0.254815 -0.84375,-0.59375 -0.300875,-0.338896 -0.673932,-0.625 -0.84375,-0.625 l -0.28125,0 0,0.90625 -0.03125,0.9375 -0.1875,0.34375 -0.25,0.375 -0.78125,-0.3125 c -0.432631,-0.165478 -0.850505,-0.28125 -0.9375,-0.28125 l -0.15625,0 0,0.8125 c 0,0.45187 0.04713,0.917608 0.125,1 l 0.15625,0.125 0.4375,-0.3125 0.4375,-0.28125 0.5,0.34375 0.5,0.34375 0.1875,-0.375 c 0.108983,-0.181933 0.216813,-0.503857 0.21875,-0.75 0.0024,-0.246084 0.08619,-0.644042 0.21875,-0.90625 l 0.25,-0.5 0.34375,0 0.40625,0 0.4375,0.625 c 0.251928,0.338897 0.551719,0.625 0.65625,0.625 l 0.1875,0 0.15625,-0.84375 0.15625,-0.875 0.3125,-0.28125 0.34375,-0.3125 0.28125,0.1875 c 0.161748,0.08204 0.500718,0.271969 0.71875,0.4375 l 0.375,0.3125 L 49.625,24.5 c 0.07567,-0.08009 0.203824,-0.557635 0.28125,-1.0625 L 50.0625,22.53125 49.53125,22.84375 49.0625,23.1875 48.5,22.59375 47.90625,22.03125 z M 24.375,22.0625 c -0.120551,0 -0.306875,0.10214 -0.375,0.21875 L 23.90625,22.5 l 0.125,0.15625 c 0.262295,0.277578 0.5625,0.193635 0.5625,-0.1875 l 0,-0.40625 -0.21875,0 z m 51.3125,0 -0.28125,0.3125 -0.28125,0.375 0.375,0.78125 0.375,0.78125 0.25,-0.09375 L 76.40625,24.125 76.34375,23.40625 76.3125,22.71875 76,22.375 75.6875,22.0625 z m -57.25,0.09375 0,1.3125 c 0.293051,0.03194 0.435768,-0.08304 0.8125,-0.40625 L 19.8125,22.625 19.65625,22.46875 C 19.57608,22.38348 19.182221,22.253803 18.75,22.1875 L 18.4375,22.15625 z M 39.28125,22.5 38.875,22.6875 C 38.641389,22.791108 38.248891,22.879173 38,22.90625 l -0.46875,0.0625 -0.0625,0.3125 C 37.41729,23.444554 37.42812,23.739272 37.5,23.9375 l 0.125,0.34375 0.75,-0.09375 0.78125,-0.0625 0.0625,-0.8125 0.0625,-0.8125 z m -4.9375,0.0625 -0.84375,0.125 c -0.947124,0.124313 -1.12766,0.245937 -0.90625,0.625 l 0.15625,0.25 0.875,-0.15625 c 0.470394,-0.08995 0.89264,-0.178008 0.9375,-0.21875 0.04482,-0.04078 0.02237,-0.230131 -0.0625,-0.375 l -0.15625,-0.25 z m 51.78125,0 -0.8125,0.40625 c -0.46422,0.23427 -0.875,0.497799 -0.875,0.59375 0,0.09597 0.173574,0.26197 0.375,0.34375 l 0.34375,0.125 -0.15625,1.375 -0.15625,1.375 0.6875,-0.15625 c 0.367844,-0.0876 1.010263,-0.260359 1.4375,-0.375 L 87.75,26.03125 88.3125,26.25 l 0.5625,0.25 0,0.25 c 0,0.143422 -0.242228,0.799952 -0.5625,1.46875 -0.320244,0.6688 -0.625,1.328681 -0.625,1.46875 l 0,0.28125 0.46875,0 c 0.247884,0 0.733128,-0.131759 1.09375,-0.28125 l 0.59375,-0.25 0,-0.0625 -0.46875,-0.15625 -0.5,-0.25 0,-0.375 c 0,-0.211564 0.309115,-1.019306 0.6875,-1.8125 l 0.28125,-0.59375 0,-1.0625 -0.9375,0.28125 c -0.596798,0.19164 -1.470806,0.373539 -1.9375,0.375 l -0.84375,0 L 86,25.375 85.84375,25 86.125,23.9375 86.40625,22.8125 86.25,22.6875 86.125,22.5625 z m -59.6875,0.25 0,0.34375 c 0,0.180786 0.07194,0.379547 0.15625,0.46875 L 26.75,23.8125 27.0625,23.53125 27.375,23.25 27.25,23.03125 C 27.1798,22.911072 26.965839,22.8125 26.78125,22.8125 l -0.34375,0 z m 30.90625,0 c -0.03229,0 -0.41076,0.566098 -0.8125,1.25 l -0.71875,1.25 -0.875,-0.09375 -0.875,-0.0625 -0.375,1.46875 -0.375,1.46875 -0.78125,0.125 -0.78125,0.125 -0.25,1.25 -0.28125,1.21875 -0.8125,-0.03125 -0.875,0 -0.125,0.6875 -0.125,0.6875 -0.4375,0 -0.46875,0 -0.28125,-0.34375 c -0.159514,-0.203388 -0.34364,-0.375 -0.4375,-0.375 -0.09388,0 -0.252614,0.340667 -0.375,0.78125 L 47.0625,33.0625 46.28125,33 45.5,32.9375 l 0.15625,1.09375 0.15625,1.0625 -0.5,0.46875 -0.5,0.5 0.40625,1.375 0.4375,1.375 -0.34375,0.625 -0.3125,0.59375 0.40625,0.65625 0.40625,0.65625 -0.125,0.375 L 45.53125,42.0625 45.03125,42 44.5,41.9375 44,42.21875 43.53125,42.5 41.9375,41.59375 l -1.625,-0.875 -0.75,0.03125 -0.71875,0.0625 -1.75,-0.71875 C 36.110927,39.692892 34.992328,39.304127 34.625,39.21875 L 33.9375,39.0625 33.46875,39.34375 33.03125,39.6875 31.8125,39.375 c -0.660596,-0.161259 -1.561403,-0.28125 -2,-0.28125 l -0.78125,0 0,0.59375 0,0.5625 -0.3125,0.28125 c -0.172326,0.151345 -0.658366,0.320703 -1.0625,0.40625 -0.40413,0.08552 -0.75,0.251723 -0.75,0.34375 0,0.092 0.364136,0.571373 0.8125,1.03125 l 0.8125,0.8125 0,0.53125 c 0,0.285193 -0.110669,0.633824 -0.25,0.78125 l -0.25,0.25 0.875,0.6875 c 0.475292,0.388043 1.13217,0.953549 1.46875,1.25 L 31,47.1875 30.6875,47.71875 c -0.168989,0.292884 -0.259707,0.563758 -0.21875,0.59375 0.04095,0.02988 0.579242,0.38387 1.1875,0.78125 l 1.0625,0.71875 0,0.28125 c 2.11e-4,0.161775 -0.219489,0.448344 -0.5,0.65625 -0.280479,0.207913 -0.46257,0.424598 -0.40625,0.46875 0.05637,0.04413 0.397703,0.298017 0.75,0.53125 l 0.65625,0.375 0,0.375 0,0.3125 -0.59375,0.40625 c -0.32025,0.222064 -0.59375,0.523815 -0.59375,0.65625 l 0,0.21875 0.46875,0 0.5,0 L 33.125,54.5 33.28125,54.9375 33,55.40625 32.6875,55.875 32.875,56.03125 c 0.08279,0.0885 0.62011,0.301436 1.21875,0.4375 l 1.09375,0.21875 0.0625,0.59375 0.09375,0.59375 1.4375,-0.1875 1.46875,-0.15625 0.40625,0.40625 c 0.209645,0.221848 0.375,0.50551 0.375,0.625 l 0,0.1875 1.15625,-0.125 1.1875,-0.15625 0,0.53125 0,0.53125 -0.28125,0.15625 -0.25,0.125 0.15625,0.65625 0.125,0.65625 -1.40625,1.46875 -1.40625,1.46875 0,0.53125 0,0.53125 -1.46875,1.84375 c -0.814226,1.009806 -1.610013,2.0357 -1.75,2.3125 l -0.21875,0.53125 0.09375,0.46875 0.125,0.46875 -0.875,1.6875 -0.8125,1.6875 0.125,0.34375 0.125,0.34375 0.34375,0 0.375,0 0.1875,0.4375 0.21875,0.4375 -0.125,0.78125 -0.09375,0.8125 0.375,0 c 0.211789,0 0.803367,-0.225158 1.3125,-0.5 l 0.9375,-0.5 0.4375,0.25 c 0.254308,0.144101 0.46875,0.369209 0.46875,0.5 l 0,0.25 0.4375,-0.03125 0.375,0 1.1875,-0.96875 c 0.640514,-0.539368 1.256982,-0.967307 1.375,-0.96875 0.118046,-0.0014 0.396349,0.1873 0.625,0.40625 L 42.5,76.125 l 0.96875,-0.90625 1,-0.90625 0.40625,0 0.40625,0 0.15625,0.625 0.1875,0.625 0.21875,0 c 0.137952,0 0.49127,-0.242988 0.78125,-0.53125 L 47.15625,74.5 47.5,74.625 l 0.34375,0.15625 0.125,0.75 c 0.08634,0.415851 0.225385,0.75 0.3125,0.75 0.08713,0 0.308752,-0.228868 0.46875,-0.5 l 0.3125,-0.5 0.375,0 c 0.212978,0 0.559193,0.193605 0.78125,0.40625 l 0.40625,0.40625 0.75,-1.15625 0.75,-1.15625 0.40625,0.125 L 53,74 53.21875,73.75 c 0.123345,-0.157229 0.343924,-0.812758 0.5,-1.46875 L 54,71.0625 l 0.65625,-0.21875 0.59375,-0.25 0.15625,-0.96875 0.1875,-1 0.375,-0.15625 0.34375,-0.125 0.3125,0.46875 0.375,0.4375 0.46875,0 0.5,0 1,1.875 1,1.84375 0.625,0.40625 0.6875,0.375 0.96875,1.90625 c 0.541646,1.06161 1.160185,2.155056 1.375,2.40625 l 0.40625,0.4375 0.75,0 0.78125,0 1.21875,1.5 1.21875,1.46875 0.28125,0 0.25,0 0.28125,-0.59375 0.25,-0.625 0.40625,0 c 0.226911,0.0047 0.626318,0.14471 0.875,0.34375 0.248665,0.199075 0.601556,0.375 0.78125,0.375 l 0.34375,0 -0.15625,-1.21875 -0.15625,-1.21875 0.25,-0.46875 0.25,-0.53125 0.3125,0 c 0.180113,0 0.37129,-0.07414 0.4375,-0.1875 L 72.5625,77.125 72.09375,75.53125 C 71.84393,74.661802 71.625981,73.852564 71.625,73.75 c 0,-0.1026 0.248483,-0.398596 0.5625,-0.6875 l 0.59375,-0.53125 -0.5625,-1.09375 -0.5625,-1.09375 0.15625,-0.375 0.125,-0.34375 0.6875,-0.15625 0.6875,-0.15625 -0.15625,-0.5 C 73.07162,68.526557 72.943657,68.023767 72.875,67.71875 l -0.125,-0.5625 0.96875,0 1,0 -0.1875,-0.4375 C 74.43895,66.481548 74.318897,66.098843 74.25,65.84375 L 74.125,65.375 74.6875,64.9375 75.21875,64.5 74.5625,63.71875 l -0.71875,-0.75 0,-0.78125 0,-0.8125 -1.21875,-0.9375 -1.21875,-1 0,-0.5 0,-0.5625 -0.9375,-0.65625 c -0.512424,-0.358806 -0.9375,-0.796808 -0.9375,-0.9375 l 0,-0.21875 0.6875,-0.25 0.6875,-0.28125 0.0625,-0.5 0.0625,-0.53125 0.9375,-0.21875 c 0.512416,-0.09568 1.452753,-0.148454 2.0625,-0.15625 l 1.09375,-0.03125 0.4375,-0.5 c 0.222934,-0.280818 0.688429,-0.661901 1.09375,-0.84375 l 0.75,-0.3125 1.28125,-1.34375 1.25,-1.3125 1.09375,-0.3125 1.09375,-0.28125 0.125,-0.40625 0.15625,-0.40625 -0.28125,-0.25 -0.25,-0.28125 0,-0.53125 0,-0.53125 0.46875,-0.4375 0.46875,-0.4375 -0.09375,-0.1875 C 82.65927,46.11696 82.108966,45.966672 81.53125,45.875 l -1.0625,-0.15625 -0.25,-0.5625 C 80.068651,44.859529 79.977515,44.567781 80.03125,44.5 80.08493,44.43226 79.609269,44.347973 78.96875,44.3125 78.328233,44.27727 77.574,44.194981 77.28125,44.125 L 76.71875,44 76.5,43.34375 l -0.21875,-0.625 -0.875,0.15625 -0.9375,0.1875 -0.5,-0.28125 L 73.4375,42.5 73.59375,41.90625 73.71875,41.3125 72.875,41.25 l -0.90625,-0.0625 0.0625,-0.96875 0.0625,-0.9375 L 71.5,39.375 70.90625,39.5 70.59375,39.1875 C 70.420218,39.003913 70.240788,38.70041 70.1875,38.53125 L 70.09375,38.21875 69.125,38.6875 68.1875,39.125 67.75,38.8125 67.28125,38.53125 66.1875,39.3125 l -1.125,0.78125 -0.5625,-0.125 -0.59375,-0.15625 -0.6875,0.625 c -0.385967,0.343661 -0.84892,0.625 -1.03125,0.625 l -0.34375,0 0,-0.59375 0,-0.59375 -0.34375,-0.3125 -0.375,-0.28125 0,-0.71875 c 0,-0.379751 0.160053,-1.238446 0.3125,-1.9375 l 0.28125,-1.28125 -0.3125,-0.5 -0.3125,-0.53125 0.1875,-2.5 0.15625,-2.5625 -0.5,-0.65625 -0.46875,-0.625 -0.125,-1.1875 c -0.07885,-0.634378 -0.183176,-1.466998 -0.25,-1.84375 l -0.125,-0.65625 -0.8125,0.125 -0.78125,0.1875 -0.5,-0.90625 c -0.272528,-0.488817 -0.498988,-0.875 -0.53125,-0.875 z m 22.84375,0.25 -0.6875,0.375 c -0.741579,0.405812 -0.841862,0.722534 -0.3125,0.9375 l 0.34375,0.15625 0,0.4375 c 0,0.252775 0.107266,0.540032 0.1875,0.625 l 0.125,0.125 L 80.5625,25.375 81.28125,24.96875 80.875,24.75 l -0.40625,-0.21875 0,-0.5625 c 0,-0.309534 -0.04475,-0.633783 -0.125,-0.71875 L 80.1875,23.0625 z m -15.09375,0.25 0,0.625 c 0,0.347792 0.115504,0.827741 0.25,1.09375 l 0.28125,0.5 0.21875,-0.125 0.1875,-0.15625 0,-0.65625 0,-0.6875 -0.25,-0.3125 c -0.153733,-0.162661 -0.397514,-0.28125 -0.5,-0.28125 l -0.1875,0 z m -39.8125,0.1875 0,0.40625 0,0.375 0.34375,0 0.40625,0 L 25.9375,24 c -0.05071,-0.160989 -0.222852,-0.352611 -0.375,-0.40625 L 25.28125,23.5 z m -4.875,0.03125 c -0.207265,0 -0.59509,0.202938 -0.84375,0.40625 l -0.4375,0.34375 0.4375,0.375 c 0.248699,0.203344 0.636527,0.375 0.84375,0.375 0.207266,0 0.563835,-0.171694 0.8125,-0.375 l 0.46875,-0.375 -0.46875,-0.34375 c -0.248665,-0.203386 -0.605252,-0.40625 -0.8125,-0.40625 z m 49.84375,0.1875 -0.40625,0.1875 -0.40625,0.15625 0.34375,0.21875 0.34375,0.25 0.21875,-0.25 L 70.5625,24.0625 70.40625,23.90625 70.25,23.71875 z m 4.3125,0.3125 c -0.187783,0 -0.367953,0.09964 -0.4375,0.21875 L 74,24.5 74.34375,25.25 74.6875,26 75,25.875 c 0.185958,-0.07552 0.375,-0.262758 0.375,-0.375 0,-0.112234 -0.125107,-0.46477 -0.25,-0.8125 l -0.21875,-0.65625 -0.34375,0 z m -46.5,0.21875 0,0.40625 0,0.40625 0.25,-0.09375 c 0.137719,-0.04853 0.28125,-0.183748 0.28125,-0.3125 0,-0.128793 -0.143552,-0.295174 -0.28125,-0.34375 l -0.25,-0.0625 z m 5.84375,0.03125 0,0.34375 c 0,0.498197 0.186678,0.605788 1,0.5625 l 0.71875,-0.03125 0.125,-0.4375 0.0625,-0.4375 -0.96875,0 -0.9375,0 z m 34.75,0 c -0.09596,0.01716 -0.199958,0.122358 -0.25,0.28125 l -0.0625,0.28125 0.25,-0.09375 c 0.153727,-0.05422 0.29087,-0.182992 0.28125,-0.28125 -0.01445,-0.147365 -0.122784,-0.204643 -0.21875,-0.1875 z m 15.46875,0.25 c -0.08074,0 -0.554962,0.189269 -1.03125,0.40625 l -0.875,0.40625 0.5625,0.25 0.53125,0.28125 -0.15625,0.875 c -0.08956,0.483031 -0.171176,1.046657 -0.1875,1.25 L 82.9375,28.34375 83.71875,28.25 C 84.167112,28.20128 84.98759,28.17526 85.5,28.15625 L 86.40625,28.09375 86.5,28.6875 86.5625,29.25 86.09375,30.09375 C 85.827954,30.570469 85.625,31.106563 85.625,31.25 l 0,0.25 1.28125,-0.1875 1.28125,-0.15625 0.4375,0.15625 0.46875,0.15625 0,0.5625 0,0.5625 L 88.75,33.0625 c -0.188097,0.263131 -0.339674,0.611801 -0.34375,0.78125 l 0,0.3125 0.875,0 c 0.200977,0 0.391943,-0.01051 0.5625,-0.03125 l 0,-1.0625 -0.125,-0.15625 0.125,-0.21875 0,-2.1875 L 88.875,30.59375 87.03125,30.75 86.875,30.3125 l -0.15625,-0.40625 0.625,-1.34375 0.59375,-1.375 -0.125,-0.15625 -0.125,-0.125 -1.1875,0.3125 C 85.85024,27.377469 85.012107,27.5 84.625,27.5 l -0.6875,0 0.15625,-1.46875 0.15625,-1.5 -0.125,0 z m -56.9375,0.4375 -0.40625,0.15625 -0.375,0.15625 L 26.5625,25.5 c 0.188786,0.323235 0.525336,0.331176 0.71875,0 l 0.15625,-0.25 -0.125,-0.125 -0.125,-0.15625 z m 51.1875,0 -0.625,0.4375 -0.59375,0.4375 0.375,0.21875 0.375,0.21875 0,0.4375 c 0,0.241777 0.05009,0.514439 0.125,0.59375 l 0.1875,0.125 0.65625,-0.21875 c 0.373432,-0.137747 0.65625,-0.363073 0.65625,-0.46875 0,-0.105699 -0.151618,-0.331227 -0.34375,-0.5 -0.192138,-0.168754 -0.34375,-0.446265 -0.34375,-0.625 0,-0.178748 -0.08501,-0.38128 -0.21875,-0.46875 l -0.25,-0.1875 z M 22.28125,25 l -0.75,0.40625 -0.75,0.4375 0.40625,0.3125 c 0.523642,0.40519 0.925315,0.436911 1.53125,0.09375 L 23.1875,26 l 0,-0.34375 0,-0.34375 L 22.71875,25.15625 22.28125,25 z m 16.28125,0.03125 0,0.5625 c 0,0.316297 0.09467,0.651778 0.1875,0.75 l 0.15625,0.1875 L 39.375,26.375 c 0.259473,-0.07377 0.621125,-0.123113 0.78125,-0.125 l 0.28125,0 0,-0.625 0,-0.59375 -0.9375,0 -0.9375,0 z m 14.3125,0.125 C 52.691003,25.17059 52.443487,25.20519 52.1875,25.25 L 51.28125,25.40625 51,26.625 l -0.21875,1.21875 -0.40625,0.25 -0.375,0.25 -0.53125,-0.3125 c -0.269128,-0.177869 -0.501408,-0.262022 -0.53125,-0.21875 -0.02956,0.04324 -0.127866,0.431784 -0.25,0.90625 l -0.21875,0.875 -0.5,0.0625 L 47.5,29.75 47.0625,29.21875 46.59375,28.6875 l -0.25,0.9375 -0.25,0.96875 -0.84375,-0.0625 -0.84375,-0.0625 0,0.34375 c 0,0.188179 0.0476,0.505288 0.125,0.71875 l 0.125,0.40625 0.53125,-0.15625 0.5625,-0.15625 0.15625,0.28125 c 0.08557,0.146586 0.237431,0.25 0.34375,0.25 l 0.1875,0 0.125,-0.84375 0.15625,-0.875 0.375,-0.15625 0.34375,-0.15625 0.4375,0.46875 0.46875,0.46875 0.21875,-0.25 c 0.112605,-0.125574 0.232746,-0.447622 0.28125,-0.71875 l 0.09375,-0.5 0.46875,0 c 0.252233,0.01528 0.627392,0.152561 0.84375,0.25 L 50.65625,30 l 0.125,-0.96875 c 0.0788,-0.51968 0.208527,-1.109157 0.3125,-1.3125 l 0.21875,-0.34375 0.65625,0 0.65625,-0.03125 0.34375,-1.0625 c 0.174503,-0.579568 0.296396,-1.04767 0.25,-1.09375 -0.02316,-0.02305 -0.159752,-0.0456 -0.34375,-0.03125 z m 16.25,0.125 -0.28125,0.34375 -0.28125,0.40625 0.34375,0 c 0.200301,0 0.426309,-0.09256 0.5,-0.21875 l 0.125,-0.25 -0.21875,-0.15625 -0.1875,-0.125 z m -4.71875,0.25 0,0.9375 c 0,0.519647 0.07433,1.007064 0.15625,1.09375 l 0.15625,0.15625 0.1875,-0.125 0.1875,-0.125 0,-0.59375 c 0,-0.741504 -0.201408,-1.34375 -0.46875,-1.34375 l -0.21875,0 z m 9,0.25 c -0.145173,0.002 -0.388865,0.102291 -0.5625,0.21875 l -0.3125,0.1875 0.40625,0.65625 0.375,0.65625 0.3125,0 0.34375,0 0,-0.3125 c -0.0024,-0.169506 -0.07899,-0.56999 -0.15625,-0.875 l -0.15625,-0.53125 -0.25,0 z m -38.34375,0.25 0,0.3125 c 0,0.180786 0.07706,0.384963 0.15625,0.46875 l 0.125,0.15625 0.75,-0.15625 c 0.401214,-0.08067 0.73639,-0.148253 0.78125,-0.1875 0.04483,-0.0393 0.02211,-0.199151 -0.0625,-0.34375 l -0.15625,-0.25 -0.78125,0 -0.8125,0 z m -11.25,0.4375 -0.53125,0.25 -0.5625,0.25 0,0.375 0,0.34375 0.4375,0.15625 c 0.224159,0.06197 0.587541,0.113621 0.84375,0.125 l 0.46875,0 L 24.90625,27.625 25.3125,27.28125 24.59375,26.875 23.8125,26.46875 z m 58.28125,0.0625 c -0.130323,0 -0.53761,0.156157 -0.9375,0.375 l -0.75,0.40625 0.40625,0.21875 0.40625,0.28125 -0.125,1.15625 -0.1875,1.21875 0.34375,0 c 0.183784,0 0.850055,-0.146693 1.46875,-0.34375 l 1.09375,-0.375 0.21875,0.125 0.1875,0.15625 0,0.65625 0,0.6875 -0.34375,0.5625 C 83.691904,31.995132 83.504542,32.447243 83.5,32.625 l 0,0.3125 1.03125,-0.15625 1.03125,-0.15625 0.46875,0.15625 0.46875,0.15625 0.125,0.375 0.15625,0.34375 -0.34375,0.875 -0.3125,0.8125 0.125,0.15625 0.15625,0.1875 0.6875,-0.1875 c 0.369192,-0.07815 0.915267,-0.119541 1.1875,-0.125 l 0.46875,0 -0.625,-0.40625 -0.65625,-0.34375 0,-0.4375 c 0.0042,-0.232881 0.155696,-0.611855 0.34375,-0.875 0.18806,-0.263128 0.375,-0.635067 0.375,-0.8125 l 0,-0.34375 -1.65625,0 -1.65625,0 -0.125,-0.34375 -0.125,-0.40625 0.46875,-0.9375 C 85.367705,29.953005 85.625,29.343774 85.625,29.125 l 0,-0.40625 -0.3125,0 c -0.176544,0 -0.693031,0.129658 -1.125,0.3125 l -0.78125,0.34375 -0.59375,-0.15625 -0.59375,-0.1875 0.0625,-1.21875 0.03125,-1.28125 -0.21875,0 z m -51.21875,0.375 -0.125,0.125 -0.15625,0.1875 0.15625,0.5 0.15625,0.53125 0.34375,-0.28125 0.34375,-0.3125 -0.375,-0.375 -0.34375,-0.375 z M 41.34375,27 l -0.75,0.1875 c -0.409159,0.08229 -0.79633,0.176764 -0.84375,0.21875 -0.04739,0.04194 -0.01961,0.340468 0.0625,0.6875 l 0.15625,0.625 0.625,-0.125 c 0.349394,-0.0871 0.73493,-0.270587 0.84375,-0.375 L 41.65625,28.03125 41.5,27.53125 41.34375,27 z m 35.3125,0 c -0.179642,0 -0.41895,0.160771 -0.5625,0.34375 l -0.25,0.3125 0.34375,0.8125 c 0.201286,0.427003 0.38887,0.75 0.4375,0.75 0.04863,0 0.392461,-0.12396 0.71875,-0.28125 0.59391,-0.286369 0.792599,-0.71875 0.34375,-0.71875 l -0.25,0 -0.21875,-0.625 L 77,27 76.65625,27 z m -58.21875,0.25 0,0.5 0.375,-0.34375 L 18.46875,27.25 c -0.0051,-0.0028 -0.02546,0.0031 -0.03125,0 z m 49.71875,0 c -0.120553,0 -0.295806,0.114446 -0.375,0.25 l -0.125,0.25 0.34375,0 0.375,0 0,-0.25 c 0,-0.135536 -0.09814,-0.25 -0.21875,-0.25 z m -0.9375,0.25 c -0.120553,0 -0.264564,0.114459 -0.34375,0.25 l -0.15625,0.25 0.375,0 0.34375,0 0,-0.25 c 0,-0.135532 -0.09814,-0.25 -0.21875,-0.25 z m 5,0 -0.34375,0.25 -0.3125,0.21875 0.25,0.625 0.28125,0.65625 0.375,-0.0625 c 0.212159,-0.04353 0.460383,-0.208162 0.5,-0.34375 0.0396,-0.135564 -0.12262,-0.479789 -0.34375,-0.78125 L 72.21875,27.5 z M 37.75,27.53125 l -0.625,0.125 -0.65625,0.15625 0,0.3125 0,0.375 0.8125,0 0.8125,0 0,-0.21875 c -0.0024,-0.101686 -0.09304,-0.280411 -0.1875,-0.4375 L 37.75,27.53125 z m 25.84375,0.5625 -0.0625,0.59375 c -0.04215,0.314878 -0.01596,0.721349 0.0625,0.9375 l 0.125,0.40625 0.25,-0.25 0.25,-0.25 -0.0625,-0.65625 -0.0625,-0.65625 -0.28125,-0.0625 -0.21875,-0.0625 z m -37.8125,0.0625 -0.71875,0.34375 -0.6875,0.28125 0.25,0.34375 0.25,0.34375 0.75,0 0.78125,0 0.28125,-0.34375 0.25,-0.375 -0.5625,-0.28125 -0.59375,-0.3125 z m 64.0625,0.125 c -0.0012,0.006 -0.03125,0.05875 -0.03125,0.0625 l 0,0.1875 0.03125,0 0,-0.25 z M 18.625,28.5 l -0.1875,0.15625 0,1.59375 c 0.35118,0.08919 0.739597,0.17689 1,0.1875 l 0.53125,0.03125 0.59375,-0.5 c 0.32572,-0.271139 0.761849,-0.520276 0.96875,-0.53125 l 0.375,0 -0.9375,-0.5 -0.9375,-0.4375 -0.6875,0 -0.71875,0 z m 13.40625,0 0.03125,1.03125 c 0.02855,0.961914 0.167302,1.530296 0.3125,1.34375 0.03332,-0.04289 0.106222,-0.500612 0.1875,-1.0625 L 32.71875,28.78125 32.375,28.65625 32.03125,28.5 z m 47.9375,0 c -0.182211,0 -0.517155,0.132323 -0.75,0.3125 l -0.40625,0.34375 0.21875,0.46875 0.25,0.5 -0.125,0.9375 -0.125,0.90625 0.6875,-0.1875 c 0.370174,-0.09526 0.837542,-0.242312 1.09375,-0.34375 L 81.3125,31.25 80.625,30.96875 80,30.6875 80.15625,29.59375 80.3125,28.5 l -0.34375,0 z M 42.5,28.65625 42.21875,28.9375 c -0.146663,0.155168 -0.433233,0.28125 -0.65625,0.28125 -0.539058,0 -0.676916,0.235916 -0.4375,0.90625 l 0.21875,0.5625 0.59375,0 0.59375,0 0.125,-0.375 L 42.8125,29.96875 42.625,29.3125 42.5,28.65625 z m -11.59375,0.0625 -0.15625,0.25 -0.125,0.25 0.125,0.25 c 0.07917,0.135535 0.254444,0.21875 0.375,0.21875 l 0.1875,0 0,-0.34375 c 0,-0.195334 -0.06819,-0.422012 -0.1875,-0.5 l -0.21875,-0.125 z m 44.25,0 -0.5,0.46875 -0.5,0.4375 0.375,0.65625 c 0.224772,0.363011 0.473619,0.65625 0.5625,0.65625 0.08884,0 0.36954,-0.139057 0.59375,-0.3125 L 76.09375,30.3125 75.875,29.65625 C 75.747222,29.300664 75.528902,28.955221 75.40625,28.875 l -0.25,-0.15625 z m -7.375,0.1875 L 67,29.09375 c -0.445856,0.10132 -0.901826,0.220043 -1,0.28125 l -0.1875,0.125 0.125,0.25 0.125,0.21875 L 66.5,29.75 c 0.231568,-0.131145 0.468594,-0.222543 0.53125,-0.15625 0.06259,0.06629 0.261599,-0.057 0.4375,-0.28125 l 0.3125,-0.40625 z m -28.75,0.28125 -0.375,0.125 c -0.202644,0.08224 -0.505804,0.15625 -0.6875,0.15625 l -0.34375,0 0,0.375 0,0.34375 0.6875,0 0.71875,0 0,-0.53125 0,-0.46875 z M 70.875,29.25 c -0.09752,0.01833 -0.19812,0.09589 -0.34375,0.25 l -0.25,0.28125 0.34375,0.5625 c 0.382221,0.617279 0.656254,0.749544 0.875,0.375 L 71.65625,30.5 71.375,29.875 c -0.151762,-0.352463 -0.283871,-0.573001 -0.40625,-0.625 -0.0306,-0.013 -0.06125,-0.0061 -0.09375,0 z m -43.4375,0.5 -0.46875,0.34375 -0.40625,0.375 0.34375,0.21875 c 0.399526,0.282881 0.965463,0.310844 1.5,0.09375 C 28.963498,30.554991 28.849459,30.278785 28.09375,30 L 27.4375,29.75 z m 5.84375,0.1875 0.0625,1.03125 c 0.03364,0.581311 0.08679,1.122359 0.09375,1.15625 0.0069,0.03416 0.09211,0.03125 0.21875,0.03125 l 0.21875,0 0,-0.53125 c -0.0069,-0.305052 0.02205,-0.765328 0.0625,-1.03125 l 0.0625,-0.5 -0.34375,-0.0625 -0.375,-0.09375 z m 29.5,0.15625 0,1.0625 0,1 0.25,0 0.21875,0 0.125,-0.625 0.15625,-0.625 -0.375,-0.40625 -0.375,-0.40625 z m -41.625,0.375 -0.3125,0.34375 c -0.159474,0.203343 -0.41729,0.375 -0.59375,0.375 l -0.34375,0 0,0.21875 c 0,0.300535 0.621633,0.471672 1.90625,0.5 l 1,0.03125 0.625,-0.5 0.5625,-0.46875 -0.65625,-0.25 c -0.359133,-0.144508 -0.981921,-0.25 -1.40625,-0.25 l -0.78125,0 z m 57.03125,0 c -0.383679,0 -1.40625,0.543299 -1.40625,0.75 0,0.105805 0.09071,0.259946 0.21875,0.34375 l 0.21875,0.15625 0,0.875 0,0.875 0.75,-0.15625 c 0.406995,-0.08619 0.779723,-0.18221 0.84375,-0.25 0.06404,-0.0677 -0.04833,-0.2885 -0.28125,-0.46875 L 78.0625,32.25 78.25,31.34375 l 0.15625,-0.875 -0.21875,0 z m -11.6875,0.1875 -0.34375,0.125 c -0.202643,0.08224 -0.505808,0.15625 -0.6875,0.15625 l -0.375,0 0,0.25 0,0.25 0.71875,0 0.6875,0 0,-0.375 0,-0.40625 z m 16.25,0.03125 c -0.288264,0.002 -0.67039,0.102436 -0.84375,0.21875 l -0.3125,0.21875 0.28125,0.53125 0.25,0.53125 -0.46875,1 c -0.26498,0.537977 -0.46875,1.005369 -0.46875,1.0625 0,0.05717 0.668102,0.178392 1.46875,0.21875 l 1.4375,0.0625 -0.03125,0.625 c -0.01845,0.338896 -0.09513,0.819986 -0.1875,1.125 l -0.1875,0.5625 0.8125,0 c 0.441952,0 0.887859,-0.07063 0.96875,-0.15625 l 0.125,-0.125 L 85.375,36.09375 85.125,35.625 85.5,34.75 c 0.195101,-0.494121 0.34375,-0.948776 0.34375,-1 0,-0.05117 -0.69457,-0.09375 -1.53125,-0.09375 l -1.5,0 -0.15625,-0.375 -0.125,-0.40625 0.375,-0.84375 c 0.210325,-0.466739 0.375,-0.962786 0.375,-1.09375 l 0,-0.25 -0.53125,0 z m -43.25,0.1875 -0.375,0.1875 -0.375,0.15625 0.28125,0.34375 0.28125,0.375 0.4375,0 0.4375,0 0,-0.40625 0,-0.34375 -0.375,-0.125 L 39.5,30.875 z m 34.09375,0.0625 c -0.155943,0 -0.378573,0.18034 -0.53125,0.375 l -0.28125,0.3125 0.25,0.53125 0.25,0.5 0.28125,0 c 0.162023,0 0.449922,-0.09775 0.59375,-0.25 l 0.25,-0.28125 -0.25,-0.59375 -0.28125,-0.59375 -0.28125,0 z m -3.8125,0.1875 -0.15625,0.125 -0.15625,0.15625 0.15625,0.5 c 0.168146,0.560553 0.503949,0.671335 0.75,0.25 l 0.15625,-0.28125 -0.375,-0.40625 -0.375,-0.34375 z M 43.375,31.28125 c -0.12239,0.02835 -0.273563,0.05922 -0.4375,0.125 l -0.625,0.25 0.125,0.5 0.125,0.53125 0.625,-0.0625 0.59375,-0.0625 -0.0625,-0.625 c -0.03479,-0.330495 -0.08149,-0.610193 -0.125,-0.65625 -0.02177,-0.02306 -0.09636,-0.02835 -0.21875,0 z M 29.53125,31.4375 c -0.34471,0.002 -0.807847,0.147757 -1,0.28125 l -0.34375,0.21875 0.34375,0.21875 c 0.432456,0.300427 1.198811,0.31668 1.625,0.03125 L 30.46875,32 30.3125,31.71875 30.15625,31.4375 l -0.625,0 z m 5.5,0 -0.1875,0.125 -0.21875,0.15625 0.125,0.34375 0.15625,0.40625 0.21875,-0.25 0.21875,-0.25 -0.15625,-0.25 -0.15625,-0.28125 z M 23.75,32.125 l -0.75,0.5 -0.78125,0.5 0.65625,0.25 c 0.362834,0.139899 1.096239,0.239253 1.625,0.25 l 0.9375,0.03125 0.34375,-0.375 L 26.0625,32.875 25.84375,32.65625 C 25.710991,32.51576 25.15893,32.321334 24.65625,32.25 L 23.75,32.125 z m -5.3125,0.03125 0,3.4375 0.46875,-0.09375 -0.09375,-1 -0.0625,-1.03125 0.5625,-0.5 L 19.90625,32.5 18.59375,32.1875 C 18.53889,32.17584 18.492946,32.16753 18.4375,32.15625 z m 62.5,0.0625 -0.71875,0.21875 c -0.399966,0.121401 -0.778838,0.275102 -0.84375,0.34375 -0.06487,0.06867 -0.005,0.294615 0.15625,0.5 L 79.84375,33.625 79.75,34.3125 c -0.06063,0.374035 -0.216617,0.887763 -0.3125,1.125 l -0.1875,0.4375 1.21875,0 1.1875,0 0.15625,0.375 0.125,0.4375 -0.25,0.46875 c -0.148291,0.251352 -0.25,0.573169 -0.25,0.71875 l 0,0.25 0.84375,-0.09375 0.875,-0.0625 -0.09375,-0.375 c -0.139994,-0.527853 -0.111509,-1.23243 0.09375,-1.90625 l 0.1875,-0.59375 -0.96875,0.15625 -0.9375,0.15625 -0.46875,-0.125 c -0.249753,-0.08392 -0.495701,-0.315778 -0.5625,-0.5 l -0.125,-0.3125 0.4375,-0.9375 0.5,-0.875 -0.125,-0.21875 -0.15625,-0.21875 z m -4.78125,0.21875 c -0.421181,0 -1.5,0.515241 -1.5,0.71875 0,0.08667 0.1005,0.246189 0.21875,0.375 0.118225,0.12879 0.239376,0.597147 0.28125,1 l 0.0625,0.71875 1.125,-0.0625 1.125,-0.09375 0.125,0.40625 0.15625,0.4375 -0.25,0.46875 c -0.148285,0.25135 -0.28125,0.55752 -0.28125,0.6875 l 0,0.21875 1.125,0.09375 1.09375,0.0625 -0.03125,0.625 c -0.01262,0.338896 -0.09022,0.825264 -0.1875,1.0625 l -0.1875,0.40625 0.4375,0 c 0.237888,-0.002 0.570935,-0.09883 0.75,-0.21875 L 80.5625,39.125 80.59375,38.28125 c 0.02175,-0.454086 0.110899,-0.994129 0.21875,-1.25 L 81.03125,36.5625 80,36.6875 78.96875,36.84375 78.625,36.625 l -0.34375,-0.21875 0.375,-1.125 0.375,-1.15625 -0.15625,-0.09375 c -0.09288,-0.06074 -0.582481,-0.0151 -1.0625,0.125 l -0.84375,0.28125 -0.375,-0.15625 -0.375,-0.15625 0.125,-0.84375 0.15625,-0.84375 -0.34375,0 z M 65.375,32.46875 c -0.135218,-0.0013 -0.336975,0.08191 -0.625,0.3125 l -0.4375,0.375 0.625,0 0.65625,0 0,-0.375 c 0,-0.233275 -0.08353,-0.31123 -0.21875,-0.3125 z m -24.4375,0.1875 -0.375,0.15625 c -0.203763,0.08271 -0.375,0.253916 -0.375,0.375 l 0,0.21875 0.59375,0 0.59375,0 0,-0.21875 c 0,-0.127554 -0.133447,-0.298784 -0.25,-0.375 l -0.1875,-0.15625 z m 20.90625,0 0,0.75 0,0.75 0.21875,0 c 0.119507,0 0.262834,-0.230073 0.34375,-0.5 l 0.15625,-0.46875 -0.125,-0.28125 c -0.07992,-0.136745 -0.254446,-0.25 -0.375,-0.25 l -0.21875,0 z m 6.9375,0 -0.21875,0.21875 -0.21875,0.25 0.15625,0.5 0.15625,0.53125 0.21875,0 c 0.123471,0 0.269384,-0.169935 0.34375,-0.375 l 0.125,-0.375 L 69.0625,33 68.78125,32.65625 z m 3.3125,0 c -0.08305,0 -0.318885,0.155278 -0.5625,0.34375 L 71.0625,33.34375 71.34375,34 c 0.152316,0.353739 0.362374,0.65625 0.46875,0.65625 0.106338,0 0.367641,-0.16884 0.59375,-0.34375 L 72.84375,34 72.5625,33.34375 c -0.15818,-0.367287 -0.385689,-0.6875 -0.46875,-0.6875 z m -41.6875,0.25 0,0.34375 0,0.3125 0.53125,0.28125 c 0.667515,0.340639 0.676198,0.358178 1.09375,0.0625 L 32.375,33.625 31.9375,33.28125 31.5,32.90625 l -0.5625,0 -0.53125,0 z m 5.75,0.03125 c -0.09888,0.05171 -0.110772,0.25701 0,0.5625 l 0.125,0.4375 0.25,-0.28125 0.25,-0.25 L 36.5,33.125 c -0.08877,-0.09394 -0.151622,-0.1646 -0.21875,-0.1875 -0.05035,-0.01717 -0.09203,-0.01725 -0.125,0 z m 8.59375,0.59375 -0.5625,0.0625 c -0.312328,0.03678 -0.637189,0.134315 -0.6875,0.1875 -0.05034,0.05324 0.04042,0.334094 0.1875,0.625 l 0.25,0.5 0.40625,-0.0625 L 44.75,34.75 l 0,-0.625 0,-0.59375 z m -18.21875,0.0625 -0.875,0.625 -0.84375,0.625 1,0.25 c 0.549682,0.130093 1.204999,0.235447 1.46875,0.25 L 27.75,35.375 28.1875,35.0625 28.625,34.71875 28.46875,34.5 C 28.39156,34.367786 27.932183,34.110261 27.4375,33.9375 l -0.90625,-0.34375 z m -5.46875,0.03125 -0.71875,0.09375 -0.78125,0.0625 0.09375,0.9375 0.0625,0.90625 -0.25,0.375 -0.25,0.3125 -0.78125,0.125 0,2.5625 0.5625,0.59375 0,0.46875 0,0.4375 -0.375,0.28125 c -0.06913,0.06071 -0.133108,0.170772 -0.1875,0.25 l 0,0.84375 0.65625,0.59375 c 0.434806,0.403994 1.219981,0.997269 1.75,1.3125 l 0.96875,0.59375 0.125,0.53125 0.15625,0.59375 -0.25,0.3125 c -0.14431,0.152747 -0.28125,0.415524 -0.28125,0.59375 l 0,0.3125 0.75,0.5 c 0.416338,0.268648 0.919926,0.499493 1.09375,0.5 l 0.28125,0 -0.09375,-0.375 -0.125,-0.3125 0.3125,-0.46875 c 0.179248,-0.250423 0.308422,-0.590487 0.3125,-0.75 l 0,-0.3125 -1.28125,-0.78125 c -0.712679,-0.431455 -1.501852,-0.999395 -1.75,-1.28125 l -0.4375,-0.53125 0,-0.375 0,-0.4375 0.34375,-0.3125 0.34375,-0.3125 0,-0.375 0,-0.4375 -0.90625,-0.96875 -0.96875,-0.96875 0.0625,-0.625 0.0625,-0.625 1.1875,-0.25 1.15625,-0.28125 0.0625,-0.9375 0.09375,-0.96875 0.46875,-0.4375 0.53125,-0.40625 -1,-0.28125 -1,-0.28125 z m 11.625,0.6875 -0.25,0.3125 -0.28125,0.28125 0.4375,0.375 0.5,0.34375 0.4375,-0.0625 0.4375,-0.0625 0.09375,-0.25 0.0625,-0.3125 -0.6875,-0.28125 -0.75,-0.34375 z m 8.90625,0.0625 -0.21875,0.15625 -0.28125,0.15625 0.28125,0.34375 0.25,0.3125 0.4375,-0.125 C 42.31402,35.14914 42.5,34.985601 42.5,34.875 c 0,-0.110655 -0.182393,-0.258118 -0.4375,-0.34375 L 41.59375,34.375 z m 25.9375,0 -0.3125,0.375 -0.28125,0.40625 0.28125,0.34375 0.3125,0.40625 L 67.875,35.5 68.21875,35.15625 67.875,34.75 67.53125,34.375 z m -30.125,0.03125 0,0.3125 c 0,0.180784 0.07196,0.410801 0.15625,0.5 L 37.71875,35.375 38,35.125 38.3125,34.8125 38.1875,34.625 c -0.07021,-0.120209 -0.284152,-0.21875 -0.46875,-0.21875 l -0.3125,0 z m 26.53125,0 0,0.25 0,0.21875 0.34375,0 c 0.184608,0 0.389581,-0.08321 0.46875,-0.21875 l 0.15625,-0.25 -0.46875,0 -0.5,0 z m 10.125,0 c -0.245571,0 -0.662409,0.15513 -0.90625,0.34375 l -0.4375,0.34375 0.28125,0.375 0.3125,0.40625 -0.125,0.5 -0.09375,0.4375 1.09375,0.09375 1.03125,0.0625 0,0.625 C 75.20614,37.932647 75.105108,38.428836 75,38.6875 l -0.1875,0.46875 0.84375,-0.125 0.78125,-0.15625 0.28125,0.21875 0.34375,0.15625 -0.15625,0.78125 -0.1875,0.75 0.5625,0 c 0.29839,-0.0133 0.804737,-0.09313 1.125,-0.1875 l 0.5625,-0.1875 -0.4375,-0.1875 -0.4375,-0.15625 0.125,-0.5625 c 0.0622,-0.303311 0.210736,-0.741894 0.3125,-1 l 0.1875,-0.5 -1.03125,0.15625 c -0.549465,0.07799 -1.136113,0.07181 -1.3125,0 l -0.3125,-0.125 0,-0.40625 c 0.0042,-0.2227 0.159735,-0.617792 0.34375,-0.875 L 76.71875,36.28125 76.625,36.09375 76.5,35.9375 75.59375,36.0625 74.625,36.1875 74.40625,35.84375 74.21875,35.5 l 0.125,-0.5625 0.125,-0.53125 -0.40625,0 z m -3.5,0.3125 c -0.133299,-0.04702 -0.416444,0.06446 -0.65625,0.25 l -0.46875,0.34375 0.15625,0.4375 0.1875,0.40625 0.5,-0.09375 L 70.8125,36 l 0,-0.59375 0,-0.59375 -0.25,-0.09375 z m 19.28125,0.15625 -0.625,0.09375 0.625,0.21875 0,-0.3125 z m -60.8125,0.4375 -0.59375,0.5 -0.59375,0.46875 -1.6875,-0.3125 c -0.93007,-0.19173 -2.051636,-0.376227 -2.5,-0.40625 L 22.8125,35.5 22.75,36.375 c -0.04249,0.473921 -0.161191,0.971921 -0.28125,1.125 l -0.21875,0.28125 -0.9375,0.15625 -0.90625,0.15625 0,0.28125 c 0,0.152662 0.39384,0.755486 0.90625,1.34375 l 0.9375,1.0625 0,0.53125 0,0.5 -0.34375,0.125 -0.34375,0.15625 0,0.4375 0,0.4375 1.09375,0.78125 c 0.608491,0.421131 1.182734,0.748412 1.28125,0.75 l 0.1875,0 -0.15625,-0.625 -0.15625,-0.625 0.40625,-0.46875 0.4375,-0.46875 -1,-1.15625 -0.96875,-1.1875 0.0625,-0.5 L 22.8125,39 l 1.0625,-0.28125 1.0625,-0.28125 0.125,-0.84375 0.09375,-0.84375 0.65625,-0.21875 0.59375,-0.25 1.78125,0.4375 1.78125,0.46875 0.5625,-0.3125 c 0.312158,-0.150503 0.5625,-0.341497 0.5625,-0.46875 l 0,-0.25 -1,-0.40625 -1.0625,-0.4375 z m 10,0.71875 -0.125,0.15625 -0.15625,0.125 0.1875,0.34375 0.1875,0.28125 0.09375,-0.28125 c 0.05396,-0.17129 0.01489,-0.38685 -0.0625,-0.46875 l -0.125,-0.15625 z m 4.21875,0.03125 -0.34375,0.125 -0.375,0.1875 0.125,0.34375 0.15625,0.40625 0.3125,0 c 0.170891,0 0.382663,-0.133884 0.46875,-0.28125 l 0.125,-0.28125 -0.21875,-0.25 -0.25,-0.25 z M 34.15625,36.125 34,36.375 l -0.125,0.25 0.5625,0.21875 c 0.73706,0.312845 1.06127,0.291696 1.25,-0.03125 l 0.15625,-0.25 L 35.5,36.3125 C 35.323458,36.194146 34.968159,36.127063 34.6875,36.125 l -0.53125,0 z m 28.625,0 0,0.25 0,0.25 0.46875,0 0.46875,0 0,-0.25 0,-0.25 -0.46875,0 -0.46875,0 z M 88.625,36.15625 c -0.252702,0.01466 -0.489878,0.01835 -0.65625,0.0625 l -0.59375,0.1875 0.375,0.25 0.4375,0.21875 0,0.6875 c 0,0.377351 0.0709,0.784625 0.15625,0.875 0.08543,0.09035 0.61867,0.15625 1.1875,0.15625 l 0.3125,0 0,-2.40625 -0.5,-0.03125 c -0.217027,-0.02195 -0.466049,-0.01466 -0.71875,0 z M 66.28125,36.3125 66.0625,36.5 l -0.21875,0.125 0.125,0.34375 0.125,0.375 0.3125,0 0.3125,0 0,-0.375 C 66.71875,36.773413 66.62803,36.583781 66.5,36.5 l -0.21875,-0.1875 z m 5.65625,0.0625 c -0.24037,0 -0.670211,0.129878 -0.90625,0.3125 l -0.40625,0.34375 0.25,0.1875 0.3125,0.15625 0,0.59375 0,0.59375 0.96875,0.0625 1,0.09375 -0.03125,0.5 C 73.11146,39.489887 73.050368,39.859161 73,40.0625 l -0.0625,0.375 0.5625,0.03125 c 0.320246,0.01102 0.730118,0.03927 0.90625,0.0625 l 0.3125,0.03125 -0.125,0.71875 -0.15625,0.75 0.78125,0 0.8125,0 0.125,-0.21875 0.125,-0.25 -0.25,-0.15625 -0.25,-0.15625 0.125,-0.71875 0.125,-0.6875 -0.96875,-0.0625 -0.96875,-0.0625 0.03125,-0.625 c 0.01263,-0.338895 0.08866,-0.821091 0.1875,-1.0625 L 74.5,37.5625 l -1,0.1875 -0.96875,0.15625 -0.21875,-0.34375 -0.21875,-0.34375 0.125,-0.4375 0.125,-0.40625 -0.40625,0 z m -3.09375,0.125 -0.375,0.40625 -0.40625,0.40625 0.15625,0.40625 c 0.174678,0.481671 0.388137,0.486721 0.96875,0.03125 L 69.625,37.375 69.25,36.9375 68.84375,36.5 z m -37.28125,0.78125 -0.59375,0.3125 c -0.313279,0.177428 -0.5625,0.406609 -0.5625,0.5 0,0.147266 1.551818,0.62519 2.21875,0.6875 0.128111,0.01213 0.438163,-0.112958 0.6875,-0.3125 l 0.4375,-0.375 -0.21875,-0.25 c -0.13232,-0.139998 -0.648645,-0.324443 -1.125,-0.40625 L 31.5625,37.28125 z m 8.90625,0.03125 -0.21875,0.125 -0.21875,0.15625 0.125,0.53125 0.125,0.53125 0.3125,-0.46875 L 40.875,37.75 40.6875,37.5 40.46875,37.3125 z m 46.3125,0 -0.84375,0.15625 -0.84375,0.15625 0.1875,0.40625 c 0.09285,0.228968 0.220715,0.752207 0.28125,1.125 l 0.09375,0.65625 1.09375,0 1.0625,0 0.375,-0.25 0.34375,-0.21875 -0.40625,-0.03125 -0.40625,0 -0.25,-0.46875 L 87.25,38.375 87.375,38 l 0.15625,-0.40625 -0.375,-0.15625 -0.375,-0.125 z m -61,0.03125 0.125,0.71875 0.125,0.71875 -0.5,0.28125 c -0.26141,0.148053 -0.64241,0.247936 -0.875,0.25 -0.232588,0.0019 -0.571281,0.09898 -0.75,0.21875 l -0.3125,0.25 L 24.5625,41 c 0.531006,0.666385 0.9375,1.324626 0.9375,1.46875 0,0.144169 -0.151615,0.39374 -0.34375,0.5625 -0.192141,0.168763 -0.34375,0.47161 -0.34375,0.65625 l 0,0.3125 1.53125,1.03125 1.5,1 0,0.4375 c 0,0.250996 -0.09071,0.541214 -0.21875,0.625 -0.128112,0.08382 -0.25,0.271269 -0.25,0.4375 l 0,0.3125 1.3125,0.71875 1.25,0.75 0,0.34375 c 0,0.194592 -0.230862,0.603066 -0.5,0.90625 l -0.46875,0.5625 0.71875,0.375 0.71875,0.40625 0,0.5 0,0.46875 -0.59375,0.40625 C 29.492254,53.503312 29.25,53.756851 29.25,53.875 c 0,0.118102 0.364141,0.39551 0.8125,0.59375 l 0.8125,0.34375 0,0.375 c 0,0.193659 -0.153046,0.488732 -0.34375,0.65625 l -0.34375,0.28125 0.125,0.25 0.125,0.1875 0.5625,0 0.59375,0 0,-0.46875 0,-0.4375 0.34375,-0.3125 0.34375,-0.3125 -0.6875,-0.46875 -0.71875,-0.46875 0,-0.3125 0,-0.375 L 31.5,53 l 0.625,-0.4375 -0.625,-0.5 -0.625,-0.4375 0,-0.40625 c 0,-0.215266 0.139669,-0.573811 0.34375,-0.8125 l 0.40625,-0.46875 -0.96875,-0.5 -0.96875,-0.5 -0.15625,-0.40625 -0.125,-0.40625 0.25,-0.40625 0.25,-0.4375 -0.5,-0.5 c -0.280141,-0.260211 -0.895496,-0.731033 -1.375,-1.0625 L 27.125,45.125 l 0,-0.375 c 0,-0.192639 0.190981,-0.52952 0.40625,-0.78125 L 27.9375,43.5 l -1.03125,-1.09375 -1.03125,-1.125 0.25,-0.4375 0.25,-0.40625 0.9375,-0.28125 0.875,-0.25 0,-0.6875 0.03125,-0.65625 0.3125,-0.21875 c 0.186137,-0.124563 0.55629,-0.267049 0.8125,-0.28125 l 0.46875,-0.03125 -1.125,-0.3125 c -0.640509,-0.18857 -1.585301,-0.372401 -2.0625,-0.375 l -0.84375,0 z m 10.21875,0.25 0,0.25 c 0,0.268895 0.682701,0.738892 1.09375,0.75 0.152589,0.0044 0.34948,-0.161777 0.4375,-0.3125 l 0.15625,-0.25 -0.3125,-0.1875 c -0.176582,-0.118312 -0.555514,-0.247969 -0.84375,-0.25 l -0.53125,0 z m 8.1875,0.25 -0.15625,0.25 -0.15625,0.25 0.15625,0.25 c 0.07917,0.135534 0.254439,0.21875 0.375,0.21875 l 0.21875,0 0,-0.34375 c 0,-0.195335 -0.09944,-0.422009 -0.21875,-0.5 l -0.21875,-0.125 z m 18.25,0 c -0.184588,0 -0.389559,0.11449 -0.46875,0.25 l -0.15625,0.25 0.46875,0 0.5,0 0,-0.25 0,-0.25 -0.34375,0 z m 2.78125,0.25 c -0.184624,0 -0.380709,0.130579 -0.46875,0.28125 l -0.15625,0.25 0.3125,0.21875 c 0.38228,0.249999 0.6875,0.09693 0.6875,-0.375 l 0,-0.375 -0.375,0 z M 41.8125,38.75 l -0.25,0.28125 -0.28125,0.25 0.1875,0.46875 0.1875,0.4375 0.21875,-0.53125 0.25,-0.5625 -0.15625,-0.1875 L 41.8125,38.75 z m 42.875,0.0625 -1.125,0.0625 -1.09375,0.0625 0.09375,0.375 c 0.05103,0.203389 0.127768,0.661094 0.15625,1 C 82.7473,40.651397 82.7647,40.966106 82.78125,41 82.84866,41.138266 84.582988,40.9855 85,40.8125 L 85.46875,40.65625 85.0625,40.5 l -0.375,-0.15625 0,-0.78125 0,-0.75 z m -46.59375,0.28125 c -0.136543,0 -0.21875,0.110056 -0.21875,0.25 l 0,0.21875 0.5,0.25 c 0.698071,0.296901 0.875,0.315128 0.875,0.03125 0,-0.25925 -0.758008,-0.75 -1.15625,-0.75 z m 51.75,0.3125 -0.21875,0.125 -0.40625,0.28125 0.5,0 0.125,0 0,-0.40625 z M 81.875,40 80.8125,40.125 c -0.582778,0.0695 -1.10628,0.195312 -1.1875,0.28125 L 79.46875,40.5625 79.75,40.84375 c 0.151568,0.160391 0.28125,0.474738 0.28125,0.71875 l 0,0.46875 1.4375,0 1.46875,0 -0.5625,-0.375 -0.5,-0.375 0,-0.65625 0,-0.625 z m 5.78125,0.59375 c -0.289169,0.01183 -0.497338,0.02343 -0.59375,0.0625 l -0.34375,0.15625 0.375,0.4375 0.34375,0.4375 0.0625,0.71875 0.09375,0.75 1.28125,0.1875 c 0.341779,0.05646 0.689963,0.1384 0.96875,0.21875 l 0,-1.28125 -0.0625,-0.03125 0.0625,-0.78125 0,-0.78125 -1.1875,-0.09375 c -0.344646,-0.0208 -0.710831,-0.01183 -1,0 z m -44.59375,0.1875 c -0.09596,0.01713 -0.199956,0.122366 -0.25,0.28125 L 42.6875,41.34375 43,41.25 c 0.153725,-0.05422 0.259619,-0.151784 0.25,-0.25 -0.01446,-0.147363 -0.09153,-0.235892 -0.1875,-0.21875 z m 34.0625,0.75 -0.34375,0.25 -0.375,0.25 0.28125,0 0.3125,0 0.21875,0.625 0.21875,0.625 1.15625,0 1.1875,0 0.5625,0.21875 0.59375,0.25 0,0.625 0,0.59375 0.875,0.15625 c 0.480387,0.08256 1.118015,0.250971 1.40625,0.375 l 0.5,0.21875 0,0.40625 0,0.4375 -0.59375,0.6875 -0.59375,0.6875 0.40625,0.5 0.40625,0.5 -0.15625,0.59375 -0.15625,0.65625 0.53125,-0.15625 c 0.293227,-0.096 0.925863,-0.399765 1.40625,-0.65625 l 0.875,-0.4375 0,-0.34375 c 0,-0.183992 -0.151612,-0.487489 -0.34375,-0.65625 -0.49525,-0.434945 -0.449631,-0.804264 0.21875,-1.46875 0.320247,-0.318363 0.59375,-0.732906 0.59375,-0.90625 l 0,-0.3125 -0.875,-0.21875 C 84.957119,44.890095 84.404107,44.750786 84.1875,44.75 l -0.4375,0 -0.15625,-0.28125 c -0.08991,-0.153979 -0.173765,-0.494675 -0.1875,-0.78125 l 0,-0.53125 -1.875,-0.125 C 80.506425,42.95963 79.535127,42.793303 79.375,42.6875 L 79.09375,42.5 l 0,-0.46875 0,-0.5 -1,0 -0.96875,0 z m 6.625,0.25 -0.125,0.25 -0.15625,0.28125 0.25,0 0.25,0 0.1875,0.75 0.1875,0.78125 1.40625,0.53125 1.375,0.46875 0.09375,0.46875 0.0625,0.46875 L 86.625,46.5 86,47.21875 l 0.375,0.4375 c 0.491107,0.574256 0.488407,0.991344 0,1.5625 L 86,49.6875 l 0.5,0 0.53125,0 1.15625,-0.625 c 0.627199,-0.336333 1.148644,-0.692473 1.21875,-0.8125 L 89.5625,48 89.09375,47.59375 c -0.253185,-0.242529 -0.4375,-0.62113 -0.4375,-0.8125 0,-0.191324 0.242235,-0.680672 0.5625,-1.125 0.320249,-0.444327 0.59375,-0.949819 0.59375,-1.09375 l 0,-0.25 -1.21875,-0.1875 -1.25,-0.1875 -0.375,-0.375 -0.4375,-0.375 0,-0.6875 0,-0.71875 -1.375,0 -1.40625,0 z m -65.3125,1.1875 0,0.375 0.25,0.15625 0.3125,0.625 0.3125,0.625 -0.375,0.4375 c -0.213147,0.249253 -0.40625,0.531017 -0.40625,0.625 0,0.127834 2.045718,1.625 2.21875,1.625 0.01666,0 -0.008,-0.296868 -0.0625,-0.6875 l -0.09375,-0.71875 0.25,-0.15625 0.25,-0.15625 -0.03125,-0.4375 0,-0.4375 L 19.5,43.75 18.4375,42.96875 z m 6.34375,2.28125 0.125,0.3125 0.125,0.375 -0.34375,0.46875 c -0.179288,0.250425 -0.308421,0.525929 -0.3125,0.625 -0.0056,0.137787 1.927927,1.347269 2.25,1.40625 0.03446,0.0068 0.01436,-0.269661 -0.0625,-0.59375 L 26.40625,47.25 l 0.25,-0.15625 c 0.138505,-0.09057 0.25,-0.315708 0.25,-0.5 l 0,-0.3125 L 26.125,45.75 c -0.431444,-0.28217 -0.903785,-0.5 -1.0625,-0.5 l -0.28125,0 z m 65.0625,0.84375 -0.3125,0.34375 0.125,0.3125 c 0.03353,0.07451 0.121739,0.199988 0.1875,0.3125 l 0,-0.96875 z M 18.4375,46.875 l 0,0.4375 c 0.129787,0.08066 0.318179,0.156465 0.40625,0.21875 l 0.625,0.46875 0,0.34375 0,0.3125 -0.5625,0.4375 c -0.141662,0.11424 -0.304155,0.191397 -0.46875,0.3125 l 0,1.21875 0.4375,0.28125 1.3125,0.8125 L 20.125,52.25 20.03125,52.75 19,53.3125 c -0.204601,0.109066 -0.394747,0.238982 -0.5625,0.34375 l 0,0.9375 0.6875,0.34375 1.28125,0.65625 0,0.46875 0,0.46875 -0.65625,0.53125 -0.59375,0.53125 0.21875,0.1875 c 0.213827,0.214697 0.832506,0.445657 1.4375,0.5 L 21.125,58.3125 21,57.78125 20.875,57.25 21.4375,56.65625 c 0.311986,-0.330106 0.59375,-0.701508 0.59375,-0.8125 0,-0.111031 -0.484568,-0.391434 -1.0625,-0.625 l -1.0625,-0.4375 -0.1875,-0.375 -0.1875,-0.4375 0.09375,-0.28125 c 0.05855,-0.17305 0.530644,-0.542249 1.03125,-0.8125 0.500576,-0.27028 0.906601,-0.557334 0.90625,-0.65625 -2.35e-4,-0.09889 -0.374472,-0.447622 -0.84375,-0.71875 -0.469302,-0.271136 -0.986156,-0.662067 -1.125,-0.90625 L 19.34375,50.125 20.125,49.46875 C 20.542498,49.102901 20.876167,48.72551 20.875,48.625 20.8726,48.524466 20.280362,48.128812 19.59375,47.71875 19.169106,47.465127 18.77484,47.140292 18.4375,46.875 z m 2.53125,0.5 0.5,0.59375 c 0.288263,0.336899 0.5625,0.74096 0.5625,0.90625 l 0,0.3125 -0.84375,0.53125 c -0.448365,0.279928 -0.781624,0.567975 -0.78125,0.65625 0,0.08832 0.51688,0.442347 1.125,0.78125 l 1.0625,0.625 0,0.5 0,0.46875 -1.125,0.5625 c -0.608491,0.305695 -1.0625,0.585441 -1.0625,0.65625 0,0.07079 0.576675,0.420259 1.28125,0.75 l 1.28125,0.59375 0,0.4375 0,0.4375 -0.53125,0.5625 -0.5,0.59375 0.3125,0.25 c 0.188783,0.126319 0.618022,0.216686 0.90625,0.21875 l 0.5,0 0,-0.53125 0,-0.5625 L 24.125,56.1875 24.65625,55.625 24.5,55.375 C 24.42369,55.24443 24.071524,55.093687 23.71875,55 c -0.786857,-0.208971 -1.25,-0.584923 -1.25,-1.03125 l 0,-0.34375 0.84375,-0.5625 c 0.446756,-0.306226 0.779638,-0.603841 0.78125,-0.6875 0.0024,-0.08367 -0.393838,-0.453658 -0.90625,-0.8125 l -0.9375,-0.65625 0,-0.375 0,-0.40625 0.71875,-0.40625 0.6875,-0.40625 -0.0625,-0.1875 c -0.03399,-0.110331 -0.641912,-0.578832 -1.34375,-1 l -1.28125,-0.75 z m 3.40625,0.8125 0.125,0.75 0.15625,0.71875 -0.625,0.375 c -0.333909,0.231492 -0.594726,0.507673 -0.59375,0.59375 0,0.08611 0.426089,0.409696 0.9375,0.71875 l 0.90625,0.5625 0,0.375 0,0.34375 L 24.5,53.1875 c -0.446773,0.30623 -0.842163,0.618902 -0.84375,0.71875 -0.0024,0.09981 0.364911,0.347096 0.78125,0.53125 0.416335,0.184162 0.874514,0.541382 1.0625,0.78125 l 0.375,0.4375 -0.6875,0.59375 -0.625,0.59375 0.15625,0.21875 0.125,0.25 0.6875,0 0.6875,0 0,-0.28125 c 0,-0.16207 0.253414,-0.624086 0.59375,-1 l 0.65625,-0.6875 -1.09375,-0.46875 -1.09375,-0.5 0,-0.375 0,-0.34375 L 26,53.09375 c 0.38431,-0.300673 0.6875,-0.641172 0.6875,-0.75 0,-0.108804 -0.365725,-0.443738 -0.8125,-0.75 l -0.8125,-0.5625 0,-0.3125 0,-0.28125 0.5625,-0.40625 c 0.320247,-0.222059 0.59375,-0.534286 0.59375,-0.65625 0,-0.223022 -1.372271,-1.185785 -1.6875,-1.1875 l -0.15625,0 z m 2.75,0.75 0,0.46875 0,0.5 -0.5,0.40625 -0.53125,0.375 0.875,0.75 0.875,0.78125 0,0.3125 0,0.34375 -0.71875,0.375 c -0.384307,0.210288 -0.6875,0.494737 -0.6875,0.625 l 0,0.21875 0.84375,0.375 0.8125,0.34375 0.125,0.4375 0.15625,0.4375 -0.5,0.40625 c -0.27759,0.237828 -0.46875,0.539777 -0.46875,0.6875 l 0,0.28125 0.78125,0 0.84375,0 0,-0.46875 0,-0.46875 0.3125,-0.28125 c 0.19214,-0.168763 0.34375,-0.406147 0.34375,-0.5 0,-0.09381 -0.332885,-0.336241 -0.78125,-0.5625 L 28.0625,54.375 l 0,-0.375 0,-0.34375 0.71875,-0.53125 c 0.38431,-0.289606 0.6875,-0.605678 0.6875,-0.71875 0,-0.113093 -0.301511,-0.326367 -0.6875,-0.46875 L 28.0625,51.6875 27.9375,51.25 27.78125,50.84375 28.4375,50.3125 29.125,49.75 28.375,49.34375 C 27.970884,49.122628 27.540711,48.9375 27.40625,48.9375 l -0.28125,0 z M 88.65625,49.875 88,50.03125 c -0.351915,0.09346 -0.960058,0.316538 -1.375,0.5 l -0.75,0.3125 L 85.5,51.625 85.125,52.40625 85.65625,52.375 c 0.291525,-0.0062 0.841618,-0.149148 1.1875,-0.3125 l 0.59375,-0.28125 0.59375,-0.96875 0.625,-0.9375 z m -3.75,0.53125 c -0.128809,0 -0.667588,0.186087 -1.1875,0.40625 l -0.90625,0.40625 -0.34375,0.71875 -0.375,0.6875 0.375,0 c 0.199552,0 0.72051,-0.15108 1.15625,-0.34375 l 0.78125,-0.34375 0.375,-0.75 0.375,-0.78125 -0.25,0 z m 4.9375,0 -0.96875,0.5 -0.21875,0.46875 c -0.132695,0.262422 -0.25,0.548303 -0.25,0.625 0,0.230982 0.822199,0.15186 1.4375,-0.125 l 0,-1.46875 z m -8.1875,0.1875 -0.9375,0.3125 -0.90625,0.28125 -0.28125,0.46875 -0.25,0.46875 0.125,0.25 0.125,0.21875 0.96875,-0.25 0.96875,-0.28125 0.25,-0.59375 0.25,-0.5625 L 81.8125,50.75 81.65625,50.59375 z m -63.21875,1.09375 0,1.09375 0.90625,-0.4375 -0.46875,-0.375 C 18.79174,51.90599 18.573863,51.785093 18.4375,51.6875 z m 63.9375,2.125 -0.625,0.3125 c -0.355429,0.183228 -0.666571,0.4868 -0.71875,0.65625 l -0.125,0.3125 0.4375,0 c 0.238365,0 0.673249,-0.187224 0.96875,-0.40625 l 0.5625,-0.375 -0.25,-0.25 -0.25,-0.25 z m -4.65625,0.0625 c -0.656047,-1.2e-5 -1.4375,0.395056 -1.4375,0.75 l 0,0.28125 0.65625,-0.1875 c 0.352284,-0.09137 0.781182,-0.305597 0.96875,-0.5 l 0.375,-0.34375 -0.5625,0 z M 80.25,54.0625 79.65625,54.15625 79,54.25 78.90625,54.53125 78.8125,54.875 l 0.34375,0 c 0.192332,0 0.547382,-0.105178 0.75,-0.1875 0.202679,-0.08228 0.34375,-0.244911 0.34375,-0.375 l 0,-0.25 z m 6.1875,0 -0.40625,0.53125 C 85.803218,54.891789 85.625,55.254456 85.625,55.375 l 0,0.21875 0.46875,0 0.46875,0 0.625,-0.65625 0.625,-0.6875 -0.6875,-0.125 -0.6875,-0.0625 z m -2.15625,0.03125 -0.5625,0.46875 -0.5,0.46875 0.15625,0.25 0.15625,0.3125 0.40625,-0.1875 c 0.220078,-0.08246 0.557065,-0.296228 0.78125,-0.5 0.224191,-0.203744 0.40625,-0.447959 0.40625,-0.5625 l 0,-0.25 -0.4375,0 -0.40625,0 z m 5.5625,0 -0.46875,0.125 -0.625,0.15625 -0.40625,0.53125 c -0.22416,0.280353 -0.40625,0.61476 -0.40625,0.75 l 0,0.21875 0.65625,-0.125 0.625,-0.15625 0.4375,-0.53125 c 0.08104,-0.101358 0.127877,-0.208241 0.1875,-0.3125 l 0,-0.65625 z m -71.40625,1.34375 0,1.8125 L 18.75,57 c 0.394122,-0.350925 0.71875,-0.756588 0.71875,-0.875 0,-0.102948 -0.480567,-0.395669 -1.03125,-0.6875 z m 53.65625,0.125 0.125,0.375 c 0.07786,0.214692 0.281195,0.40625 0.40625,0.40625 l 0.21875,0 -0.09375,-0.3125 c -0.05067,-0.160996 -0.222814,-0.321304 -0.375,-0.375 L 72.09375,55.5625 z m 1.9375,0.28125 0.09375,0.5 0.125,0.5 0.34375,0 0.3125,0 -0.25,-0.5 c -0.137145,-0.271138 -0.32591,-0.5 -0.4375,-0.5 l -0.1875,0 z m 3.875,0.6875 0,0.34375 c 0,0.197375 0.07087,0.409626 0.15625,0.5 0.221203,0.234089 0.5625,0.224037 0.5625,-0.03125 0,-0.118926 -0.151574,-0.331248 -0.34375,-0.5 l -0.375,-0.3125 z m 1.875,0.21875 -0.125,0.15625 -0.15625,0.125 0.28125,0.53125 c 0.142996,0.28274 0.345166,0.46875 0.46875,0.46875 l 0.21875,0 0,-0.3125 c 0,-0.186734 -0.148512,-0.484771 -0.34375,-0.65625 L 79.78125,56.75 z m -3.75,0.09375 0.15625,0.21875 c 0.07917,0.135534 0.276588,0.25 0.46875,0.25 l 0.375,0 -0.15625,-0.25 c -0.07916,-0.135562 -0.307829,-0.21875 -0.5,-0.21875 l -0.34375,0 z m 5.625,0 c -0.30784,0 -0.289469,0.229179 0.0625,1.03125 0.302369,0.688953 0.531806,0.842356 0.75,0.46875 l 0.125,-0.25 -0.375,-0.28125 C 82.028002,57.644985 81.875,57.342988 81.875,57.15625 l 0,-0.3125 -0.21875,0 z m 1.5625,0.21875 -0.15625,0.15625 -0.125,0.125 0.40625,0.34375 0.375,0.28125 0,0.4375 0,0.375 0.5,0 c 0.256212,0 0.46875,-0.05842 0.46875,-0.125 0,-0.06661 -0.314219,-0.434671 -0.71875,-0.84375 l -0.75,-0.75 z m -49.78125,0.0625 -0.34375,0.0625 -0.0625,0.5625 -0.09375,0.5625 0.59375,0 0.59375,0 0.1875,-0.40625 0.125,-0.375 -0.34375,-0.25 C 33.914888,57.159514 33.629665,57.089908 33.4375,57.125 z m -2.46875,0.25 c -0.144356,-0.0065 -0.259988,-0.0031 -0.3125,0.03125 l -0.1875,0.15625 0.125,0.625 0.09375,0.65625 0.625,-0.09375 0.625,-0.09375 L 32,58.125 l 0.0625,-0.5 -0.59375,-0.1875 c -0.166499,-0.04421 -0.355643,-0.05599 -0.5,-0.0625 z m 58,0.4375 c -0.363695,0 -0.455456,0.278921 -0.1875,0.5625 0.268002,0.28363 0.53125,0.197415 0.53125,-0.1875 l 0,-0.375 -0.34375,0 z m -60.65625,0.21875 0,0.59375 c 0,0.723113 0.160413,0.9375 0.84375,0.9375 l 0.53125,0 0,-0.78125 0,-0.75 -0.65625,0 -0.71875,0 z m -2.46875,0.25 0,0.875 0,0.875 0.71875,0 0.71875,0 0,-0.8125 0,-0.78125 -0.71875,-0.09375 -0.71875,-0.0625 z M 87.4375,58.5 l 0.25,0.53125 c 0.289111,0.571665 0.395121,0.590133 0.59375,0.25 L 88.4375,59.0625 87.90625,58.78125 87.4375,58.5 z m -50.53125,0.03125 0,0.21875 c 0,0.573322 0.731122,0.649643 0.90625,0.09375 l 0.09375,-0.3125 -0.46875,0 -0.53125,0 z M 73.5,58.75 73.125,58.84375 c -0.213589,0.04382 -0.446685,0.20554 -0.5,0.375 l -0.09375,0.34375 0.5,0 0.46875,0 0,-0.40625 0,-0.40625 z m -49.96875,0.03125 -0.03125,1 -0.03125,0.96875 0.65625,0 0.65625,0 0.15625,-0.71875 0.15625,-0.75 -0.15625,-0.21875 -0.15625,-0.28125 -0.625,0 -0.625,0 z M 89.59375,59 l 0,0.375 0,0.40625 0.25,0 0,-0.6875 L 89.59375,59 z M 21.6875,59.28125 c -0.122884,-0.01202 -0.226661,0.0062 -0.25,0.03125 -0.04667,0.05014 -0.160309,0.522894 -0.25,1.03125 l -0.15625,0.90625 0.625,0 0.625,0 L 22.5,60.625 c 0.124949,-0.347719 0.21875,-0.719593 0.21875,-0.84375 l 0,-0.21875 L 22.125,59.375 c -0.163114,-0.04333 -0.314617,-0.08175 -0.4375,-0.09375 z m 53.3125,0 c -0.187708,1.98e-4 -0.37166,0.115018 -0.46875,0.28125 l -0.125,0.25 0.125,0.375 c 0.165458,0.456259 0.485429,0.456865 0.84375,0 L 75.65625,59.8125 75.5,59.5625 C 75.40305,59.396466 75.187707,59.28105 75,59.28125 z m -39.78125,0.125 -0.09375,0.3125 -0.09375,0.3125 0.5,0 0.5,0 -0.09375,-0.3125 -0.09375,-0.3125 -0.3125,0 -0.3125,0 z M 34.125,59.75 l -0.40625,0.0625 -0.375,0.09375 -0.09375,0.4375 -0.0625,0.40625 0.46875,0 0.46875,0 0,-0.46875 0,-0.53125 z M 19,59.78125 l 0,0.4375 c -0.0024,0.237258 -0.0763,0.684184 -0.15625,1 l -0.125,0.5625 0.625,-0.0625 L 20,61.625 20.21875,60.9375 c 0.09911,-0.39507 0.09735,-0.855465 0.03125,-0.96875 -0.06618,-0.113253 -0.374787,-0.1875 -0.6875,-0.1875 l -0.5625,0 z m 58.21875,0.1875 -0.34375,0.125 -0.375,0.1875 0,0.34375 0,0.40625 0.375,0 c 0.176463,0 0.412504,-0.183751 0.5625,-0.375 l 0.28125,-0.34375 -0.25,-0.15625 -0.25,-0.1875 z m -45.4375,0.1875 -0.3125,0.46875 c -0.183545,0.263124 -0.375,0.577846 -0.375,0.6875 l 0,0.21875 0.46875,0 0.4375,0 0.125,-0.4375 0.15625,-0.40625 -0.25,-0.28125 -0.25,-0.25 z m 47.125,0.125 -0.34375,0.59375 -0.375,0.5625 0.15625,0.1875 c 0.235407,0.249106 0.400077,0.138525 0.8125,-0.34375 l 0.40625,-0.4375 -0.34375,-0.28125 -0.3125,-0.28125 z m 2.03125,0.625 -0.5,0.53125 L 79.90625,62 80.25,62.25 80.59375,62.46875 81.0625,62 81.53125,61.53125 81.25,61.21875 80.9375,60.90625 z M 29.5,61.03125 29.25,61.5 l -0.21875,0.4375 0.15625,0.15625 c 0.08533,0.09028 0.301602,0.133733 0.5,0.09375 l 0.375,-0.09375 0.09375,-0.53125 0.0625,-0.53125 -0.375,0 -0.34375,0 z m -2.09375,0.5 0,0.71875 0,0.75 0.3125,0 0.34375,0 0,-0.375 c 0,-0.192277 0.07853,-0.504322 0.15625,-0.71875 l 0.125,-0.375 -0.46875,0 -0.46875,0 z m 10.15625,0 -0.21875,0.15625 -0.21875,0.125 0.53125,0.34375 C 38.346383,62.547107 38.598567,62.338174 38,61.875 L 37.5625,61.53125 z M 82.90625,61.5625 82.375,62.03125 81.84375,62.5 l 0.125,0.375 c 0.182702,0.503883 0.538435,0.43137 1.09375,-0.15625 0.538994,-0.570372 0.577745,-0.860088 0.15625,-1.03125 l -0.3125,-0.125 z m -7.375,0.1875 -0.46875,0.4375 -0.40625,0.375 0.375,0.46875 c 0.213046,0.249144 0.485056,0.46875 0.5625,0.46875 0.07742,0 0.263391,-0.267413 0.4375,-0.5625 L 76.34375,62.40625 75.9375,62.0625 75.53125,61.75 z M 25.5,62.25 l 0,0.34375 c 0,0.192279 -0.04726,0.504317 -0.125,0.71875 l -0.15625,0.40625 0.375,0 0.40625,0 0.21875,-0.625 c 0.124949,-0.347722 0.21875,-0.691038 0.21875,-0.75 C 26.4375,62.28481 26.256222,62.25 26,62.25 l -0.5,0 z m 59.625,0 -0.4375,0.21875 C 84.436489,62.610876 84.176291,62.858677 84.09375,63 l -0.15625,0.25 0.15625,0.375 c 0.07138,0.196822 0.1507,0.34375 0.21875,0.34375 0.06807,0 0.327628,-0.218382 0.59375,-0.5 l 0.53125,-0.5 -0.125,-0.375 L 85.125,62.25 z m -49.65625,0.25 0.3125,0.375 0.28125,0.34375 0.375,0 0.375,0 L 36.375,62.875 C 36.126334,62.675938 35.838046,62.5 35.71875,62.5 l -0.25,0 z m -11.8125,0.21875 0,0.34375 c -0.0024,0.169419 -0.07903,0.538744 -0.15625,0.84375 l -0.125,0.5625 0.46875,0 0.53125,0 0,-0.5 c 0,-0.260035 0.04727,-0.629326 0.125,-0.84375 l 0.15625,-0.40625 -0.53125,0 -0.46875,0 z m 63.21875,0.09375 -0.65625,0.5625 -0.625,0.59375 0.125,0.25 c 0.20261,0.3469 0.525557,0.302753 1.1875,-0.15625 l 0.5625,-0.375 0,-0.34375 c 0,-0.173245 -0.116872,-0.339517 -0.28125,-0.40625 L 86.875,62.8125 z M 77.6875,63 c -0.204988,0 -0.473022,0.120387 -0.625,0.28125 l -0.28125,0.3125 0.375,0.40625 c 0.210257,0.24587 0.442859,0.46875 0.53125,0.46875 0.0884,0 0.352237,-0.22287 0.5625,-0.46875 l 0.375,-0.40625 -0.28125,-0.3125 C 78.191792,63.120433 77.89247,63 77.6875,63 z m -55.875,0.21875 0,0.5 0,0.46875 -0.25,0.15625 c -0.128111,0.08382 -0.25,0.247466 -0.25,0.375 l 0,0.25 0.59375,0 0.5625,0 0,-0.5 c 0,-0.260035 0.07852,-0.629319 0.15625,-0.84375 l 0.125,-0.40625 -0.46875,0 -0.46875,0 z m 12.3125,0 -0.28125,0.15625 -0.25,0.1875 0.5625,0.3125 c 0.671193,0.393696 0.90625,0.409191 0.90625,0.09375 0,-0.130826 -0.209877,-0.322154 -0.46875,-0.46875 L 34.125,63.21875 z m 54.8125,0.25 -0.625,0.59375 -0.65625,0.625 0.15625,0.25 c 0.08329,0.142489 0.183618,0.25 0.25,0.25 0.06631,0 0.459271,-0.311872 0.84375,-0.71875 l 0.71875,-0.75 -0.375,-0.125 -0.3125,-0.125 z m -9.0625,0.0625 -0.5,0.6875 -0.5,0.6875 0.375,0.375 c 0.210125,0.222382 0.493108,0.40625 0.59375,0.40625 0.100649,0 0.368795,-0.228863 0.625,-0.5 0.256212,-0.271137 0.46875,-0.567526 0.46875,-0.6875 0,-0.11998 -0.228728,-0.415219 -0.53125,-0.625 L 79.875,63.53125 z m -59.96875,0.15625 0,0.5 0,0.46875 -0.21875,0.1875 c -0.12811,0.08382 -0.21875,0.295218 -0.21875,0.5 l 0,0.375 0.46875,-0.0625 0.53125,-0.0625 0.09375,-0.5625 c 0.04269,-0.300318 0.09144,-0.677636 0.125,-0.84375 L 20.75,63.875 20.34375,63.78125 19.90625,63.6875 z M 32.25,63.96875 c -0.120555,0 -0.21875,0.114449 -0.21875,0.25 l 0,0.25 0.375,0 0.34375,0 -0.125,-0.25 c -0.07912,-0.135535 -0.254432,-0.25 -0.375,-0.25 z m -13.8125,0.5 0,1.53125 c 0.0619,-0.186072 0.119141,-0.412712 0.1875,-0.75 l 0.1875,-0.78125 -0.375,0 z m 18.9375,0 c -0.386715,0 -1.125,0.761759 -1.125,1.15625 l 0,0.3125 0.3125,0 0.3125,0 0.375,-0.625 c 0.447994,-0.723513 0.487167,-0.84375 0.125,-0.84375 z m 39.1875,0.1875 -0.46875,0.5 c -0.251724,0.266366 -0.542538,0.511366 -0.6875,0.5625 L 75.125,65.8125 75.4375,66.625 75.71875,67.46875 75.25,67.8125 c -0.248634,0.192425 -0.619803,0.375 -0.84375,0.375 l -0.40625,0 0.0625,1 0.03125,1.0625 -0.78125,0.09375 -0.71875,0.0625 0,0.15625 c 0,0.09678 0.145203,0.418772 0.34375,0.71875 l 0.34375,0.5625 0.53125,-0.375 0.59375,-0.375 0.40625,0.0625 0.40625,0.0625 L 75.1875,70.875 c -0.02822,-0.203344 -0.133121,-0.706545 -0.21875,-1.09375 l -0.15625,-0.6875 0.3125,-0.1875 0.3125,-0.21875 0.78125,0.15625 0.78125,0.125 0,-0.125 c 0,-0.08088 -0.215869,-0.57057 -0.4375,-1.0625 l -0.375,-0.875 0.4375,-0.375 c 0.246152,-0.190493 0.582325,-0.34375 0.75,-0.34375 0.459752,0 0.374812,-0.347573 -0.25,-0.96875 l -0.5625,-0.5625 z M 82.25,64.6875 81.71875,65.25 81.1875,65.78125 81.5625,66.25 c 0.211787,0.247684 0.455043,0.41051 0.53125,0.40625 C 82.17001,66.65155 82.443062,66.354645 82.6875,66 L 83.125,65.375 82.6875,65.0625 82.25,64.6875 z m -51.59375,0.28125 c -0.120554,0 -0.264562,0.08321 -0.34375,0.21875 l -0.15625,0.28125 0.375,0 0.34375,0 0,-0.28125 c 0,-0.135563 -0.09814,-0.21875 -0.21875,-0.21875 z m 59.1875,0 -0.5625,0.25 0.3125,0.375 c 0.09677,0.123393 0.168187,0.19327 0.25,0.25 l 0,-0.875 z m -54.75,0.46875 -0.375,0.59375 -0.375,0.625 0.15625,0.28125 0.15625,0.25 0.4375,-0.375 c 0.243464,-0.233168 0.4375,-0.606923 0.4375,-0.78125 0,-0.174349 -0.09627,-0.357399 -0.21875,-0.4375 L 35.09375,65.4375 z m 49.25,0.0625 -0.53125,0.625 c -0.29292,0.334446 -0.53125,0.664049 -0.53125,0.75 0,0.086 0.216552,0.399455 0.5,0.71875 L 84.3125,68.1875 84.5,67.625 c 0.105695,-0.310533 0.374435,-0.730016 0.59375,-0.90625 L 85.5,66.40625 84.90625,65.9375 84.34375,65.5 z M 28.6875,65.90625 c -0.1217,0 -0.297797,0.135562 -0.34375,0.28125 l -0.09375,0.25 0.4375,0 0.375,0 -0.09375,-0.25 C 28.92283,66.041809 28.809171,65.90625 28.6875,65.90625 z m 50.625,0.46875 -0.78125,0.40625 c -0.436529,0.21918 -0.921728,0.375 -1.0625,0.375 -0.345926,0 -0.326622,0.19091 0.125,1 l 0.375,0.6875 -0.125,0.40625 -0.15625,0.40625 -0.96875,0 -0.9375,0 0.15625,0.5625 c 0.09237,0.305052 0.200119,0.786088 0.21875,1.125 l 0.03125,0.625 -0.8125,0.15625 -0.8125,0.125 0.0625,0.34375 c 0.04255,0.198583 0.174399,0.511415 0.3125,0.6875 l 0.25,0.34375 0.40625,-0.1875 c 0.203698,-0.09624 0.769617,-0.1818 1.25,-0.15625 l 0.84375,0.09375 0,-0.28125 c 0,-0.134224 -0.164691,-0.627006 -0.375,-1.09375 L 76.9375,71.15625 77.09375,70.75 77.25,70.3125 l 1.03125,0.15625 1.03125,0.125 0,-0.15625 C 79.3077,70.33845 79.151833,69.995155 78.96875,69.65625 78.785656,69.317352 78.629544,68.754294 78.625,68.4375 l 0,-0.5625 0.6875,-0.28125 c 0.384311,-0.153533 0.71875,-0.348275 0.71875,-0.4375 0,-0.08924 -0.152428,-0.331983 -0.34375,-0.5 L 79.3125,66.375 z m -45.875,0.25 -0.34375,0.3125 c -0.197612,0.173562 -0.497968,0.530073 -0.625,0.78125 L 32.25,68.1875 l 0.15625,0.25 0.15625,0.25 0.59375,-0.59375 0.5625,-0.625 -0.125,-0.40625 -0.15625,-0.4375 z m 53.15625,0 L 86,67.25 85.375,67.84375 85.875,68.5 c 0.265558,0.357221 0.537437,0.65625 0.65625,0.65625 l 0.25,0 0,-0.53125 0,-0.5 0.46875,-0.15625 0.4375,-0.125 0,-0.28125 0,-0.3125 -0.53125,-0.28125 -0.5625,-0.34375 z m -5.40625,0.46875 0,0.5 0,0.53125 -0.375,0.125 c -0.202679,0.08224 -0.596469,0.15625 -0.90625,0.15625 -0.309743,0 -0.59375,0.07302 -0.59375,0.15625 0,0.08321 0.257332,0.577998 0.53125,1.09375 L 80.3125,70.5625 80.15625,71 80,71.4375 78.96875,71.28125 77.90625,71.125 l 0,0.21875 c 0,0.128326 0.195911,0.627012 0.40625,1.09375 l 0.375,0.84375 -0.125,0.40625 -0.15625,0.40625 -0.9375,0 -0.96875,0 0,0.28125 c 0,0.157546 0.293412,0.77622 0.625,1.375 l 0.59375,1.09375 -0.125,0.59375 -0.15625,0.625 -0.5625,0.25 c -0.316541,0.15266 -0.59375,0.38894 -0.59375,0.5 0,0.111034 0.166242,0.635382 0.375,1.1875 l 0.40625,1 0.46875,-0.46875 c 0.271644,-0.258074 0.713325,-0.541275 0.9375,-0.625 l 0.375,-0.15625 0,-0.375 c 0,-0.224553 -0.261673,-1.060683 -0.59375,-1.84375 l -0.59375,-1.4375 0.0625,-0.4375 0.09375,-0.46875 1,0.03125 1,0.0625 0,-0.34375 c 0,-0.190536 -0.19594,-0.720754 -0.40625,-1.1875 l -0.375,-0.84375 0.125,-0.40625 0.15625,-0.375 1.15625,0 1.1875,0 0,-0.34375 c 0,-0.169507 -0.214236,-0.624568 -0.46875,-1.03125 -0.254479,-0.406688 -0.467909,-0.902274 -0.46875,-1.125 l 0,-0.4375 0.375,-0.125 C 81.296393,68.98026 81.690218,68.90625 82,68.90625 l 0.59375,0 0,-0.21875 c 0,-0.110176 -0.334444,-0.516629 -0.71875,-0.90625 l -0.6875,-0.6875 z M 20.625,67.375 l 0,0.40625 0,0.4375 0.25,-0.09375 c 0.137718,-0.04853 0.25,-0.214956 0.25,-0.34375 0,-0.128792 -0.112281,-0.263925 -0.25,-0.3125 L 20.625,67.375 z m 68.40625,0.09375 -0.65625,0.75 c -0.365369,0.413918 -0.6875,0.798344 -0.6875,0.875 0,0.228647 0.787419,1.0625 1,1.0625 l 0.1875,0 0,-0.53125 0,-0.5 0.5625,-0.21875 0.40625,-0.15625 0,-0.625 c -0.0831,-0.104403 -0.156744,-0.220225 -0.28125,-0.3125 l -0.53125,-0.34375 z m -63.8125,0.1875 -0.25,0.25 -0.25,0.28125 0.59375,0 0.625,0 0.28125,0.34375 0.3125,0.40625 L 26.75,68.84375 C 26.882894,68.79689 27.022188,68.627859 27.0625,68.5 L 27.125,68.28125 26.1875,67.9375 25.21875,67.65625 z m 6.21875,0.53125 c -0.08598,0 -0.359483,0.150651 -0.59375,0.375 l -0.4375,0.40625 0,0.59375 0,0.59375 0.21875,0 c 0.120821,0 0.363081,-0.261215 0.5625,-0.5625 0.367175,-0.554729 0.536804,-1.40625 0.25,-1.40625 z m -8.25,0.21875 0,0.25 0,0.25 0.34375,0 0.34375,0 0,-0.25 0,-0.25 -0.34375,0 -0.34375,0 z m 60.375,0.5 -0.125,0.3125 -0.125,0.375 L 82.5,69.75 c -0.458588,0.09103 -0.844585,0.248199 -0.84375,0.34375 0,0.09554 0.182982,0.499566 0.4375,0.90625 l 0.5,0.71875 0,0.5625 0,0.53125 -0.46875,0.15625 -0.4375,0.15625 -0.84375,-0.15625 c -0.454159,-0.09013 -0.8125,-0.121196 -0.8125,-0.0625 0,0.0587 0.170049,0.6134 0.375,1.25 l 0.34375,1.15625 -0.125,0.375 -0.125,0.375 -0.9375,0 c -0.516421,0 -0.9375,0.04621 -0.9375,0.09375 0,0.04758 0.109365,0.41684 0.25,0.84375 0.277661,0.842838 0.570349,0.987848 0.78125,0.40625 l 0.125,-0.375 1.03125,0 1.0625,0 0,-0.25 c 0,-0.142271 -0.143896,-0.591043 -0.34375,-1 l -0.375,-0.75 L 81.25,74.375 81.3125,73.71875 82.65625,73.78125 84,73.84375 84,73.5625 c 0,-0.161139 -0.234616,-0.670599 -0.5,-1.125 l -0.46875,-0.8125 0.0625,-0.5625 0.0625,-0.5625 0.78125,-0.15625 c 0.422841,-0.09098 0.82813,-0.229761 0.90625,-0.3125 l 0.125,-0.15625 -0.40625,-0.46875 c -0.232549,-0.271937 -0.528913,-0.5 -0.6875,-0.5 l -0.3125,0 z m -61.71875,0.1875 -0.25,0.15625 c -0.140366,0.09181 -0.28125,0.278725 -0.28125,0.40625 l 0,0.21875 0.65625,0 0.625,0 -0.375,-0.375 -0.375,-0.40625 z m 7.59375,0 -0.5625,0.5625 -0.5625,0.5625 0,0.40625 c 0,0.442794 0.200267,0.71875 0.5,0.71875 0.103837,0 0.356766,-0.230193 0.5625,-0.5625 L 29.75,70.15625 29.59375,69.625 29.4375,69.09375 z m -4.875,0.0625 0.15625,0.25 c 0.07917,0.135564 0.223194,0.25 0.34375,0.25 0.120553,0 0.21875,-0.114486 0.21875,-0.25 l 0,-0.25 -0.34375,0 -0.375,0 z m 9.34375,0.25 c -0.27283,0 -1.40625,1.710446 -1.40625,2.125 0,0.163069 0.110968,0.587136 0.25,0.96875 L 33.03125,73.21875 33.5625,72.125 34.09375,71 34.125,70.21875 l 0,-0.8125 -0.21875,0 z m 55.9375,0.53125 C 89.83915,69.9507 89.8125,69.9911 89.8125,70 c 0,0.02023 0.02351,0.06749 0.03125,0.09375 l 0,-0.15625 z M 20.28125,70 l -0.25,0.03125 c -0.126338,0.02668 -0.271067,0.258236 -0.3125,0.46875 l -0.0625,0.375 0.375,0 0.40625,0 L 20.34375,70.4375 20.28125,70 z m 65.9375,0.15625 -0.4375,0.46875 -0.40625,0.5 -0.65625,0 c -0.357964,0 -0.727317,0.06614 -0.8125,0.15625 l -0.1875,0.1875 0.625,1.03125 0.5625,1.0625 0,0.5 0,0.4375 -0.375,0.15625 -0.375,0.1875 -1.125,-0.1875 L 81.9375,74.5 l 0.46875,1.53125 0.53125,1.53125 -0.34375,0.21875 -0.375,0.25 -0.84375,-0.1875 -0.90625,-0.125 0,0.28125 c 0,0.148287 0.18451,0.633006 0.40625,1.125 L 81.3125,80.0625 81.625,79.53125 81.9375,79 l 1,0 c 0.539504,0 1.045342,-0.07193 1.125,-0.15625 l 0.125,-0.125 L 83.59375,77.5 83.03125,76.28125 83.1875,75.75 l 0.125,-0.53125 1.5,0.1875 1.5,0.125 0,-0.25 c 0,-0.130427 -0.28141,-0.754978 -0.625,-1.40625 L 85.0625,72.71875 85.1875,72.3125 85.375,71.875 86.40625,71.71875 87.5,71.5625 86.875,70.84375 86.21875,70.15625 z M 27.3125,70.875 c -0.166538,0 -0.440027,0.118549 -0.59375,0.28125 l -0.28125,0.3125 0,0.8125 0,0.8125 0.21875,0 c 0.120795,0 0.394325,-0.261221 0.59375,-0.5625 l 0.375,-0.5625 0,-0.53125 0,-0.5625 -0.3125,0 z m 61.09375,0.15625 0,0.40625 c 0,0.219037 -0.173666,0.568231 -0.375,0.78125 l -0.375,0.375 -0.78125,0 -0.8125,0 0,0.3125 c 0,0.162177 0.263233,0.714038 0.59375,1.21875 l 0.625,0.90625 -0.0625,0.5625 L 87.125,76.1875 85.5625,76.15625 84,76.09375 l 0,0.25 c 0,0.127939 0.181283,0.656052 0.4375,1.1875 l 0.46875,0.96875 0,0.59375 0,0.59375 -0.375,0.15625 -0.375,0.1875 -0.78125,-0.1875 -0.71875,-0.15625 -0.15625,0.25 -0.1875,0.28125 0.5625,1.15625 0.53125,1.125 0.0625,-0.90625 0.0625,-0.90625 1.375,0.125 1.40625,0.125 0,-0.375 c 0,-0.197694 -0.273481,-0.782499 -0.59375,-1.28125 l -0.59375,-0.875 0,-0.6875 0,-0.6875 0.59375,-0.125 0.5625,-0.15625 1.125,0.25 c 0.614403,0.13869 1.155489,0.191906 1.21875,0.125 0.0633,-0.06697 -0.05947,-0.445817 -0.28125,-0.84375 -0.221781,-0.397933 -0.588316,-1.033406 -0.8125,-1.4375 l -0.40625,-0.75 0.25,-0.4375 0.25,-0.4375 1.09375,-0.09375 1.09375,-0.0625 0,-0.28125 c 0,-0.170527 -0.334438,-0.641623 -0.71875,-1.03125 l -0.6875,-0.71875 z m -69.96875,0.28125 0,0.3125 0.125,0 -0.09375,-0.28125 C 18.46435,71.32974 18.4435,71.32593 18.4375,71.3125 z m 12.75,0.03125 -0.5,0.96875 -0.5,0.96875 0.15625,0.78125 0.125,0.75 0.1875,0 c 0.110255,0 0.488938,-0.420088 0.8125,-0.9375 l 0.5625,-0.9375 -0.125,-0.78125 -0.15625,-0.8125 -0.25,0 -0.3125,0 z m -6.09375,0.46875 -0.375,0.625 -0.375,0.625 0.125,0.5 c 0.08331,0.277757 0.258469,0.53125 0.375,0.53125 0.116508,0 0.356789,-0.29274 0.5625,-0.625 L 25.8125,72.875 25.6875,72.4375 c -0.0426,-0.23263 -0.191811,-0.477712 -0.34375,-0.53125 l -0.25,-0.09375 z m 29.53125,0 0,0.53125 0,0.5 0.375,0 0.34375,0 -0.0625,-0.40625 c -0.04146,-0.225895 -0.214881,-0.47482 -0.375,-0.53125 L 54.625,71.8125 z m -36,0.78125 c -0.07744,0 -0.134944,0.0076 -0.1875,0.03125 l 0,0.53125 0.15625,0.15625 0.21875,-0.125 C 18.922734,73.11543 19,72.971319 19,72.84375 l 0,-0.25 -0.375,0 z m 4.75,0.46875 -0.4375,0.4375 -0.46875,0.40625 0,1.09375 0,1.125 0.375,-0.34375 c 0.200604,-0.176197 0.531161,-0.616101 0.71875,-1 l 0.34375,-0.6875 -0.25,-0.53125 -0.28125,-0.5 z m 50.40625,0.03125 c -0.09799,0.0033 -0.43265,0.210718 -0.75,0.46875 l -0.59375,0.5 0.34375,1.15625 c 0.179368,0.653988 0.333879,1.588032 0.34375,2.0625 l 0.03125,0.875 -0.53125,0.0625 -0.53125,0.09375 0,1.71875 0,1.6875 -0.375,0.15625 L 71.375,82.03125 70.53125,81.625 69.75,81.1875 l -0.71875,0.65625 -0.6875,0.625 L 67.8125,82.3125 67.34375,82.15625 68.5,83.4375 c 0.635692,0.692522 1.226323,1.25 1.3125,1.25 0.08615,0 0.321412,-0.286065 0.53125,-0.625 l 0.375,-0.625 0.53125,0.03125 c 0.285272,0.005 0.742244,0.150026 1.0625,0.34375 0.320245,0.193763 0.685169,0.370193 0.78125,0.375 l 0.15625,0 0,-1.75 0,-1.75 0.71875,-0.28125 0.6875,-0.28125 0,-0.40625 c 0,-0.225016 -0.25847,-1.037593 -0.59375,-1.8125 L 73.4375,76.5 l 0.25,-0.59375 0.25,-0.53125 0.46875,-0.1875 c 0.264028,-0.08867 0.469241,-0.219973 0.46875,-0.3125 -0.0024,-0.301281 -0.910673,-1.786885 -1.09375,-1.78125 z m -44.59375,0.125 -0.6875,0.875 -0.6875,0.84375 0.15625,1.03125 0.125,1.0625 -1.1875,2.21875 c -0.662132,1.214089 -1.231528,2.383411 -1.25,2.625 l -0.03125,0.46875 0.71875,0.0625 c 0.384313,0.04587 0.855893,0.221448 1.03125,0.375 l 0.3125,0.28125 -0.125,1.4375 -0.125,1.46875 0.5,-0.15625 c 0.277252,-0.07209 1.154778,-0.373257 1.96875,-0.6875 L 31.375,84.53125 31.96875,85.375 c 0.323373,0.44057 0.662677,0.78125 0.75,0.78125 0.08732,0 0.709347,-0.53054 1.40625,-1.15625 0.696911,-0.625717 1.342197,-1.182071 1.40625,-1.25 0.06403,-0.06795 -0.245963,-0.03768 -0.6875,0.0625 L 34.03125,84 33.53125,83.3125 33,82.59375 31.6875,83.25 l -1.28125,0.65625 -0.5625,0 -0.5625,0 -0.125,-0.34375 -0.125,-0.375 0.125,-1.15625 0.15625,-1.1875 -0.9375,-0.25 -0.875,-0.25 L 27.53125,79.5 27.5625,78.59375 28.34375,77.375 c 0.443937,-0.682947 0.954858,-1.627849 1.125,-2.0625 L 29.75,74.53125 29.46875,73.875 29.1875,73.21875 z m 3.375,0.375 c -0.128542,0 -1.90625,3.034023 -1.90625,3.25 0,0.112764 0.364142,0.364254 0.8125,0.5625 l 0.8125,0.34375 0,1.09375 c 0,0.953047 0.109566,1.40625 0.375,1.40625 0.0451,0 0.589046,-0.307835 1.21875,-0.65625 l 1.15625,-0.625 0.4375,0.25 c 0.249583,0.141364 0.549908,0.417894 0.625,0.625 l 0.125,0.40625 0.28125,0 c 0.164143,-0.0014 0.921395,-0.516398 1.6875,-1.125 l 1.40625,-1.09375 0.4375,0 0.40625,0 0.125,0.34375 0.15625,0.40625 0.40625,0 0.4375,0 0.59375,-0.84375 0.5625,-0.78125 L 42.3125,77 c -0.238535,-0.09335 -0.509013,-0.292434 -0.59375,-0.4375 -0.08467,-0.145124 -0.237132,-0.25 -0.34375,-0.25 -0.106581,0 -0.692388,0.426507 -1.3125,0.96875 l -1.125,1 -0.53125,0 -0.5,0 -0.3125,-0.5625 L 37.25,77.1875 35.96875,77.75 l -1.3125,0.59375 -0.375,-0.15625 -0.375,-0.125 0,-1.21875 0,-1.21875 -0.71875,-0.15625 -0.75,-0.15625 0.09375,-0.875 c 0.05244,-0.474877 0.07242,-0.84375 0.03125,-0.84375 z M 89.84375,73.75 89.25,73.78125 l -1.0625,0.0625 0,0.34375 c 0,0.169356 0.303185,0.827476 0.6875,1.46875 0.384306,0.641282 0.71875,1.283432 0.71875,1.4375 0,0.154066 -0.196662,0.473673 -0.40625,0.71875 l -0.375,0.4375 0.3125,0.125 c 0.1776,0.05987 0.495344,0.150925 0.6875,0.21875 0.0075,0.0027 0.02325,-0.0026 0.03125,0 l 0,-2.5625 c -0.1559,-0.360757 -0.25,-0.683684 -0.25,-0.8125 l 0,-0.40625 0.25,-0.125 0,-0.9375 z M 54.625,74 l -0.15625,0.15625 -0.125,0.15625 0.15625,0.34375 0.125,0.40625 0.34375,0 0.34375,0 0,-0.40625 0,-0.34375 L 54.96875,74.15625 54.625,74 z M 60,74.0625 60,74.5 c 0,0.578754 0.421845,1.0625 0.96875,1.0625 l 0.4375,0 -0.21875,-0.5 c -0.13558,-0.267997 -0.496726,-0.606552 -0.75,-0.75 L 60,74.0625 z m -1.5625,0.25 c -0.09841,0 -0.340017,0.228865 -0.5,0.5 l -0.28125,0.46875 0.1875,0 c 0.09841,0 0.277455,-0.197578 0.4375,-0.46875 l 0.3125,-0.5 -0.15625,0 z m -37.125,0.25 c -0.104766,0 -0.344752,0.273348 -0.5625,0.625 l -0.375,0.65625 0.125,0.59375 c 0.07736,0.326121 0.214407,0.59375 0.3125,0.59375 0.09804,0 0.365841,-0.341681 0.59375,-0.75 l 0.4375,-0.71875 -0.15625,-0.5 c -0.08084,-0.269464 -0.270278,-0.5 -0.375,-0.5 z m 5.46875,0.1875 -0.625,1 -0.6875,1.03125 0.15625,1.25 0.1875,1.21875 0.28125,-0.21875 c 0.159649,-0.140208 0.456959,-0.708975 0.6875,-1.25 L 27.21875,76.8125 27,75.75 l -0.21875,-1 z m 25.5,0.125 -0.34375,0.53125 c -0.191159,0.288826 -0.3125,0.592043 -0.3125,0.6875 0,0.207125 0.666153,0.396648 1.15625,0.34375 L 53.125,76.40625 53.1875,75.78125 53.25,75.125 52.78125,75 l -0.5,-0.125 z m -7.6875,0.34375 -0.59375,0.625 -0.59375,0.625 0.5625,0.59375 c 0.312973,0.331172 0.62806,0.78004 0.6875,0.96875 l 0.125,0.34375 0.6875,-0.5625 c 0.395586,-0.298078 0.853126,-0.53125 1,-0.53125 l 0.25,0 0.375,0.90625 0.34375,0.875 0.53125,-0.53125 0.53125,-0.5 0.53125,0 0.5,0 0.125,0.46875 c 0.067,0.271138 0.234711,0.5 0.34375,0.5 0.109071,0 0.349647,-0.289488 0.53125,-0.65625 l 0.3125,-0.65625 -0.6875,-0.71875 -0.71875,-0.6875 -0.65625,0.65625 -0.65625,0.65625 -0.34375,-0.125 -0.3125,-0.125 -0.15625,-0.78125 c -0.08634,-0.415845 -0.272776,-0.78125 -0.375,-0.78125 -0.102255,0 -0.309307,0.202984 -0.46875,0.40625 l -0.28125,0.34375 -0.53125,0 -0.59375,0 -0.21875,-0.65625 -0.25,-0.65625 z M 76.0625,75.375 75.25,75.75 l -0.8125,0.4375 0,0.28125 c -0.0045,0.164831 0.159619,0.709635 0.375,1.1875 l 0.375,0.84375 0.40625,-0.3125 c 0.20098,-0.181528 0.525817,-0.415868 0.75,-0.5 l 0.4375,-0.125 0,-0.40625 c 0,-0.214304 -0.186913,-0.708831 -0.375,-1.09375 L 76.0625,75.375 z m -56.375,0.15625 -0.28125,0.09375 c -0.152374,0.05376 -0.438835,0.366305 -0.6875,0.71875 l -0.28125,0.375 0,1.15625 0.09375,0.40625 0.34375,0 0.34375,0 0.21875,-0.5 0.25,-0.4375 0,-0.9375 0,-0.875 z M 58.84375,75.9375 58.375,76.46875 c -0.256176,0.291032 -0.5,0.650256 -0.5,0.8125 l 0,0.3125 0.5,-0.4375 0.46875,-0.4375 0,-0.375 0,-0.40625 z m -3.21875,0.09375 -0.6875,0.0625 -0.625,0.09375 -0.09375,0.40625 L 54.125,77.0625 54.78125,77 l 0.65625,-0.09375 0.09375,-0.4375 0.09375,-0.4375 z m 5.125,0.5 c -0.409421,0 -0.382538,0.265159 0.0625,0.9375 l 0.375,0.5625 0.34375,0 0.3125,0 0,-0.3125 c 0,-0.409218 -0.720949,-1.1875 -1.09375,-1.1875 z M 24.40625,76.8125 c -0.07942,0.0053 -0.480939,0.402837 -0.84375,0.90625 l -0.625,0.90625 0.125,0.875 c 0.07314,0.474464 0.123645,1.173107 0.125,1.5625 l 0,0.71875 0.375,-0.3125 c 0.199518,-0.175241 0.640687,-0.813839 0.96875,-1.40625 L 25.09375,79 24.8125,77.875 c -0.159925,-0.604564 -0.326824,-1.067438 -0.40625,-1.0625 z m 5.28125,0 c -0.264435,0 -1.375,1.994129 -1.375,2.46875 l 0,0.375 0.75,0.21875 0.75,0.25 0.0625,1.25 c 0.03578,0.677804 0.12989,1.358085 0.1875,1.53125 l 0.125,0.28125 1.125,-0.625 1.15625,-0.59375 0.625,0 0.5625,0 0.25,0.46875 0.21875,0.5 0.4375,0 0.4375,0 1.375,-1.09375 1.375,-1.09375 0.46875,0 0.53125,0 0.28125,0.34375 0.28125,0.375 0.375,0 0.40625,0 L 40.8125,80.75 c 0.416341,-0.400808 0.78125,-0.805309 0.78125,-0.875 0,-0.06967 -0.269487,-0.125 -0.59375,-0.125 l -0.59375,0 -0.125,-0.375 C 40.2075,79.171656 40.005155,79 39.875,79 c -0.130189,0 -0.879654,0.51497 -1.6875,1.125 l -1.46875,1.09375 -0.34375,0 -0.34375,0 L 35.625,80.59375 35.25,80 34.90625,80 C 34.711894,80 34.178726,80.219601 33.75,80.5 L 33,81 32.34375,80.9375 31.6875,80.875 31.625,79.5625 l -0.0625,-1.28125 -0.75,-0.1875 -0.75,-0.25 -0.09375,-0.5 -0.0625,-0.53125 -0.21875,0 z M 52,77.46875 51.6875,77.90625 51.375,78.375 51.75,78.71875 C 51.971066,78.889805 52.284777,79 52.4375,79 l 0.28125,0 0.125,-0.5 0.125,-0.46875 -0.5,-0.28125 L 52,77.46875 z m 7.28125,0.21875 -0.5625,0.59375 C 58.143799,78.852832 57.912026,79.5 58.3125,79.5 c 0.113394,0 0.386875,-0.259648 0.59375,-0.59375 0.206895,-0.334128 0.375,-0.742284 0.375,-0.90625 l 0,-0.3125 z M 43.4375,77.78125 c -0.08862,0 -0.492373,0.340682 -0.84375,0.78125 l -0.625,0.8125 0.53125,0.09375 0.53125,0.0625 0.25,0.65625 c 0.1468,0.36236 0.304322,0.723349 0.34375,0.78125 0.03947,0.05786 0.379692,-0.218294 0.75,-0.59375 l 0.65625,-0.6875 0.40625,0.09375 c 0.459728,0.09561 0.710765,0.548024 0.90625,1.53125 0.07417,0.372785 0.21084,0.65625 0.3125,0.65625 0.101693,0 0.506803,-0.343308 0.875,-0.75 0.368189,-0.406687 0.811254,-0.75 0.96875,-0.75 l 0.28125,0 0.4375,0.6875 0.46875,0.65625 0.28125,-0.625 L 50.25,80.5625 49.5,79.75 48.8125,78.9375 48.09375,79.625 47.4375,80.3125 47.09375,80.15625 c -0.199789,-0.08113 -0.375,-0.275222 -0.375,-0.40625 0,-0.130958 -0.121799,-0.518125 -0.25,-0.875 L 46.25,78.25 l -0.6875,0.5 c -0.371948,0.280251 -0.846956,0.5 -1.0625,0.5 l -0.40625,0 -0.25,-0.75 C 43.698693,78.093312 43.52613,77.78125 43.4375,77.78125 z m 42.65625,0 L 86,78 l -0.125,0.1875 0.6875,1.15625 0.71875,1.125 -0.125,0.65625 L 87,81.78125 85.71875,81.65625 84.4375,81.5 l 0,0.375 c 0,0.200285 0.185715,0.722402 0.40625,1.15625 l 0.375,0.78125 0.125,-0.5625 0.0625,-0.53125 0.53125,-0.15625 0.53125,-0.15625 0.90625,0.28125 0.90625,0.25 0.1875,-0.1875 0.21875,-0.25 -0.75,-1.375 -0.71875,-1.375 0.0625,-0.5625 0.0625,-0.5625 0.53125,-0.0625 0.53125,-0.09375 0,-0.1875 c 0,-0.24701 -0.815888,-0.495484 -1.65625,-0.5 l -0.65625,0 z M 54.40625,78 l 0,0.40625 0,0.4375 0.40625,0.28125 0.40625,0.34375 L 55.40625,79.25 55.625,79.0625 55.53125,78.59375 55.4375,78.15625 54.90625,78.0625 54.40625,78 z m 7,0.6875 L 61.25,78.84375 61.0625,79 l 0.28125,0.625 0.28125,0.625 0.4375,0 0.46875,0 0,-0.1875 c 0,-0.111918 -0.24276,-0.494622 -0.5625,-0.8125 l -0.5625,-0.5625 z M 22,78.96875 l -0.34375,0.3125 c -0.189176,0.166149 -0.526037,0.636885 -0.71875,1.03125 L 20.59375,81.03125 20.875,82.25 c 0.161318,0.666111 0.309344,1.1875 0.34375,1.1875 0.03443,0 0.379342,-0.51212 0.71875,-1.125 l 0.59375,-1.125 -0.15625,-0.875 c -0.08946,-0.504468 -0.217421,-1.015713 -0.28125,-1.125 L 22,78.96875 z m 57.90625,0 -0.15625,0.75 -0.21875,0.71875 -0.6875,0.28125 -0.75,0.25 0.1875,0.5625 c 0.08749,0.308468 0.388229,1.046222 0.65625,1.65625 l 0.46875,1.125 L 79.5,83.5 l 0.0625,-0.8125 0.8125,-0.5 0.8125,-0.5 -0.65625,-1.34375 -0.625,-1.375 z m 8.28125,0.21875 0,0.46875 0,0.46875 0.5625,0.96875 0.5625,1 0,0.5 0,0.53125 L 89,83.4375 88.6875,83.71875 87.5,83.5625 86.3125,83.375 l 0,0.40625 c 0,0.227547 0.185725,0.784906 0.40625,1.21875 l 0.40625,0.78125 0.0625,-0.5625 0.09375,-0.5 0.40625,-0.1875 0.4375,-0.125 1.09375,0.28125 0.625,0.125 0,-2.375 -0.5625,-1.25 0.09375,-0.40625 0.09375,-0.4375 0.375,0 0,-0.96875 -0.125,0 -1.53125,-0.1875 z m -24.25,0.0625 0,0.1875 c 0,0.09326 0.243015,0.516335 0.53125,0.96875 L 65,81.21875 65.59375,81.375 c 0.320249,0.07402 0.775043,0.227061 1.03125,0.34375 0.631416,0.287651 0.657691,0.287518 0.46875,-0.0625 C 67.00226,81.48668 66.562066,80.888633 66.125,80.3125 l -0.8125,-1.0625 -0.6875,0 -0.6875,0 z m -12.125,0.375 -0.3125,0.5 c -0.18476,0.263133 -0.375,0.582507 -0.375,0.75 l 0,0.3125 0.4375,0.125 c 0.224157,0.06202 0.523367,0.109298 0.6875,0.125 l 0.28125,0.03125 0.1875,-0.40625 0.125,-0.34375 -0.53125,-0.5625 -0.5,-0.53125 z m 7.625,0.125 -0.53125,0.625 c -0.301009,0.343697 -0.53125,0.715175 -0.53125,0.84375 0,0.440218 0.346619,0.274027 0.84375,-0.4375 l 0.5,-0.71875 -0.125,-0.1875 -0.15625,-0.125 z m 15.9375,0 0,0.5 0,0.53125 -0.71875,0.28125 -0.71875,0.3125 0.15625,1.46875 0.15625,1.5 -0.40625,0.4375 c -0.209613,0.221814 -0.440002,0.375 -0.5,0.375 -0.06003,0 -0.519538,-0.192495 -1.03125,-0.46875 l -0.90625,-0.53125 -0.25,0.15625 c -0.131594,0.08611 -0.351693,0.424257 -0.46875,0.75 l -0.21875,0.59375 -0.4375,0 -0.5,0 -1.71875,-1.75 -1.71875,-1.6875 -0.46875,0 c -0.265832,0 -0.552543,0.0947 -0.625,0.21875 l -0.125,0.25 0.59375,0.71875 0.5625,0.71875 0.9375,0.15625 0.875,0.125 1.5625,1.875 1.5625,1.84375 0.3125,0 0.3125,0 0.25,-0.71875 0.21875,-0.75 0.5,0 c 0.267021,0 0.85261,0.140395 1.3125,0.34375 0.459896,0.203388 0.92397,0.40625 1.03125,0.40625 l 0.1875,0 0.0625,-2.03125 0.0625,-2.03125 0.71875,-0.15625 0.6875,-0.125 0.0625,-0.40625 0.125,-0.40625 -0.53125,-1.25 -0.5,-1.25 -0.21875,0 -0.1875,0 z M 54.5625,80 l -0.25,0.25 -0.28125,0.25 0.59375,0.46875 0.59375,0.5 0.21875,-0.28125 0.25,-0.25 -0.5625,-0.5 L 54.5625,80 z m -12.25,0.46875 c -0.284488,0.01529 -1.1875,0.949161 -1.1875,1.21875 l 0,0.28125 0.375,0 0.34375,0 0.1875,0.53125 c 0.114921,0.305053 0.265158,0.802879 0.34375,1.0625 l 0.15625,0.46875 0.78125,-0.8125 0.78125,-0.8125 0.5625,0.09375 0.53125,0.0625 0.1875,1.0625 0.1875,1.0625 0.28125,0 c 0.139011,0 0.56173,-0.439234 0.96875,-0.9375 l 0.75,-0.875 0.375,0.15625 0.40625,0.15625 0.25,0.625 0.21875,0.59375 0.21875,0 C 49.230256,84.40625 50,83.205452 50,82.875 c 0,-0.06185 -0.242443,-0.07093 -0.5,0 L 49.03125,83 l -0.25,-0.75 c -0.139287,-0.422866 -0.345903,-0.78125 -0.4375,-0.78125 -0.09163,0 -0.439394,0.337897 -0.8125,0.75 l -0.6875,0.75 -0.46875,-0.0625 -0.46875,-0.0625 -0.09375,-0.5 C 45.76368,82.072617 45.617357,81.545576 45.5,81.21875 l -0.21875,-0.5625 -0.78125,0.8125 -0.78125,0.8125 -0.375,-0.15625 -0.375,-0.125 -0.25,-0.78125 c -0.134558,-0.408474 -0.322722,-0.754512 -0.40625,-0.75 z M 19.6875,80.6875 19.34375,81 C 19.142194,81.176962 18.75036,81.730655 18.5,82.25 l -0.0625,0.125 0,1.875 c 0.07678,0.429228 0.0776,0.914092 0,1.34375 l 0,0.65625 c 0.196436,-0.267702 0.424775,-0.577578 0.78125,-1.15625 l 0.96875,-1.5625 0,-0.65625 0,-0.625 -0.28125,-0.15625 -0.21875,-0.1875 0,-0.59375 0,-0.625 z m 5.125,0.40625 -0.34375,0.5 C 24.270425,81.864886 23.814647,82.600994 23.5,83.25 l -0.53125,1.1875 0.09375,0.21875 c 0.06725,0.115125 0.469354,0.288257 0.90625,0.375 l 0.8125,0.125 0.28125,0.40625 0.28125,0.375 -0.15625,1.28125 -0.125,1.3125 0.15625,0.1875 c 0.08414,0.08903 0.156739,0.15625 0.1875,0.15625 0.03059,0 0.768457,-0.343313 1.625,-0.75 0.856569,-0.406687 1.735358,-0.71875 1.9375,-0.71875 0.464576,0 1.21875,0.687886 1.21875,1.125 l 0,0.34375 0.46875,0 0.46875,0 1.15625,-0.90625 L 33.46875,87 32.625,86.9375 31.78125,86.875 31.59375,86.28125 c -0.113939,-0.317115 -0.329985,-0.61717 -0.4375,-0.6875 l -0.1875,-0.125 -1.59375,0.71875 -1.5625,0.75 -0.5625,-0.15625 -0.625,-0.125 0.09375,-1.6875 0.0625,-1.625 -0.6875,-0.125 c -0.384328,-0.04593 -0.839878,-0.172326 -1,-0.3125 l -0.28125,-0.25 0,-0.78125 0,-0.78125 z m 37.59375,0.0625 -0.53125,0.09375 -0.53125,0.125 0.5,0.65625 0.5,0.6875 0.34375,0 c 0.175286,0 0.366553,-0.128597 0.4375,-0.25 L 63.25,82.25 l -0.40625,-0.53125 -0.4375,-0.5625 z m -24.6875,0.5625 -0.8125,0.71875 -0.78125,0.71875 0.625,0.03125 0.65625,0 0.375,0.625 0.375,0.625 0.9375,-0.90625 L 40,82.5625 39.375,82.5 l -0.59375,-0.09375 -0.125,-0.3125 -0.125,-0.375 -0.40625,0 -0.40625,0 z m 22.09375,0.1875 -0.625,0.46875 -0.5625,0.46875 -0.03125,0.28125 0,0.3125 0.21875,0 c 0.124772,0 0.387858,-0.328641 0.59375,-0.75 l 0.40625,-0.78125 z m 22.5,0 -0.15625,0.125 c -0.09067,0.04541 -0.550864,0.340007 -1.03125,0.65625 l -0.875,0.53125 0,0.34375 c 0,0.164554 0.303187,1.265619 0.6875,2.46875 0.38431,1.203134 0.71875,2.30052 0.71875,2.46875 0,0.159571 -0.15668,0.445133 -0.34375,0.65625 l 1.21875,0 -0.3125,-0.78125 -0.84375,-2.40625 0.09375,-0.59375 0.0625,-0.5625 0.75,-0.25 0.78125,-0.25 0,-0.25 c 0,-0.158781 -0.177427,-0.718347 -0.375,-1.21875 l -0.375,-0.9375 z M 54.46875,82 54.3125,82.15625 c -0.08026,0.08498 -0.125,0.355145 -0.125,0.59375 l 0,0.40625 0.40625,0.09375 c 0.613797,0.173584 1.053115,0.109081 1.15625,-0.21875 L 55.84375,82.75 55.125,82.34375 54.46875,82 z m -3.28125,0.21875 -0.25,0.625 c -0.148664,0.345264 -0.28125,0.688601 -0.28125,0.75 0,0.06141 0.220117,0.09375 0.46875,0.09375 l 0.46875,0 0.125,0.28125 0.15625,0.25 0.28125,-0.09375 0.25,-0.09375 0.0625,-0.5625 0.03125,0 0.0625,-0.5625 -0.40625,-0.34375 c -0.234449,-0.188022 -0.547935,-0.339406 -0.6875,-0.34375 l -0.28125,0 z m 26.65625,0.46875 -0.46875,0.625 -0.5,0.5625 -0.46875,0.125 -0.46875,0.09375 0,1.6875 c -0.0059,0.945288 -0.03685,1.839681 -0.0625,2 l -0.03125,0.3125 -0.46875,0.15625 -0.46875,0.15625 -1.0625,-0.46875 -1.03125,-0.5 -0.15625,0.28125 c -0.0985,0.160669 -0.332925,0.478875 -0.46875,0.75 L 71.9375,89 71.34375,88.9375 70.6875,88.90625 l 0,0.15625 c 0,0.01148 0.05346,0.07166 0.0625,0.09375 l 6.375,0 0,-0.75 0,-2.125 0.78125,-0.25 0.8125,-0.3125 0.09375,-0.25 c 0.04524,-0.14374 -0.153942,-0.864972 -0.4375,-1.5625 L 77.84375,82.6875 z M 41,82.9375 c -0.148508,0 -0.586344,0.360859 -1,0.8125 l -0.75,0.8125 0.75,-0.09375 0.71875,-0.09375 0.1875,0.34375 c 0.111961,0.187008 0.185529,0.627203 0.1875,1 l 0.03125,0.6875 0.28125,0 c 0.14323,0 0.585259,-0.335608 1.03125,-0.75 l 0.84375,-0.75 0.59375,0.0625 0.625,0.0625 0.1875,1 c 0.102886,0.542251 0.209529,1.171658 0.28125,1.375 L 45.125,87.75 45.6875,87.09375 c 0.298698,-0.365386 0.678861,-0.922393 0.875,-1.21875 l 0.34375,-0.5 0.375,0.125 0.34375,0.125 0.34375,0.875 c 0.189685,0.480359 0.455477,0.90625 0.5625,0.90625 0.221643,0 0.96875,-1.344416 0.96875,-1.71875 l 0,-0.21875 -0.4375,0.125 -0.46875,0.125 -0.40625,-0.875 c -0.22042,-0.489027 -0.483423,-0.9375 -0.59375,-0.9375 -0.110321,0 -0.406781,0.370768 -0.625,0.78125 l -0.375,0.75 -0.53125,0.125 -0.53125,0.15625 -0.3125,-0.125 -0.3125,-0.125 L 44.75,84.4375 c -0.08805,-0.551631 -0.214836,-1 -0.28125,-1 -0.06634,0 -0.549205,0.351032 -1.0625,0.78125 L 42.46875,85 42.09375,84.75 41.71875,84.5 41.5,83.71875 41.28125,82.9375 41,82.9375 z m -18.34375,0.03125 -0.21875,0.125 c -0.270009,0.176576 -2.027432,3.588117 -2.03125,3.9375 l 0,0.3125 1.03125,0.15625 1.0625,0.15625 0.25,0.625 0.28125,0.59375 -0.0625,0.28125 1.5,0 0,-1.40625 0,-1.6875 -0.78125,-0.1875 -0.8125,-0.15625 -0.34375,-0.375 -0.375,-0.40625 0.25,-0.96875 0.25,-1 z M 62.6875,83.4375 c -0.177326,0 -0.402483,0.105354 -0.46875,0.21875 l -0.125,0.1875 0.34375,0.53125 0.375,0.5625 0.4375,0 0.46875,0 0,-0.1875 c 0,-0.105376 -0.175563,-0.448708 -0.375,-0.75 L 63,83.4375 l -0.3125,0 z m 21.4375,0.125 -0.09375,0.5 c -0.143231,0.737309 -0.471066,1.068955 -1.25,1.25 l -0.71875,0.15625 0.125,0.5625 c 0.07107,0.299679 0.347511,0.965666 0.5625,1.5 l 0.375,0.9375 0.1875,-0.6875 c 0.103527,-0.39513 0.303202,-0.7951 0.46875,-0.90625 0.165557,-0.111133 0.555517,-0.216646 0.84375,-0.21875 l 0.5,0 0,-0.5 c 0,-0.276546 -0.218623,-0.960517 -0.5,-1.53125 l -0.5,-1.0625 z m -47.375,0.28125 -1.1875,0.9375 C 34.905259,85.291789 34.375,85.8109 34.375,85.9375 l 0,0.21875 0.5625,-0.125 0.5625,-0.1875 0.5625,0.625 c 0.290438,0.35057 0.57666,0.653797 0.65625,0.65625 0.07961,0.0025 0.595337,-0.432064 1.15625,-0.96875 l 1.03125,-0.96875 -0.625,-0.03125 -0.625,0 L 37.21875,84.5 36.75,83.84375 z m 17.4375,0.34375 0,0.375 0,0.4375 0.40625,0.34375 c 0.505941,0.406422 0.911096,0.428806 1.125,0.0625 l 0.15625,-0.3125 -0.59375,-0.4375 c -0.306655,-0.249502 -0.652373,-0.465734 -0.8125,-0.46875 l -0.28125,0 z m 5.5,0.28125 -0.4375,0.15625 -0.40625,0.125 0,0.3125 0,0.375 0.3125,0 0.3125,0 0.09375,-0.5 0.125,-0.46875 z m -8.65625,0.1875 -0.3125,0.40625 c -0.162201,0.234698 -0.28125,0.572566 -0.28125,0.75 l 0,0.34375 0.4375,0 0.46875,0 0.15625,0.25 0.15625,0.28125 0.25,-0.09375 c 0.136167,-0.048 0.304339,-0.333492 0.40625,-0.625 L 52.5,85.4375 l -0.71875,-0.40625 -0.75,-0.375 z m -30.59375,0.15625 -0.5,0.625 c -0.261172,0.338895 -0.850513,1.327136 -1.3125,2.25 l -0.1875,0.40625 0,1.0625 3.59375,0 0.0625,-0.78125 -0.75,0 c -0.411118,0 -0.939729,-0.109686 -1.1875,-0.25 l -0.46875,-0.28125 0,-0.71875 0,-0.75 0.34375,-0.78125 0.40625,-0.78125 z m 45.375,0.21875 0,0.25 c 0,0.129427 0.266932,0.577876 0.59375,1.03125 L 67,87.125 l 0.625,0.03125 c 0.34577,0.0097 0.837543,0.109708 1.09375,0.21875 0.256211,0.109007 0.506432,0.147371 0.5625,0.09375 0.0561,-0.05364 -0.323969,-0.593343 -0.875,-1.1875 l -1,-1.09375 -0.8125,-0.0625 -0.78125,-0.09375 z m 13.90625,0 -0.15625,0.75 -0.125,0.71875 -0.875,0.21875 -0.875,0.21875 0.0625,2.21875 1.40625,0 0.15625,-0.25 0.75,-0.15625 0.6875,-0.15625 -0.09375,-0.8125 c -0.06658,-0.43409 -0.30744,-1.215412 -0.53125,-1.75 l -0.40625,-1 z m 8.46875,0.34375 0,0.375 c 0,0.441793 1.04951,2.875 1.25,2.875 0.0677,0 0.07967,-0.394484 0,-0.84375 l -0.15625,-0.8125 0.40625,-0.3125 0.15625,-0.15625 0,-0.90625 -0.40625,-0.0625 -1.25,-0.15625 z M 40,85.4375 c -0.09025,0 -0.475556,0.312064 -0.84375,0.71875 l -0.6875,0.75 0.59375,0 0.59375,0 0.15625,0.40625 c 0.0778,0.214448 0.15625,0.636675 0.15625,0.96875 l 0,0.59375 0.34375,0.15625 0.34375,0.125 0.9375,-0.875 0.90625,-0.875 0.46875,0 c 0.248258,0 0.51647,0.08643 0.59375,0.21875 0.07731,0.132313 0.205012,0.787707 0.28125,1.46875 l 0,0.0625 1.53125,0 0.75,-1.03125 0.46875,0.0625 0.46875,0.0625 0.4375,0.90625 1.1875,0 0.34375,-0.78125 -0.5625,0 -0.59375,0 -0.34375,-0.90625 -0.375,-0.96875 -0.75,0.90625 c -0.406346,0.487684 -0.901598,0.929866 -1.09375,1 l -0.34375,0.125 -0.375,-0.1875 -0.375,-0.1875 -0.1875,-1.125 -0.15625,-1.09375 -0.28125,0 c -0.152275,0.0058 -0.618987,0.317584 -1.0625,0.71875 l -0.8125,0.75 -0.375,0 c -0.487306,0 -0.825166,-0.443624 -1.03125,-1.3125 C 40.22426,85.721716 40.090242,85.4375 40,85.4375 z m 22.78125,0.5 0,0.25 c 0,0.14444 0.11741,0.456537 0.25,0.71875 l 0.25,0.5 0.6875,0 0.71875,0 -0.40625,-0.75 -0.4375,-0.71875 -0.53125,0 -0.53125,0 z m 23.53125,0.21875 c -0.07828,0 -0.217271,0.260992 -0.34375,0.5625 l -0.25,0.5625 -0.75,0.1875 -0.75,0.21875 0,0.59375 0,0.59375 0.09375,0.28125 1.5625,0 0.375,-0.09375 0.78125,-0.21875 0.125,-0.375 0.15625,-0.375 L 86.90625,87.125 C 86.678289,86.590042 86.390758,86.15625 86.3125,86.15625 z m -32.125,0.25 0,0.4375 0,0.4375 0.5,0.25 c 0.644829,0.335799 0.982209,0.301324 1.0625,-0.15625 L 55.8125,87 55.15625,86.71875 c -0.347484,-0.169422 -0.678697,-0.3125 -0.78125,-0.3125 l -0.1875,0 z m 5.84375,0.0625 -0.625,0.125 c -0.659596,0.133422 -0.730336,0.307808 -0.3125,0.75 0.332211,0.351531 0.6875,0.37867 0.6875,0.0625 0,-0.124458 0.05347,-0.396622 0.125,-0.59375 l 0.125,-0.34375 z m -25.3125,0.4375 -0.9375,0.84375 -0.90625,0.875 0.71875,0 0.78125,0 0.34375,0.53125 1.5,0 c 0.151703,-0.13969 0.275245,-0.242954 0.4375,-0.40625 l 1.09375,-1.09375 -0.875,0.125 -0.84375,0.15625 -0.28125,-0.5 -0.34375,-0.53125 -0.34375,0 -0.34375,0 z M 50.5,87.125 50.25,87.75 C 50.101335,88.095263 50,88.420038 50,88.46875 c 0,0.04872 0.173151,0.03333 0.40625,-0.03125 l 0.40625,-0.09375 0.3125,0.375 c 0.409602,0.522278 0.649351,0.506555 0.96875,-0.125 l 0.25,-0.53125 -0.53125,-0.46875 C 51.509047,87.346776 51.078614,87.128015 50.875,87.125 l -0.375,0 z m 9.96875,0.28125 0,0.34375 0,0.40625 L 60.6875,88 c 0.12811,-0.08382 0.21875,-0.247466 0.21875,-0.375 0,-0.127557 -0.09071,-0.21875 -0.21875,-0.21875 l -0.21875,0 z M 38.8125,87.9375 c -0.151025,0.06352 -0.456579,0.265046 -0.75,0.5625 l -0.625,0.65625 1.96875,0 L 39.34375,89 c -0.173209,-0.532062 -0.373168,-0.994408 -0.4375,-1.0625 -0.01608,-0.01701 -0.04341,-0.02116 -0.09375,0 z m -10,0.15625 -1.40625,0.78125 -0.59375,0.28125 2.6875,0 C 29.48294,89.10166 29.46875,89.062195 29.46875,89 c 0,-0.178789 -0.130731,-0.465348 -0.3125,-0.625 L 28.8125,88.09375 z m 39.84375,0 -1,0.09375 -1.03125,0.0625 0.8125,0.90625 2.25,0 C 69.530608,88.972224 69.350367,88.817437 69.21875,88.6875 l -0.5625,-0.59375 z m -14.3125,0.21875 -0.1875,0.34375 -0.21875,0.3125 0.25,0.1875 1.59375,0 L 55.8125,89 55.0625,88.65625 54.34375,88.3125 z m 5.65625,0 -0.34375,0.3125 -0.34375,0.28125 0.09375,0.25 0.6875,0 c 0.0095,-0.02703 0.02237,-0.03286 0.03125,-0.0625 l 0.15625,-0.5 L 60.125,88.4375 60,88.3125 z m -17.6875,0.0625 -0.59375,0.78125 1.40625,0 C 43.11072,89.07831 43.10957,88.999936 43.09375,88.9375 l -0.15625,-0.5625 -0.3125,0 -0.3125,0 z m 20.9375,0 0.25,0.5 0.125,0.28125 1.3125,0 c -0.09346,-0.134021 -0.153734,-0.225133 -0.25,-0.34375 l -0.34375,-0.4375 -0.5625,0 -0.53125,0 z m 24.71875,0 -0.09375,0.53125 -0.03125,0.25 0.90625,0 C 88.515257,88.715812 88.287067,88.375 88.1875,88.375 l -0.21875,0 z m -26.5,0.65625 -0.34375,0.125 0.28125,0 0.0625,-0.125 z M 46.5,89.09375 c -0.01896,0 -0.05601,0.03241 -0.09375,0.0625 l 0.21875,0 c -0.04373,-0.04694 -0.09866,-0.0625 -0.125,-0.0625 z"
     inkscape:connector-curvature="0"
     id="path3850"
     style="fill:#3f51b5;fill-opacity:1;stroke:none" />
</svg>
