<?xml version="1.0" encoding="UTF-8" standalone="no"?>
<!DOCTYPE svg PUBLIC "-//W3C//DTD SVG 1.0//EN" "http://www.w3.org/TR/2001/PR-SVG-20010719/DTD/svg10.dtd">
<svg width="450" height="400" viewBox="18 14 405 368" xmlns="http://www.w3.org/2000/svg" xmlns:xlink="http://www.w3.org/1999/xlink">
  <path style="fill: none; fill-opacity:0; stroke-width: 2; stroke: #000000" d="M 420 80 C 292,26.6666 148,26.6666 20,80"/>
  <line style="fill: none; fill-opacity:0; stroke-width: 2; stroke: #000000" x1="220" y1="40" x2="220" y2="380"/>
  <line style="fill: none; fill-opacity:0; stroke-width: 2; stroke: #000000" x1="100" y1="40" x2="220" y2="380"/>
  <text font-size="12.8" style="fill: #000000;text-anchor:start;font-family:sans-serif;font-style:normal;font-weight:normal" x="228" y="84">
    <tspan x="228" y="84">R</tspan>
  </text>
  <line style="fill: none; fill-opacity:0; stroke-width: 2; stroke: #000000" x1="400" y1="20" x2="220" y2="380"/>
  <line style="fill: none; fill-opacity:0; stroke-width: 2; stroke: #000000" x1="100" y1="40" x2="392" y2="39"/>
  <text font-size="12.8" style="fill: #000000;text-anchor:start;font-family:sans-serif;font-style:normal;font-weight:normal" x="78" y="37">
    <tspan x="78" y="37">Hv</tspan>
  </text>
  <text font-size="12.8" style="fill: #000000;text-anchor:start;font-family:sans-serif;font-style:normal;font-weight:normal" x="409" y="27">
    <tspan x="409" y="27">Hc</tspan>
  </text>
  <text font-size="12.8" style="fill: #000000;text-anchor:start;font-family:sans-serif;font-style:normal;font-weight:normal" x="399" y="46">
    <tspan x="399" y="46">X</tspan>
  </text>
  <text font-size="12.8" style="fill: #000000;text-anchor:start;font-family:sans-serif;font-style:normal;font-weight:normal" x="135" y="30">
    <tspan x="135" y="30">Zv</tspan>
  </text>
  <text font-size="12.8" style="fill: #000000;text-anchor:start;font-family:sans-serif;font-style:normal;font-weight:normal" x="292" y="30">
    <tspan x="292" y="30">Zc</tspan>
  </text>
  <text font-size="12.8" style="fill: #000000;text-anchor:start;font-family:sans-serif;font-style:normal;font-weight:normal" x="247" y="177">
    <tspan x="247" y="177">Anc</tspan>
  </text>
  <text font-size="12.8" style="fill: #000000;text-anchor:start;font-family:sans-serif;font-style:normal;font-weight:normal" x="166" y="116">
    <tspan x="166" y="116">Anh</tspan>
  </text>
  <path style="fill: none; fill-opacity:0; stroke-width: 2; stroke: #000000" d="M 220,115 A 159.771,159.771 0 0 0 133,137"/>
  <path style="fill: none; fill-opacity:0; stroke-width: 2; stroke: #000000" d="M 310,200 A 187.505,187.505 0 0 0 154,194"/>
</svg>
